<svg width="65" height="65" viewBox="0 0 65 65" fill="none" xmlns="http://www.w3.org/2000/svg">
<g clip-path="url(#clip0_242_2355)">
<path d="M64.1526 63.2476L2.29834 1.39332C2.00495 1.09993 1.56316 1.01208 1.17989 1.1709C0.796361 1.32959 0.546265 1.7041 0.546265 2.1191V63.9733C0.546265 64.5403 1.00583 64.9998 1.57255 64.9998H9.78334H17.9941H26.2049H34.4157H42.6265H50.8373H63.427C63.8422 64.9998 64.2163 64.7498 64.3752 64.3661C64.5339 63.9825 64.4461 63.5412 64.1526 63.2476ZM51.8634 62.9469V59.5942C51.8634 59.0273 51.4039 58.5679 50.8371 58.5679C50.2703 58.5679 49.8109 59.0274 49.8109 59.5942V62.9469H43.6526V59.5942C43.6526 59.0273 43.1931 58.5679 42.6264 58.5679C42.0595 58.5679 41.6001 59.0274 41.6001 59.5942V62.9469H35.442V59.5942C35.442 59.0273 34.9824 58.5679 34.4157 58.5679C33.8489 58.5679 33.3894 59.0274 33.3894 59.5942V62.9469H27.2313V59.5942C27.2313 59.0273 26.7718 58.5679 26.205 58.5679C25.6383 58.5679 25.1788 59.0274 25.1788 59.5942V62.9469H19.0207V59.5942C19.0207 59.0273 18.5611 58.5679 17.9944 58.5679C17.4277 58.5679 16.9681 59.0274 16.9681 59.5942V62.9469H10.8097V59.5942C10.8097 59.0273 10.3502 58.5679 9.78346 58.5679C9.21675 58.5679 8.75718 59.0274 8.75718 59.5942V62.9469H2.59896V4.59684L60.949 62.9469H51.8634Z" fill="black"/>
<path d="M44.4456 55.0355L10.5079 21.2144C10.2142 20.9217 9.77283 20.8345 9.38981 20.9935C9.0068 21.1526 8.75708 21.5267 8.75708 21.9415V55.7625C8.75708 56.3295 9.21665 56.7888 9.78337 56.7888H43.7211C44.1366 56.7888 44.511 56.5384 44.6697 56.1544C44.8284 55.7705 44.7399 55.3288 44.4456 55.0355ZM10.8098 54.7361V24.4132L41.2373 54.7361H10.8098Z" fill="black"/>
<path d="M23.0989 27.6682L7.77218 12.3415C7.37139 11.9408 6.72152 11.9408 6.32086 12.3415C5.92007 12.7424 5.92007 13.3922 6.32086 13.7931L21.6476 29.1198C21.8479 29.3202 22.1107 29.4203 22.3733 29.4203C22.6358 29.4203 22.8986 29.3202 23.0989 29.1198C23.4997 28.7188 23.4997 28.069 23.0989 27.6682Z" fill="black"/>
<path d="M28.5726 33.6888L25.8357 30.9519C25.4349 30.5512 24.785 30.5512 24.3843 30.9519C23.9835 31.3528 23.9835 32.0025 24.3843 32.4034L27.1213 35.1404C27.3216 35.3407 27.5844 35.4409 27.847 35.4409C28.1095 35.4409 28.3723 35.3407 28.5726 35.1404C28.9734 34.7394 28.9734 34.0896 28.5726 33.6888Z" fill="black"/>
<path d="M64.153 34.9865L56.4115 27.2457L32.7264 3.56054C32.7258 3.56003 32.7251 3.5594 32.7246 3.55876L32.7217 3.55584C32.7168 3.55102 32.7116 3.54721 32.7069 3.54251C32.6875 3.52385 32.6678 3.50544 32.647 3.48831C32.6379 3.48069 32.628 3.47409 32.6186 3.46685C32.6013 3.45377 32.5842 3.44044 32.566 3.42826C32.5533 3.41975 32.54 3.41239 32.527 3.40439C32.5115 3.395 32.4962 3.38522 32.4801 3.37659C32.4641 3.36795 32.4477 3.36072 32.4313 3.35323C32.4174 3.34663 32.4038 3.33964 32.3894 3.3338C32.3696 3.32555 32.3493 3.3187 32.3291 3.31197C32.3174 3.30803 32.3063 3.30346 32.2945 3.29978C32.2696 3.29229 32.2442 3.2862 32.2188 3.28061C32.2114 3.27896 32.2045 3.27668 32.197 3.27515L32.1924 3.27414C32.192 3.27401 32.1916 3.27401 32.1911 3.27388L18.6633 0.568522C18.6255 0.560397 18.5871 0.55443 18.5482 0.550749C18.5427 0.550241 18.5374 0.550241 18.532 0.549733C18.5233 0.549098 18.5144 0.548972 18.5056 0.548337C18.4868 0.547321 18.4683 0.545671 18.4494 0.545925C18.4368 0.545925 18.4244 0.54694 18.4118 0.547321C18.4017 0.547702 18.3915 0.548337 18.3815 0.548972C18.3761 0.549352 18.3708 0.549352 18.3656 0.549733C18.3606 0.550114 18.3557 0.549987 18.3507 0.550495C18.3297 0.552526 18.309 0.555954 18.2882 0.559255C18.2807 0.560524 18.2729 0.561413 18.2654 0.562809C18.1871 0.577028 18.1113 0.600006 18.0395 0.631364C18.0335 0.633903 18.0275 0.637077 18.0216 0.63987C18.0009 0.649264 17.9802 0.658786 17.9602 0.669576C17.9517 0.674274 17.9439 0.679606 17.9355 0.684303C17.9269 0.689254 17.9183 0.694586 17.9098 0.699791C17.8985 0.706774 17.8867 0.713375 17.8757 0.720865C17.8636 0.72899 17.8525 0.738004 17.8408 0.746637C17.8384 0.748414 17.836 0.750191 17.8337 0.751969C17.8269 0.757047 17.82 0.761744 17.8134 0.766822C17.8075 0.771519 17.8014 0.775709 17.7958 0.780533C17.7862 0.788277 17.7777 0.79691 17.7683 0.805162C17.7525 0.819127 17.7366 0.833092 17.7216 0.847945C17.7155 0.854039 17.7099 0.860767 17.7041 0.866988C17.687 0.884888 17.6703 0.903169 17.6545 0.922212C17.6514 0.926021 17.6488 0.93021 17.6457 0.934019L17.6454 0.9344C17.6399 0.941382 17.6347 0.948491 17.6294 0.955601C17.6177 0.970962 17.6062 0.986069 17.5954 1.00232C17.5941 1.0041 17.5932 1.006 17.592 1.00791C17.5867 1.01603 17.5821 1.02454 17.577 1.03253C17.5719 1.04079 17.5668 1.04878 17.5621 1.05704C17.5564 1.06707 17.5502 1.07671 17.5447 1.087C17.5431 1.09004 17.5418 1.09322 17.5404 1.09614C17.5323 1.11163 17.5248 1.12762 17.5176 1.14362C17.5146 1.14984 17.5113 1.15581 17.5087 1.1619C17.5068 1.16647 17.5045 1.17079 17.5025 1.17536C17.4889 1.20747 17.4773 1.24036 17.467 1.27387C17.4667 1.27539 17.4664 1.27704 17.4658 1.27857C17.4552 1.31373 17.4468 1.34992 17.4401 1.38622C17.4383 1.39562 17.4372 1.40539 17.4358 1.41479C17.4329 1.43383 17.4295 1.45262 17.4277 1.47192C17.4267 1.48233 17.4267 1.49248 17.426 1.50289C17.4253 1.51407 17.4246 1.52524 17.4242 1.53641C17.4239 1.54834 17.4229 1.56015 17.4229 1.57208C17.4229 1.59036 17.4244 1.60852 17.4253 1.62667C17.4258 1.63645 17.4259 1.64597 17.4268 1.65574C17.4272 1.6612 17.4273 1.66666 17.4278 1.67212C17.4315 1.70945 17.4369 1.74626 17.4447 1.7827L20.1508 15.3136C20.1511 15.3148 20.1513 15.316 20.1514 15.3172L20.1521 15.3204C20.1559 15.3398 20.1612 15.3586 20.1662 15.3777C20.1718 15.3993 20.1781 15.4206 20.1851 15.4418C20.1916 15.4613 20.1979 15.481 20.2055 15.4999C20.2101 15.5111 20.2154 15.522 20.2203 15.5331C20.2284 15.5513 20.2364 15.5696 20.2454 15.5873C20.2508 15.5981 20.2572 15.6085 20.263 15.6191C20.2729 15.6369 20.283 15.6544 20.294 15.6714C20.3004 15.6813 20.307 15.691 20.3137 15.7008C20.3257 15.7183 20.3383 15.7354 20.3514 15.7521C20.3583 15.7608 20.3651 15.7695 20.3722 15.778C20.3871 15.7957 20.4027 15.8129 20.4189 15.8295C20.4239 15.8346 20.4279 15.84 20.4329 15.845L44.1226 39.5346L51.8638 47.2757C52.0642 47.476 52.327 47.5762 52.5895 47.5762C52.852 47.5762 53.1148 47.476 53.3151 47.2757L64.1527 36.4382C64.3453 36.2456 64.4533 35.9846 64.4533 35.7124C64.4533 35.4403 64.3456 35.1792 64.153 34.9865ZM31.996 5.73321L54.2342 27.9714L52.2022 30.0034L29.964 7.76521L31.996 5.73321ZM50.7507 31.455L48.3316 33.874L26.0933 11.6357L27.3015 10.4275C27.3019 10.4272 27.3026 10.4268 27.3029 10.4263L28.5125 9.21666L50.7507 31.455ZM20.2404 5.29636L19.7573 2.88058L20.4326 3.01566L22.1732 3.36377L20.2404 5.29636ZM20.7244 7.71557L24.5924 3.84758L29.9144 4.91195L25.8515 8.97469C25.8511 8.97507 25.8507 8.97571 25.8502 8.97609L23.9175 10.9088C23.9171 10.9092 23.9165 10.9096 23.9161 10.9101L21.7886 13.0376L20.7244 7.71557ZM22.6099 15.1195L24.6419 13.0874L46.8802 35.3255L44.8482 37.3575L22.6099 15.1195ZM52.5892 45.0988L46.2995 38.8091L49.0572 36.0514L55.6855 29.4231L61.9752 35.7128L52.5892 45.0988Z" fill="black"/>
<path d="M58.6788 35.3314L55.942 32.5944C55.5413 32.1938 54.8914 32.1938 54.4905 32.5944C54.0897 32.9954 54.0897 33.6451 54.4905 34.046L57.2275 36.783C57.4278 36.9833 57.6906 37.0835 57.9532 37.0835C58.2157 37.0835 58.4785 36.9833 58.6788 36.783C59.0796 36.3819 59.0796 35.7322 58.6788 35.3314Z" fill="black"/>
<path d="M64.1524 12.7121L56.4114 4.97104L52.5408 1.10025C51.0736 -0.366814 48.6862 -0.366687 47.2187 1.10025L43.7351 4.58383C42.2678 6.05128 42.2678 8.43862 43.7351 9.90606L47.6058 13.7766L55.3469 21.5178C55.5393 21.7102 55.8003 21.8183 56.0725 21.8183C56.3447 21.8183 56.6058 21.7101 56.7982 21.5178L64.1523 14.1637C64.5532 13.7628 64.5532 13.113 64.1524 12.7121ZM45.1868 8.45436C44.5198 7.78748 44.5198 6.70229 45.1868 6.03553L48.6703 2.55195C49.3373 1.88494 50.4225 1.88494 51.0895 2.55195L54.2344 5.69682L48.3318 11.5994L45.1868 8.45436ZM56.0728 19.3405L49.7832 13.0507L55.6857 7.14827L61.9754 13.4379L56.0728 19.3405Z" fill="black"/>
<path d="M59.508 12.7124L56.4116 9.61593C56.0108 9.21526 55.3609 9.21526 54.9603 9.61593C54.5595 10.0168 54.5595 10.6666 54.9603 11.0675L58.0566 14.164C58.257 14.3643 58.5198 14.4645 58.7823 14.4645C59.0448 14.4645 59.3076 14.3643 59.508 14.164C59.9087 13.7631 59.9087 13.1133 59.508 12.7124Z" fill="black"/>
</g>
<defs>
<clipPath id="clip0_242_2355">
<rect width="65" height="65" fill="white"/>
</clipPath>
</defs>
</svg>
