<svg width="65" height="65" viewBox="0 0 65 65" fill="none" xmlns="http://www.w3.org/2000/svg">
<path d="M7.90845 42.8679H56.0299V27.2188H7.90845V42.8679ZM12.1003 35.5464H16.292V39.7381H12.1003V35.5464ZM21.5457 39.7381H17.354V35.5464H21.5457V39.7381ZM27.8053 35.5464H31.997V39.7381H27.8053V35.5464ZM37.1949 39.7381H33.0032V35.5464H37.1949V39.7381ZM42.4484 35.5464H46.6401V39.7381H42.4484V35.5464ZM51.8381 39.7381H47.6464V35.5464H51.8381V39.7381ZM51.8381 34.5403H47.6464V30.3486H51.8381V34.5403ZM42.4484 30.3486H46.6401V34.5403H42.4484V30.3486ZM37.1949 34.5403H33.0032V30.3486H37.1949V34.5403ZM27.8053 30.3486H31.997V34.5403H27.8053V30.3486ZM21.5457 34.5403H17.354V30.3486H21.5457V34.5403ZM12.1003 30.3486H16.292V34.5403H12.1003V30.3486Z" fill="black"/>
<path d="M7.90845 26.1563H56.0299V10.4512H7.90845V26.1563ZM12.1003 18.8347H16.292V23.0264H12.1003V18.8347ZM21.5457 23.0264H17.354V18.8347H21.5457V23.0264ZM27.8053 18.8347H31.997V23.0264H27.8053V18.8347ZM37.1949 23.0264H33.0032V18.8347H37.1949V23.0264ZM42.4484 18.8347H46.6401V23.0264H42.4484V18.8347ZM51.8381 23.0264H47.6464V18.8347H51.8381V23.0264ZM51.8381 17.7728H47.6464V13.5811H51.8381V17.7728ZM42.4484 13.5811H46.6401V17.7728H42.4484V13.5811ZM37.1949 17.7728H33.0032V13.5811H37.1949V17.7728ZM27.8053 13.5811H31.997V17.7728H27.8053V13.5811ZM21.5457 17.7728H17.354V13.5811H21.5457V17.7728ZM12.1003 13.5811H16.292V17.7728H12.1003V13.5811Z" fill="black"/>
<path d="M7.90845 44.041V58.6842V59.7461V64.9997H40.3247H53.9059H55.9739V59.7461V58.6842V44.041H7.90845ZM16.292 56.6162H12.1003V52.4245H16.292V56.6162ZM16.292 51.3624H12.1003V47.1707H16.292V51.3624ZM21.5457 56.6162H17.354V52.4245H21.5457V56.6162ZM21.5457 51.3624H17.354V47.1707H21.5457V51.3624ZM31.997 56.6162H27.8053V52.4245H31.997V56.6162ZM31.997 51.3624H27.8053V47.1707H31.997V51.3624ZM37.1949 56.6162H33.0032V52.4245H37.1949V56.6162ZM37.1949 51.3624H33.0032V47.1707H37.1949V51.3624ZM42.4484 47.1707H51.8381V58.7401H42.4484V47.1707ZM53.9618 63.1553H40.3247V61.5903H42.3924V60.0253H51.7821V61.5903H53.8498V63.1553H53.9618Z" fill="black"/>
<path d="M60.2215 0H4.77856V9.3895H60.2215V0Z" fill="black"/>
</svg>
