<svg width="65" height="65" viewBox="0 0 65 65" fill="none" xmlns="http://www.w3.org/2000/svg">
<g clip-path="url(#clip0_242_2238)">
<path d="M15.1667 15.1667V0H0V15.1667H15.1667Z" fill="black"/>
<path d="M49.8333 0V7.58333V15.1667H57.4166H64.9999V0H49.8333ZM62.8333 7.13483L56.9681 13H53.5318L62.8333 3.6985V7.13483ZM51.9999 8.03183L57.8651 2.16667H61.3014L51.9999 11.4682V8.03183ZM54.8014 2.16667L51.9999 4.96817V2.16667H54.8014ZM60.0318 13L62.8333 10.1985V13H60.0318Z" fill="black"/>
<path d="M15.1667 49.833H7.58333H0V64.9997H15.1667V57.4163V49.833Z" fill="black"/>
<path d="M49.8333 49.833V64.9997H64.9999V49.833H49.8333Z" fill="black"/>
<path d="M27.0833 8.66667C27.6816 8.66667 28.1667 8.18164 28.1667 7.58333C28.1667 6.98502 27.6816 6.5 27.0833 6.5C26.485 6.5 26 6.98502 26 7.58333C26 8.18164 26.485 8.66667 27.0833 8.66667Z" fill="black"/>
<path d="M20.5833 58.4997C21.1816 58.4997 21.6667 58.0146 21.6667 57.4163C21.6667 56.818 21.1816 56.333 20.5833 56.333C19.985 56.333 19.5 56.818 19.5 57.4163C19.5 58.0146 19.985 58.4997 20.5833 58.4997Z" fill="black"/>
<path d="M24.9166 58.4997C25.5149 58.4997 25.9999 58.0146 25.9999 57.4163C25.9999 56.818 25.5149 56.333 24.9166 56.333C24.3183 56.333 23.8333 56.818 23.8333 57.4163C23.8333 58.0146 24.3183 58.4997 24.9166 58.4997Z" fill="black"/>
<path d="M22.7501 8.66667C23.3484 8.66667 23.8334 8.18164 23.8334 7.58333C23.8334 6.98502 23.3484 6.5 22.7501 6.5C22.1518 6.5 21.6667 6.98502 21.6667 7.58333C21.6667 8.18164 22.1518 8.66667 22.7501 8.66667Z" fill="black"/>
<path d="M18.4166 8.66667C19.0149 8.66667 19.4999 8.18164 19.4999 7.58333C19.4999 6.98502 19.0149 6.5 18.4166 6.5C17.8183 6.5 17.3333 6.98502 17.3333 7.58333C17.3333 8.18164 17.8183 8.66667 18.4166 8.66667Z" fill="black"/>
<path d="M16.2501 58.4997C16.8484 58.4997 17.3334 58.0146 17.3334 57.4163C17.3334 56.818 16.8484 56.333 16.2501 56.333C15.6518 56.333 15.1667 56.818 15.1667 57.4163C15.1667 58.0146 15.6518 58.4997 16.2501 58.4997Z" fill="black"/>
<path d="M7.58333 49.8337C8.18164 49.8337 8.66667 49.3486 8.66667 48.7503C8.66667 48.152 8.18164 47.667 7.58333 47.667C6.98502 47.667 6.5 48.152 6.5 48.7503C6.5 49.3486 6.98502 49.8337 7.58333 49.8337Z" fill="black"/>
<path d="M7.58333 45.4997C8.18164 45.4997 8.66667 45.0146 8.66667 44.4163C8.66667 43.818 8.18164 43.333 7.58333 43.333C6.98502 43.333 6.5 43.818 6.5 44.4163C6.5 45.0146 6.98502 45.4997 7.58333 45.4997Z" fill="black"/>
<path d="M7.58333 36.8337C8.18164 36.8337 8.66667 36.3486 8.66667 35.7503C8.66667 35.152 8.18164 34.667 7.58333 34.667C6.98502 34.667 6.5 35.152 6.5 35.7503C6.5 36.3486 6.98502 36.8337 7.58333 36.8337Z" fill="black"/>
<path d="M7.58333 19.4997C8.18164 19.4997 8.66667 19.0146 8.66667 18.4163C8.66667 17.818 8.18164 17.333 7.58333 17.333C6.98502 17.333 6.5 17.818 6.5 18.4163C6.5 19.0146 6.98502 19.4997 7.58333 19.4997Z" fill="black"/>
<path d="M7.58333 41.1667C8.18164 41.1667 8.66667 40.6816 8.66667 40.0833C8.66667 39.485 8.18164 39 7.58333 39C6.98502 39 6.5 39.485 6.5 40.0833C6.5 40.6816 6.98502 41.1667 7.58333 41.1667Z" fill="black"/>
<path d="M7.58333 23.8337C8.18164 23.8337 8.66667 23.3486 8.66667 22.7503C8.66667 22.152 8.18164 21.667 7.58333 21.667C6.98502 21.667 6.5 22.152 6.5 22.7503C6.5 23.3486 6.98502 23.8337 7.58333 23.8337Z" fill="black"/>
<path d="M7.58333 28.1667C8.18164 28.1667 8.66667 27.6816 8.66667 27.0833C8.66667 26.485 8.18164 26 7.58333 26C6.98502 26 6.5 26.485 6.5 27.0833C6.5 27.6816 6.98502 28.1667 7.58333 28.1667Z" fill="black"/>
<path d="M7.58333 32.4997C8.18164 32.4997 8.66667 32.0146 8.66667 31.4163C8.66667 30.818 8.18164 30.333 7.58333 30.333C6.98502 30.333 6.5 30.818 6.5 31.4163C6.5 32.0146 6.98502 32.4997 7.58333 32.4997Z" fill="black"/>
<path d="M57.4166 34.6667C58.0149 34.6667 58.4999 34.1816 58.4999 33.5833C58.4999 32.985 58.0149 32.5 57.4166 32.5C56.8183 32.5 56.3333 32.985 56.3333 33.5833C56.3333 34.1816 56.8183 34.6667 57.4166 34.6667Z" fill="black"/>
<path d="M29.2501 58.4997C29.8484 58.4997 30.3334 58.0146 30.3334 57.4163C30.3334 56.818 29.8484 56.333 29.2501 56.333C28.6518 56.333 28.1667 56.818 28.1667 57.4163C28.1667 58.0146 28.6518 58.4997 29.2501 58.4997Z" fill="black"/>
<path d="M57.4166 30.3337C58.0149 30.3337 58.4999 29.8486 58.4999 29.2503C58.4999 28.652 58.0149 28.167 57.4166 28.167C56.8183 28.167 56.3333 28.652 56.3333 29.2503C56.3333 29.8486 56.8183 30.3337 57.4166 30.3337Z" fill="black"/>
<path d="M57.4166 38.9997C58.0149 38.9997 58.4999 38.5146 58.4999 37.9163C58.4999 37.318 58.0149 36.833 57.4166 36.833C56.8183 36.833 56.3333 37.318 56.3333 37.9163C56.3333 38.5146 56.8183 38.9997 57.4166 38.9997Z" fill="black"/>
<path d="M57.4166 21.6667C58.0149 21.6667 58.4999 21.1816 58.4999 20.5833C58.4999 19.985 58.0149 19.5 57.4166 19.5C56.8183 19.5 56.3333 19.985 56.3333 20.5833C56.3333 21.1816 56.8183 21.6667 57.4166 21.6667Z" fill="black"/>
<path d="M57.4166 25.9997C58.0149 25.9997 58.4999 25.5146 58.4999 24.9163C58.4999 24.318 58.0149 23.833 57.4166 23.833C56.8183 23.833 56.3333 24.318 56.3333 24.9163C56.3333 25.5146 56.8183 25.9997 57.4166 25.9997Z" fill="black"/>
<path d="M57.4166 47.6667C58.0149 47.6667 58.4999 47.1816 58.4999 46.5833C58.4999 45.985 58.0149 45.5 57.4166 45.5C56.8183 45.5 56.3333 45.985 56.3333 46.5833C56.3333 47.1816 56.8183 47.6667 57.4166 47.6667Z" fill="black"/>
<path d="M48.7501 8.66667C49.3484 8.66667 49.8334 8.18164 49.8334 7.58333C49.8334 6.98502 49.3484 6.5 48.7501 6.5C48.1518 6.5 47.6667 6.98502 47.6667 7.58333C47.6667 8.18164 48.1518 8.66667 48.7501 8.66667Z" fill="black"/>
<path d="M57.4166 17.3337C58.0149 17.3337 58.4999 16.8486 58.4999 16.2503C58.4999 15.652 58.0149 15.167 57.4166 15.167C56.8183 15.167 56.3333 15.652 56.3333 16.2503C56.3333 16.8486 56.8183 17.3337 57.4166 17.3337Z" fill="black"/>
<path d="M57.4166 43.3337C58.0149 43.3337 58.4999 42.8486 58.4999 42.2503C58.4999 41.652 58.0149 41.167 57.4166 41.167C56.8183 41.167 56.3333 41.652 56.3333 42.2503C56.3333 42.8486 56.8183 43.3337 57.4166 43.3337Z" fill="black"/>
<path d="M37.9166 58.4997C38.5149 58.4997 38.9999 58.0146 38.9999 57.4163C38.9999 56.818 38.5149 56.333 37.9166 56.333C37.3183 56.333 36.8333 56.818 36.8333 57.4163C36.8333 58.0146 37.3183 58.4997 37.9166 58.4997Z" fill="black"/>
<path d="M35.7501 8.66667C36.3484 8.66667 36.8334 8.18164 36.8334 7.58333C36.8334 6.98502 36.3484 6.5 35.7501 6.5C35.1518 6.5 34.6667 6.98502 34.6667 7.58333C34.6667 8.18164 35.1518 8.66667 35.7501 8.66667Z" fill="black"/>
<path d="M33.5833 58.4997C34.1816 58.4997 34.6667 58.0146 34.6667 57.4163C34.6667 56.818 34.1816 56.333 33.5833 56.333C32.985 56.333 32.5 56.818 32.5 57.4163C32.5 58.0146 32.985 58.4997 33.5833 58.4997Z" fill="black"/>
<path d="M31.4166 8.66667C32.0149 8.66667 32.4999 8.18164 32.4999 7.58333C32.4999 6.98502 32.0149 6.5 31.4166 6.5C30.8183 6.5 30.3333 6.98502 30.3333 7.58333C30.3333 8.18164 30.8183 8.66667 31.4166 8.66667Z" fill="black"/>
<path d="M42.2501 56.333C41.6423 56.333 41.1667 56.8205 41.1667 57.4163C41.1667 58.0122 41.6423 58.4997 42.2501 58.4997C42.8459 58.4997 43.3334 58.0122 43.3334 57.4163C43.3334 56.8205 42.8459 56.333 42.2501 56.333Z" fill="black"/>
<path d="M44.4166 8.66667C45.0149 8.66667 45.4999 8.18164 45.4999 7.58333C45.4999 6.98502 45.0149 6.5 44.4166 6.5C43.8183 6.5 43.3333 6.98502 43.3333 7.58333C43.3333 8.18164 43.8183 8.66667 44.4166 8.66667Z" fill="black"/>
<path d="M40.0833 8.66667C40.6816 8.66667 41.1667 8.18164 41.1667 7.58333C41.1667 6.98502 40.6816 6.5 40.0833 6.5C39.485 6.5 39 6.98502 39 7.58333C39 8.18164 39.485 8.66667 40.0833 8.66667Z" fill="black"/>
<path d="M46.5833 58.4997C47.1816 58.4997 47.6667 58.0146 47.6667 57.4163C47.6667 56.818 47.1816 56.333 46.5833 56.333C45.985 56.333 45.5 56.818 45.5 57.4163C45.5 58.0146 45.985 58.4997 46.5833 58.4997Z" fill="black"/>
</g>
<defs>
<clipPath id="clip0_242_2238">
<rect width="65" height="65" fill="white"/>
</clipPath>
</defs>
</svg>
