<svg width="65" height="48" viewBox="0 0 65 48" fill="none" xmlns="http://www.w3.org/2000/svg">
<path d="M63.9844 0H1.01562C0.453984 0 0 0.407161 0 0.908841V46.3509C0 46.8526 0.453984 47.2597 1.01562 47.2597H63.9844C64.546 47.2597 65 46.8526 65 46.3509V0.908841C65 0.407161 64.546 0 63.9844 0ZM26.4062 27.2652C25.4414 27.2652 24.3852 26.2273 23.267 25.1285C21.6846 23.5735 19.891 21.8122 17.2656 21.8122C15.4619 21.8122 13.9841 22.6056 12.6811 23.3045C11.4989 23.9389 10.3837 24.5387 9.14062 24.5387H5.77281C7.87719 20.059 10.0313 12.8047 10.1461 1.81768H54.8549C54.927 8.79939 55.8218 14.277 57.007 18.4885C55.7162 18.9121 54.7229 19.7137 53.7601 20.4989C52.3595 21.6413 51.0372 22.721 48.75 22.721C46.3379 22.721 45.4076 24.1288 44.6601 25.2594C43.6963 26.7181 42.9965 27.7714 38.9513 26.4136C36.3025 25.5248 32.9113 25.9701 28.8803 27.7042C28.1653 27.4397 27.3579 27.2652 26.4062 27.2652ZM4.84453 26.3564H9.14062C10.9454 26.3564 12.4221 25.563 13.7262 24.8632C14.9084 24.2288 16.0235 23.6299 17.2656 23.6299C18.9942 23.6299 20.4029 25.014 21.7648 26.3527C23.1309 27.6951 24.5436 29.0829 26.4062 29.0829C28.081 29.0829 29.1291 29.8327 30.3418 30.7015C31.6631 31.6467 33.1591 32.7183 35.5469 32.7183C38.4952 32.7183 41.2161 33.6453 43.158 34.5359H4.26969C3.43789 32.5238 2.63961 30.9333 2.22117 30.1381C2.78383 29.5201 3.76187 28.3067 4.84453 26.3564ZM60.0184 36.3536C58.9956 39.1183 58.0856 42.3738 57.9272 45.442H7.07383C6.91539 42.3738 6.00437 39.1183 4.98266 36.3536H60.0184ZM60.7303 34.5359H47.06C45.8595 33.7443 41.1562 30.9006 35.5469 30.9006C33.8721 30.9006 32.824 30.1508 31.6113 29.2819C31.4092 29.1374 31.201 28.9911 30.9887 28.8448C33.9402 27.7442 36.3766 27.4906 38.2373 28.1159C43.4515 29.8645 45.0765 28.2004 46.409 26.1846C47.123 25.1031 47.5516 24.5387 48.75 24.5387C51.8243 24.5387 53.5803 23.1064 55.1281 21.8422C55.9518 21.1705 56.6891 20.5698 57.5423 20.2481C59.4252 26.0083 61.7703 29.0311 62.7778 30.1381C62.3594 30.9333 61.5621 32.5238 60.7303 34.5359ZM62.9688 1.81768V27.1434C60.709 23.7098 57.0314 15.9674 56.8801 1.81768H62.9688ZM2.03125 1.81768H8.11992C7.96859 15.9674 4.29102 23.7098 2.03125 27.1434V1.81768ZM2.03125 45.442V34.3969C3.32516 37.3988 4.83437 41.6313 5.05172 45.442H2.03125ZM62.9688 45.442H59.9483C60.1656 41.6313 61.6738 37.3988 62.9688 34.3969V45.442Z" fill="black"/>
<path d="M11.1719 39.9904H53.8281C54.3898 39.9904 54.8438 39.583 54.8438 39.0811C54.8438 38.5792 54.3898 38.1719 53.8281 38.1719H11.1719C10.6102 38.1719 10.1562 38.5792 10.1562 39.0811C10.1562 39.583 10.6102 39.9904 11.1719 39.9904Z" fill="black"/>
<path d="M49.7656 41.8066H15.2344C14.6727 41.8066 14.2188 42.214 14.2188 42.7159C14.2188 43.2178 14.6727 43.6252 15.2344 43.6252H49.7656C50.3273 43.6252 50.7812 43.2178 50.7812 42.7159C50.7812 42.214 50.3273 41.8066 49.7656 41.8066Z" fill="black"/>
<path d="M29.4531 11.8154C31.6936 11.8154 33.5156 10.1848 33.5156 8.17969C33.5156 6.17458 31.6936 4.54395 29.4531 4.54395C27.2127 4.54395 25.3906 6.17458 25.3906 8.17969C25.3906 10.1848 27.2127 11.8154 29.4531 11.8154ZM29.4531 6.36182C30.5723 6.36182 31.4844 7.17714 31.4844 8.17969C31.4844 9.18225 30.5723 9.99757 29.4531 9.99757C28.3329 9.99757 27.4219 9.18225 27.4219 8.17969C27.4219 7.17714 28.3329 6.36182 29.4531 6.36182Z" fill="black"/>
<path d="M34.5312 12.7248H44.6875C45.2491 12.7248 45.7031 12.3174 45.7031 11.8155C45.7031 11.3136 45.2491 10.9062 44.6875 10.9062H34.5312C33.9696 10.9062 33.5156 11.3136 33.5156 11.8155C33.5156 12.3174 33.9696 12.7248 34.5312 12.7248Z" fill="black"/>
<path d="M40.9195 13.8968C40.7357 14.0696 40.625 14.306 40.625 14.5424C40.625 14.7788 40.7357 15.0152 40.9195 15.188C41.1115 15.3517 41.3654 15.4517 41.6406 15.4517C41.9047 15.4517 42.1677 15.3517 42.3617 15.188C42.5445 15.0152 42.6562 14.7788 42.6562 14.5424C42.6562 14.306 42.5445 14.0696 42.3617 13.8968C41.9859 13.5604 41.2953 13.5604 40.9195 13.8968Z" fill="black"/>
<path d="M47.7344 12.7251C47.9984 12.7251 48.2615 12.6251 48.4555 12.4614C48.6383 12.2887 48.75 12.0523 48.75 11.8159C48.75 11.5795 48.6383 11.343 48.4555 11.1703C48.0695 10.8339 47.3992 10.8339 47.0133 11.1703C46.8295 11.343 46.7188 11.5795 46.7188 11.8159C46.7188 12.0523 46.8295 12.2887 47.0133 12.4614C47.2052 12.6251 47.4703 12.7251 47.7344 12.7251Z" fill="black"/>
<path d="M39.6094 14.5422C39.6094 14.0405 39.1554 13.6333 38.5938 13.6333H30.4688C28.0048 13.6333 26.9059 13.1934 25.742 12.7271C24.6218 12.279 23.463 11.8154 21.3281 11.8154C20.7665 11.8154 20.3125 12.2226 20.3125 12.7244C20.3125 13.2261 20.7665 13.6333 21.3281 13.6333C23.0293 13.6333 23.9017 13.9823 24.9123 14.3877C26.1595 14.8858 27.5712 15.4512 30.4688 15.4512H38.5938C39.1554 15.4512 39.6094 15.044 39.6094 14.5422Z" fill="black"/>
</svg>
