<svg width="1257" height="315" viewBox="0 0 1257 315" fill="none" xmlns="http://www.w3.org/2000/svg">
<path d="M1127.95 1C1127.96 1.00109 1127.98 1.00242 1127.99 1.00391C1128.05 1.01016 1128.14 1.02046 1128.26 1.03418C1128.5 1.06165 1128.86 1.10496 1129.33 1.16797C1130.26 1.29401 1131.65 1.49825 1133.41 1.81152C1136.93 2.43813 1141.96 3.49914 1148 5.23438C1160.09 8.70596 1176.18 14.8716 1192.19 25.6426C1224.18 47.1523 1256 87.093 1255 160.986C1254 234.893 1222.18 273.082 1190.72 292.841C1174.96 302.737 1159.25 308.03 1147.49 310.848C1141.6 312.256 1136.71 313.045 1133.29 313.481C1131.58 313.7 1130.24 313.83 1129.33 313.905C1128.88 313.943 1128.53 313.967 1128.3 313.981C1128.18 313.989 1128.1 313.994 1128.04 313.997C1128.01 313.999 1127.99 313.999 1127.97 314H1V1H1127.95Z" stroke="black" stroke-width="2"/>
</svg>
