<svg width="60" height="47" viewBox="0 0 60 47" fill="none" xmlns="http://www.w3.org/2000/svg">
<path d="M53.2621 21.5928H50.2144C49.6818 21.5928 49.252 21.9864 49.252 22.4741V32.9772C49.252 33.4646 49.6816 33.8585 50.2144 33.8585H53.2621C53.7949 33.8585 54.2248 33.4646 54.2248 32.9772V22.4741C54.2248 21.9871 53.7949 21.5928 53.2621 21.5928ZM52.2996 32.0957H51.1772V23.3553H52.2996V32.0957Z" fill="black"/>
<path d="M59.0375 23.355C59.5704 23.355 60 22.9609 60 22.4735V15.8636C60 15.5455 59.8129 15.252 59.5102 15.0958L30.4723 0.113555C30.1787 -0.0378517 29.8197 -0.0378517 29.5269 0.113555L0.489761 15.0958C0.187609 15.252 0 15.5455 0 15.8636V22.4737C0 22.9612 0.430155 23.3553 0.962492 23.3553H2.72788V32.0956H0.962492C0.430155 32.0956 0 32.4887 0 32.9769V37.3836C0 37.871 0.430155 38.2648 0.962492 38.2648H2.72871V45.6093C2.72871 46.0965 3.15914 46.4906 3.6912 46.4906H12.8327C13.3653 46.4906 13.7952 46.0965 13.7952 45.6093V38.2648H15.5614C16.094 38.2648 16.5239 37.871 16.5239 37.3836V32.9769C16.5239 32.489 16.094 32.0956 15.5614 32.0956H13.7952V23.3553H15.5614C16.094 23.3553 16.5239 22.9612 16.5239 22.4737C16.5239 20.2157 18.0138 18.6365 21.0779 17.6466C23.7884 16.7703 26.9836 16.6393 28.6459 16.6393C29.437 16.6393 29.9268 16.6685 29.9367 16.6695C29.9782 16.6712 30.0213 16.6712 30.0644 16.6695C30.0944 16.6677 30.5805 16.6393 31.3521 16.6393C34.9977 16.64 43.475 17.2095 43.475 22.4737C43.475 22.9612 43.9055 23.3553 44.4375 23.3553H46.204V32.0956H44.4375C43.9055 32.0956 43.475 32.4887 43.475 32.9769V37.3836C43.475 37.871 43.9055 38.2648 44.4375 38.2648H46.204V45.6093C46.204 46.0965 46.6344 46.4906 47.1668 46.4906H56.3083C56.8403 46.4906 57.2707 46.0965 57.2707 45.6093V38.2648H59.0372C59.5701 38.2648 59.9997 37.871 59.9997 37.3836V32.9769C59.9997 32.489 59.5704 32.0956 59.0372 32.0956H57.2718V23.3553L59.0375 23.355ZM56.3096 33.8579H58.075V36.5023H56.3088C55.7765 36.5023 55.346 36.8954 55.346 37.3836V44.7278H48.1298V37.3836C48.1298 36.8956 47.7002 36.5023 47.1673 36.5023H45.4008V33.8579H47.1673C47.6999 33.8579 48.1298 33.4641 48.1298 32.9767V22.4735C48.1298 21.9861 47.7002 21.5922 47.1673 21.5922H45.3426C44.5342 15.553 35.3878 14.877 31.3527 14.877C30.65 14.877 30.1641 14.8979 29.9985 14.9072C29.7991 14.8964 29.3132 14.877 28.6473 14.877C24.6119 14.877 15.4655 15.5538 14.6571 21.5922H12.833C12.3006 21.5922 11.8705 21.9858 11.8705 22.4735V32.9767C11.8705 33.4641 12.3003 33.8579 12.833 33.8579H14.5994V36.5023H12.833C12.3006 36.5023 11.8705 36.8954 11.8705 37.3836V44.7278H4.65397V37.3836C4.65397 36.8956 4.22381 36.5023 3.69148 36.5023H1.92526V33.8579H3.69065C4.22299 33.8579 4.65314 33.4641 4.65314 32.9767V22.4735C4.65314 21.9861 4.22299 21.5922 3.69065 21.5922H1.92526V16.3782L30.0004 1.89221L58.0747 16.3782V21.5922H56.3093C55.7765 21.5922 55.3469 21.9858 55.3469 22.4735V32.9767C55.3471 33.4641 55.7765 33.8579 56.3096 33.8579Z" fill="black"/>
<path d="M9.78574 21.5928H6.73813C6.20552 21.5928 5.77563 21.9864 5.77563 22.4741V32.9772C5.77563 33.4646 6.20552 33.8585 6.73813 33.8585H9.78574C10.3181 33.8585 10.7482 33.4646 10.7482 32.9772V22.4741C10.7482 21.9871 10.3181 21.5928 9.78574 21.5928ZM8.82325 32.0957H7.70089V23.3553H8.82325V32.0957Z" fill="black"/>
<path d="M29.6108 19.9805C29.5501 19.9752 29.4905 19.9752 29.4297 19.9805C26.8161 20.2056 18.2886 21.1971 18.2886 24.53V32.5362C18.2886 33.0234 18.7187 33.4175 19.2511 33.4175H39.7864C40.3188 33.4175 40.7492 33.0234 40.7492 32.5362V24.53C40.7495 21.1971 32.2236 20.2056 29.6108 19.9805ZM38.8242 31.655H20.2138V24.53C20.2138 23.4018 25.1073 22.1344 29.5198 21.7438C33.9313 22.1334 38.8242 23.3998 38.8242 24.53V31.655Z" fill="black"/>
</svg>
