<svg width="20" height="20" viewBox="0 0 20 20" fill="none" xmlns="http://www.w3.org/2000/svg">
<g clip-path="url(#clip0_242_2218)">
<path d="M8.21575 10L0.130508 1.91518C-0.0435219 1.74093 -0.0435219 1.45861 0.130508 1.28437L1.28362 0.130628C1.36726 0.0471947 1.48104 0 1.59923 0C1.71764 0 1.8312 0.0471947 1.91485 0.130628L9.99988 8.21566L18.0849 0.130628C18.2524 -0.0368708 18.5489 -0.0366601 18.7159 0.130628L19.8688 1.28437C20.0431 1.45861 20.0431 1.74093 19.8688 1.91518L11.7838 10L19.8688 18.0848C20.0431 18.2591 20.0431 18.5414 19.8688 18.7156L18.7157 19.8694C18.6321 19.9528 18.5185 20 18.4001 20C18.2817 20 18.1683 19.9528 18.0847 19.8694L9.99967 11.7843L1.91464 19.8694C1.83099 19.9528 1.71722 20 1.59902 20C1.48082 20 1.36705 19.9528 1.28341 19.8694L0.130299 18.7156C-0.0437317 18.5414 -0.0437317 18.2591 0.130299 18.0848L8.21575 10Z" fill="black"/>
</g>
<defs>
<clipPath id="clip0_242_2218">
<rect width="20" height="20" fill="white" transform="matrix(-1 0 0 1 20 0)"/>
</clipPath>
</defs>
</svg>
