<svg width="149" height="150" viewBox="0 0 149 150" fill="none" xmlns="http://www.w3.org/2000/svg">
<g clip-path="url(#clip0_242_2525)">
<path d="M127.18 22.4942C113.108 8.42337 94.3996 0.673828 74.5 0.673828C54.6004 0.673828 35.8918 8.42337 21.8204 22.4942C7.74954 36.5656 0 55.2742 0 75.1738C0 95.0735 7.74954 113.782 21.8204 127.853C35.8918 141.924 54.6004 149.674 74.5 149.674C94.3996 149.674 113.108 141.924 127.18 127.853C141.25 113.782 149 95.0735 149 75.1738C149 55.2742 141.25 36.5656 127.18 22.4942ZM74.5 140.457C38.5025 140.457 9.21649 111.171 9.21649 75.1738C9.21649 39.1763 38.5025 9.89032 74.5 9.89032C110.497 9.89032 139.784 39.1763 139.784 75.1738C139.784 111.171 110.497 140.457 74.5 140.457Z" fill="white"/>
<path d="M55.6252 104.074L105.663 75.1729L55.6252 46.2715V104.074Z" fill="white"/>
</g>
<defs>
<clipPath id="clip0_242_2525">
<rect width="149" height="149" fill="white" transform="translate(0 0.673828)"/>
</clipPath>
</defs>
</svg>
