<svg width="14" height="14" viewBox="0 0 14 14" fill="none" xmlns="http://www.w3.org/2000/svg">
<path d="M6.77381 6.36929L6.77362 0.652271C6.7737 0.529138 6.87351 0.429321 6.99665 0.429247L7.81225 0.429029C7.87132 0.429104 7.92823 0.452644 7.97002 0.494433C8.01188 0.536297 8.03535 0.593134 8.03542 0.652206L8.03546 6.36923L13.7525 6.36926C13.8709 6.36926 13.9757 6.47415 13.9756 6.59236L13.9753 7.40789C13.9753 7.5311 13.8755 7.63091 13.7523 7.63091L8.03532 7.6308L8.03543 13.3477C8.03543 13.471 7.93562 13.5708 7.81241 13.5708L6.99681 13.571C6.93774 13.5709 6.8809 13.5475 6.83904 13.5056C6.79717 13.4637 6.77378 13.407 6.77371 13.3479L6.77367 7.63087L1.05665 7.63083C0.997578 7.63076 0.940666 7.60722 0.898877 7.56543C0.857087 7.52364 0.833548 7.46673 0.833473 7.40765L0.83369 6.59206C0.833765 6.46892 0.933582 6.3691 1.05671 6.36903L6.77381 6.36929Z" fill="black"/>
</svg>
