<svg width="27" height="24" viewBox="0 0 27 24" fill="none" xmlns="http://www.w3.org/2000/svg">
<path d="M12.5957 10.8712L12.5953 0.638812C12.5955 0.418429 12.7951 0.239776 13.0414 0.239643L14.6727 0.239254C14.7908 0.239387 14.9047 0.281519 14.9882 0.356313C15.072 0.431242 15.1189 0.532968 15.119 0.638694L15.1191 10.871L26.5537 10.8711C26.7906 10.8711 27.0001 11.0588 26.9999 11.2704L26.9994 12.73C26.9994 12.9506 26.7997 13.1292 26.5533 13.1292L15.1188 13.129L15.1191 23.3612C15.1191 23.5817 14.9194 23.7604 14.673 23.7604L13.0417 23.7608C12.9236 23.7606 12.8099 23.7187 12.7262 23.6437C12.6424 23.5688 12.5956 23.4672 12.5955 23.3615L12.5954 13.1291L1.16083 13.1291C1.04268 13.1289 0.928849 13.0868 0.845265 13.012C0.761683 12.9372 0.714601 12.8353 0.714453 12.7296L0.714889 11.2699C0.715036 11.0495 0.91468 10.8708 1.16096 10.8707L12.5957 10.8712Z" fill="black"/>
</svg>
