<svg width="10" height="10" viewBox="0 0 10 10" fill="none" xmlns="http://www.w3.org/2000/svg">
<g clip-path="url(#clip0_242_3072)">
<path d="M4.10763 5L0.0650101 0.957588C-0.0220051 0.870467 -0.0220051 0.729305 0.0650101 0.642184L0.641564 0.065314C0.683387 0.0235973 0.740273 0 0.799372 0C0.858576 0 0.915357 0.0235973 0.957179 0.065314L4.9997 4.10783L9.04221 0.065314C9.12596 -0.0184354 9.27418 -0.0183301 9.35772 0.065314L9.93417 0.642184C10.0213 0.729305 10.0213 0.870467 9.93417 0.957588L5.89165 5L9.93417 9.04241C10.0213 9.12953 10.0213 9.27069 9.93417 9.35782L9.35762 9.93469C9.3158 9.9764 9.25901 10 9.19981 10C9.14061 10 9.08393 9.9764 9.04211 9.93469L4.99959 5.89217L0.957074 9.93469C0.915252 9.9764 0.858365 10 0.799267 10C0.740168 10 0.683281 9.9764 0.641459 9.93469L0.0649052 9.35782C-0.02211 9.27069 -0.02211 9.12953 0.0649052 9.04241L4.10763 5Z" fill="black"/>
</g>
<defs>
<clipPath id="clip0_242_3072">
<rect width="10" height="10" fill="white" transform="matrix(-1 0 0 1 10 0)"/>
</clipPath>
</defs>
</svg>
