<svg width="60" height="60" viewBox="0 0 60 60" fill="none" xmlns="http://www.w3.org/2000/svg">
<g clip-path="url(#clip0_242_1982)">
<path d="M50.2405 7.41117C45.4613 2.63203 39.107 0 32.3485 0C25.5899 0 19.2354 2.63203 14.4563 7.41117C9.72646 12.1411 7.09971 18.4131 7.04603 25.0938L2.4415 34.3029C2.23572 34.7145 2.38139 35.2151 2.77619 35.4518L7.04521 38.0133V51.6047C7.04521 52.091 7.43943 52.4854 7.92588 52.4854H16.4386V59.1195C16.4386 59.6058 16.8328 60.0001 17.3193 60.0001C17.8057 60.0001 18.1999 59.6058 18.1999 59.1195V51.6047C18.1999 51.1184 17.8057 50.724 17.3193 50.724H8.80631V37.5146C8.80631 37.2054 8.644 36.9186 8.37869 36.7595L4.38131 34.361L8.71326 25.6971C8.77443 25.5748 8.80631 25.4401 8.80631 25.3032C8.80631 12.3221 19.3672 1.76121 32.3483 1.76121C45.3294 1.76121 55.8904 12.3221 55.8904 25.3032C55.8904 32.5978 52.5899 39.3615 46.8353 43.8606C46.6218 44.0275 46.497 44.2834 46.497 44.5545V59.1193C46.497 59.6057 46.8912 60 47.3776 60C47.8641 60 48.2583 59.6057 48.2583 59.1193V44.9793C54.2339 40.1457 57.6517 32.9994 57.6517 25.3034C57.6517 18.5446 55.0198 12.1903 50.2405 7.41117Z" fill="black"/>
<path d="M51.7579 16.1325L48.2432 12.6178C47.8992 12.2738 47.3417 12.2738 46.9978 12.6178C46.6538 12.9617 46.6538 13.5193 46.9978 13.8631L49.8897 16.755L48.3814 18.2633C48.2175 17.9717 48.0132 17.7015 47.7725 17.4608C46.6847 16.3728 44.9841 16.0706 43.5891 16.7243C43.2006 16.9064 42.8454 17.1574 42.542 17.4608C41.454 18.5486 41.1518 20.249 41.8053 21.6442C41.9874 22.0327 42.2384 22.3879 42.5418 22.6913C42.7825 22.932 43.0528 23.1362 43.3443 23.3002L41.836 24.8086L39.2942 22.2667C38.7662 21.739 37.8334 22.0967 37.7922 22.8409C37.7361 23.8545 36.873 24.6703 35.8583 24.6703C35.3408 24.6703 34.8542 24.4688 34.4883 24.1029C33.7415 23.356 33.7415 22.1099 34.4883 21.363C34.8258 21.0255 35.274 20.8252 35.7505 20.799C36.494 20.7577 36.8525 19.8251 36.3247 19.297L33.7828 16.7551L41.8363 8.70161L43.8767 10.7421C44.2208 11.086 44.7782 11.086 45.1222 10.7421C45.4661 10.3981 45.4661 9.84056 45.1222 9.49673L42.459 6.83364C42.1149 6.4897 41.5575 6.4897 41.2135 6.83364L31.9147 16.1326C31.5708 16.4765 31.5708 17.0341 31.9147 17.3779L34.0458 19.509C33.7542 19.6729 33.484 19.8772 33.2432 20.1179C32.1552 21.2058 31.8528 22.9061 32.5066 24.3013C32.6887 24.6899 32.9397 25.045 33.2431 25.3484C33.9417 26.0471 34.8705 26.4317 35.8585 26.4317C36.8465 26.4317 37.7752 26.0471 38.4739 25.3484C38.7146 25.1077 38.9186 24.8374 39.0827 24.5459L41.2135 26.677C41.5529 27.0163 42.1196 27.0163 42.459 26.677L45.6236 23.5124C46.1517 22.9844 45.7934 22.0516 45.0497 22.0104C44.5732 21.9841 44.125 21.7837 43.7875 21.4463C43.0409 20.6996 43.0409 19.4532 43.7877 18.7065C44.5344 17.9598 45.7807 17.9599 46.5275 18.7065C46.8649 19.0439 47.0652 19.492 47.0915 19.9685C47.1327 20.7122 48.0655 21.0705 48.5935 20.5427L51.7582 17.3781C52.1019 17.0339 52.1019 16.4763 51.7579 16.1325Z" fill="black"/>
<path d="M41.7418 31.9374H38.7282C38.8186 31.6153 38.8651 31.2797 38.8651 30.9393C38.8651 28.8999 37.2058 27.2406 35.1664 27.2406C33.127 27.2406 31.4677 28.8999 31.4677 30.9393C31.4677 31.2797 31.5144 31.6151 31.6046 31.9374H29.4716V28.3426C29.4716 27.5981 28.5602 27.1883 28.0036 27.6864C27.6481 28.0047 27.1893 28.18 26.7124 28.18C25.6441 28.18 24.775 27.3108 24.775 26.2427C24.775 25.1745 25.6442 24.3053 26.7124 24.3053C27.1895 24.3053 27.6483 24.4806 28.0036 24.7989C28.5602 25.2971 29.4716 24.8875 29.4716 24.1429V19.6673C29.4716 19.181 29.0774 18.7866 28.5909 18.7866H15.4405C14.954 18.7866 14.5598 19.181 14.5598 19.6673V45.9686C14.5598 46.4549 14.954 46.8493 15.4405 46.8493H41.7418C42.2283 46.8493 42.6225 46.4549 42.6225 45.9686V32.8181C42.6225 32.3317 42.2281 31.9374 41.7418 31.9374ZM16.3211 20.5479H27.7106V22.6811C27.3886 22.5909 27.0529 22.5441 26.7125 22.5441C24.6731 22.5441 23.0138 24.2034 23.0138 26.2428C23.0138 28.2822 24.6731 29.9415 26.7125 29.9415C27.0529 29.9415 27.3884 29.8947 27.7106 29.8045V31.9376H24.1158C23.3714 31.9376 22.9612 32.849 23.4596 33.4055C23.7779 33.7611 23.9532 34.2197 23.9532 34.6968C23.9532 35.7651 23.0842 36.6342 22.0159 36.6342C20.9476 36.6342 20.0785 35.7651 20.0785 34.6968C20.0785 34.2197 20.2538 33.7611 20.5721 33.4055C21.0705 32.849 20.6606 31.9376 19.916 31.9376H16.3211V20.5479ZM28.2317 40.6893C27.9147 40.831 27.7105 41.146 27.7105 41.4932V45.0881H16.321V33.6986H18.4541C18.3638 34.0208 18.3172 34.3563 18.3172 34.6967C18.3172 36.7361 19.9765 38.3954 22.0159 38.3954C24.0553 38.3954 25.7145 36.7361 25.7145 34.6967C25.7145 34.3563 25.6679 34.0209 25.5777 33.6986H27.7107V37.2935C27.7107 38.038 28.6221 38.4479 29.1787 37.9495C29.5342 37.6313 29.9929 37.4559 30.47 37.4559C31.5383 37.4559 32.4074 38.3251 32.4074 39.3932C32.4074 40.4615 31.5382 41.3306 30.47 41.3306C29.9929 41.3306 29.5342 41.1553 29.1787 40.837C28.9197 40.6055 28.5486 40.5478 28.2317 40.6893ZM40.8613 45.0881H29.4718V42.9549C29.7938 43.0453 30.1295 43.0919 30.4699 43.0919C32.5093 43.0919 34.1686 41.4326 34.1686 39.3932C34.1686 37.3538 32.5093 35.6945 30.4699 35.6945C30.1295 35.6945 29.794 35.7413 29.4718 35.8315V33.6984H33.0667C33.8111 33.6984 34.2211 32.7871 33.7228 32.2304C33.4045 31.8748 33.2292 31.4163 33.2292 30.9391C33.2292 29.8708 34.0984 29.0017 35.1665 29.0017C36.2347 29.0017 37.1039 29.8709 37.1039 30.9391C37.1039 31.4163 36.9286 31.8748 36.6103 32.2304C36.1121 32.787 36.5218 33.6984 37.2664 33.6984H40.8613V45.0881Z" fill="black"/>
</g>
<defs>
<clipPath id="clip0_242_1982">
<rect width="60" height="60" fill="white"/>
</clipPath>
</defs>
</svg>
