<svg width="60" height="60" viewBox="0 0 60 60" fill="none" xmlns="http://www.w3.org/2000/svg">
<g clip-path="url(#clip0_242_1972)">
<path d="M8.05489 31.104C8.06856 30.6359 8.11041 29.212 9.17984 28.808C10.2356 28.4108 11.2717 29.4435 11.4682 29.6536C11.7902 29.9987 11.7723 30.5394 11.428 30.8614C11.0838 31.1835 10.5431 31.1655 10.2202 30.8213C10.1118 30.7068 9.95971 30.5855 9.83585 30.5078C9.80425 30.6342 9.77094 30.8384 9.76239 31.1544C9.69833 33.3522 11.399 34.0518 11.4707 34.08C11.7731 34.1996 11.9884 34.4823 12.0157 34.806C12.5214 40.8365 17.2706 42.7875 19.4915 42.7875C21.7123 42.7875 26.4624 40.8365 26.9681 34.806C26.9954 34.4772 27.2107 34.1927 27.5199 34.0774C27.5848 34.0518 29.2855 33.3522 29.2214 31.1544C29.212 30.8384 29.1787 30.6342 29.148 30.5078C29.0232 30.5864 28.8712 30.7077 28.761 30.8239C28.4364 31.1655 27.8966 31.1809 27.5541 30.8589C27.2115 30.5369 27.1936 29.9987 27.5148 29.6553C27.7121 29.4444 28.7491 28.41 29.8031 28.8097C30.8725 29.2137 30.9144 30.6376 30.9281 31.1057C31.0041 33.6888 29.4512 34.9453 28.6201 35.4304C27.8641 41.6787 22.8834 44.4975 19.4906 44.4975C16.0978 44.4975 11.1171 41.6796 10.3612 35.4304C9.53177 34.9436 7.97887 33.6871 8.05489 31.104ZM19.4923 48.63C19.7571 48.63 21.9131 48.0953 21.9131 45.936H19.4923H17.0716C17.0707 48.0953 19.2275 48.63 19.4923 48.63ZM21.0452 48.9444C20.8231 48.9051 20.5925 48.9512 20.4046 49.0785C20.0091 49.3493 19.6546 49.4586 19.4923 49.4979C19.3249 49.4577 18.9721 49.3476 18.5775 49.0785C18.3904 48.9512 18.1607 48.9042 17.9369 48.9444C17.7139 48.9862 17.5175 49.1152 17.3893 49.3023C17.0417 49.8122 15.3701 58.471 15.3555 58.5556C15.2727 59.0203 15.5828 59.4636 16.0474 59.5456C16.5164 59.6301 16.9554 59.3184 17.0374 58.8537C17.3219 57.2496 18.2179 52.9547 18.6569 51.0269C19.0618 51.1738 19.348 51.2097 19.3984 51.2156C19.459 51.2225 19.5222 51.2225 19.5829 51.2156C19.6333 51.2105 19.9194 51.1746 20.3243 51.0269C20.7633 52.9547 21.6594 57.2496 21.9447 58.8537C22.0181 59.268 22.3777 59.5584 22.7843 59.5584C22.8339 59.5584 22.8843 59.5541 22.9347 59.5447C23.3993 59.4627 23.7086 59.0194 23.6266 58.5547C23.6112 58.4702 21.9404 49.8114 21.5919 49.3014C21.4655 49.1152 21.2682 48.9862 21.0452 48.9444ZM8.90651 56.0118C8.435 56.0118 8.05233 56.3945 8.05233 56.866V58.7042C8.05233 59.1757 8.435 59.5584 8.90651 59.5584C9.37801 59.5584 9.76068 59.1757 9.76068 58.7042V56.866C9.76068 56.3945 9.37801 56.0118 8.90651 56.0118ZM12.0174 23.8563C11.2367 24.7968 10.7336 25.9738 10.5602 27.2636C10.4978 27.7309 10.8258 28.1605 11.2931 28.2237C11.3315 28.2289 11.37 28.2314 11.4075 28.2314C11.8286 28.2314 12.1951 27.9197 12.2532 27.4909C12.383 26.5205 12.7563 25.6407 13.332 24.948C13.6335 24.5849 13.5831 24.0468 13.2201 23.7453C12.8579 23.4438 12.3189 23.4933 12.0174 23.8563ZM26.2403 28.2246C26.2403 28.6961 26.623 29.0788 27.0945 29.0788C27.566 29.0788 27.9487 28.6961 27.9487 28.2246C27.9487 23.3156 24.2894 21.9703 22.3427 21.9438H14.5501C14.0786 21.9438 13.6959 22.3265 13.6959 22.798C13.6959 23.2695 14.0786 23.6522 14.5501 23.6522H22.3265C22.728 23.6616 26.2403 23.87 26.2403 28.2246ZM29.0805 26.3198C29.1138 26.3198 29.1471 26.3181 29.1813 26.3138C29.6494 26.2591 29.9851 25.8346 29.9304 25.3665C29.3581 20.4738 25.1555 19.2233 23.0004 19.2779H15.6519C15.1804 19.2779 14.7978 19.6606 14.7978 20.1321C14.7978 20.6036 15.1804 20.9863 15.6519 20.9863H23.0107C23.2012 20.994 27.6993 20.9965 28.234 25.5655C28.2844 25.9995 28.6534 26.3198 29.0805 26.3198ZM58.1627 0H2.00048C1.52897 0 1.1463 0.382672 1.1463 0.854178V45.3944C1.1463 45.8659 1.52897 46.2486 2.00048 46.2486H7.19132C4.21536 48.4635 0.984009 52.3321 0.984009 58.7051C0.984009 59.1766 1.36668 59.5592 1.83819 59.5592C2.30969 59.5592 2.69236 59.1766 2.69236 58.7051C2.69236 50.0967 9.1192 46.6612 11.598 45.6567L11.7125 47.7554C11.7279 48.039 11.8833 48.2961 12.1268 48.4421C12.2617 48.5224 12.4129 48.5634 12.565 48.5634C12.6888 48.5634 12.8127 48.5369 12.928 48.4823L15.7758 47.1455C16.2029 46.9448 16.3865 46.4365 16.1858 46.0094C15.9851 45.5815 15.4751 45.3995 15.0498 45.5994L13.3482 46.3981L13.1646 43.0343C13.139 42.5628 12.7324 42.2066 12.2651 42.228C11.7945 42.2536 11.4332 42.6559 11.4588 43.1274L11.4998 43.874C11.1282 44.0141 10.5986 44.2319 9.96996 44.5437C9.96483 44.5437 9.95971 44.5402 9.95458 44.5402H2.85466V1.70836H57.3085V44.5402H42.3006C45.0263 38.7421 44.4523 31.7788 44.4207 31.4209C44.3814 30.9802 44.0124 30.6428 43.5699 30.6428H39.3699C38.8984 30.6428 38.5157 31.0254 38.5157 31.497C38.5157 35.8644 37.3498 39.0385 35.0495 40.9305C32.3785 43.1274 28.8259 43.0403 27.3866 42.8951C27.3038 42.5329 27.004 42.2493 26.6145 42.228C26.1464 42.2032 25.7406 42.5628 25.715 43.0343L25.5305 46.3981L23.9674 45.6643C23.5403 45.4645 23.032 45.6464 22.8313 46.0743C22.6306 46.5014 22.8142 47.0097 23.2413 47.2104L25.9508 48.4823C26.0661 48.5361 26.1899 48.5634 26.3138 48.5634C26.4658 48.5634 26.617 48.5233 26.752 48.4421C26.9954 48.2969 27.1509 48.039 27.1663 47.7554L27.3388 44.612C29.107 44.7811 33.0242 44.7999 36.1223 42.2596C38.684 40.16 40.0567 36.8287 40.2096 32.3511H42.7584C42.8404 34.8214 42.7379 42.5782 38.5935 47.1036C36.5033 49.386 33.6375 50.5425 30.0764 50.5425C29.6049 50.5425 29.2223 50.9252 29.2223 51.3967C29.2223 51.8682 29.6049 52.2509 30.0764 52.2509C34.1389 52.2509 37.4301 50.9056 39.8576 48.2525C40.4282 47.6281 40.9271 46.9542 41.3678 46.2486H45.5618V59.1458C45.5618 59.6173 45.9445 60 46.416 60C46.8875 60 47.2702 59.6173 47.2702 59.1458V46.2486H49.4056V59.1458C49.4056 59.6173 49.7883 60 50.2598 60C50.7313 60 51.114 59.6173 51.114 59.1458V46.2486H58.161C58.6325 46.2486 59.0151 45.8659 59.0151 45.3944V0.854178C59.0168 0.382672 58.6342 0 58.1627 0ZM30.0782 53.3391C29.6067 53.3391 29.224 53.7218 29.224 54.1933V58.7042C29.224 59.1757 29.6067 59.5584 30.0782 59.5584C30.5497 59.5584 30.9323 59.1757 30.9323 58.7042V54.1933C30.9323 53.7218 30.5497 53.3391 30.0782 53.3391ZM26.5683 7.01024C27.0398 7.01024 27.4225 6.62756 27.4225 6.15606C27.4225 5.68455 27.0398 5.30188 26.5683 5.30188H11.3409C10.8694 5.30188 10.4867 5.68455 10.4867 6.15606C10.4867 6.62756 10.8694 7.01024 11.3409 7.01024H26.5683ZM6.84025 9.53775C6.84025 10.0093 7.22292 10.3919 7.69443 10.3919H26.5683C27.0398 10.3919 27.4225 10.0093 27.4225 9.53775C27.4225 9.06624 27.0398 8.68357 26.5683 8.68357H7.69443C7.22292 8.68357 6.84025 9.06624 6.84025 9.53775ZM7.69443 13.7736H26.5683C27.0398 13.7736 27.4225 13.3909 27.4225 12.9194C27.4225 12.4479 27.0398 12.0653 26.5683 12.0653H7.69443C7.22292 12.0653 6.84025 12.4479 6.84025 12.9194C6.84025 13.3909 7.22292 13.7736 7.69443 13.7736ZM7.69443 17.1553H26.5683C27.0398 17.1553 27.4225 16.7726 27.4225 16.3011C27.4225 15.8296 27.0398 15.4469 26.5683 15.4469H7.69443C7.22292 15.4469 6.84025 15.8296 6.84025 16.3011C6.84025 16.7726 7.22292 17.1553 7.69443 17.1553ZM55.3686 7.69956C55.7283 7.39547 55.7735 6.85648 55.4686 6.49602C55.1645 6.13641 54.6255 6.09029 54.2651 6.39608L45.0126 14.2246L40.1711 9.14568C39.8858 8.78693 39.3665 8.71945 38.9966 8.98851L33.1899 13.8659C32.8098 14.1452 32.7278 14.6799 33.0071 15.06C33.2856 15.4393 33.8203 15.5221 34.2013 15.2428L39.346 10.8515L44.2242 15.9765C44.3677 16.1568 44.5795 16.2721 44.8093 16.2951C44.8375 16.2977 44.8648 16.2994 44.893 16.2994C45.0937 16.2994 45.2902 16.2285 45.4448 16.097L55.3686 7.69956ZM40.5051 16.3387L40.2309 22.54C40.6315 22.4956 40.9869 22.4948 41.2209 22.4948C42.1451 22.4948 44.9571 22.4948 44.9571 25.2461V26.4248C44.9571 28.4851 43.2812 30.161 41.2209 30.161C39.1606 30.161 37.4847 28.4851 37.4847 26.4248V25.2461C37.4847 24.1707 37.9161 23.5189 38.4952 23.12L38.7985 16.2635C38.8198 15.792 39.2512 15.4358 39.6894 15.4478C40.16 15.4692 40.5256 15.8681 40.5051 16.3387ZM41.2209 24.2031C39.1931 24.2031 39.1931 24.7575 39.1931 25.2461V26.4248C39.1931 27.543 40.1028 28.4527 41.2209 28.4527C42.339 28.4527 43.2487 27.543 43.2487 26.4248V25.2461C43.2487 24.7575 43.2487 24.2031 41.2209 24.2031ZM19.5897 31.497V35.8225H18.5408C18.0693 35.8225 17.6866 36.2052 17.6866 36.6767C17.6866 37.1482 18.0693 37.5309 18.5408 37.5309H20.4439C20.9154 37.5309 21.2981 37.1482 21.2981 36.6767V31.497C21.2981 31.0254 20.9154 30.6428 20.4439 30.6428C19.9724 30.6428 19.5897 31.0246 19.5897 31.497Z" fill="#231F20"/>
</g>
<defs>
<clipPath id="clip0_242_1972">
<rect width="60" height="60" fill="white"/>
</clipPath>
</defs>
</svg>
