<svg width="60" height="42" viewBox="0 0 60 42" fill="none" xmlns="http://www.w3.org/2000/svg">
<path d="M58.3605 0.856934H30.5561C29.6518 0.856934 28.916 1.59209 28.916 2.49623V10.9286H16.0317C15.1275 10.9286 14.3924 11.6637 14.3924 12.5679V21.0003H1.63929C0.735152 21.0003 0 21.735 0 22.6395V39.5037C0 40.4083 0.735152 41.1431 1.63929 41.1431H29.4439C30.348 41.1431 31.0843 40.4082 31.0843 39.5037V31.0723H43.836C44.7402 31.0723 45.4752 30.3369 45.4752 29.4331V21.0003H58.3603C59.2644 21.0003 59.9999 20.2652 59.9999 19.361V2.49696C60 1.5927 59.2645 0.856934 58.3605 0.856934ZM29.4903 39.5044C29.4903 39.5294 29.4701 39.5491 29.4446 39.5491H1.63929C1.61431 39.5491 1.59449 39.5285 1.59449 39.5044V22.6395C1.59449 22.6146 1.61431 22.5944 1.63929 22.5944H29.4439C29.4696 22.5944 29.4895 22.6146 29.4895 22.6395V39.5043H29.4903V39.5044ZM43.8817 29.4331C43.8817 29.4573 43.8616 29.4781 43.836 29.4781H31.0849V22.6402C31.0849 21.7363 30.3487 21.0009 29.4447 21.0009H15.9864V12.5685C15.9864 12.5429 16.0068 12.523 16.0318 12.523H43.8361C43.8617 12.523 43.8812 12.5435 43.8812 12.5685V29.433H43.8817V29.4331ZM58.4065 19.361C58.4065 19.386 58.3863 19.4058 58.3605 19.4058H45.4753V12.5679C45.4753 11.6637 44.7402 10.9286 43.8361 10.9286H30.5091V2.49696C30.5091 2.47198 30.5293 2.45142 30.555 2.45142H58.36C58.3854 2.45142 58.405 2.47198 58.405 2.49696V19.3612L58.4065 19.361Z" fill="black"/>
</svg>
