<svg width="60" height="60" viewBox="0 0 60 60" fill="none" xmlns="http://www.w3.org/2000/svg">
<g clip-path="url(#clip0_242_1960)">
<path d="M52.5918 10.2608C47.8636 4.85373 41.3638 1.31842 34.2896 0.304932L34.1742 0.286621L33.6235 3.75418L33.7796 3.7789C46.726 5.62735 56.4887 16.9002 56.4887 30.0005C56.4887 44.6064 44.6061 56.489 29.9999 56.489C15.3941 56.489 3.51103 44.6064 3.51103 30.0001C3.51103 22.5843 6.60505 15.591 11.9448 10.6165V18.5482H15.4563V4.87936L1.75964 4.84732L1.7514 8.35883L9.20468 8.37576C3.37004 13.9861 0 21.7631 0 30.0001C0 38.0137 3.12056 45.5471 8.78674 51.2133C14.4529 56.8795 21.9868 60.0001 29.9999 60.0001C38.0135 60.0001 45.5468 56.8795 51.213 51.2133C56.8797 45.5471 60.0002 38.0137 60.0002 30.0001C59.9998 22.7344 57.369 15.7247 52.5918 10.2608Z" fill="black"/>
<path d="M29.9999 3.51151V0C28.4192 0 26.8312 0.124512 25.2812 0.369415L25.8292 3.83743C27.1988 3.62091 28.6019 3.51151 29.9999 3.51151Z" fill="black"/>
<path d="M20.9445 5.09903C21.5327 4.88525 22.1347 4.69025 22.7348 4.5195L21.7739 1.14258C21.0937 1.33575 20.4112 1.55685 19.7447 1.79947C19.0265 2.06039 18.3082 2.35336 17.6106 2.67014L19.0617 5.86761C19.6778 5.58792 20.3114 5.32928 20.9445 5.09903Z" fill="black"/>
<path d="M15.0255 23.7307L17.6146 26.7116C17.8559 26.4104 18.1218 26.1243 18.413 25.8533C18.7037 25.5823 19.025 25.337 19.3766 25.1159C19.7272 24.8952 20.104 24.7195 20.5054 24.589C20.9069 24.4585 21.3486 24.3931 21.8302 24.3931C22.7338 24.3931 23.4264 24.6091 23.908 25.0403C24.39 25.4725 24.6308 25.9888 24.6308 26.5912C24.6308 26.9726 24.52 27.309 24.2993 27.5997C24.0782 27.8908 23.7573 28.1774 23.3358 28.458C22.9146 28.7395 22.3873 29.0453 21.7551 29.3767C21.1229 29.7077 20.3951 30.0945 19.572 30.5358C18.6281 31.0581 17.8504 31.5896 17.2384 32.1316C16.6259 32.6736 16.1443 33.2558 15.7932 33.8779C15.4416 34.5005 15.1958 35.178 15.0553 35.9104C14.9148 36.6437 14.8447 37.4613 14.8447 38.3649H29.3581V34.7211H20.2344C20.4349 34.4002 20.7261 34.0739 21.1078 33.7429C21.4887 33.4115 21.9057 33.0906 22.3575 32.7793C22.8089 32.468 23.2653 32.1819 23.7276 31.921C24.189 31.6605 24.6005 31.4294 24.9622 31.2284C25.4035 30.9876 25.8603 30.712 26.3323 30.4003C26.8033 30.0895 27.24 29.7228 27.6419 29.3012C28.0434 28.8796 28.3743 28.398 28.6357 27.856C28.8962 27.3141 29.0271 26.692 29.0271 25.9888C29.0271 25.2463 28.8811 24.5588 28.5904 23.9266C28.2993 23.294 27.8777 22.752 27.3256 22.3006C26.7735 21.8488 26.0961 21.4977 25.2931 21.2464C24.4902 20.9955 23.577 20.8701 22.553 20.8701C21.6498 20.8701 20.8016 20.9653 20.0087 21.1562C19.2154 21.3471 18.4931 21.5879 17.8408 21.8786C17.188 22.1697 16.6213 22.481 16.1393 22.8124C15.6577 23.1434 15.286 23.4496 15.0255 23.7307Z" fill="black"/>
<path d="M40.0778 42.1891H44.1126V37.7021H46.7625V34.089H44.1126V21.1714H41.3724L31.2852 34.1192V37.7021H40.0778V42.1891ZM35.3199 34.089L40.5292 27.2839V34.089H35.3199Z" fill="black"/>
</g>
<defs>
<clipPath id="clip0_242_1960">
<rect width="60" height="60" fill="white"/>
</clipPath>
</defs>
</svg>
