<svg width="60" height="60" viewBox="0 0 60 60" fill="none" xmlns="http://www.w3.org/2000/svg">
<path d="M44.5126 23.2353V21.1223C45.6359 20.7218 46.4476 19.6574 46.4476 18.3977C46.4476 17.2165 45.7365 16.2014 44.7216 15.7498L46.5404 8.47332L39.6752 0.463437L32.8098 8.47231L34.6286 15.7487C33.6137 16.2016 32.9026 17.2165 32.9026 18.3977C32.9026 19.6574 33.7143 20.7216 34.8377 21.1223V23.2353H25.1628V8.4656L20.3252 0L15.4877 8.4656V23.2353H0.00793457V36.7802H15.4877V55.1625C15.4877 57.8299 17.6578 60 20.3252 60C22.9927 60 25.1628 57.8299 25.1628 55.1625V36.7802H34.8377V55.1625C34.8377 57.8299 37.0078 60 39.6752 60C42.3427 60 44.5128 57.8299 44.5128 55.1625V52.2599H45.4803C47.0805 52.2599 48.3828 50.9576 48.3828 49.3574V43.6948L47.9019 43.4152C47.5971 43.2382 47.4153 42.9276 47.4153 42.585C47.4153 42.2425 47.5971 41.932 47.9019 41.7549L48.3828 41.4753V38.715H46.4478V40.4322C45.8403 40.9769 45.4803 41.7606 45.4803 42.5848C45.4803 43.4091 45.8401 44.1927 46.4478 44.7374V49.3572C46.4478 49.8903 46.0144 50.3247 45.4803 50.3247H44.5128V36.7798H59.9923V23.2353H44.5126ZM15.4881 34.8452H1.94295V25.1703H3.87797V28.0728H5.81299V25.1703H7.74801V29.0403H9.68303V25.1703H11.618V28.0728H13.5531V25.1703H15.4881V34.8452ZM20.3252 3.90092L22.5282 7.75531H18.1222L20.3252 3.90092ZM17.4227 9.69033H19.3577V47.4226H17.4227V9.69033ZM23.2275 55.1622C23.2278 56.7626 21.9254 58.0648 20.3252 58.0648C18.725 58.0648 17.4227 56.7624 17.4227 55.1622V53.2272H23.2275V55.1622ZM23.2275 51.2924H17.4227V49.3574H23.2275V51.2924ZM23.2278 47.4226H21.2925V9.69033H23.2275L23.2278 47.4226ZM39.675 8.72282C40.2091 8.72282 40.6425 9.1572 40.6425 9.69033C40.6425 10.2235 40.2091 10.6578 39.675 10.6578C39.1409 10.6578 38.7075 10.2235 38.7075 9.69033C38.7075 9.1572 39.1409 8.72282 39.675 8.72282ZM38.7075 4.5655V6.96578C37.5842 7.36624 36.7725 8.43066 36.7725 9.69033C36.7725 11.2905 38.0748 12.5929 39.675 12.5929C41.2752 12.5929 42.5775 11.2905 42.5775 9.69033C42.5775 8.43066 41.7659 7.36644 40.6425 6.96578V4.5655L44.4195 8.97232L42.7892 15.4952H36.5606L34.9293 8.97333L38.7075 4.5655ZM34.8379 34.8452H25.1628V25.1703H27.0978V28.0728H29.0328V25.1703H30.9678V29.0403H32.9028V25.1703H34.8379V34.8452ZM39.675 58.065C38.0748 58.065 36.7725 56.7626 36.7725 55.1625V52.2599H42.5773V55.1625H42.5775C42.5775 56.7626 41.275 58.065 39.675 58.065ZM42.5773 24.2028V28.0728V46.4551H36.7723V21.3002H42.5771L42.5773 24.2028ZM42.5773 48.3899V50.3249H36.7723V48.3899H42.5773ZM43.545 19.3652H35.8052C35.271 19.3652 34.8377 18.9308 34.8377 18.3977C34.8377 17.8646 35.271 17.4302 35.8052 17.4302H43.545C44.0792 17.4302 44.5126 17.8646 44.5126 18.3977C44.5126 18.9308 44.079 19.3652 43.545 19.3652ZM58.0573 34.8452H44.5121V28.0728V25.1703H46.4472V29.0403H48.3822V25.1703H50.3172V28.0728H52.2522V25.1703H54.1872V29.0403H56.1223V25.1703H58.0573V34.8452Z" fill="black"/>
</svg>
