<svg width="166" height="176" viewBox="0 0 166 176" fill="none" xmlns="http://www.w3.org/2000/svg">
<path d="M12.561 139.81C7.99216 137.333 5.70774 136.095 4.04299 134.314C2.57037 132.739 1.45465 130.865 0.771869 128.82C5.37858e-06 126.507 5.26499e-06 123.909 5.03782e-06 118.712L2.35292e-06 57.2884C2.12575e-06 52.0912 2.01216e-06 49.4926 0.771865 47.1805C1.45465 45.1352 2.57037 43.2611 4.04299 41.686C5.70773 39.9054 7.99216 38.6669 12.561 36.1898L71.561 4.20185C75.7408 1.9357 77.8307 0.802632 80.0387 0.357976C81.9933 -0.03564 84.0067 -0.0356401 85.9613 0.357975C88.1693 0.802632 90.2592 1.93571 94.439 4.20185L153.439 36.1898C158.008 38.6669 160.292 39.9054 161.957 41.686C163.43 43.2611 164.545 45.1352 165.228 47.1805C166 49.4926 166 52.0912 166 57.2884L166 118.712C166 123.909 166 126.507 165.228 128.82C164.545 130.865 163.43 132.739 161.957 134.314C160.292 136.095 158.008 137.333 153.439 139.81L94.439 171.798C90.2592 174.064 88.1693 175.197 85.9613 175.642C84.0067 176.036 81.9933 176.036 80.0387 175.642C77.8307 175.197 75.7408 174.064 71.561 171.798L12.561 139.81Z" fill="white"/>
</svg>
