<svg width="279" height="111" viewBox="0 0 279 111" fill="none" xmlns="http://www.w3.org/2000/svg">
<path d="M51.136 100.761C51.7426 100.755 52.5588 100.784 52.9444 100.823C53.3371 100.876 54.0235 101.039 54.4631 101.188C54.9126 101.34 55.6062 101.632 56.008 101.845C56.4071 102.068 57.0496 102.472 57.4302 102.764C57.8135 103.047 58.4119 103.577 58.7617 103.945C59.1115 104.313 59.3976 104.685 59.4057 104.772C59.4041 104.856 59.1313 105.173 58.8001 105.475C58.4592 105.775 57.7966 106.262 57.3337 106.55C56.8681 106.847 56.1417 107.223 55.7202 107.395C55.3083 107.57 54.5164 107.801 53.9665 107.907C53.4264 108.016 52.5369 108.105 51.9869 108.094C51.444 108.097 50.6428 108.051 50.2183 108.001C49.784 107.948 48.9146 107.767 48.2918 107.6C47.6593 107.431 46.5544 107.04 45.8342 106.731C45.1113 106.432 44.0283 105.92 43.423 105.61C42.8178 105.3 42.0798 104.901 41.7824 104.727C41.4824 104.562 41.2222 104.365 41.2018 104.286C41.1787 104.216 41.1635 104.117 41.1741 104.078C41.1846 104.039 41.721 103.749 42.3652 103.447C43.0023 103.132 43.9549 102.691 44.4754 102.46C44.996 102.23 45.9717 101.858 46.6266 101.633C47.2912 101.41 48.3263 101.127 48.9301 101.015C49.5366 100.892 50.5365 100.78 51.136 100.761Z" fill="#FFDD2D"/>
<path d="M52.1149 8.56141C52.5472 8.46608 53.4136 8.3076 54.0368 8.2001C54.6724 8.08537 55.2825 8.02713 55.4116 8.05117C55.5771 8.09549 55.6125 8.15778 55.5597 8.35479C55.5228 8.49269 55.1983 9.19756 54.827 9.92156C54.4628 10.658 53.8163 11.8256 53.3892 12.5241C52.9622 13.2226 52.2924 14.2044 51.9058 14.7131C51.5094 15.2193 50.9488 15.8714 50.6495 16.1713C50.3598 16.4737 49.7654 16.9796 49.3361 17.2974C48.9068 17.6152 48.3122 18.0049 48.018 18.1689C47.7238 18.3329 47.2227 18.5681 46.8948 18.702C46.5793 18.8286 45.9447 19.0175 45.4806 19.1148C45.0288 19.2049 44.2712 19.3081 43.8087 19.3214C43.3436 19.3446 42.6495 19.3275 42.2542 19.2849C41.8686 19.245 41.3928 19.1914 41.1929 19.1589C41.0001 19.139 40.7913 19.0619 40.7169 18.9892C40.6284 18.8915 40.6536 18.6027 40.8514 17.7478C40.9956 17.1318 41.2694 16.2656 41.4616 15.8209C41.6537 15.3762 42.0047 14.689 42.2571 14.2921C42.5094 13.8952 42.889 13.374 43.0965 13.1445C43.2969 12.9026 43.7181 12.4981 44.0193 12.2304C44.3204 11.9627 44.9485 11.487 45.4044 11.1869C45.8726 10.8795 46.6713 10.4284 47.1971 10.1787C47.7203 9.93877 48.4158 9.63948 48.7287 9.52272C49.0539 9.39872 49.7698 9.17882 50.3258 9.01107C50.8889 8.85577 51.695 8.64949 52.1149 8.56141Z" fill="#FFDD2D"/>
<path d="M35.1474 10.8562C35.5472 10.2982 36.4644 9.1715 37.1725 8.35827C38.2231 7.16175 38.5022 6.89868 38.6703 6.93316C38.8454 6.98009 38.9414 7.32253 39.2291 8.85654C39.4338 9.8827 39.6454 11.3118 39.7144 12.0271C39.7835 12.7424 39.8468 13.7518 39.8413 14.2782C39.8482 14.7974 39.7963 15.6914 39.7388 16.2566C39.6699 17.0194 39.5487 17.5887 39.2651 18.4524C39.0459 19.1538 38.7277 19.9131 38.4745 20.352C38.2416 20.7541 37.7986 21.3956 37.4781 21.7742C37.1674 22.1555 36.6358 22.6993 36.3073 22.9913C35.9787 23.2834 35.2596 23.7875 34.7101 24.1259C34.1534 24.4518 33.6568 24.7094 33.5887 24.6911C33.5206 24.6729 33.2929 24.3162 33.0836 23.8906C32.8717 23.4749 32.6029 22.8433 32.4778 22.4931C32.3623 22.1454 32.1917 21.4979 32.1071 21.0741C32.0154 20.6378 31.9305 19.9816 31.9185 19.5983C31.9065 19.215 31.9181 18.6269 31.9468 18.2862C31.9755 17.9455 32.1538 17.0853 32.3315 16.3834C32.5822 15.4476 32.8095 14.8328 33.1561 14.1233C33.4259 13.5833 33.8193 12.8546 34.0267 12.509C34.2464 12.1561 34.7476 11.4142 35.1474 10.8562Z" fill="#FFDD2D"/>
<path d="M45.2423 20.7824C45.6322 20.7285 46.8108 20.6115 47.8638 20.5347C49.3528 20.4269 49.8028 20.4208 49.8861 20.5381C49.9668 20.6653 49.8318 20.9353 49.0721 22.1359C48.5674 22.9297 47.7493 24.1146 47.2621 24.7653C46.7651 25.4134 46.0315 26.2832 45.6271 26.7027C45.2253 27.1123 44.6124 27.6871 44.2644 27.9739C43.9261 28.2634 43.1999 28.755 42.6557 29.0737C42.1114 29.3924 41.3311 29.7745 40.9175 29.9171C40.5109 30.0721 39.8276 30.248 39.398 30.3334C38.9808 30.4117 38.1629 30.467 37.5908 30.4615C36.9258 30.4523 36.1254 30.3645 35.3656 30.2031C34.3502 29.9838 34.168 29.9244 34.0616 29.7376C33.9526 29.5606 33.9701 29.4174 34.2193 28.6819C34.3849 28.2195 34.6855 27.4871 34.9068 27.0502C35.1282 26.6133 35.5226 25.9588 35.7865 25.5967C36.0504 25.2346 36.5757 24.6363 36.9545 24.2733C37.3908 23.8517 38.1249 23.3305 38.9537 22.8453C39.7329 22.389 40.6909 21.9277 41.3458 21.702C41.9512 21.5053 42.9103 21.2344 43.4849 21.1139C44.0692 20.996 44.8595 20.8488 45.2423 20.7824Z" fill="#FFDD2D"/>
<path d="M26.1149 21.3688C26.4545 20.763 26.9282 19.9292 27.1859 19.5126C27.5317 18.9613 27.6942 18.7831 27.811 18.8144C27.9083 18.8405 28.2079 19.3958 28.4953 20.0746C28.7827 20.7534 29.198 21.7726 29.4066 22.3564C29.6178 22.9303 29.9064 23.7994 30.0511 24.2711C30.1862 24.7401 30.3819 25.6055 30.4879 26.1829C30.5842 26.7577 30.6923 27.5996 30.7203 28.0399C30.7386 28.4777 30.7432 29.239 30.7067 29.7255C30.6617 30.3996 30.5562 30.9098 30.2428 31.9238C29.9215 32.9673 29.732 33.4022 29.3376 34.0567C29.0623 34.5002 28.5098 35.239 28.1098 35.6808C27.7098 36.1226 27.1712 36.654 26.9177 36.8605C26.6544 37.0645 26.392 37.2265 26.3239 37.2082C26.2558 37.19 25.9733 36.882 25.6943 36.5222C25.4223 36.1748 24.9385 35.4117 24.6318 34.8439C24.325 34.2761 23.9712 33.495 23.8539 33.1152C23.727 32.7328 23.5776 32.1227 23.5187 31.7585C23.4599 31.3943 23.4208 30.6448 23.4121 30.0935C23.4131 29.5448 23.5135 28.5476 23.6195 27.8793C23.774 26.9916 23.9508 26.3316 24.2794 25.4167C24.5278 24.7231 24.9059 23.7792 25.113 23.3174C25.3326 22.8484 25.785 21.9772 26.1149 21.3688Z" fill="#FFDD2D"/>
<path d="M35.4212 32.7201C35.9983 32.4736 37.149 32.0323 37.9763 31.7472C38.8036 31.4622 39.5292 31.2449 39.5974 31.2631C39.6655 31.2814 39.7169 31.4007 39.7242 31.5293C39.719 31.6652 39.5317 32.3646 39.2974 33.0831C39.0632 33.8016 38.6439 34.9772 38.3707 35.6853C38.0976 36.3933 37.7185 37.2631 37.5377 37.6264C37.3596 37.9798 36.9944 38.6421 36.7262 39.0981C36.4509 39.5417 35.955 40.2639 35.6089 40.6991C35.2655 41.1244 34.696 41.7319 34.3304 42.0457C33.9771 42.3522 33.3543 42.8082 32.9532 43.0597C32.5547 43.3013 31.8805 43.638 31.4616 43.8002C31.0524 43.9651 30.3364 44.185 29.8723 44.2823C29.4206 44.3724 28.5674 44.4817 27.9874 44.5057C27.4074 44.5298 26.86 44.5098 26.7803 44.4568C26.6812 44.3985 26.627 44.1729 26.6248 43.9084C26.6272 43.6662 26.66 43.1154 26.6904 42.6907C26.7305 42.2686 26.8701 41.5142 26.9897 41.0289C27.1216 40.5364 27.3903 39.806 27.5843 39.3935C27.7783 38.9809 28.1382 38.3383 28.3923 37.9736C28.6368 37.6062 29.0984 37.012 29.4207 36.6655C29.743 36.319 30.3162 35.7758 30.6986 35.4771C31.074 35.166 32.0573 34.532 32.8764 34.0442C33.6928 33.5661 34.8441 32.9667 35.4212 32.7201Z" fill="#FFDD2D"/>
<path d="M18.0654 33.6229C18.1796 33.0411 18.3274 32.4895 18.4024 32.404C18.486 32.2997 18.5744 32.2812 18.6676 32.3484C18.7446 32.4113 19.1236 32.7873 19.4973 33.1831C19.8807 33.5814 20.6034 34.3874 21.1029 34.9752C21.6148 35.5558 22.342 36.5002 22.7319 37.0692C23.1341 37.6309 23.6978 38.5632 23.9947 39.1284C24.3015 39.6963 24.6758 40.5567 24.8303 41.031C24.9848 41.5052 25.1644 42.1973 25.2232 42.5615C25.2918 42.9283 25.3582 43.6534 25.3625 44.1824C25.3829 44.8847 25.3156 45.4473 25.1196 46.3344C24.9342 47.1821 24.7387 47.7949 24.4451 48.4235C24.23 48.9149 23.9549 49.4746 23.8437 49.656C23.7396 49.8498 23.5604 50.0129 23.4649 50.019C23.357 50.0323 23.073 49.9246 22.819 49.7826C22.5748 49.6433 22.08 49.3101 21.7136 49.043C21.3542 48.7883 20.7629 48.2709 20.4033 47.9001C20.0199 47.5018 19.491 46.7899 19.1197 46.152C18.7669 45.5613 18.3581 44.7127 18.2054 44.2706C18.0457 43.8161 17.8333 43.0518 17.7353 42.5611C17.6374 42.0703 17.5256 41.1641 17.4939 40.5432C17.4621 39.9224 17.4509 38.8742 17.481 38.2171C17.5207 37.5627 17.6104 36.4887 17.6988 35.8473C17.7872 35.2059 17.9512 34.2046 18.0654 33.6229Z" fill="#FFDD2D"/>
<path d="M31.5253 45.781C32.0615 45.3757 33.2391 44.5615 34.1482 43.9711C35.0546 43.3905 35.8171 42.9191 35.8587 42.9197C35.8879 42.9275 35.9596 43.0101 35.9995 43.0947C36.0394 43.1793 36.028 43.8836 35.9689 44.649C35.9098 45.4144 35.7938 46.5869 35.7027 47.2381C35.609 47.8993 35.3543 49.1613 35.1194 50.0379C34.8819 50.9245 34.5508 51.9654 34.3842 52.3536C34.2176 52.7418 33.9548 53.2943 33.7978 53.569C33.6505 53.8462 33.2799 54.412 32.9807 54.8281C32.6815 55.2441 32.1315 55.8568 31.7605 56.1903C31.3896 56.5238 30.6307 57.0595 30.0865 57.3781C29.5325 57.6942 28.6391 58.1094 28.0999 58.2922C27.5705 58.4776 26.9579 58.6619 26.7396 58.6984C26.5283 58.7474 26.2816 58.7341 26.2046 58.6712C26.1152 58.6156 25.9864 58.201 25.9071 57.7574C25.8375 57.3165 25.7569 56.5664 25.7324 56.0742C25.7149 55.5945 25.7343 54.8606 25.7815 54.451C25.8287 54.0413 26.0159 53.2258 26.2034 52.6426C26.3963 52.0397 26.7224 51.2508 26.9579 50.8388C27.1811 50.4341 27.5623 49.8289 27.7961 49.5009C28.03 49.173 28.4264 48.6668 28.6939 48.369C28.949 48.0784 29.478 47.5445 29.8568 47.1815C30.2454 46.8211 30.9891 46.1863 31.5253 45.781Z" fill="#FFDD2D"/>
<path d="M13.2334 48.2699C13.0359 47.3724 12.903 46.545 12.9276 46.4143C12.9751 46.237 13.044 46.2132 13.2581 46.2706C13.4041 46.3097 14.0517 46.5783 14.687 46.854C15.3293 47.1423 16.308 47.6157 16.8575 47.9002C17.4141 48.1971 18.369 48.7591 18.9699 49.163C19.5832 49.5596 20.4436 50.2019 20.881 50.5935C21.3307 50.978 21.8992 51.542 22.1596 51.8546C22.4199 52.1672 22.8576 52.7913 23.1324 53.2449C23.4097 53.6888 23.7511 54.3609 23.8957 54.7164C24.0403 55.0719 24.2295 55.6504 24.3157 55.9902C24.4019 56.3301 24.5038 57.1175 24.5356 57.7383C24.5771 58.3618 24.5721 59.2367 24.5241 59.6884C24.4858 60.1427 24.4263 60.5596 24.3883 60.6233C24.3504 60.687 24.1904 60.7392 24.0339 60.7395C23.8774 60.7398 23.0008 60.5471 22.0888 60.2922C20.8044 59.948 20.309 59.7731 19.8497 59.5022C19.5355 59.3124 18.9514 58.9236 18.5681 58.6415C18.1848 58.3593 17.5535 57.7573 17.1541 57.3019C16.714 56.8039 16.1531 55.9779 15.6922 55.1682C15.2933 54.4384 14.7968 53.4502 14.6033 52.9655C14.4125 52.471 14.0974 51.5842 13.9136 50.9859C13.7297 50.3877 13.4212 49.1648 13.2334 48.2699Z" fill="#FFDD2D"/>
<path d="M32.125 58.2939C32.7548 57.7342 33.6521 56.9928 34.1239 56.6335C34.5929 56.2841 35.0117 56.0057 35.0532 56.0063C35.0922 56.0167 35.1542 56.0967 35.2038 56.1839C35.2437 56.2685 35.3047 56.8971 35.333 57.5698C35.3614 58.2426 35.3788 59.3452 35.3682 60.0075C35.3479 60.6672 35.3014 61.6577 35.2615 62.196C35.2032 62.9194 35.0539 63.6712 34.6712 65.0995C34.1909 66.8922 34.1213 67.0741 33.6202 67.9323C33.3291 68.4349 32.8384 69.1375 32.5453 69.4918C32.2522 69.8461 31.7409 70.3531 31.43 70.6182C31.1094 70.8807 30.3885 71.3527 29.8247 71.6661C29.2584 71.9895 28.5099 72.3696 28.1476 72.5153C27.7949 72.6636 27.414 72.7622 27.3069 72.7335C27.1707 72.697 27.036 72.4603 26.8673 71.9611C26.7359 71.5564 26.5687 70.857 26.492 70.4036C26.4153 69.9502 26.3463 69.2349 26.3395 68.8319C26.3257 68.4165 26.3558 67.7594 26.4074 67.3721C26.452 66.9723 26.5714 66.3708 26.6567 66.0136C26.7517 65.659 27.0099 64.9681 27.2347 64.4793C27.4498 63.988 27.949 63.0977 28.3373 62.5049C28.7256 61.9122 29.483 60.9538 30.0154 60.368C30.5381 59.7796 31.4953 58.8536 32.125 58.2939Z" fill="#FFDD2D"/>
<path d="M12.0473 58.4567C12.049 58.3727 12.1151 58.2426 12.1973 58.1696C12.3413 58.0604 12.5482 58.1053 13.8097 58.4961C14.6068 58.7519 15.8064 59.1789 16.4762 59.4428C17.1556 59.7094 18.1156 60.1355 18.6218 60.3873C19.1253 60.6489 19.8412 61.0519 20.2032 61.2967C20.5775 61.5342 21.175 61.9899 21.5477 62.3115C21.9231 62.6232 22.4676 63.1598 22.7448 63.4874C23.0318 63.8177 23.5147 64.5066 23.8027 65.0272C24.1006 65.5504 24.4642 66.3341 24.6045 66.7834C24.7475 67.2229 24.9217 67.9347 24.9842 68.3632C25.0494 68.7818 25.1131 69.5168 25.1332 69.9868C25.1533 70.4567 25.115 70.9109 25.0621 70.9918C25.0039 71.0923 24.7679 71.1557 24.423 71.1584C24.1197 71.1615 23.5918 71.1468 23.2548 71.1198C22.8763 71.0923 22.1095 70.9185 21.2416 70.6543C20.0943 70.3047 19.7014 70.1361 19.0395 69.7264C18.6023 69.4509 17.8844 68.8996 17.4399 68.4954C17.0052 68.0939 16.4066 67.4479 16.1036 67.0605C15.8078 66.6856 15.2708 65.8872 14.9278 65.2991C14.5751 64.7084 14.0893 63.797 13.8454 63.2671C13.5918 62.7346 13.2272 61.8768 13.0222 61.3573C12.827 60.8405 12.5181 60.0081 12.3591 59.5116C12.1976 59.0249 12.0554 58.5434 12.0473 58.4567Z" fill="#FFDD2D"/>
<path d="M37.0094 66.5706C37.6425 65.8428 38.2146 65.2254 38.2836 65.2017C38.3525 65.1779 38.4506 65.162 38.4896 65.1724C38.5285 65.1828 38.6083 65.352 38.6775 65.5606C38.7371 65.7666 38.9694 66.8846 39.1982 68.0544C39.42 69.2118 39.644 70.7499 39.6936 71.46C39.7432 72.1701 39.7554 73.2924 39.7156 73.9469C39.669 74.8212 39.5709 75.46 39.3386 76.3269C39.1741 76.9796 38.9549 77.681 38.8579 77.8873C38.7609 78.0935 38.5069 78.5745 38.2917 78.9496C38.0764 79.3248 37.7111 79.8709 37.478 80.1569C37.245 80.4428 36.7681 80.938 36.4096 81.2642C36.051 81.5904 35.324 82.124 34.7992 82.448C34.2647 82.7693 33.7875 83.032 33.7291 83.0164C33.6805 83.0033 33.4173 82.5844 33.1434 82.0887C32.8792 81.5957 32.5652 80.8992 32.4498 80.5515C32.3344 80.2039 32.1797 79.6135 32.1111 79.2467C32.0328 78.8773 31.9558 78.1916 31.9357 77.7217C31.9156 77.2517 31.9534 76.449 32.0244 75.9506C32.0917 75.388 32.2834 74.5948 32.5071 73.9157C32.7026 73.303 33.0648 72.4182 33.3011 71.9642C33.5401 71.5004 33.9053 70.8381 34.1127 70.4924C34.3226 70.137 34.8089 69.4121 35.1813 68.8784C35.5661 68.3375 36.3862 67.3009 37.0094 66.5706Z" fill="#FFDD2D"/>
<path d="M41.6799 75.529C41.9496 74.8728 42.2211 74.2487 42.2846 74.1285C42.3455 74.0181 42.4692 73.9457 42.5594 73.9593C42.6469 73.9827 43.1555 74.7314 43.6811 75.6112C44.2164 76.4937 44.9362 77.8162 45.2812 78.5526C45.6288 79.2792 46.044 80.2984 46.2198 80.81C46.3858 81.3191 46.6045 82.1378 46.7024 82.6285C46.8003 83.1193 46.9032 83.9809 46.9314 84.5374C46.9596 85.094 46.9174 85.9906 46.8483 86.5211C46.7361 87.2512 46.6094 87.724 46.3186 88.459C46.1098 89.0048 45.6776 89.8392 45.3723 90.3169C45.0644 90.8045 44.5869 91.4578 44.3044 91.7727C43.9291 92.2001 43.7454 92.3409 43.5995 92.3018C43.4924 92.2731 43.2464 92.1016 43.0542 91.9234C42.8497 91.7525 42.4761 91.3568 42.213 91.054C41.95 90.7513 41.507 90.1469 41.2244 89.7228C40.9541 89.2914 40.556 88.5196 40.351 88.0002C40.1461 87.4807 39.9169 86.7014 39.842 86.2802C39.7601 85.8465 39.6884 85.141 39.6604 84.7007C39.6421 84.2629 39.642 83.5239 39.6803 83.0696C39.7088 82.6127 39.8349 81.6752 39.9683 80.9825C40.1097 80.2603 40.4264 79.0782 40.7073 78.2244C40.9706 77.3976 41.4102 76.1852 41.6799 75.529Z" fill="#FFDD2D"/>
<path d="M17.3156 71.3338C18.1743 71.4372 19.2162 71.558 19.6257 71.6255C20.0475 71.6857 21.2496 71.9867 22.3147 72.2932C23.4771 72.6258 24.5095 72.9763 24.8944 73.1745C25.2528 73.3549 25.9174 73.7547 26.3785 74.0578C26.8467 74.3732 27.4681 74.8565 27.7532 75.1546C28.0507 75.4455 28.5334 76.0182 28.8214 76.4226C29.119 76.8297 29.533 77.5424 29.7485 78.0224C29.9667 78.4926 30.2755 79.3249 30.431 79.8734C30.5865 80.4218 30.7146 80.9945 30.736 81.1481C30.7495 81.3312 30.7055 81.4566 30.596 81.554C30.5112 81.6368 30.0224 81.7487 29.5149 81.8133C29.0172 81.8805 28.2214 81.9312 27.7616 81.9347C27.2726 81.9304 26.4651 81.8301 25.7929 81.6922C24.9455 81.5074 24.4572 81.3449 23.8298 81.0396C23.3768 80.8231 22.6662 80.4005 22.2511 80.1203C21.8484 79.8329 21.1526 79.277 20.7081 78.8729C20.2734 78.4713 19.6429 77.8273 19.3108 77.4321C18.9787 77.037 18.371 76.2301 17.9643 75.6461C17.5576 75.062 16.8088 73.8479 16.2982 72.9509C15.5164 71.5485 15.4038 71.3071 15.5664 71.2451C15.6725 71.1996 16.4542 71.2402 17.3156 71.3338Z" fill="#FFDD2D"/>
<path d="M48.5263 86.2528C48.4663 85.6983 48.4514 85.2087 48.5062 85.16C48.576 85.0942 48.7538 85.1313 49.0351 85.2489C49.2705 85.3437 50.0571 85.7551 50.773 86.158C51.5013 86.5538 52.6297 87.2467 53.2864 87.6761C53.9502 88.1179 54.861 88.8053 55.3249 89.2147C55.7888 89.6241 56.3767 90.1933 56.623 90.481C56.8789 90.7713 57.3271 91.3559 57.6195 91.7827C57.9119 92.2094 58.325 92.9641 58.5476 93.4566C58.7605 93.9465 59.0225 94.798 59.1241 95.353C59.2185 95.8957 59.3117 96.7547 59.3141 97.2515C59.3166 97.7484 59.2814 98.5413 59.2157 99.0199C59.1501 99.4985 59.0526 99.9792 58.9917 100.09C58.9158 100.217 58.7577 100.301 58.5914 100.299C58.4349 100.299 57.8042 100.162 57.1841 99.9853C56.4181 99.7695 55.8138 99.5336 55.2501 99.2242C54.805 98.9783 54.1625 98.5738 53.8226 98.3244C53.4898 98.0874 52.8948 97.5057 52.4927 97.0601C52.103 96.6073 51.5502 95.868 51.2755 95.4143C51.0105 94.9632 50.6027 94.1888 50.3898 93.6989C50.1769 93.209 49.8494 92.3295 49.6674 91.7634C49.4782 91.1848 49.175 89.9423 48.9907 88.9955C48.7966 88.0461 48.596 86.8099 48.5263 86.2528Z" fill="#FFDD2D"/>
<path d="M28.5258 83.3641C29.036 83.4058 29.5852 83.458 29.7462 83.48C29.9169 83.5046 30.6227 83.6726 31.3162 83.8479C32.0973 84.0466 32.8723 84.3071 33.3253 84.5235C33.7297 84.7268 34.3465 85.0716 34.6819 85.2987C35.0271 85.5285 35.4777 85.8709 35.6769 86.0615C35.8885 86.2449 36.2692 86.6531 36.5323 86.9558C36.7927 87.2684 37.2303 87.8925 37.5051 88.3461C37.7825 88.79 38.1451 89.4995 38.3083 89.9022C38.4787 90.3173 38.6004 90.7194 38.5793 90.7982C38.5581 90.877 38.3718 91.0277 38.1544 91.1384C37.9397 91.2392 37.4102 91.4246 36.97 91.5495C36.5369 91.6868 35.82 91.8326 35.3665 91.8905C34.9227 91.9511 34.1614 91.9899 33.6724 91.9856C33.0419 91.9644 32.4617 91.8723 31.5762 91.635C30.7978 91.4265 30.0838 91.1718 29.5777 90.9201C29.1565 90.7016 28.3804 90.2509 27.8662 89.9125C27.3643 89.5669 26.5234 88.9298 26.0064 88.4851C25.4965 88.0529 24.6899 87.2878 24.2179 86.7918C23.7557 86.2984 22.9825 85.4472 22.5167 84.8896C22.0481 84.3417 21.669 83.8495 21.6796 83.8101C21.6901 83.7707 21.7599 83.7049 21.8465 83.6542C21.9304 83.6134 22.6315 83.5268 23.391 83.4558C24.1602 83.3874 25.4184 83.3233 26.1939 83.3094C26.9791 83.2981 28.0252 83.325 28.5258 83.3641Z" fill="#FFDD2D"/>
<path d="M39.8345 93.1194C40.3872 93.1197 41.1274 93.1596 41.4811 93.2016C41.842 93.2561 42.5673 93.4293 43.0945 93.6023C43.6218 93.7752 44.342 94.0843 44.688 94.2721C45.0411 94.4723 45.6155 94.8584 45.9722 95.1229C46.3387 95.39 46.884 95.8846 47.1931 96.2102C47.5119 96.5384 47.9087 97.0037 48.0876 97.2311C48.2639 97.4684 48.4278 97.7129 48.4385 97.7897C48.4492 97.8665 48.2515 98.0985 47.998 98.3051C47.7445 98.5117 47.0757 98.9448 46.5217 99.2609C45.9553 99.5842 45.259 99.9255 44.9708 100.028C44.6924 100.133 44.0339 100.294 43.5159 100.398C43.0102 100.495 42.1137 100.571 41.5389 100.576C40.7148 100.577 40.1832 100.497 38.9758 100.216C37.856 99.9584 37.166 99.7312 36.3317 99.381C35.7132 99.1203 34.6018 98.5585 33.8496 98.1353C33.1072 97.7146 32.0151 97.0419 31.4309 96.6531C30.8494 96.2545 30.3529 95.8892 30.3245 95.8394C30.2864 95.7869 30.3031 95.6858 30.3631 95.6174C30.4134 95.5465 31.0895 95.242 31.8681 94.9438C32.6467 94.6457 33.7497 94.2656 34.3084 94.088C34.8793 93.9031 35.811 93.6566 36.3856 93.5361C36.9699 93.4181 37.7603 93.271 38.1378 93.2243C38.5277 93.1704 39.2916 93.1217 39.8345 93.1194Z" fill="#FFDD2D"/>
<path d="M227.455 100.761C226.848 100.755 226.032 100.784 225.646 100.823C225.254 100.876 224.567 101.039 224.128 101.188C223.678 101.34 222.985 101.632 222.583 101.845C222.184 102.068 221.541 102.472 221.161 102.764C220.777 103.047 220.179 103.577 219.829 103.945C219.479 104.313 219.193 104.685 219.185 104.772C219.187 104.856 219.46 105.173 219.791 105.475C220.132 105.775 220.794 106.262 221.257 106.55C221.723 106.847 222.449 107.223 222.871 107.395C223.282 107.57 224.074 107.801 224.624 107.907C225.164 108.016 226.054 108.105 226.604 108.094C227.147 108.097 227.948 108.051 228.373 108.001C228.807 107.948 229.676 107.767 230.299 107.6C230.931 107.431 232.036 107.04 232.757 106.731C233.48 106.432 234.563 105.92 235.168 105.61C235.773 105.3 236.511 104.901 236.808 104.727C237.108 104.562 237.369 104.365 237.389 104.286C237.412 104.216 237.427 104.117 237.417 104.078C237.406 104.039 236.87 103.749 236.226 103.447C235.589 103.132 234.636 102.691 234.115 102.46C233.595 102.23 232.619 101.858 231.964 101.633C231.3 101.41 230.264 101.127 229.661 101.015C229.054 100.892 228.054 100.78 227.455 100.761Z" fill="#FFDD2D"/>
<path d="M226.476 8.56141C226.044 8.46608 225.177 8.3076 224.554 8.2001C223.918 8.08537 223.308 8.02713 223.179 8.05117C223.014 8.09549 222.978 8.15778 223.031 8.35479C223.068 8.49269 223.392 9.19756 223.764 9.92156C224.128 10.658 224.775 11.8256 225.202 12.5241C225.629 13.2226 226.298 14.2044 226.685 14.7131C227.081 15.2193 227.642 15.8714 227.941 16.1713C228.231 16.4737 228.825 16.9796 229.255 17.2974C229.684 17.6152 230.279 18.0049 230.573 18.1689C230.867 18.3329 231.368 18.5681 231.696 18.702C232.012 18.8286 232.646 19.0175 233.11 19.1148C233.562 19.2049 234.32 19.3081 234.782 19.3214C235.247 19.3446 235.941 19.3275 236.337 19.2849C236.722 19.245 237.198 19.1914 237.398 19.1589C237.591 19.139 237.8 19.0619 237.874 18.9892C237.962 18.8915 237.937 18.6027 237.739 17.7478C237.595 17.1318 237.321 16.2656 237.129 15.8209C236.937 15.3762 236.586 14.689 236.334 14.2921C236.081 13.8952 235.702 13.374 235.494 13.1445C235.294 12.9026 234.873 12.4981 234.572 12.2304C234.27 11.9627 233.642 11.487 233.186 11.1869C232.718 10.8795 231.919 10.4284 231.394 10.1787C230.871 9.93877 230.175 9.63948 229.862 9.52272C229.537 9.39872 228.821 9.17882 228.265 9.01107C227.702 8.85577 226.896 8.64949 226.476 8.56141Z" fill="#FFDD2D"/>
<path d="M243.443 10.8562C243.044 10.2982 242.126 9.1715 241.418 8.35827C240.368 7.16175 240.089 6.89868 239.921 6.93316C239.745 6.98009 239.649 7.32253 239.362 8.85654C239.157 9.8827 238.945 11.3118 238.876 12.0271C238.807 12.7424 238.744 13.7518 238.75 14.2782C238.743 14.7974 238.794 15.6914 238.852 16.2566C238.921 17.0194 239.042 17.5887 239.326 18.4524C239.545 19.1538 239.863 19.9131 240.116 20.352C240.349 20.7541 240.792 21.3956 241.113 21.7742C241.423 22.1555 241.955 22.6993 242.284 22.9913C242.612 23.2834 243.331 23.7875 243.881 24.1259C244.437 24.4518 244.934 24.7094 245.002 24.6911C245.07 24.6729 245.298 24.3162 245.507 23.8906C245.719 23.4749 245.988 22.8433 246.113 22.4931C246.228 22.1454 246.399 21.4979 246.484 21.0741C246.575 20.6378 246.66 19.9816 246.672 19.5983C246.684 19.215 246.673 18.6269 246.644 18.2862C246.615 17.9455 246.437 17.0853 246.259 16.3834C246.009 15.4476 245.781 14.8328 245.435 14.1233C245.165 13.5833 244.771 12.8546 244.564 12.509C244.344 12.1561 243.843 11.4142 243.443 10.8562Z" fill="#FFDD2D"/>
<path d="M233.348 20.7824C232.959 20.7285 231.78 20.6115 230.727 20.5347C229.238 20.4269 228.788 20.4208 228.705 20.5381C228.624 20.6653 228.759 20.9353 229.519 22.1359C230.023 22.9297 230.842 24.1146 231.329 24.7653C231.826 25.4134 232.559 26.2832 232.964 26.7027C233.366 27.1123 233.978 27.6871 234.326 27.9739C234.665 28.2634 235.391 28.755 235.935 29.0737C236.479 29.3924 237.26 29.7745 237.673 29.9171C238.08 30.0721 238.763 30.248 239.193 30.3334C239.61 30.4117 240.428 30.467 241 30.4615C241.665 30.4523 242.465 30.3645 243.225 30.2031C244.241 29.9838 244.423 29.9244 244.529 29.7376C244.638 29.5606 244.621 29.4174 244.371 28.6819C244.206 28.2195 243.905 27.4871 243.684 27.0502C243.463 26.6133 243.068 25.9588 242.804 25.5967C242.54 25.2346 242.015 24.6363 241.636 24.2733C241.2 23.8517 240.466 23.3305 239.637 22.8453C238.858 22.389 237.9 21.9277 237.245 21.702C236.64 21.5053 235.681 21.2344 235.106 21.1139C234.522 20.996 233.731 20.8488 233.348 20.7824Z" fill="#FFDD2D"/>
<path d="M252.476 21.3688C252.136 20.763 251.663 19.9292 251.405 19.5126C251.059 18.9613 250.897 18.7831 250.78 18.8144C250.683 18.8405 250.383 19.3958 250.095 20.0746C249.808 20.7534 249.393 21.7726 249.184 22.3564C248.973 22.9303 248.684 23.7994 248.54 24.2711C248.405 24.7401 248.209 25.6055 248.103 26.1829C248.007 26.7577 247.898 27.5996 247.87 28.0399C247.852 28.4777 247.848 29.239 247.884 29.7255C247.929 30.3996 248.035 30.9098 248.348 31.9238C248.669 32.9673 248.859 33.4022 249.253 34.0567C249.529 34.5002 250.081 35.239 250.481 35.6808C250.881 36.1226 251.42 36.654 251.673 36.8605C251.936 37.0645 252.199 37.2265 252.267 37.2082C252.335 37.19 252.618 36.882 252.897 36.5222C253.168 36.1748 253.652 35.4117 253.959 34.8439C254.266 34.2761 254.62 33.495 254.737 33.1152C254.864 32.7328 255.013 32.1227 255.072 31.7585C255.131 31.3943 255.17 30.6448 255.179 30.0935C255.178 29.5448 255.077 28.5476 254.971 27.8793C254.817 26.9916 254.64 26.3316 254.311 25.4167C254.063 24.7231 253.685 23.7792 253.478 23.3174C253.258 22.8484 252.806 21.9772 252.476 21.3688Z" fill="#FFDD2D"/>
<path d="M243.17 32.7201C242.593 32.4736 241.442 32.0323 240.615 31.7472C239.787 31.4622 239.062 31.2449 238.993 31.2631C238.925 31.2814 238.874 31.4007 238.867 31.5293C238.872 31.6652 239.059 32.3646 239.293 33.0831C239.528 33.8016 239.947 34.9772 240.22 35.6853C240.493 36.3933 240.872 37.2631 241.053 37.6264C241.231 37.9798 241.596 38.6421 241.865 39.0981C242.14 39.5417 242.636 40.2639 242.982 40.6991C243.325 41.1244 243.895 41.7319 244.26 42.0457C244.614 42.3522 245.237 42.8082 245.638 43.0597C246.036 43.3013 246.71 43.638 247.129 43.8002C247.538 43.9651 248.254 44.185 248.718 44.2823C249.17 44.3724 250.023 44.4817 250.603 44.5057C251.183 44.5298 251.731 44.5098 251.81 44.4568C251.91 44.3985 251.964 44.1729 251.966 43.9084C251.964 43.6662 251.931 43.1154 251.9 42.6907C251.86 42.2686 251.721 41.5142 251.601 41.0289C251.469 40.5364 251.2 39.806 251.007 39.3935C250.813 38.9809 250.453 38.3383 250.198 37.9736C249.954 37.6062 249.492 37.012 249.17 36.6655C248.848 36.319 248.275 35.7758 247.892 35.4771C247.517 35.166 246.533 34.532 245.714 34.0442C244.898 33.5661 243.747 32.9667 243.17 32.7201Z" fill="#FFDD2D"/>
<path d="M260.525 33.6229C260.411 33.0411 260.263 32.4895 260.188 32.404C260.105 32.2997 260.016 32.2812 259.923 32.3484C259.846 32.4113 259.467 32.7873 259.094 33.1831C258.71 33.5814 257.987 34.3874 257.488 34.9752C256.976 35.5558 256.249 36.5002 255.859 37.0692C255.457 37.6309 254.893 38.5632 254.596 39.1284C254.289 39.6963 253.915 40.5567 253.761 41.031C253.606 41.5052 253.426 42.1973 253.368 42.5615C253.299 42.9283 253.233 43.6534 253.228 44.1824C253.208 44.8847 253.275 45.4473 253.471 46.3344C253.657 47.1821 253.852 47.7949 254.146 48.4235C254.361 48.9149 254.636 49.4746 254.747 49.656C254.851 49.8498 255.03 50.0129 255.126 50.019C255.234 50.0323 255.518 49.9246 255.772 49.7826C256.016 49.6433 256.511 49.3101 256.877 49.043C257.237 48.7883 257.828 48.2709 258.187 47.9001C258.571 47.5018 259.1 46.7899 259.471 46.152C259.824 45.5613 260.233 44.7127 260.385 44.2706C260.545 43.8161 260.758 43.0518 260.855 42.5611C260.953 42.0703 261.065 41.1641 261.097 40.5432C261.129 39.9224 261.14 38.8742 261.11 38.2171C261.07 37.5627 260.98 36.4887 260.892 35.8473C260.804 35.2059 260.64 34.2046 260.525 33.6229Z" fill="#FFDD2D"/>
<path d="M247.066 45.781C246.529 45.3757 245.352 44.5615 244.443 43.9711C243.536 43.3905 242.774 42.9191 242.732 42.9197C242.703 42.9275 242.631 43.0101 242.591 43.0947C242.551 43.1793 242.563 43.8836 242.622 44.649C242.681 45.4144 242.797 46.5869 242.888 47.2381C242.982 47.8993 243.237 49.1613 243.471 50.0379C243.709 50.9245 244.04 51.9654 244.207 52.3536C244.373 52.7418 244.636 53.2943 244.793 53.569C244.94 53.8462 245.311 54.412 245.61 54.8281C245.909 55.2441 246.459 55.8568 246.83 56.1903C247.201 56.5238 247.96 57.0595 248.504 57.3781C249.058 57.6942 249.952 58.1094 250.491 58.2922C251.02 58.4776 251.633 58.6619 251.851 58.6984C252.063 58.7474 252.309 58.7341 252.386 58.6712C252.476 58.6156 252.604 58.201 252.684 57.7574C252.753 57.3165 252.834 56.5664 252.858 56.0742C252.876 55.5945 252.857 54.8606 252.809 54.451C252.762 54.0413 252.575 53.2258 252.387 52.6426C252.195 52.0397 251.868 51.2508 251.633 50.8388C251.41 50.4341 251.029 49.8289 250.795 49.5009C250.561 49.173 250.164 48.6668 249.897 48.369C249.642 48.0784 249.113 47.5445 248.734 47.1815C248.345 46.8211 247.602 46.1863 247.066 45.781Z" fill="#FFDD2D"/>
<path d="M265.357 48.2699C265.555 47.3724 265.688 46.545 265.663 46.4143C265.616 46.237 265.547 46.2132 265.333 46.2706C265.187 46.3097 264.539 46.5783 263.904 46.854C263.261 47.1423 262.283 47.6157 261.733 47.9002C261.177 48.1971 260.222 48.7591 259.621 49.163C259.008 49.5596 258.147 50.2019 257.71 50.5935C257.26 50.978 256.692 51.542 256.431 51.8546C256.171 52.1672 255.733 52.7913 255.458 53.2449C255.181 53.6888 254.84 54.3609 254.695 54.7164C254.55 55.0719 254.361 55.6504 254.275 55.9902C254.189 56.3301 254.087 57.1175 254.055 57.7383C254.014 58.3618 254.019 59.2367 254.067 59.6884C254.105 60.1427 254.165 60.5596 254.203 60.6233C254.24 60.687 254.4 60.7392 254.557 60.7395C254.713 60.7398 255.59 60.5471 256.502 60.2922C257.786 59.948 258.282 59.7731 258.741 59.5022C259.055 59.3124 259.639 58.9236 260.023 58.6415C260.406 58.3593 261.037 57.7573 261.437 57.3019C261.877 56.8039 262.438 55.9779 262.899 55.1682C263.298 54.4384 263.794 53.4502 263.987 52.9655C264.178 52.471 264.493 51.5842 264.677 50.9859C264.861 50.3877 265.17 49.1648 265.357 48.2699Z" fill="#FFDD2D"/>
<path d="M246.466 58.2939C245.836 57.7342 244.939 56.9928 244.467 56.6335C243.998 56.2841 243.579 56.0057 243.538 56.0063C243.499 56.0167 243.437 56.0967 243.387 56.1839C243.347 56.2685 243.286 56.8971 243.258 57.5698C243.229 58.2426 243.212 59.3452 243.223 60.0075C243.243 60.6672 243.289 61.6577 243.329 62.196C243.388 62.9194 243.537 63.6712 243.92 65.0995C244.4 66.8922 244.47 67.0741 244.971 67.9323C245.262 68.4349 245.752 69.1375 246.046 69.4918C246.339 69.8461 246.85 70.3531 247.161 70.6182C247.481 70.8807 248.202 71.3527 248.766 71.6661C249.332 71.9895 250.081 72.3696 250.443 72.5153C250.796 72.6636 251.177 72.7622 251.284 72.7335C251.42 72.697 251.555 72.4603 251.724 71.9611C251.855 71.5564 252.022 70.857 252.099 70.4036C252.175 69.9502 252.245 69.2349 252.251 68.8319C252.265 68.4165 252.235 67.7594 252.183 67.3721C252.139 66.9723 252.019 66.3708 251.934 66.0136C251.839 65.659 251.581 64.9681 251.356 64.4793C251.141 63.988 250.642 63.0977 250.254 62.5049C249.865 61.9122 249.108 60.9538 248.575 60.368C248.053 59.7796 247.095 58.8536 246.466 58.2939Z" fill="#FFDD2D"/>
<path d="M266.543 58.4567C266.542 58.3727 266.476 58.2426 266.394 58.1696C266.25 58.0604 266.043 58.1053 264.781 58.4961C263.984 58.7519 262.784 59.1789 262.115 59.4428C261.435 59.7094 260.475 60.1355 259.969 60.3873C259.466 60.6489 258.75 61.0519 258.388 61.2967C258.013 61.5342 257.416 61.9899 257.043 62.3115C256.668 62.6232 256.123 63.1598 255.846 63.4874C255.559 63.8177 255.076 64.5066 254.788 65.0272C254.49 65.5504 254.127 66.3341 253.986 66.7834C253.843 67.2229 253.669 67.9347 253.607 68.3632C253.541 68.7818 253.478 69.5168 253.458 69.9868C253.437 70.4567 253.476 70.9109 253.529 70.9918C253.587 71.0923 253.823 71.1557 254.168 71.1584C254.471 71.1615 254.999 71.1468 255.336 71.1198C255.714 71.0923 256.481 70.9185 257.349 70.6543C258.497 70.3047 258.889 70.1361 259.551 69.7264C259.989 69.4509 260.706 68.8996 261.151 68.4954C261.586 68.0939 262.184 67.4479 262.487 67.0605C262.783 66.6856 263.32 65.8872 263.663 65.2991C264.016 64.7084 264.502 63.797 264.745 63.2671C264.999 62.7346 265.364 61.8768 265.569 61.3573C265.764 60.8405 266.073 60.0081 266.232 59.5116C266.393 59.0249 266.535 58.5434 266.543 58.4567Z" fill="#FFDD2D"/>
<path d="M241.581 66.5706C240.948 65.8428 240.376 65.2254 240.307 65.2017C240.238 65.1779 240.14 65.162 240.101 65.1724C240.062 65.1828 239.983 65.352 239.913 65.5606C239.854 65.7666 239.621 66.8846 239.393 68.0544C239.171 69.2118 238.947 70.7499 238.897 71.46C238.848 72.1701 238.835 73.2924 238.875 73.9469C238.922 74.8212 239.02 75.46 239.252 76.3269C239.417 76.9796 239.636 77.681 239.733 77.8873C239.83 78.0935 240.084 78.5745 240.299 78.9496C240.514 79.3248 240.88 79.8709 241.113 80.1569C241.346 80.4428 241.823 80.938 242.181 81.2642C242.54 81.5904 243.267 82.124 243.792 82.448C244.326 82.7693 244.803 83.032 244.862 83.0164C244.91 83.0033 245.174 82.5844 245.447 82.0887C245.712 81.5957 246.026 80.8992 246.141 80.5515C246.256 80.2039 246.411 79.6135 246.48 79.2467C246.558 78.8773 246.635 78.1916 246.655 77.7217C246.675 77.2517 246.637 76.449 246.566 75.9506C246.499 75.388 246.307 74.5948 246.084 73.9157C245.888 73.303 245.526 72.4182 245.29 71.9642C245.051 71.5004 244.685 70.8381 244.478 70.4924C244.268 70.137 243.782 69.4121 243.41 68.8784C243.025 68.3375 242.205 67.3009 241.581 66.5706Z" fill="#FFDD2D"/>
<path d="M236.911 75.529C236.641 74.8728 236.37 74.2487 236.306 74.1285C236.245 74.0181 236.122 73.9457 236.031 73.9593C235.944 73.9827 235.435 74.7314 234.91 75.6112C234.374 76.4937 233.655 77.8162 233.31 78.5526C232.962 79.2792 232.547 80.2984 232.371 80.81C232.205 81.3191 231.986 82.1378 231.888 82.6285C231.79 83.1193 231.688 83.9809 231.659 84.5374C231.631 85.094 231.673 85.9906 231.743 86.5211C231.855 87.2512 231.981 87.724 232.272 88.459C232.481 89.0048 232.913 89.8392 233.218 90.3169C233.526 90.8045 234.004 91.4578 234.286 91.7727C234.662 92.2001 234.845 92.3409 234.991 92.3018C235.098 92.2731 235.344 92.1016 235.537 91.9234C235.741 91.7525 236.115 91.3568 236.378 91.054C236.641 90.7513 237.084 90.1469 237.366 89.7228C237.637 89.2914 238.035 88.5196 238.24 88.0002C238.445 87.4807 238.674 86.7014 238.749 86.2802C238.831 85.8465 238.902 85.141 238.93 84.7007C238.949 84.2629 238.949 83.5239 238.911 83.0696C238.882 82.6127 238.756 81.6752 238.622 80.9825C238.481 80.2603 238.164 79.0782 237.883 78.2244C237.62 77.3976 237.181 76.1852 236.911 75.529Z" fill="#FFDD2D"/>
<path d="M261.275 71.3338C260.416 71.4372 259.375 71.558 258.965 71.6255C258.543 71.6857 257.341 71.9867 256.276 72.2932C255.114 72.6258 254.081 72.9763 253.696 73.1745C253.338 73.3549 252.673 73.7547 252.212 74.0578C251.744 74.3732 251.123 74.8565 250.838 75.1546C250.54 75.4455 250.057 76.0182 249.769 76.4226C249.472 76.8297 249.058 77.5424 248.842 78.0224C248.624 78.4926 248.315 79.3249 248.16 79.8734C248.004 80.4218 247.876 80.9945 247.855 81.1481C247.841 81.3312 247.885 81.4566 247.995 81.554C248.08 81.6368 248.568 81.7487 249.076 81.8133C249.574 81.8805 250.369 81.9312 250.829 81.9347C251.318 81.9304 252.126 81.8301 252.798 81.6922C253.645 81.5074 254.134 81.3449 254.761 81.0396C255.214 80.8231 255.925 80.4005 256.34 80.1203C256.742 79.8329 257.438 79.277 257.883 78.8729C258.317 78.4713 258.948 77.8273 259.28 77.4321C259.612 77.037 260.22 76.2301 260.627 75.6461C261.033 75.062 261.782 73.8479 262.293 72.9509C263.074 71.5485 263.187 71.3071 263.024 71.2451C262.918 71.1996 262.137 71.2402 261.275 71.3338Z" fill="#FFDD2D"/>
<path d="M230.065 86.2528C230.125 85.6983 230.139 85.2087 230.085 85.16C230.015 85.0942 229.837 85.1313 229.556 85.2489C229.32 85.3437 228.534 85.7551 227.818 86.158C227.09 86.5538 225.961 87.2467 225.304 87.6761C224.641 88.1179 223.73 88.8053 223.266 89.2147C222.802 89.6241 222.214 90.1933 221.968 90.481C221.712 90.7713 221.264 91.3559 220.971 91.7827C220.679 92.2094 220.266 92.9641 220.043 93.4566C219.83 93.9465 219.568 94.798 219.467 95.353C219.372 95.8957 219.279 96.7547 219.277 97.2515C219.274 97.7484 219.309 98.5413 219.375 99.0199C219.441 99.4985 219.538 99.9792 219.599 100.09C219.675 100.217 219.833 100.301 219.999 100.299C220.156 100.299 220.787 100.162 221.407 99.9853C222.173 99.7695 222.777 99.5336 223.341 99.2242C223.786 98.9783 224.428 98.5738 224.768 98.3244C225.101 98.0874 225.696 97.5057 226.098 97.0601C226.488 96.6073 227.041 95.868 227.315 95.4143C227.58 94.9632 227.988 94.1888 228.201 93.6989C228.414 93.209 228.741 92.3295 228.923 91.7634C229.113 91.1848 229.416 89.9423 229.6 88.9955C229.794 88.0461 229.995 86.8099 230.065 86.2528Z" fill="#FFDD2D"/>
<path d="M250.065 83.3641C249.555 83.4058 249.006 83.458 248.845 83.48C248.674 83.5046 247.968 83.6726 247.275 83.8479C246.494 84.0466 245.719 84.3071 245.266 84.5235C244.861 84.7268 244.244 85.0716 243.909 85.2987C243.564 85.5285 243.113 85.8709 242.914 86.0615C242.702 86.2449 242.322 86.6531 242.059 86.9558C241.798 87.2684 241.36 87.8925 241.086 88.3461C240.808 88.79 240.446 89.4995 240.282 89.9022C240.112 90.3173 239.99 90.7194 240.012 90.7982C240.033 90.877 240.219 91.0277 240.436 91.1384C240.651 91.2392 241.181 91.4246 241.621 91.5495C242.054 91.6868 242.771 91.8326 243.224 91.8905C243.668 91.9511 244.429 91.9899 244.918 91.9856C245.549 91.9644 246.129 91.8723 247.015 91.635C247.793 91.4265 248.507 91.1718 249.013 90.9201C249.434 90.7016 250.21 90.2509 250.725 89.9125C251.226 89.5669 252.067 88.9298 252.584 88.4851C253.094 88.0529 253.901 87.2878 254.373 86.7918C254.835 86.2984 255.608 85.4472 256.074 84.8896C256.543 84.3417 256.922 83.8495 256.911 83.8101C256.901 83.7707 256.831 83.7049 256.744 83.6542C256.66 83.6134 255.959 83.5268 255.2 83.4558C254.431 83.3874 253.172 83.3233 252.397 83.3094C251.612 83.2981 250.566 83.325 250.065 83.3641Z" fill="#FFDD2D"/>
<path d="M238.756 93.1194C238.204 93.1197 237.463 93.1596 237.11 93.2016C236.749 93.2561 236.024 93.4293 235.496 93.6023C234.969 93.7752 234.249 94.0843 233.903 94.2721C233.55 94.4723 232.975 94.8584 232.619 95.1229C232.252 95.39 231.707 95.8846 231.398 96.2102C231.079 96.5384 230.682 97.0037 230.503 97.2311C230.327 97.4684 230.163 97.7129 230.152 97.7897C230.142 97.8665 230.339 98.0985 230.593 98.3051C230.846 98.5117 231.515 98.9448 232.069 99.2609C232.636 99.5842 233.332 99.9255 233.62 100.028C233.898 100.133 234.557 100.294 235.075 100.398C235.581 100.495 236.477 100.571 237.052 100.576C237.876 100.577 238.408 100.497 239.615 100.216C240.735 99.9584 241.425 99.7312 242.259 99.381C242.878 99.1203 243.989 98.5585 244.741 98.1353C245.484 97.7146 246.576 97.0419 247.16 96.6531C247.741 96.2545 248.238 95.8892 248.266 95.8394C248.304 95.7869 248.288 95.6858 248.228 95.6174C248.177 95.5465 247.501 95.242 246.723 94.9438C245.944 94.6457 244.841 94.2656 244.282 94.088C243.711 93.9031 242.78 93.6566 242.205 93.5361C241.621 93.4181 240.831 93.271 240.453 93.2243C240.063 93.1704 239.299 93.1217 238.756 93.1194Z" fill="#FFDD2D"/>
<path fill-rule="evenodd" clip-rule="evenodd" d="M192.063 23.2622C192.621 23.0754 192.986 23.2808 192.995 23.8699C192.996 23.956 192.996 24.0478 192.996 24.1446C192.996 24.9134 193.032 25.3764 193.112 25.4987C193.21 25.6909 193.263 25.6996 193.948 25.6647C194.357 25.6472 194.757 25.5948 194.855 25.5511C194.989 25.49 195.007 25.5074 194.953 25.6559C194.909 25.752 194.775 25.9442 194.651 26.0753C194.526 26.2151 194.259 26.416 194.064 26.5383C193.868 26.6519 193.566 26.748 193.397 26.7567C193.228 26.7654 192.907 26.7392 192.685 26.7043C192.338 26.6519 192.258 26.6693 192.107 26.8353C192.009 26.9489 191.867 27.2372 191.787 27.4818C191.645 27.9186 191.636 27.9274 191.298 27.9274C191.111 27.9274 190.835 28.006 190.684 28.0933C190.533 28.1894 190.248 28.3991 190.035 28.5738C189.821 28.7486 189.652 28.9058 189.652 28.932C189.652 28.9582 189.848 29.0543 190.079 29.1417C190.31 29.2291 190.728 29.4125 190.995 29.5523C191.307 29.7008 191.529 29.8843 191.6 30.0415C191.671 30.19 191.698 30.4084 191.671 30.5919C191.636 30.7579 191.573 31.1161 191.529 31.3782C191.484 31.6665 191.484 31.8936 191.538 31.946C191.616 32.0228 191.57 32.1548 191.679 32.1626C191.696 32.1638 191.714 32.1644 191.733 32.1644C191.976 32.1644 192.18 32.0074 192.371 31.8584C192.408 31.8294 192.445 31.7998 192.481 31.7713C192.658 31.6402 192.961 31.5267 193.228 31.483C193.553 31.4374 193.874 31.3729 194.198 31.4253C194.312 31.4438 194.439 31.4663 194.571 31.4917C195.024 31.5704 195.54 31.7189 195.709 31.815C195.878 31.9111 196.047 31.9722 196.083 31.946C196.127 31.9198 196.234 31.9373 196.332 31.9897C196.43 32.0334 196.51 32.1469 196.51 32.2256C196.51 32.3129 196.421 32.4702 196.314 32.575C196.198 32.6799 195.834 32.8983 195.496 33.0555C195.158 33.2128 194.82 33.4224 194.757 33.5185C194.686 33.6146 194.597 34.1388 194.553 34.6979C194.482 35.5279 194.491 35.8511 194.615 36.5325C194.695 36.9868 194.766 37.4411 194.766 37.5372C194.775 37.6333 194.802 37.7294 194.829 37.7556C194.855 37.7818 194.944 38.1313 195.024 38.5419C195.113 38.9525 195.176 39.3893 195.176 39.5203C195.176 39.5405 195.174 39.5602 195.172 39.579C195.155 39.7383 194.979 39.7932 194.82 39.7737C194.749 39.7649 194.615 39.8261 194.526 39.9134C194.437 40.0008 194.313 40.2192 194.259 40.3939C194.197 40.5687 194.126 40.6997 194.082 40.6735C194.046 40.656 194.019 40.7347 194.019 40.857C194.019 40.9793 193.966 41.1802 193.895 41.3112C193.833 41.451 193.672 41.6345 193.539 41.7306C193.361 41.8616 193.308 41.9839 193.308 42.2285C193.308 42.412 193.352 42.5605 193.397 42.5605C193.441 42.5605 193.486 42.6828 193.486 42.8226C193.486 42.9624 193.441 43.0847 193.397 43.0847C193.352 43.0847 193.308 43.2245 193.308 43.3905C193.308 43.5943 193.254 43.7224 193.148 43.7749C193.068 43.8098 192.899 44.0806 192.792 44.3602C192.676 44.6485 192.516 45.0154 192.445 45.1814C192.338 45.4347 192.338 45.557 192.418 45.8803C192.475 46.0803 192.674 46.5293 193.199 47.5023C193.288 47.6686 193.48 47.7525 193.663 47.7062C193.832 47.6625 194.135 47.6275 194.331 47.6275C194.526 47.6275 194.775 47.6887 194.882 47.7586C194.998 47.8285 195.167 48.0381 195.256 48.2129C195.344 48.3963 195.629 48.7108 195.878 48.9118C196.127 49.1214 196.403 49.4359 196.501 49.6107C196.59 49.7941 196.688 50.1348 196.705 50.3794C196.732 50.6153 196.821 50.9473 196.901 51.0958C196.981 51.2531 197.221 51.5763 197.444 51.8209C197.755 52.1616 197.844 52.3276 197.844 52.5635C197.844 52.7295 197.782 52.9304 197.71 53.0003C197.639 53.0702 197.577 53.175 197.577 53.2187C197.577 53.2624 197.648 53.4371 197.746 53.5856C197.835 53.7429 198.048 54.0836 198.208 54.3457C198.457 54.7301 198.511 54.8961 198.502 55.263C198.493 55.5076 198.466 55.8658 198.431 56.058C198.404 56.2502 198.369 56.6084 198.351 56.853C198.349 56.8944 198.348 56.934 198.348 56.9712C198.345 57.1823 198.442 57.3625 198.484 57.5694C198.52 57.7441 198.653 58.1896 198.778 58.5478C198.893 58.906 199 59.2118 199 59.2205C199 59.238 198.938 59.2467 198.867 59.2467C198.795 59.2467 198.733 59.2205 198.733 59.1768C198.733 59.1419 198.208 58.7051 197.577 58.1984C196.945 57.6917 196.43 57.2374 196.43 57.1937C196.43 57.15 196.314 57.0452 196.181 56.9753C196.038 56.9054 195.451 56.4511 194.864 55.9706C194.277 55.4901 193.735 55.0358 193.655 54.966C193.575 54.8961 193.263 54.634 192.961 54.3981C192.658 54.1535 192.32 53.8215 192.205 53.6555C192.089 53.4895 191.965 53.2537 191.929 53.1314C191.885 53.009 191.858 52.8518 191.876 52.7819C191.885 52.712 191.84 52.6247 191.778 52.5897C191.698 52.546 191.662 52.2752 191.662 51.6025C191.662 51.0521 191.698 50.6503 191.751 50.6153C191.805 50.5804 191.858 50.4144 191.876 50.2484C191.885 50.0824 191.911 49.4534 191.92 48.8506C191.938 48.1226 191.908 47.6712 191.831 47.4965C191.769 47.3567 191.698 47.0771 191.662 46.885C191.636 46.6928 191.591 46.0375 191.564 45.4173C191.538 44.5 191.493 44.2466 191.333 43.9321C191.227 43.7312 190.96 43.373 190.737 43.1371C190.515 42.9012 190.106 42.5431 189.839 42.3421C189.572 42.1412 189.261 41.9315 189.145 41.8791C188.996 41.7938 188.908 41.8778 188.968 42.0384C189.001 42.1261 189.044 42.2309 189.092 42.3421C189.216 42.6304 189.492 43.1196 189.706 43.4341C189.91 43.7487 190.159 44.0806 190.266 44.1767C190.426 44.3252 190.444 44.4213 190.399 44.8756C190.373 45.1639 190.284 45.5221 190.195 45.6619C190.106 45.8017 189.981 45.9764 189.919 46.0288C189.821 46.1162 189.652 46.0725 189.039 45.8017C188.621 45.6095 188.122 45.426 187.927 45.3998C187.615 45.3474 187.544 45.3649 187.322 45.592C187.189 45.723 186.993 46.055 186.886 46.3171C186.779 46.6054 186.708 46.9811 186.717 47.2519C186.717 47.5052 186.779 47.8197 186.851 47.9508C186.922 48.0906 187.02 48.4313 187.073 48.7196C187.126 49.0079 187.171 49.532 187.171 49.8727C187.171 50.4493 187.189 50.5105 187.349 50.5105C187.446 50.5105 187.544 50.5542 187.571 50.5978C187.598 50.6503 187.776 50.6677 187.998 50.6415C188.116 50.6263 188.232 50.6053 188.317 50.5869C188.401 50.5686 188.504 50.5241 188.549 50.5978C188.576 50.6415 188.363 50.9735 188.078 51.3142C187.793 51.6637 187.384 52.1791 187.162 52.4587C187.063 52.5876 186.969 52.7053 186.893 52.794C186.791 52.9122 186.651 52.9181 186.575 52.7819C186.504 52.6683 186.361 52.6072 186.192 52.6072C186.041 52.6072 185.801 52.6771 185.641 52.7557C185.481 52.8431 185.294 52.9828 185.214 53.0615C185.143 53.1401 184.778 53.4546 184.414 53.7516C184.049 54.0487 183.524 54.433 183.257 54.599C182.991 54.7738 182.617 55.0096 182.421 55.1319C182.235 55.2542 181.834 55.6561 181.541 56.0143C181.247 56.3725 180.776 57.019 180.5 57.4558C180.216 57.8926 179.922 58.2682 179.842 58.3032C179.762 58.3469 179.709 58.4255 179.717 58.4779C179.735 58.5391 179.655 58.74 179.54 58.9147C179.433 59.0982 179.362 59.2729 179.388 59.3079C179.415 59.3515 179.353 59.5001 179.264 59.6398C179.175 59.7796 178.97 60.2776 178.819 60.7319C178.677 61.1861 178.526 61.6841 178.49 61.8239C178.463 61.9637 178.294 62.6014 178.117 63.2392C177.973 63.7209 177.841 64.1309 177.771 64.2847C177.748 64.3345 177.686 64.3242 177.657 64.3708C177.642 64.3966 177.643 64.4336 177.639 64.4637C177.63 64.5484 177.615 64.7019 177.601 64.8379C177.583 65.0039 177.458 65.4844 177.325 65.9124C177.183 66.3318 177.04 66.6463 177.005 66.6113C176.969 66.5677 176.934 66.6638 176.934 66.8035C176.934 67.0132 176.987 67.0918 177.227 67.1879C177.414 67.2666 177.636 67.2928 177.832 67.2578C178.001 67.2229 178.294 67.1006 178.481 66.9783C178.659 66.8559 178.908 66.7599 179.033 66.7599C179.193 66.7599 179.335 66.8647 179.548 67.153C179.717 67.3889 179.958 67.5985 180.144 67.6684C180.34 67.747 180.509 67.7645 180.616 67.7121C180.696 67.6684 180.811 67.5461 180.874 67.4325C180.927 67.3277 180.989 66.9084 180.998 66.4978C181.034 65.7814 181.034 65.7552 181.229 65.7901C181.345 65.8076 181.772 65.9299 182.19 66.061C182.608 66.192 183.168 66.4104 183.435 66.5414C183.702 66.6725 184.084 66.8996 184.28 67.0482C184.476 67.1967 184.743 67.4325 184.885 67.5811C185.116 67.8344 185.125 67.8344 185.045 67.6335C185.009 67.5112 184.769 67.0219 184.52 66.5414C184.093 65.7028 184.076 65.6504 184.129 65.1611C184.165 64.8903 184.2 64.6632 184.218 64.6632C184.227 64.6632 184.369 64.7156 184.529 64.7767C184.68 64.8379 185.018 65.1 185.259 65.3533C185.508 65.6067 185.828 66.0347 185.979 66.3056C186.13 66.5851 186.344 66.9433 186.45 67.1093C186.557 67.2753 187.011 67.782 187.464 68.2275C187.909 68.6731 188.327 69.04 188.371 69.04C188.416 69.04 188.665 69.2147 188.905 69.4331C189.154 69.6428 189.412 69.8437 189.483 69.8612C189.554 69.8874 189.768 70.0796 189.955 70.298C190.133 70.5164 190.328 70.6737 190.373 70.6475C190.417 70.6213 190.444 70.6649 190.417 70.7348C190.382 70.8309 190.337 70.8397 190.239 70.7785C190.168 70.7348 190.079 70.7086 190.044 70.7261C189.999 70.7523 189.839 70.6999 189.679 70.6213C189.448 70.5077 189.341 70.499 189.234 70.5688C189.145 70.6213 189.056 70.7785 189.021 70.9183C188.976 71.093 189.021 71.3638 189.172 71.7832C189.288 72.1239 189.43 72.5345 189.501 72.7005C189.563 72.8665 189.679 73.0761 189.75 73.1722C189.821 73.2596 189.964 73.4081 190.061 73.4955C190.159 73.5916 190.293 73.6615 190.355 73.6615C190.408 73.6615 190.613 73.7314 190.8 73.8275C190.977 73.9148 191.36 74.2206 191.645 74.5001C191.711 74.5654 191.772 74.6293 191.827 74.6895C192.045 74.9291 191.923 75.1235 191.618 75.0156C191.589 75.0042 191.56 74.9936 191.531 74.9838C191.259 74.8913 190.986 75.017 190.915 75.2951C190.862 75.4786 190.853 75.7582 190.889 75.9154C190.942 76.1688 190.933 76.195 190.755 76.195C190.631 76.195 190.462 76.0814 190.328 75.9067C190.213 75.7582 189.928 75.2165 189.706 74.7098C189.474 74.2031 189.243 73.7314 189.172 73.6615C189.11 73.5916 189.039 73.4343 189.021 73.312C189.012 73.1897 188.95 73.0936 188.896 73.0936C188.843 73.0936 188.745 73.0325 188.665 72.9626C188.594 72.8927 188.425 72.6131 188.3 72.351C188.167 72.089 188.06 71.8181 188.06 71.757C188.06 71.7046 187.945 71.4862 187.811 71.2765C187.669 71.0756 187.393 70.6125 187.189 70.2543C186.984 69.8962 186.851 69.5729 186.877 69.5292C186.904 69.4943 186.895 69.4681 186.851 69.4681C186.806 69.4681 186.699 69.3545 186.619 69.206C186.53 69.0662 186.29 68.8303 186.086 68.6818C185.872 68.542 185.668 68.4547 185.632 68.4896C185.566 68.5413 185.645 68.3732 185.611 68.2972C185.596 68.266 185.571 68.2388 185.534 68.2188C185.454 68.1839 185.392 68.1926 185.392 68.245C185.392 68.2887 185.508 68.5071 185.659 68.7255C185.917 69.1099 185.926 69.1361 185.828 69.6166C185.774 69.8962 185.757 70.298 185.783 70.5164C185.81 70.7348 185.997 71.2241 186.192 71.6085C186.388 71.9928 186.584 72.5258 186.637 72.7878C186.69 73.0499 186.717 73.5042 186.717 73.7925C186.708 74.0808 186.726 74.3691 186.753 74.4215C186.788 74.4827 186.771 74.7448 186.717 74.9894C186.646 75.3388 186.646 75.4961 186.726 75.6271C186.806 75.7582 186.824 76.2998 186.788 77.6365C186.762 78.6411 186.673 80.3359 186.593 81.393C186.45 83.1403 186.415 83.3499 186.201 83.7431C186.077 83.9789 185.721 84.4245 185.419 84.7303C185.107 85.0273 184.68 85.3855 184.458 85.5165C184.371 85.5714 184.286 85.6168 184.215 85.6491C184.085 85.7079 183.934 85.6673 183.827 85.7611C183.755 85.831 183.533 85.8922 183.337 85.8922C183.062 85.8922 182.946 85.9446 182.768 86.1543C182.644 86.3028 182.51 86.5649 182.457 86.7396C182.412 86.923 182.368 87.1764 182.368 87.3074C182.368 87.4472 182.323 87.5695 182.279 87.5957C182.235 87.6219 182.119 87.6219 182.039 87.5957C181.95 87.5695 181.808 87.4385 181.728 87.29C181.576 87.0454 181.576 87.0017 181.701 86.6522C181.781 86.4513 181.834 86.1106 181.834 85.8922C181.834 85.6738 181.772 85.2806 181.692 85.0185C181.585 84.6953 181.416 84.4158 181.158 84.1449C180.945 83.9265 180.767 83.6732 180.767 83.5771C180.758 83.481 180.918 83.2626 181.123 83.0704C181.318 82.8957 181.523 82.7471 181.567 82.7471C181.612 82.7471 181.941 82.8869 182.279 83.0529C182.617 83.2189 182.919 83.3587 182.946 83.3587C182.973 83.3587 182.973 83.0966 182.946 82.7646C182.919 82.4414 182.875 82.0832 182.857 81.9609C182.839 81.8386 182.795 81.3668 182.768 80.9125C182.733 80.4582 182.67 79.6283 182.626 79.0779C182.555 78.2305 182.492 77.9684 182.234 77.3744C182.066 76.99 181.923 76.6056 181.923 76.5182C181.923 76.4396 181.879 76.3872 181.834 76.4134C181.79 76.4396 181.71 76.3872 181.665 76.2998C181.594 76.16 181.567 76.1688 181.292 76.3697C181.123 76.4833 180.838 76.7017 180.642 76.8502C180.456 76.99 180.109 77.3569 179.869 77.6539C179.54 78.0733 179.353 78.2218 179.104 78.2917C178.917 78.3354 178.623 78.3528 178.454 78.3266C178.286 78.2917 178.045 78.2218 177.921 78.1606C177.796 78.0995 177.503 77.8286 177.254 77.5578C177.014 77.287 176.693 77.0162 176.542 76.9638C176.401 76.9146 175.728 76.8655 173.829 76.8308C173.574 76.8261 173.333 76.7163 173.162 76.5269C173.002 76.3697 172.78 75.9329 172.629 75.5398C172.495 75.1554 172.318 74.7098 172.237 74.5438C172.157 74.3778 171.944 74.0895 171.766 73.9061C171.579 73.7226 171.197 73.4256 170.921 73.2421C170.637 73.0674 170.165 72.8403 169.872 72.7529C169.507 72.6393 169.196 72.6044 168.893 72.6393C168.573 72.6743 167.879 72.9538 166.492 73.6091C165.416 74.1157 164.491 74.5526 164.446 74.5613C164.393 74.5788 164.411 74.6923 164.491 74.8409C164.562 74.9719 164.811 75.2864 165.033 75.531C165.256 75.7756 165.469 76.1163 165.505 76.2823C165.54 76.4483 165.549 76.7279 165.513 76.8939C165.478 77.0599 165.176 77.785 164.829 78.5101C164.482 79.2264 164.162 79.8729 164.099 79.9428C164.046 80.0127 163.824 80.1437 163.601 80.2311C163.281 80.3709 163.041 80.3971 162.365 80.3709C161.68 80.3534 161.476 80.3097 161.235 80.1437C161.066 80.0389 160.933 79.969 160.933 79.9952C160.933 80.0214 160.791 79.9778 160.622 79.9079C160.453 79.838 160.213 79.7768 160.088 79.7768C159.964 79.7768 159.732 79.8991 159.554 80.0564C159.385 80.2136 159.056 80.6941 158.825 81.1135C158.487 81.725 158.327 81.9172 158.042 82.0744C157.847 82.1793 157.66 82.3103 157.624 82.354C157.589 82.3977 157.206 82.4414 156.779 82.4414C156.353 82.4414 155.774 82.389 155.508 82.3278C155.241 82.2666 154.743 82.0832 154.396 81.9172C154.049 81.7512 153.328 81.3668 152.795 81.0698C152.252 80.764 151.639 80.4582 151.416 80.3884C151.194 80.3185 150.972 80.2224 150.918 80.17C150.865 80.1263 150.536 80.0826 150.18 80.0826C149.789 80.0826 149.522 80.1175 149.477 80.1874C149.442 80.2398 149.237 80.3709 149.015 80.467C148.792 80.5631 148.49 80.6504 148.348 80.6504C148.205 80.6504 147.948 80.5718 147.796 80.4757C147.636 80.3796 147.423 80.1437 147.325 79.9515C147.227 79.7593 147.12 79.4361 147.094 79.2264C147.058 79.0255 146.969 78.7896 146.889 78.6935C146.809 78.6062 146.587 78.4577 146.391 78.3616C146.195 78.2567 146.017 78.1519 145.991 78.1169C145.964 78.082 145.804 78.0296 145.635 78.0121C145.466 77.9859 144.941 77.8985 144.479 77.8112C144.016 77.7325 143.474 77.6801 143.278 77.7063C143.047 77.7413 142.851 77.8374 142.727 77.9772C142.611 78.0995 142.487 78.3528 142.433 78.5275C142.389 78.711 142.344 79.0954 142.344 79.3837C142.344 79.672 142.309 79.9515 142.273 80.004C142.237 80.0564 142.122 80.1437 142.015 80.2049C141.9 80.2573 141.615 80.301 141.366 80.301C141.09 80.301 140.903 80.2573 140.877 80.1874C140.841 80.1001 140.823 80.1001 140.788 80.1874C140.752 80.2748 140.699 80.2748 140.548 80.2049C140.432 80.1525 140.219 80.1175 140.076 80.1263C139.934 80.135 139.64 80.1437 139.436 80.135C139.08 80.1263 138.991 80.0651 138.164 79.2963C137.577 78.7459 137.088 78.3703 136.723 78.1956C136.225 77.9597 136.101 77.9335 135.585 77.9684C135.264 77.9946 134.926 78.0296 134.829 78.0471C134.731 78.0645 134.633 78.0907 134.606 78.1169C134.58 78.1431 134.259 78.2392 133.895 78.3266C133.53 78.414 132.881 78.6236 132.454 78.7809C132.018 78.9469 131.547 79.0779 131.404 79.0779C131.253 79.0779 131.022 78.9818 130.871 78.8595C130.728 78.7372 130.604 78.5974 130.604 78.5537C130.604 78.5101 130.479 78.3441 130.337 78.2043C130.088 77.9597 130.035 77.9422 129.537 77.9859C129.243 78.0121 128.914 77.9946 128.807 77.9597C128.692 77.916 128.514 77.75 128.407 77.584C128.3 77.418 128.185 77.0861 128.149 76.8502C128.105 76.5269 128.016 76.3435 127.811 76.1426C127.642 75.9853 127.233 75.7582 126.779 75.5922C126.361 75.4349 125.934 75.2515 125.828 75.1816C125.712 75.1117 125.57 74.9282 125.508 74.771C125.436 74.605 125.267 74.4303 125.081 74.3429C124.912 74.2643 124.645 74.1594 124.485 74.1245C124.245 74.0721 124.191 74.0196 124.218 73.8711C124.227 73.7663 124.218 73.6964 124.182 73.7139C124.138 73.7314 124.084 73.4431 124.049 73.0674C124.013 72.7005 123.987 72.0977 123.996 71.7395C124.004 71.3464 123.96 70.9096 123.871 70.6475C123.791 70.4029 123.613 69.9748 123.462 69.6865C123.32 69.3982 122.973 68.7954 122.697 68.3498C122.306 67.7034 122.154 67.5374 122.003 67.5461C121.888 67.5461 121.647 67.6073 121.47 67.6772C121.337 67.7266 121.125 67.7761 120.779 67.8131C120.479 67.8453 120.2 67.6667 120.082 67.3889C119.922 67.0219 119.798 66.8822 119.442 66.6638C119.202 66.5152 118.828 66.2182 118.623 66.0085C118.41 65.7989 118.241 65.563 118.241 65.4931C118.241 65.4232 118.303 65.3096 118.383 65.2485C118.454 65.1961 118.606 65.065 118.704 64.9689C118.846 64.8379 118.873 64.733 118.828 64.5321C118.801 64.3923 118.632 64.0691 118.463 63.8332C117.882 62.9913 116.852 62.5832 115.84 62.4354C114.986 62.3131 114.15 62.1471 113.999 62.0772C113.773 61.9787 113.519 61.9882 113.28 61.9263C113.074 61.8728 112.799 61.7938 112.504 61.7016C111.97 61.5345 111.199 61.2731 110.05 60.858C109.873 60.7938 109.681 60.9112 109.658 61.0988C109.631 61.3084 109.525 61.6055 109.436 61.754C109.338 61.9112 109.196 62.0423 109.125 62.0423C109.053 62.0423 108.884 61.9637 108.751 61.8676C108.609 61.7627 108.413 61.6841 108.306 61.6928C108.191 61.6928 107.968 61.754 107.817 61.8239C107.657 61.8938 107.426 62.051 107.301 62.1821C107.097 62.383 107.079 62.4791 107.079 63.1343C107.079 63.5362 107.106 63.842 107.15 63.8245C107.186 63.807 107.212 63.9468 107.212 64.139C107.212 64.3312 107.177 64.5671 107.123 64.6632C107.061 64.7855 106.963 64.8291 106.794 64.8117C106.652 64.7942 106.438 64.7156 106.305 64.637C106.163 64.5496 106.056 64.5059 106.056 64.5321C106.056 64.5583 105.905 64.4884 105.727 64.3836C105.54 64.2875 105.202 64.0167 104.962 63.7983C104.651 63.5012 104.482 63.2479 104.331 62.8286C104.215 62.514 104.064 62.086 104.001 61.8676C103.93 61.6492 103.735 61.3259 103.566 61.1425C103.397 60.959 103.13 60.7755 102.988 60.7319C102.845 60.6882 102.463 60.6358 102.143 60.6008C101.814 60.5746 101.44 60.4785 101.28 60.3824C101.12 60.2863 100.924 60.0766 100.844 59.9194C100.764 59.7709 100.728 59.5699 100.755 59.4826C100.782 59.404 100.773 59.3253 100.72 59.3079C100.675 59.2991 100.613 58.8798 100.586 58.3731C100.559 57.8664 100.488 57.316 100.435 57.15C100.382 56.984 100.293 56.7918 100.239 56.7219C100.186 56.652 99.9813 56.5297 99.7857 56.4424C99.59 56.3638 99.252 56.2676 99.0296 56.2327C98.8073 56.1978 98.6027 56.1191 98.5672 56.0667C98.5227 55.9968 98.4782 55.9968 98.3893 56.0667C98.3181 56.1191 98.1047 56.1541 97.909 56.1366C97.7222 56.1191 97.3664 56.0842 97.1174 56.058C96.8773 56.0318 96.5482 55.9357 96.4059 55.8483C96.2102 55.7347 96.1124 55.5775 96.0323 55.2892C95.9434 54.9747 95.8633 54.8524 95.6765 54.7825C95.5342 54.7301 95.2318 54.7126 94.9828 54.7388C94.7427 54.765 94.298 54.9048 94.0044 55.0533C93.7109 55.1931 93.3463 55.3853 93.204 55.4639C93.0528 55.5513 92.7237 55.8483 92.4658 56.1191C92.2078 56.3987 91.941 56.7569 91.861 56.9054C91.7809 57.0626 91.6653 57.2199 91.6119 57.2548C91.5497 57.2985 91.5141 57.7703 91.5141 58.6614C91.5141 59.7272 91.4874 60.0417 91.3807 60.164C91.3095 60.2426 91.1405 60.3737 91.0071 60.4348C90.8648 60.5047 90.5802 60.5571 90.3578 60.5571C90.1355 60.5571 89.6285 60.4785 89.2283 60.3824C88.8192 60.2863 88.3389 60.2077 88.161 60.2077C87.9742 60.2077 87.6807 60.2688 87.5117 60.3387C87.2983 60.4261 87.1559 60.5659 87.0581 60.793C86.987 60.9765 86.8713 61.2298 86.818 61.3696C86.7468 61.5269 86.6134 61.6404 86.3999 61.6928C86.231 61.7453 86.0353 61.7802 85.9819 61.7802C85.9197 61.7802 85.8663 61.8414 85.8663 61.9112C85.8663 61.9289 85.864 61.9439 85.8599 61.9561C85.8333 62.0334 85.6603 61.931 85.7062 61.9986C85.7329 62.0423 85.6261 62.4791 85.4572 62.9596C85.2793 63.4401 85.137 63.9118 85.1192 64.0079C85.1014 64.104 85.048 64.27 84.9858 64.3749C84.9324 64.4884 84.8079 64.6195 84.7101 64.6632C84.6122 64.7068 84.4699 64.7505 84.3988 64.7505C84.3276 64.7505 84.2387 64.6806 84.212 64.5933C84.1853 64.5146 84.0875 63.7983 83.9985 63.0033C83.9096 62.2083 83.7851 61.2648 83.7317 60.9066C83.6783 60.5484 83.5983 60.1116 83.5538 59.9456C83.5093 59.7796 83.456 59.5437 83.4293 59.4214C83.4115 59.2991 83.3048 58.9671 83.198 58.6788C83.1002 58.3906 82.6733 57.4645 82.2642 56.6258C81.8017 55.6911 81.517 55.0096 81.5348 54.8786C81.5526 54.7563 81.5882 54.6078 81.6238 54.5466C81.6594 54.4942 81.6505 54.4243 81.5971 54.3981C81.5348 54.3719 81.5437 54.2758 81.606 54.1098C81.6594 53.9788 81.7038 53.4196 81.7038 52.8693C81.7038 52.3189 81.7394 51.4715 81.7928 50.991C81.8728 50.1872 81.8639 50.0911 81.7038 49.7679C81.606 49.5757 81.4637 49.366 81.3836 49.3049C81.3036 49.2525 81.2591 49.1564 81.2858 49.1127C81.3125 49.069 81.2858 49.0253 81.2235 49.0253C81.1702 49.0253 81.1435 49.0079 81.1613 48.9816C81.1791 48.9554 81.3481 48.9991 81.5348 49.069C81.7661 49.1564 81.8817 49.2699 81.9084 49.4185C81.9351 49.5408 82.0418 49.7854 82.1574 49.9601C82.2731 50.1436 82.5221 50.4231 82.7178 50.5716C82.9045 50.7289 83.2069 50.8774 83.3759 50.9123C83.5449 50.9386 83.7762 50.9386 83.8918 50.9123C84.0252 50.8774 84.0875 50.79 84.0875 50.6415C84.0875 50.417 84.3624 50.3096 84.5801 50.3643C84.588 50.3663 84.5958 50.3684 84.6033 50.3707C84.7101 50.3969 84.879 50.5017 84.9769 50.5978C85.0747 50.6939 85.2348 50.7726 85.3326 50.7726C85.4394 50.7726 85.5461 50.6852 85.5995 50.5542C85.6588 50.4086 85.6588 50.2397 85.5995 50.0475C85.5461 49.8989 85.5105 49.7504 85.5105 49.7242C85.5105 49.698 85.6795 49.7068 85.8841 49.7417C86.0975 49.7766 86.48 49.9339 86.7379 50.0911C86.9958 50.2484 87.3071 50.4668 87.4228 50.5716C87.5473 50.6852 87.6985 50.7726 87.7607 50.7726C87.8141 50.7726 88.0276 50.6415 88.2232 50.4755C88.4189 50.3008 88.6057 50.196 88.6502 50.2309C88.6857 50.2659 88.7124 50.2397 88.7124 50.1785C88.7124 50.1261 88.8192 49.9252 88.9526 49.7417C89.086 49.567 89.255 49.366 89.3261 49.3049C89.4506 49.2088 89.4506 49.1476 89.3439 48.737C89.2728 48.4924 89.2461 48.2216 89.2728 48.1517C89.2994 48.0818 89.255 47.9158 89.1749 47.7935C89.0593 47.6101 89.0148 47.2956 88.997 46.4394C88.9704 45.4959 88.9259 45.2251 88.748 44.7883C88.6324 44.5 88.5345 44.2117 88.5345 44.1505C88.5345 44.0981 88.6591 43.9583 88.8103 43.8447C88.9526 43.7399 89.1571 43.5128 89.2639 43.3468C89.3617 43.1808 89.4417 42.9449 89.4417 42.8226C89.4417 42.7003 89.3884 42.5256 89.335 42.4295C89.2461 42.2897 89.255 42.1936 89.3706 41.949C89.4595 41.7655 89.6641 41.5471 89.9131 41.3986C90.2155 41.2239 90.3134 41.1103 90.3134 40.9443C90.3134 40.7696 90.1977 40.656 89.7619 40.3852C89.4506 40.193 89.1304 39.9659 89.0415 39.8785C88.9526 39.7911 88.8903 39.6514 88.8903 39.564C88.8903 39.4854 88.9792 39.3543 89.0949 39.2932C89.2016 39.2233 89.4506 39.1359 89.6463 39.101C89.9131 39.0573 90.091 39.0922 90.3845 39.232C90.5891 39.3281 90.8203 39.4155 90.8915 39.4155C90.9626 39.4155 91.0249 39.4417 91.0249 39.4766C91.0249 39.5076 91.1634 39.5342 91.589 39.5594C91.9607 39.5815 92.2701 39.2811 92.2701 38.9088C92.2701 38.5419 92.3146 38.0788 92.3679 37.8866C92.4213 37.6944 92.5547 37.4498 92.6525 37.3363C92.7593 37.2314 93.0706 37.0654 93.3374 36.9693C93.6042 36.8732 93.8977 36.7247 93.9778 36.6461C94.0578 36.5587 94.209 36.3054 94.3068 36.0695C94.4669 35.7201 94.4847 35.5191 94.4669 34.7591C94.4403 34.034 94.458 33.8156 94.5826 33.6059C94.6715 33.4574 94.9294 33.1953 95.1696 33.0206C95.4097 32.8371 95.6765 32.6973 95.7655 32.6886C95.8455 32.6886 95.9434 32.6362 95.9878 32.5663C96.0234 32.4964 96.2547 32.3479 96.4948 32.243C96.7972 32.112 97.1797 32.0421 97.6955 32.0159C98.2249 31.9862 98.4713 32.0007 99.1291 32.2151C99.3685 32.2932 99.6327 32.2361 99.8123 32.0596C99.9724 31.9023 100.097 31.7975 100.097 31.8324C100.097 31.8761 100.177 31.8237 100.275 31.7276C100.373 31.6315 100.604 31.5267 100.791 31.5005C100.977 31.4655 101.44 31.5092 101.876 31.5878C102.182 31.6517 102.459 31.7296 102.599 31.7874C102.667 31.8151 102.702 31.8867 102.774 31.902C102.835 31.9151 102.902 31.8819 102.965 31.8827C103.117 31.8848 103.422 31.9313 103.744 31.9984C104.162 32.0858 104.651 32.1644 104.838 32.1644C105.015 32.1644 105.291 32.1033 105.433 32.0334C105.576 31.9635 105.851 31.7713 106.038 31.6053C106.216 31.4393 106.403 31.3083 106.456 31.3083C106.51 31.3083 106.625 31.1685 106.723 31.0025C106.821 30.8278 107.079 30.5045 107.301 30.2774C107.524 30.059 107.826 29.8144 107.968 29.7445C108.111 29.6746 108.44 29.5523 108.68 29.4824C109 29.3863 109.276 29.2028 109.658 28.8447C110.005 28.5127 110.316 28.303 110.548 28.2419C110.743 28.1894 111.055 28.1458 111.241 28.1458C111.419 28.1458 111.668 28.0933 111.793 28.0322C111.917 27.9798 112.051 27.8487 112.077 27.7526C112.104 27.6565 112.211 27.4556 112.318 27.2983C112.424 27.1498 112.727 26.879 112.993 26.7043C113.26 26.5383 113.563 26.3898 113.661 26.3898C113.758 26.381 113.99 26.381 114.176 26.3898C114.354 26.3898 114.612 26.4509 114.755 26.5208C114.888 26.5907 115.199 26.8441 115.439 27.0887C115.688 27.3333 115.893 27.6041 115.902 27.6915C115.911 27.7701 115.946 28.0584 115.973 28.3205C116.009 28.5826 116.035 28.8796 116.053 28.9757C116.062 29.0718 116.098 29.1854 116.124 29.2378C116.151 29.2815 116.195 29.4824 116.231 29.6746C116.258 29.8668 116.284 30.1988 116.284 30.4172C116.293 30.6356 116.213 31.0811 116.124 31.4218C116.035 31.7538 115.866 32.2256 115.76 32.4702C115.653 32.7061 115.466 33.038 115.342 33.1866C115.226 33.3438 114.959 33.5797 114.755 33.7107C114.541 33.8418 114.212 33.9816 114.016 34.0078C113.821 34.0427 113.563 34.034 113.438 33.9816C113.314 33.9379 113.002 33.7457 112.753 33.5535C112.487 33.37 112.282 33.1429 112.282 33.0555C112.291 32.9769 112.184 32.7847 112.051 32.6449C111.917 32.4964 111.731 32.1644 111.642 31.9023C111.544 31.6402 111.366 31.1161 111.232 30.7404C111.099 30.3735 110.975 30.0677 110.948 30.0677C110.921 30.0677 110.725 30.391 110.512 30.7928C110.254 31.2733 109.898 31.7363 109.436 32.2081C109.062 32.5925 108.689 33.0206 108.618 33.1691C108.546 33.3089 108.457 33.536 108.422 33.6671C108.395 33.8068 108.395 34.0689 108.44 34.2699C108.484 34.5494 108.546 34.628 108.724 34.6717C108.849 34.6979 109.036 34.663 109.151 34.6018C109.258 34.5319 109.374 34.4096 109.391 34.3223C109.418 34.2436 109.489 34.1738 109.551 34.1738C109.605 34.1738 109.729 34.1126 109.818 34.0427C109.952 33.9204 109.987 33.9379 110.147 34.1912C110.155 34.2034 110.162 34.2156 110.17 34.2277C110.298 34.4417 110.357 34.6934 110.521 34.8814C110.637 35.0037 110.877 35.2833 111.055 35.5104C111.241 35.7375 111.428 35.921 111.481 35.921C111.535 35.921 111.695 35.7987 111.837 35.6589C112.051 35.4492 112.157 35.4056 112.353 35.4492C112.487 35.4754 112.86 35.7201 113.198 35.9909C113.527 36.2704 113.927 36.585 114.087 36.6898C114.31 36.8558 114.443 36.8907 114.728 36.847C114.924 36.8208 115.137 36.7422 115.208 36.6898C115.27 36.6286 115.671 36.1219 116.098 35.5715C116.516 35.0212 116.934 34.497 117.014 34.4184C117.129 34.3048 117.236 34.2786 117.361 34.3223C117.467 34.366 117.61 34.5057 117.681 34.6542C117.761 34.794 117.832 35.0911 117.859 35.3095C117.885 35.5279 117.85 35.8598 117.779 36.052C117.681 36.3491 117.601 36.419 117.263 36.5325C116.916 36.6548 116.862 36.6985 116.862 36.9169C116.862 37.0829 116.942 37.2227 117.085 37.3363C117.209 37.4236 117.529 37.5547 117.796 37.6246C118.063 37.6945 118.659 37.7993 119.104 37.843C119.557 37.8954 120.055 37.9915 120.198 38.0614C120.34 38.1313 120.562 38.1924 120.687 38.1924C120.811 38.1924 121.069 38.2536 121.265 38.3235C121.461 38.3933 121.621 38.5157 121.621 38.5855C121.621 38.6554 121.559 38.7341 121.487 38.7603C121.407 38.7865 121.354 38.9175 121.354 39.0835C121.345 39.2408 121.416 39.4592 121.505 39.5727C121.594 39.695 121.763 39.7824 121.888 39.7824C122.012 39.7824 122.288 39.7475 122.51 39.7213C122.857 39.6688 122.946 39.6863 123.195 39.8872C123.355 40.0095 123.489 40.1755 123.489 40.2454C123.489 40.3153 123.56 40.4376 123.64 40.525C123.729 40.6036 123.898 40.8482 124.022 41.0666C124.147 41.285 124.387 41.5559 124.556 41.6607C124.752 41.7917 124.992 41.8616 125.223 41.8616C125.419 41.8616 125.623 41.8267 125.685 41.7917C125.765 41.7481 125.783 41.486 125.765 40.9006C125.748 40.4464 125.668 39.8698 125.597 39.6339C125.516 39.3893 125.472 39.1709 125.499 39.1272C125.516 39.0922 125.668 39.066 125.819 39.066C125.979 39.0573 126.201 39.1272 126.317 39.2146C126.486 39.3456 126.539 39.4941 126.602 40.027C126.637 40.3852 126.753 40.8744 126.859 41.119C126.966 41.3549 127.046 41.6257 127.046 41.7044C127.046 41.7917 127.109 41.8791 127.18 41.9053C127.251 41.9315 127.509 42.2897 127.749 42.709C127.98 43.1371 128.327 43.8273 128.514 44.2641C128.701 44.7009 128.87 45.0678 128.887 45.094C128.905 45.1202 128.958 45.0766 129.003 45.0067C129.056 44.9368 129.092 44.7883 129.092 44.6747C129.092 44.5073 129.252 44.395 129.28 44.23C129.298 44.1231 129.31 43.9844 129.314 43.8273C129.332 43.4866 129.385 42.9799 129.43 42.6916C129.483 42.4033 129.546 41.949 129.572 41.6869C129.617 41.32 129.688 41.154 129.875 40.9705C130.008 40.8395 130.346 40.6386 130.622 40.5162C130.906 40.3852 131.209 40.2804 131.289 40.2629C131.378 40.2454 131.636 40.1493 131.867 40.0445C132.107 39.9397 132.427 39.7213 132.587 39.564C132.747 39.4155 132.97 39.1097 133.085 38.8913C133.201 38.6729 133.379 38.4108 133.486 38.2972C133.592 38.1837 133.77 38.1051 133.913 38.1051C134.108 38.1051 134.17 38.1575 134.215 38.3409C134.251 38.4807 134.251 38.7253 134.233 38.8913C134.206 39.0573 134.037 39.5727 133.85 40.027C133.672 40.4813 133.477 41.0055 133.423 41.1889C133.334 41.4685 133.334 41.5296 133.45 41.5995C133.548 41.652 133.726 41.5733 134.073 41.3375C134.339 41.1453 134.74 40.7958 134.962 40.5425C135.184 40.2891 135.389 40.0445 135.425 39.9921C135.466 39.928 135.519 39.9251 135.585 39.9833C135.665 40.0445 135.629 40.193 135.469 40.5075C135.353 40.7434 135.149 41.1365 135.015 41.3811C134.864 41.6694 134.784 41.949 134.784 42.2111C134.784 42.4295 134.82 42.7527 134.855 42.9362C134.891 43.1109 134.944 43.2594 134.98 43.2594C135.011 43.2594 135.076 43.1458 135.217 42.8048C135.369 42.4365 135.685 42.1586 136.074 42.0713C136.39 41.9996 136.914 41.9279 137.84 41.8628C137.998 41.8517 138.123 41.7231 138.128 41.5646C138.128 41.4161 138.155 41.1889 138.191 41.0492C138.235 40.8919 138.36 40.7696 138.582 40.6648C138.858 40.5512 139.062 40.5337 139.676 40.5861C140.094 40.6211 140.69 40.6822 141.01 40.7347C141.33 40.7783 141.624 40.7871 141.659 40.7521C141.695 40.7084 141.668 40.4464 141.597 40.1581C141.517 39.8698 141.455 39.5465 141.455 39.433C141.455 39.2932 141.553 39.1971 141.828 39.0748C142.051 38.9787 143.251 38.7341 144.674 38.5069C146.035 38.2885 147.192 38.1225 147.236 38.1487C147.28 38.1749 147.538 38.0963 147.787 37.9827C148.259 37.7818 148.259 37.7731 148.285 37.3537C148.294 37.1179 148.366 36.8034 148.437 36.6636C148.517 36.5151 148.57 36.3403 148.57 36.2704C148.57 36.2006 148.668 35.9996 148.792 35.8336C148.935 35.6327 149.086 35.5279 149.21 35.5279C149.353 35.5279 149.46 35.6152 149.548 35.7987C149.62 35.9472 149.735 36.1219 149.789 36.1918C149.851 36.2617 149.913 36.4102 149.931 36.5325C149.949 36.6548 150.047 36.9082 150.144 37.1004C150.242 37.2926 150.429 37.5023 150.562 37.5547C150.687 37.6158 150.927 37.6682 151.078 37.6682C151.238 37.6682 151.647 37.6071 151.994 37.5285C152.341 37.4498 152.724 37.4062 152.857 37.4411C152.999 37.4673 153.151 37.5809 153.204 37.6857C153.266 37.8255 153.275 38.1749 153.222 38.8039C153.16 39.4417 153.079 39.8436 152.946 40.1144C152.839 40.3328 152.572 40.7434 152.35 41.0317C152.128 41.32 151.647 41.8791 151.283 42.2722C150.833 42.7678 150.963 42.9649 151.589 42.7271C151.69 42.6885 151.796 42.6474 151.905 42.6042C152.599 42.3334 153.266 42.1237 153.417 42.1325C153.56 42.1412 153.764 42.115 153.862 42.08C153.96 42.0364 154.796 42.0276 155.73 42.0538C157.064 42.0888 157.491 42.1237 157.776 42.246C157.971 42.3246 158.22 42.3771 158.327 42.3421C158.443 42.3159 158.514 42.3246 158.496 42.3596C158.478 42.4033 158.709 42.4295 159.012 42.4295C159.448 42.4295 159.546 42.4033 159.528 42.2984C159.51 42.2285 159.412 42.0713 159.314 41.949C159.225 41.8267 159.083 41.5296 159.012 41.2938C158.932 41.0142 158.923 40.822 158.976 40.7696C159.036 40.7114 159.116 40.7288 159.216 40.822C159.305 40.9006 159.519 41.0142 159.688 41.0666C159.857 41.119 160.159 41.1802 160.355 41.1977C160.551 41.2239 160.951 41.2676 161.244 41.3025C161.538 41.3375 161.849 41.3986 161.929 41.4335C162.018 41.4772 162.151 41.652 162.223 41.8179C162.294 41.9839 162.383 42.5168 162.418 43.0061C162.481 43.7137 162.525 43.9146 162.667 44.0544C162.765 44.1418 163.121 44.3165 163.468 44.4301C163.806 44.5436 164.224 44.666 164.375 44.6922C164.651 44.7446 164.669 44.7358 164.624 44.5C164.606 44.3689 164.562 43.871 164.526 43.3905C164.464 42.5343 164.464 42.5168 164.677 42.3683C164.793 42.2897 165.14 42.1412 165.442 42.0451C165.754 41.9403 166.154 41.8616 166.332 41.8616C166.527 41.8616 166.91 41.7481 167.221 41.5995C167.532 41.451 167.799 41.2938 167.826 41.2501C167.853 41.2064 167.755 40.9793 167.604 40.7434C167.461 40.5162 167.283 40.0969 167.212 39.8086C167.097 39.3893 167.097 39.2408 167.186 39.066C167.239 38.9437 167.435 38.7777 167.604 38.6991C167.773 38.6118 168.315 38.4894 168.804 38.4196C169.294 38.3409 169.952 38.271 170.272 38.2448C170.592 38.2274 171.037 38.1749 171.259 38.1313C171.553 38.0788 171.713 38.0963 171.793 38.1662C171.864 38.2274 172.175 38.271 172.54 38.271C172.878 38.271 173.385 38.3322 173.652 38.4021C173.918 38.4807 174.168 38.5419 174.203 38.5419C174.248 38.5419 174.345 38.3759 174.443 38.1662C174.532 37.9653 174.772 37.5896 174.977 37.3363C175.009 37.2967 175.04 37.2583 175.072 37.2217C175.277 36.9829 175.562 36.8403 175.786 36.6199C175.973 36.4364 176.382 36.1918 176.782 36.0258C177.165 35.8773 177.538 35.7463 177.61 35.7463C177.69 35.7463 177.743 35.8249 177.743 35.9647C177.743 36.087 177.698 36.2006 177.654 36.2268C177.61 36.253 177.565 36.4015 177.565 36.55C177.565 36.716 177.636 36.9344 177.743 37.0567C177.841 37.179 177.921 37.3013 177.921 37.3363C177.921 37.3799 178.01 37.4498 178.117 37.5023C178.286 37.5809 178.357 37.5634 178.535 37.3887C178.65 37.2751 178.97 36.7335 179.237 36.1831C179.602 35.458 179.851 35.0736 180.144 34.7853C180.376 34.5669 180.723 34.3135 180.909 34.2174C181.096 34.1213 181.345 33.9641 181.443 33.868C181.55 33.7719 181.932 33.5447 182.288 33.37C182.653 33.1953 183.097 32.9856 183.275 32.907C183.515 32.8196 183.586 32.741 183.533 32.6624C183.489 32.61 183.124 32.4003 182.715 32.1994C182.306 32.0072 181.879 31.815 181.763 31.7626C181.567 31.6839 181.585 31.6577 182.297 30.7229C182.697 30.19 183.248 29.5436 183.524 29.2727C183.791 29.0019 184.271 28.6175 184.591 28.4166C184.912 28.2157 185.312 28.0147 185.481 27.971C185.65 27.9274 185.952 27.8837 186.148 27.8662C186.344 27.8487 186.726 27.7177 186.993 27.5866C187.26 27.4469 187.704 27.1149 187.98 26.8441C188.247 26.5732 188.638 26.0753 188.834 25.7433C189.065 25.3502 189.279 25.0881 189.448 25.0182C189.679 24.9134 189.777 24.9221 190.373 25.158C190.755 25.3065 191.075 25.3851 191.129 25.3414C191.182 25.2978 191.164 25.2017 191.058 25.0706C190.977 24.957 190.8 24.7299 190.684 24.5639C190.524 24.3542 190.479 24.2057 190.524 24.0922C190.568 24.0048 190.755 23.8388 190.951 23.7252C191.146 23.6117 191.645 23.402 192.063 23.2622ZM146.258 30.3386C146.382 30.3298 146.569 30.4172 146.685 30.5307C146.836 30.6793 146.88 30.819 146.88 31.1335C146.88 31.3694 146.96 31.7451 147.058 31.9897C147.183 32.2955 147.209 32.4615 147.147 32.5313C147.094 32.5925 147.049 32.8371 147.049 33.0817C147.04 33.3176 147.067 33.571 147.111 33.6408C147.165 33.7195 147.289 33.7457 147.458 33.7107C147.601 33.6933 147.948 33.6234 148.214 33.5535C148.481 33.4923 148.775 33.4749 148.855 33.5011C148.979 33.5447 149.015 33.6671 149.015 33.999C149.015 34.2349 148.97 34.4533 148.926 34.4795C148.881 34.5057 148.855 34.5581 148.881 34.6106C148.908 34.6542 148.89 34.7678 148.846 34.8464C148.801 34.9338 148.526 35.0911 148.223 35.1959C147.93 35.3095 147.601 35.3794 147.503 35.3531C147.405 35.3269 147.325 35.257 147.325 35.1959C147.325 35.1435 146.996 34.663 146.587 34.1301C146.178 33.5972 145.626 32.9944 145.324 32.7585C145.03 32.5226 144.781 32.2605 144.763 32.1644C144.755 32.0683 144.968 31.6577 145.244 31.2471C145.511 30.8453 145.804 30.4696 145.884 30.4259C145.964 30.3735 146.133 30.3386 146.258 30.3386ZM130.488 32.6012C130.746 32.6012 131.031 32.6362 131.12 32.6799C131.2 32.7235 131.573 32.776 131.938 32.8022C132.303 32.8196 132.703 32.8895 132.827 32.9507C132.952 33.0118 133.103 33.1341 133.165 33.2302C133.219 33.3176 133.406 33.4137 133.566 33.4399C133.717 33.4661 134.259 33.4224 134.757 33.3351C135.496 33.204 135.691 33.1866 135.78 33.2827C135.869 33.3613 135.869 33.4486 135.807 33.6234C135.763 33.7457 135.567 33.9728 135.38 34.1213C135.078 34.3572 134.971 34.3922 134.491 34.3922C134.188 34.3922 133.628 34.331 133.254 34.2611C132.881 34.1912 132.587 34.1039 132.614 34.0602C132.632 34.0252 132.561 33.9903 132.454 33.9903C132.338 33.9816 131.867 33.9728 131.404 33.9728C130.942 33.9728 130.497 34.0078 130.426 34.0514C130.314 34.1202 130.184 34.1583 130.064 34.2111C129.959 34.2571 129.819 34.3213 129.67 34.3922C129.377 34.5232 128.683 34.8028 128.14 35.0124C127.589 35.2221 127.073 35.3968 127.002 35.3968C126.931 35.3968 126.868 35.4318 126.868 35.4842C126.868 35.5279 126.824 35.5715 126.779 35.5715C126.735 35.5715 126.486 35.7026 126.246 35.8511C125.997 36.0084 125.703 36.2967 125.588 36.4889C125.472 36.681 125.33 37.0567 125.267 37.3188C125.214 37.5809 125.143 37.9565 125.107 38.1487C125.054 38.437 125.009 38.4894 124.867 38.4632C124.769 38.4458 124.52 38.2885 124.307 38.1138C124.102 37.9391 123.889 37.677 123.844 37.5372C123.791 37.3887 123.755 37.1528 123.755 37.013C123.755 36.8645 123.827 36.5413 123.907 36.2792C123.996 36.0258 124.129 35.7463 124.2 35.6676C124.271 35.589 124.396 35.4056 124.467 35.2658C124.538 35.126 124.76 34.9338 124.956 34.8377C125.152 34.7329 125.33 34.628 125.356 34.6018C125.383 34.5756 125.543 34.5057 125.712 34.4358C125.881 34.366 126.344 34.1213 126.735 33.8942C127.126 33.6671 127.571 33.4486 127.731 33.4137C127.891 33.3875 128.105 33.2739 128.22 33.1691C128.345 33.0555 128.603 32.9594 128.87 32.9245C129.119 32.8895 129.474 32.8022 129.67 32.7323C129.866 32.6624 130.239 32.61 130.497 32.6012H130.488ZM167.835 33.7369C167.897 33.7369 168.031 33.8156 168.128 33.9117C168.149 33.9317 168.168 33.9531 168.187 33.9751C168.293 34.1032 168.318 34.293 168.2 34.4096C168.137 34.462 167.826 34.5494 167.506 34.6018C167.186 34.6542 166.75 34.6979 166.527 34.6979C166.305 34.6979 166.038 34.7591 165.932 34.829C165.798 34.9163 165.709 35.0911 165.665 35.3269C165.629 35.5366 165.522 35.7987 165.416 35.921C165.309 36.0433 165.033 36.2006 164.793 36.2704C164.562 36.3403 164.348 36.4364 164.322 36.4889C164.295 36.5325 164.357 36.6374 164.446 36.7073C164.544 36.7771 164.891 36.8907 165.22 36.9431C165.549 37.0043 165.994 37.1441 166.216 37.2489C166.438 37.3625 166.643 37.5023 166.661 37.5547C166.688 37.6158 166.652 37.9303 166.599 38.2448C166.527 38.6118 166.43 38.8476 166.35 38.8738C166.278 38.9 166.02 38.8826 165.771 38.8389C165.344 38.7603 165.327 38.7515 165.309 38.4545C165.3 38.2885 165.291 38.0788 165.291 37.9915C165.282 37.9129 165.22 37.7818 165.149 37.7119C165.06 37.6246 164.829 37.5809 164.393 37.5809C164.046 37.5809 163.664 37.5285 163.53 37.4586C163.388 37.3974 163.148 37.1965 162.996 37.0218C162.836 36.847 162.561 36.4102 162.392 36.052C162.223 35.6939 162.08 35.3357 162.08 35.2658C162.08 35.1959 162.151 35.1085 162.24 35.0736C162.296 35.0492 162.513 35.0546 163.038 35.1196C163.605 35.1897 164.181 35.1185 164.704 34.8901C165.149 34.6979 165.923 34.4096 166.438 34.2611C166.954 34.1039 167.452 33.9204 167.55 33.8593C167.648 33.7894 167.782 33.7369 167.844 33.7369H167.835ZM80.4409 45.9327C80.6988 46.0463 81.0457 46.2123 81.2146 46.2996C81.4014 46.387 81.5882 46.5879 81.7038 46.7976C81.8728 47.1383 81.8728 47.1558 81.7216 47.5838C81.6327 47.8197 81.4726 48.143 81.3658 48.2827C81.2591 48.4225 81.1346 48.6147 81.1079 48.6933C81.0546 48.8331 80.9745 48.8069 80.4942 48.4662C80.1829 48.2565 79.7827 48.0469 79.6048 47.9857C79.418 47.9333 79.2046 47.8285 79.1334 47.7586C79.0623 47.6887 79 47.5314 79 47.4091C79 47.2693 79.169 47.0073 79.4447 46.684C79.7204 46.387 79.8894 46.1162 79.8805 46.0026C79.8716 45.9065 79.8805 45.8017 79.9161 45.7755C79.9428 45.7492 80.1829 45.8191 80.4409 45.9327Z" fill="#428BF9"/>
</svg>
