<svg width="279" height="111" viewBox="0 0 279 111" fill="none" xmlns="http://www.w3.org/2000/svg">
<path d="M51.136 100.761C51.7426 100.755 52.5588 100.784 52.9444 100.823C53.3371 100.876 54.0235 101.039 54.4631 101.188C54.9126 101.34 55.6062 101.632 56.008 101.845C56.4071 102.068 57.0496 102.472 57.4302 102.764C57.8135 103.047 58.4119 103.577 58.7617 103.945C59.1115 104.313 59.3976 104.685 59.4057 104.772C59.4041 104.856 59.1313 105.173 58.8001 105.475C58.4592 105.775 57.7966 106.262 57.3337 106.55C56.8681 106.847 56.1417 107.223 55.7202 107.395C55.3083 107.57 54.5164 107.801 53.9665 107.907C53.4264 108.016 52.5369 108.105 51.9869 108.094C51.444 108.097 50.6428 108.051 50.2183 108.001C49.784 107.948 48.9146 107.767 48.2918 107.6C47.6593 107.431 46.5544 107.04 45.8342 106.731C45.1113 106.432 44.0283 105.92 43.423 105.61C42.8178 105.3 42.0798 104.901 41.7824 104.727C41.4824 104.562 41.2222 104.365 41.2018 104.286C41.1787 104.216 41.1635 104.117 41.1741 104.078C41.1846 104.039 41.721 103.749 42.3652 103.447C43.0023 103.132 43.9549 102.691 44.4754 102.46C44.996 102.23 45.9717 101.858 46.6266 101.633C47.2912 101.41 48.3263 101.127 48.9301 101.015C49.5366 100.892 50.5365 100.78 51.136 100.761Z" fill="#FFDD2D"/>
<path d="M52.1149 8.56141C52.5472 8.46608 53.4136 8.3076 54.0368 8.2001C54.6724 8.08537 55.2825 8.02713 55.4116 8.05117C55.5771 8.09549 55.6125 8.15778 55.5597 8.35479C55.5228 8.49269 55.1983 9.19756 54.827 9.92156C54.4628 10.658 53.8163 11.8256 53.3892 12.5241C52.9622 13.2226 52.2924 14.2044 51.9058 14.7131C51.5094 15.2193 50.9488 15.8714 50.6495 16.1713C50.3598 16.4737 49.7654 16.9796 49.3361 17.2974C48.9068 17.6152 48.3122 18.0049 48.018 18.1689C47.7238 18.3329 47.2227 18.5681 46.8948 18.702C46.5793 18.8286 45.9447 19.0175 45.4806 19.1148C45.0288 19.2049 44.2712 19.3081 43.8087 19.3214C43.3436 19.3446 42.6495 19.3275 42.2542 19.2849C41.8686 19.245 41.3928 19.1914 41.1929 19.1589C41.0001 19.139 40.7913 19.0619 40.7169 18.9892C40.6284 18.8915 40.6536 18.6027 40.8514 17.7478C40.9956 17.1318 41.2694 16.2656 41.4616 15.8209C41.6537 15.3762 42.0047 14.689 42.2571 14.2921C42.5094 13.8952 42.889 13.374 43.0965 13.1445C43.2969 12.9026 43.7181 12.4981 44.0193 12.2304C44.3204 11.9627 44.9485 11.487 45.4044 11.1869C45.8726 10.8795 46.6713 10.4284 47.1971 10.1787C47.7203 9.93877 48.4158 9.63948 48.7287 9.52272C49.0539 9.39872 49.7698 9.17882 50.3258 9.01107C50.8889 8.85577 51.695 8.64949 52.1149 8.56141Z" fill="#FFDD2D"/>
<path d="M35.1474 10.8562C35.5472 10.2982 36.4644 9.1715 37.1725 8.35827C38.2231 7.16175 38.5022 6.89868 38.6703 6.93316C38.8454 6.98009 38.9414 7.32253 39.2291 8.85654C39.4338 9.8827 39.6454 11.3118 39.7144 12.0271C39.7835 12.7424 39.8468 13.7518 39.8413 14.2782C39.8482 14.7974 39.7963 15.6914 39.7388 16.2566C39.6699 17.0194 39.5487 17.5887 39.2651 18.4524C39.0459 19.1538 38.7277 19.9131 38.4745 20.352C38.2416 20.7541 37.7986 21.3956 37.4781 21.7742C37.1674 22.1555 36.6358 22.6993 36.3073 22.9913C35.9787 23.2834 35.2596 23.7875 34.7101 24.1259C34.1534 24.4518 33.6568 24.7094 33.5887 24.6911C33.5206 24.6729 33.2929 24.3162 33.0836 23.8906C32.8717 23.4749 32.6029 22.8433 32.4778 22.4931C32.3623 22.1454 32.1917 21.4979 32.1071 21.0741C32.0154 20.6378 31.9305 19.9816 31.9185 19.5983C31.9065 19.215 31.9181 18.6269 31.9468 18.2862C31.9755 17.9455 32.1538 17.0853 32.3315 16.3834C32.5822 15.4476 32.8095 14.8328 33.1561 14.1233C33.4259 13.5833 33.8193 12.8546 34.0267 12.509C34.2464 12.1561 34.7476 11.4142 35.1474 10.8562Z" fill="#FFDD2D"/>
<path d="M45.2423 20.7824C45.6322 20.7285 46.8108 20.6115 47.8638 20.5347C49.3528 20.4269 49.8028 20.4208 49.8861 20.5381C49.9668 20.6653 49.8318 20.9353 49.0721 22.1359C48.5674 22.9297 47.7493 24.1146 47.2621 24.7653C46.7651 25.4134 46.0315 26.2832 45.6271 26.7027C45.2253 27.1123 44.6124 27.6871 44.2644 27.9739C43.9261 28.2634 43.1999 28.755 42.6557 29.0737C42.1114 29.3924 41.3311 29.7745 40.9175 29.9171C40.5109 30.0721 39.8276 30.248 39.398 30.3334C38.9808 30.4117 38.1629 30.467 37.5908 30.4615C36.9258 30.4523 36.1254 30.3645 35.3656 30.2031C34.3502 29.9838 34.168 29.9244 34.0616 29.7376C33.9526 29.5606 33.9701 29.4174 34.2193 28.6819C34.3849 28.2195 34.6855 27.4871 34.9068 27.0502C35.1282 26.6133 35.5226 25.9588 35.7865 25.5967C36.0504 25.2346 36.5757 24.6363 36.9545 24.2733C37.3908 23.8517 38.1249 23.3305 38.9537 22.8453C39.7329 22.389 40.6909 21.9277 41.3458 21.702C41.9512 21.5053 42.9103 21.2344 43.4849 21.1139C44.0692 20.996 44.8595 20.8488 45.2423 20.7824Z" fill="#FFDD2D"/>
<path d="M26.1149 21.3688C26.4545 20.763 26.9282 19.9292 27.1859 19.5126C27.5317 18.9613 27.6942 18.7831 27.811 18.8144C27.9083 18.8405 28.2079 19.3958 28.4953 20.0746C28.7827 20.7534 29.198 21.7726 29.4066 22.3564C29.6178 22.9303 29.9064 23.7994 30.0511 24.2711C30.1862 24.7401 30.3819 25.6055 30.4879 26.1829C30.5842 26.7577 30.6923 27.5996 30.7203 28.0399C30.7386 28.4777 30.7432 29.239 30.7067 29.7255C30.6617 30.3996 30.5562 30.9098 30.2428 31.9238C29.9215 32.9673 29.732 33.4022 29.3376 34.0567C29.0623 34.5002 28.5098 35.239 28.1098 35.6808C27.7098 36.1226 27.1712 36.654 26.9177 36.8605C26.6544 37.0645 26.392 37.2265 26.3239 37.2082C26.2558 37.19 25.9733 36.882 25.6943 36.5222C25.4223 36.1748 24.9385 35.4117 24.6318 34.8439C24.325 34.2761 23.9712 33.495 23.8539 33.1152C23.727 32.7328 23.5776 32.1227 23.5187 31.7585C23.4599 31.3943 23.4208 30.6448 23.4121 30.0935C23.4131 29.5448 23.5135 28.5476 23.6195 27.8793C23.774 26.9916 23.9508 26.3316 24.2794 25.4167C24.5278 24.7231 24.9059 23.7792 25.113 23.3174C25.3326 22.8484 25.785 21.9772 26.1149 21.3688Z" fill="#FFDD2D"/>
<path d="M35.4212 32.7201C35.9983 32.4736 37.149 32.0323 37.9763 31.7472C38.8036 31.4622 39.5292 31.2449 39.5974 31.2631C39.6655 31.2814 39.7169 31.4007 39.7242 31.5293C39.719 31.6652 39.5317 32.3646 39.2974 33.0831C39.0632 33.8016 38.6439 34.9772 38.3707 35.6853C38.0976 36.3933 37.7185 37.2631 37.5377 37.6264C37.3596 37.9798 36.9944 38.6421 36.7262 39.0981C36.4509 39.5417 35.955 40.2639 35.6089 40.6991C35.2655 41.1244 34.696 41.7319 34.3304 42.0457C33.9771 42.3522 33.3543 42.8082 32.9532 43.0597C32.5547 43.3013 31.8805 43.638 31.4616 43.8002C31.0524 43.9651 30.3364 44.185 29.8723 44.2823C29.4206 44.3724 28.5674 44.4817 27.9874 44.5057C27.4074 44.5298 26.86 44.5098 26.7803 44.4568C26.6812 44.3985 26.627 44.1729 26.6248 43.9084C26.6272 43.6662 26.66 43.1154 26.6904 42.6907C26.7305 42.2686 26.8701 41.5142 26.9897 41.0289C27.1216 40.5364 27.3903 39.806 27.5843 39.3935C27.7783 38.9809 28.1382 38.3383 28.3923 37.9736C28.6368 37.6062 29.0984 37.012 29.4207 36.6655C29.743 36.319 30.3162 35.7758 30.6986 35.4771C31.074 35.166 32.0573 34.532 32.8764 34.0442C33.6928 33.5661 34.8441 32.9667 35.4212 32.7201Z" fill="#FFDD2D"/>
<path d="M18.0654 33.6229C18.1796 33.0411 18.3274 32.4895 18.4024 32.404C18.486 32.2997 18.5744 32.2812 18.6676 32.3484C18.7446 32.4113 19.1236 32.7873 19.4973 33.1831C19.8807 33.5814 20.6034 34.3874 21.1029 34.9752C21.6148 35.5558 22.342 36.5002 22.7319 37.0692C23.1341 37.6309 23.6978 38.5632 23.9947 39.1284C24.3015 39.6963 24.6758 40.5567 24.8303 41.031C24.9848 41.5052 25.1644 42.1973 25.2232 42.5615C25.2918 42.9283 25.3582 43.6534 25.3625 44.1824C25.3829 44.8847 25.3156 45.4473 25.1196 46.3344C24.9342 47.1821 24.7387 47.7949 24.4451 48.4235C24.23 48.9149 23.9549 49.4746 23.8437 49.656C23.7396 49.8498 23.5604 50.0129 23.4649 50.019C23.357 50.0323 23.073 49.9246 22.819 49.7826C22.5748 49.6433 22.08 49.3101 21.7136 49.043C21.3542 48.7883 20.7629 48.2709 20.4033 47.9001C20.0199 47.5018 19.491 46.7899 19.1197 46.152C18.7669 45.5613 18.3581 44.7127 18.2054 44.2706C18.0457 43.8161 17.8333 43.0518 17.7353 42.5611C17.6374 42.0703 17.5256 41.1641 17.4939 40.5432C17.4621 39.9224 17.4509 38.8742 17.481 38.2171C17.5207 37.5627 17.6104 36.4887 17.6988 35.8473C17.7872 35.2059 17.9512 34.2046 18.0654 33.6229Z" fill="#FFDD2D"/>
<path d="M31.5253 45.781C32.0615 45.3757 33.2391 44.5615 34.1482 43.9711C35.0546 43.3905 35.8171 42.9191 35.8587 42.9197C35.8879 42.9275 35.9596 43.0101 35.9995 43.0947C36.0394 43.1793 36.028 43.8836 35.9689 44.649C35.9098 45.4144 35.7938 46.5869 35.7027 47.2381C35.609 47.8993 35.3543 49.1613 35.1194 50.0379C34.8819 50.9245 34.5508 51.9654 34.3842 52.3536C34.2176 52.7418 33.9548 53.2943 33.7978 53.569C33.6505 53.8462 33.2799 54.412 32.9807 54.8281C32.6815 55.2441 32.1315 55.8568 31.7605 56.1903C31.3896 56.5238 30.6307 57.0595 30.0865 57.3781C29.5325 57.6942 28.6391 58.1094 28.0999 58.2922C27.5705 58.4776 26.9579 58.6619 26.7396 58.6984C26.5283 58.7474 26.2816 58.7341 26.2046 58.6712C26.1152 58.6156 25.9864 58.201 25.9071 57.7574C25.8375 57.3165 25.7569 56.5664 25.7324 56.0742C25.7149 55.5945 25.7343 54.8606 25.7815 54.451C25.8287 54.0413 26.0159 53.2258 26.2034 52.6426C26.3963 52.0397 26.7224 51.2508 26.9579 50.8388C27.1811 50.4341 27.5623 49.8289 27.7961 49.5009C28.03 49.173 28.4264 48.6668 28.6939 48.369C28.949 48.0784 29.478 47.5445 29.8568 47.1815C30.2454 46.8211 30.9891 46.1863 31.5253 45.781Z" fill="#FFDD2D"/>
<path d="M13.2334 48.2699C13.0359 47.3724 12.903 46.545 12.9276 46.4143C12.9751 46.237 13.044 46.2132 13.2581 46.2706C13.4041 46.3097 14.0517 46.5783 14.687 46.854C15.3293 47.1423 16.308 47.6157 16.8575 47.9002C17.4141 48.1971 18.369 48.7591 18.9699 49.163C19.5832 49.5596 20.4436 50.2019 20.881 50.5935C21.3307 50.978 21.8992 51.542 22.1596 51.8546C22.4199 52.1672 22.8576 52.7913 23.1324 53.2449C23.4097 53.6888 23.7511 54.3609 23.8957 54.7164C24.0403 55.0719 24.2295 55.6504 24.3157 55.9902C24.4019 56.3301 24.5038 57.1175 24.5356 57.7383C24.5771 58.3618 24.5721 59.2367 24.5241 59.6884C24.4858 60.1427 24.4263 60.5596 24.3883 60.6233C24.3504 60.687 24.1904 60.7392 24.0339 60.7395C23.8774 60.7398 23.0008 60.5471 22.0888 60.2922C20.8044 59.948 20.309 59.7731 19.8497 59.5022C19.5355 59.3124 18.9514 58.9236 18.5681 58.6415C18.1848 58.3593 17.5535 57.7573 17.1541 57.3019C16.714 56.8039 16.1531 55.9779 15.6922 55.1682C15.2933 54.4384 14.7968 53.4502 14.6033 52.9655C14.4125 52.471 14.0974 51.5842 13.9136 50.9859C13.7297 50.3877 13.4212 49.1648 13.2334 48.2699Z" fill="#FFDD2D"/>
<path d="M32.125 58.2939C32.7548 57.7342 33.6521 56.9928 34.1239 56.6335C34.5929 56.2841 35.0117 56.0057 35.0532 56.0063C35.0922 56.0167 35.1542 56.0967 35.2038 56.1839C35.2437 56.2685 35.3047 56.8971 35.333 57.5698C35.3614 58.2426 35.3788 59.3452 35.3682 60.0075C35.3479 60.6672 35.3014 61.6577 35.2615 62.196C35.2032 62.9194 35.0539 63.6712 34.6712 65.0995C34.1909 66.8922 34.1213 67.0741 33.6202 67.9323C33.3291 68.4349 32.8384 69.1375 32.5453 69.4918C32.2522 69.8461 31.7409 70.3531 31.43 70.6182C31.1094 70.8807 30.3885 71.3527 29.8247 71.6661C29.2584 71.9895 28.5099 72.3696 28.1476 72.5153C27.7949 72.6636 27.414 72.7622 27.3069 72.7335C27.1707 72.697 27.036 72.4603 26.8673 71.9611C26.7359 71.5564 26.5687 70.857 26.492 70.4036C26.4153 69.9502 26.3463 69.2349 26.3395 68.8319C26.3257 68.4165 26.3558 67.7594 26.4074 67.3721C26.452 66.9723 26.5714 66.3708 26.6567 66.0136C26.7517 65.659 27.0099 64.9681 27.2347 64.4793C27.4498 63.988 27.949 63.0977 28.3373 62.5049C28.7256 61.9122 29.483 60.9538 30.0154 60.368C30.5381 59.7796 31.4953 58.8536 32.125 58.2939Z" fill="#FFDD2D"/>
<path d="M12.0473 58.4567C12.049 58.3727 12.1151 58.2426 12.1973 58.1696C12.3413 58.0604 12.5482 58.1053 13.8097 58.4961C14.6068 58.7519 15.8064 59.1789 16.4762 59.4428C17.1556 59.7094 18.1156 60.1355 18.6218 60.3873C19.1253 60.6489 19.8412 61.0519 20.2032 61.2967C20.5775 61.5342 21.175 61.9899 21.5477 62.3115C21.9231 62.6232 22.4676 63.1598 22.7448 63.4874C23.0318 63.8177 23.5147 64.5066 23.8027 65.0272C24.1006 65.5504 24.4642 66.3341 24.6045 66.7834C24.7475 67.2229 24.9217 67.9347 24.9842 68.3632C25.0494 68.7818 25.1131 69.5168 25.1332 69.9868C25.1533 70.4567 25.115 70.9109 25.0621 70.9918C25.0039 71.0923 24.7679 71.1557 24.423 71.1584C24.1197 71.1615 23.5918 71.1468 23.2548 71.1198C22.8763 71.0923 22.1095 70.9185 21.2416 70.6543C20.0943 70.3047 19.7014 70.1361 19.0395 69.7264C18.6023 69.4509 17.8844 68.8996 17.4399 68.4954C17.0052 68.0939 16.4066 67.4479 16.1036 67.0605C15.8078 66.6856 15.2708 65.8872 14.9278 65.2991C14.5751 64.7084 14.0893 63.797 13.8454 63.2671C13.5918 62.7346 13.2272 61.8768 13.0222 61.3573C12.827 60.8405 12.5181 60.0081 12.3591 59.5116C12.1976 59.0249 12.0554 58.5434 12.0473 58.4567Z" fill="#FFDD2D"/>
<path d="M37.0094 66.5706C37.6425 65.8428 38.2146 65.2254 38.2836 65.2017C38.3525 65.1779 38.4506 65.162 38.4896 65.1724C38.5285 65.1828 38.6083 65.352 38.6775 65.5606C38.7371 65.7666 38.9694 66.8846 39.1982 68.0544C39.42 69.2118 39.644 70.7499 39.6936 71.46C39.7432 72.1701 39.7554 73.2924 39.7156 73.9469C39.669 74.8212 39.5709 75.46 39.3386 76.3269C39.1741 76.9796 38.9549 77.681 38.8579 77.8873C38.7609 78.0935 38.5069 78.5745 38.2917 78.9496C38.0764 79.3248 37.7111 79.8709 37.478 80.1569C37.245 80.4428 36.7681 80.938 36.4096 81.2642C36.051 81.5904 35.324 82.124 34.7992 82.448C34.2647 82.7693 33.7875 83.032 33.7291 83.0164C33.6805 83.0033 33.4173 82.5844 33.1434 82.0887C32.8792 81.5957 32.5652 80.8992 32.4498 80.5515C32.3344 80.2039 32.1797 79.6135 32.1111 79.2467C32.0328 78.8773 31.9558 78.1916 31.9357 77.7217C31.9156 77.2517 31.9534 76.449 32.0244 75.9506C32.0917 75.388 32.2834 74.5948 32.5071 73.9157C32.7026 73.303 33.0648 72.4182 33.3011 71.9642C33.5401 71.5004 33.9053 70.8381 34.1127 70.4924C34.3226 70.137 34.8089 69.4121 35.1813 68.8784C35.5661 68.3375 36.3862 67.3009 37.0094 66.5706Z" fill="#FFDD2D"/>
<path d="M41.6799 75.529C41.9496 74.8728 42.2211 74.2487 42.2846 74.1285C42.3455 74.0181 42.4692 73.9457 42.5594 73.9593C42.6469 73.9827 43.1555 74.7314 43.6811 75.6112C44.2164 76.4937 44.9362 77.8162 45.2812 78.5526C45.6288 79.2792 46.044 80.2984 46.2198 80.81C46.3858 81.3191 46.6045 82.1378 46.7024 82.6285C46.8003 83.1193 46.9032 83.9809 46.9314 84.5374C46.9596 85.094 46.9174 85.9906 46.8483 86.5211C46.7361 87.2512 46.6094 87.724 46.3186 88.459C46.1098 89.0048 45.6776 89.8392 45.3723 90.3169C45.0644 90.8045 44.5869 91.4578 44.3044 91.7727C43.9291 92.2001 43.7454 92.3409 43.5995 92.3018C43.4924 92.2731 43.2464 92.1016 43.0542 91.9234C42.8497 91.7525 42.4761 91.3568 42.213 91.054C41.95 90.7513 41.507 90.1469 41.2244 89.7228C40.9541 89.2914 40.556 88.5196 40.351 88.0002C40.1461 87.4807 39.9169 86.7014 39.842 86.2802C39.7601 85.8465 39.6884 85.141 39.6604 84.7007C39.6421 84.2629 39.642 83.5239 39.6803 83.0696C39.7088 82.6127 39.8349 81.6752 39.9683 80.9825C40.1097 80.2603 40.4264 79.0782 40.7073 78.2244C40.9706 77.3976 41.4102 76.1852 41.6799 75.529Z" fill="#FFDD2D"/>
<path d="M17.3156 71.3338C18.1743 71.4372 19.2162 71.558 19.6257 71.6255C20.0475 71.6857 21.2496 71.9867 22.3147 72.2932C23.4771 72.6258 24.5095 72.9763 24.8944 73.1745C25.2528 73.3549 25.9174 73.7547 26.3785 74.0578C26.8467 74.3732 27.4681 74.8565 27.7532 75.1546C28.0507 75.4455 28.5334 76.0182 28.8214 76.4226C29.119 76.8297 29.533 77.5424 29.7485 78.0224C29.9667 78.4926 30.2755 79.3249 30.431 79.8734C30.5865 80.4218 30.7146 80.9945 30.736 81.1481C30.7495 81.3312 30.7055 81.4566 30.596 81.554C30.5112 81.6368 30.0224 81.7487 29.5149 81.8133C29.0172 81.8805 28.2214 81.9312 27.7616 81.9347C27.2726 81.9304 26.4651 81.8301 25.7929 81.6922C24.9455 81.5074 24.4572 81.3449 23.8298 81.0396C23.3768 80.8231 22.6662 80.4005 22.2511 80.1203C21.8484 79.8329 21.1526 79.277 20.7081 78.8729C20.2734 78.4713 19.6429 77.8273 19.3108 77.4321C18.9787 77.037 18.371 76.2301 17.9643 75.6461C17.5576 75.062 16.8088 73.8479 16.2982 72.9509C15.5164 71.5485 15.4038 71.3071 15.5664 71.2451C15.6725 71.1996 16.4542 71.2402 17.3156 71.3338Z" fill="#FFDD2D"/>
<path d="M48.5263 86.2528C48.4663 85.6983 48.4514 85.2087 48.5062 85.16C48.576 85.0942 48.7538 85.1313 49.0351 85.2489C49.2705 85.3437 50.0571 85.7551 50.773 86.158C51.5013 86.5538 52.6297 87.2467 53.2864 87.6761C53.9502 88.1179 54.861 88.8053 55.3249 89.2147C55.7888 89.6241 56.3767 90.1933 56.623 90.481C56.8789 90.7713 57.3271 91.3559 57.6195 91.7827C57.9119 92.2094 58.325 92.9641 58.5476 93.4566C58.7605 93.9465 59.0225 94.798 59.1241 95.353C59.2185 95.8957 59.3117 96.7547 59.3141 97.2515C59.3166 97.7484 59.2814 98.5413 59.2157 99.0199C59.1501 99.4985 59.0526 99.9792 58.9917 100.09C58.9158 100.217 58.7577 100.301 58.5914 100.299C58.4349 100.299 57.8042 100.162 57.1841 99.9853C56.4181 99.7695 55.8138 99.5336 55.2501 99.2242C54.805 98.9783 54.1625 98.5738 53.8226 98.3244C53.4898 98.0874 52.8948 97.5057 52.4927 97.0601C52.103 96.6073 51.5502 95.868 51.2755 95.4143C51.0105 94.9632 50.6027 94.1888 50.3898 93.6989C50.1769 93.209 49.8494 92.3295 49.6674 91.7634C49.4782 91.1848 49.175 89.9423 48.9907 88.9955C48.7966 88.0461 48.596 86.8099 48.5263 86.2528Z" fill="#FFDD2D"/>
<path d="M28.5258 83.3641C29.036 83.4058 29.5852 83.458 29.7462 83.48C29.9169 83.5046 30.6227 83.6726 31.3162 83.8479C32.0973 84.0466 32.8723 84.3071 33.3253 84.5235C33.7297 84.7268 34.3465 85.0716 34.6819 85.2987C35.0271 85.5285 35.4777 85.8709 35.6769 86.0615C35.8885 86.2449 36.2692 86.6531 36.5323 86.9558C36.7927 87.2684 37.2303 87.8925 37.5051 88.3461C37.7825 88.79 38.1451 89.4995 38.3083 89.9022C38.4787 90.3173 38.6004 90.7194 38.5793 90.7982C38.5581 90.877 38.3718 91.0277 38.1544 91.1384C37.9397 91.2392 37.4102 91.4246 36.97 91.5495C36.5369 91.6868 35.82 91.8326 35.3665 91.8905C34.9227 91.9511 34.1614 91.9899 33.6724 91.9856C33.0419 91.9644 32.4617 91.8723 31.5762 91.635C30.7978 91.4265 30.0838 91.1718 29.5777 90.9201C29.1565 90.7016 28.3804 90.2509 27.8662 89.9125C27.3643 89.5669 26.5234 88.9298 26.0064 88.4851C25.4965 88.0529 24.6899 87.2878 24.2179 86.7918C23.7557 86.2984 22.9825 85.4472 22.5167 84.8896C22.0481 84.3417 21.669 83.8495 21.6796 83.8101C21.6901 83.7707 21.7599 83.7049 21.8465 83.6542C21.9304 83.6134 22.6315 83.5268 23.391 83.4558C24.1602 83.3874 25.4184 83.3233 26.1939 83.3094C26.9791 83.2981 28.0252 83.325 28.5258 83.3641Z" fill="#FFDD2D"/>
<path d="M39.8345 93.1194C40.3872 93.1197 41.1274 93.1596 41.4811 93.2016C41.842 93.2561 42.5673 93.4293 43.0945 93.6023C43.6218 93.7752 44.342 94.0843 44.688 94.2721C45.0411 94.4723 45.6155 94.8584 45.9722 95.1229C46.3387 95.39 46.884 95.8846 47.1931 96.2102C47.5119 96.5384 47.9087 97.0037 48.0876 97.2311C48.2639 97.4684 48.4278 97.7129 48.4385 97.7897C48.4492 97.8665 48.2515 98.0985 47.998 98.3051C47.7445 98.5117 47.0757 98.9448 46.5217 99.2609C45.9553 99.5842 45.259 99.9255 44.9708 100.028C44.6924 100.133 44.0339 100.294 43.5159 100.398C43.0102 100.495 42.1137 100.571 41.5389 100.576C40.7148 100.577 40.1832 100.497 38.9758 100.216C37.856 99.9584 37.166 99.7312 36.3317 99.381C35.7132 99.1203 34.6018 98.5585 33.8496 98.1353C33.1072 97.7146 32.0151 97.0419 31.4309 96.6531C30.8494 96.2545 30.3529 95.8892 30.3245 95.8394C30.2864 95.7869 30.3031 95.6858 30.3631 95.6174C30.4134 95.5465 31.0895 95.242 31.8681 94.9438C32.6467 94.6457 33.7497 94.2656 34.3084 94.088C34.8793 93.9031 35.811 93.6566 36.3856 93.5361C36.9699 93.4181 37.7603 93.271 38.1378 93.2243C38.5277 93.1704 39.2916 93.1217 39.8345 93.1194Z" fill="#FFDD2D"/>
<path d="M227.454 100.761C226.847 100.755 226.031 100.784 225.645 100.823C225.253 100.876 224.566 101.039 224.127 101.188C223.677 101.34 222.984 101.632 222.582 101.845C222.183 102.068 221.54 102.472 221.16 102.764C220.776 103.047 220.178 103.577 219.828 103.945C219.478 104.313 219.192 104.685 219.184 104.772C219.186 104.856 219.459 105.173 219.79 105.475C220.131 105.775 220.793 106.262 221.256 106.55C221.722 106.847 222.448 107.223 222.87 107.395C223.282 107.57 224.073 107.801 224.623 107.907C225.163 108.016 226.053 108.105 226.603 108.094C227.146 108.097 227.947 108.051 228.372 108.001C228.806 107.948 229.675 107.767 230.298 107.6C230.931 107.431 232.035 107.04 232.756 106.731C233.479 106.432 234.562 105.92 235.167 105.61C235.772 105.3 236.51 104.901 236.807 104.727C237.107 104.562 237.368 104.365 237.388 104.286C237.411 104.216 237.426 104.117 237.416 104.078C237.405 104.039 236.869 103.749 236.225 103.447C235.588 103.132 234.635 102.691 234.114 102.46C233.594 102.23 232.618 101.858 231.963 101.633C231.299 101.41 230.264 101.127 229.66 101.015C229.053 100.892 228.053 100.78 227.454 100.761Z" fill="#FFDD2D"/>
<path d="M226.475 8.56141C226.043 8.46608 225.176 8.3076 224.553 8.2001C223.917 8.08537 223.307 8.02713 223.178 8.05117C223.013 8.09549 222.977 8.15778 223.03 8.35479C223.067 8.49269 223.392 9.19756 223.763 9.92156C224.127 10.658 224.774 11.8256 225.201 12.5241C225.628 13.2226 226.297 14.2044 226.684 14.7131C227.08 15.2193 227.641 15.8714 227.94 16.1713C228.23 16.4737 228.824 16.9796 229.254 17.2974C229.683 17.6152 230.278 18.0049 230.572 18.1689C230.866 18.3329 231.367 18.5681 231.695 18.702C232.011 18.8286 232.645 19.0175 233.109 19.1148C233.561 19.2049 234.319 19.3081 234.781 19.3214C235.246 19.3446 235.94 19.3275 236.336 19.2849C236.721 19.245 237.197 19.1914 237.397 19.1589C237.59 19.139 237.799 19.0619 237.873 18.9892C237.961 18.8915 237.936 18.6027 237.738 17.7478C237.594 17.1318 237.32 16.2656 237.128 15.8209C236.936 15.3762 236.585 14.689 236.333 14.2921C236.08 13.8952 235.701 13.374 235.493 13.1445C235.293 12.9026 234.872 12.4981 234.571 12.2304C234.269 11.9627 233.641 11.487 233.185 11.1869C232.717 10.8795 231.918 10.4284 231.393 10.1787C230.87 9.93877 230.174 9.63948 229.861 9.52272C229.536 9.39872 228.82 9.17882 228.264 9.01107C227.701 8.85577 226.895 8.64949 226.475 8.56141Z" fill="#FFDD2D"/>
<path d="M243.442 10.8562C243.043 10.2982 242.125 9.1715 241.417 8.35827C240.367 7.16175 240.088 6.89868 239.92 6.93316C239.744 6.98009 239.648 7.32253 239.361 8.85654C239.156 9.8827 238.944 11.3118 238.875 12.0271C238.806 12.7424 238.743 13.7518 238.749 14.2782C238.742 14.7974 238.794 15.6914 238.851 16.2566C238.92 17.0194 239.041 17.5887 239.325 18.4524C239.544 19.1538 239.862 19.9131 240.115 20.352C240.348 20.7541 240.791 21.3956 241.112 21.7742C241.422 22.1555 241.954 22.6993 242.283 22.9913C242.611 23.2834 243.33 23.7875 243.88 24.1259C244.436 24.4518 244.933 24.7094 245.001 24.6911C245.069 24.6729 245.297 24.3162 245.506 23.8906C245.718 23.4749 245.987 22.8433 246.112 22.4931C246.228 22.1454 246.398 21.4979 246.483 21.0741C246.574 20.6378 246.659 19.9816 246.671 19.5983C246.683 19.215 246.672 18.6269 246.643 18.2862C246.614 17.9455 246.436 17.0853 246.258 16.3834C246.008 15.4476 245.78 14.8328 245.434 14.1233C245.164 13.5833 244.771 12.8546 244.563 12.509C244.343 12.1561 243.842 11.4142 243.442 10.8562Z" fill="#FFDD2D"/>
<path d="M233.348 20.7824C232.958 20.7285 231.779 20.6115 230.726 20.5347C229.237 20.4269 228.787 20.4208 228.704 20.5381C228.623 20.6653 228.758 20.9353 229.518 22.1359C230.022 22.9297 230.841 24.1146 231.328 24.7653C231.825 25.4134 232.558 26.2832 232.963 26.7027C233.365 27.1123 233.977 27.6871 234.325 27.9739C234.664 28.2634 235.39 28.755 235.934 29.0737C236.478 29.3924 237.259 29.7745 237.672 29.9171C238.079 30.0721 238.762 30.248 239.192 30.3334C239.609 30.4117 240.427 30.467 240.999 30.4615C241.664 30.4523 242.464 30.3645 243.224 30.2031C244.24 29.9838 244.422 29.9244 244.528 29.7376C244.637 29.5606 244.62 29.4174 244.371 28.6819C244.205 28.2195 243.904 27.4871 243.683 27.0502C243.462 26.6133 243.067 25.9588 242.803 25.5967C242.539 25.2346 242.014 24.6363 241.635 24.2733C241.199 23.8517 240.465 23.3305 239.636 22.8453C238.857 22.389 237.899 21.9277 237.244 21.702C236.639 21.5053 235.68 21.2344 235.105 21.1139C234.521 20.996 233.73 20.8488 233.348 20.7824Z" fill="#FFDD2D"/>
<path d="M252.475 21.3688C252.135 20.763 251.662 19.9292 251.404 19.5126C251.058 18.9613 250.896 18.7831 250.779 18.8144C250.682 18.8405 250.382 19.3958 250.095 20.0746C249.807 20.7534 249.392 21.7726 249.183 22.3564C248.972 22.9303 248.683 23.7994 248.539 24.2711C248.404 24.7401 248.208 25.6055 248.102 26.1829C248.006 26.7577 247.898 27.5996 247.87 28.0399C247.851 28.4777 247.847 29.239 247.883 29.7255C247.928 30.3996 248.034 30.9098 248.347 31.9238C248.668 32.9673 248.858 33.4022 249.252 34.0567C249.528 34.5002 250.08 35.239 250.48 35.6808C250.88 36.1226 251.419 36.654 251.672 36.8605C251.935 37.0645 252.198 37.2265 252.266 37.2082C252.334 37.19 252.617 36.882 252.896 36.5222C253.168 36.1748 253.651 35.4117 253.958 34.8439C254.265 34.2761 254.619 33.495 254.736 33.1152C254.863 32.7328 255.012 32.1227 255.071 31.7585C255.13 31.3943 255.169 30.6448 255.178 30.0935C255.177 29.5448 255.076 28.5476 254.97 27.8793C254.816 26.9916 254.639 26.3316 254.31 25.4167C254.062 24.7231 253.684 23.7792 253.477 23.3174C253.257 22.8484 252.805 21.9772 252.475 21.3688Z" fill="#FFDD2D"/>
<path d="M243.169 32.7201C242.592 32.4736 241.441 32.0323 240.614 31.7472C239.786 31.4622 239.061 31.2449 238.992 31.2631C238.924 31.2814 238.873 31.4007 238.866 31.5293C238.871 31.6652 239.058 32.3646 239.292 33.0831C239.527 33.8016 239.946 34.9772 240.219 35.6853C240.492 36.3933 240.871 37.2631 241.052 37.6264C241.23 37.9798 241.595 38.6421 241.864 39.0981C242.139 39.5417 242.635 40.2639 242.981 40.6991C243.324 41.1244 243.894 41.7319 244.259 42.0457C244.613 42.3522 245.236 42.8082 245.637 43.0597C246.035 43.3013 246.709 43.638 247.128 43.8002C247.537 43.9651 248.253 44.185 248.718 44.2823C249.169 44.3724 250.022 44.4817 250.602 44.5057C251.182 44.5298 251.73 44.5098 251.81 44.4568C251.909 44.3985 251.963 44.1729 251.965 43.9084C251.963 43.6662 251.93 43.1154 251.899 42.6907C251.859 42.2686 251.72 41.5142 251.6 41.0289C251.468 40.5364 251.2 39.806 251.006 39.3935C250.812 38.9809 250.452 38.3383 250.197 37.9736C249.953 37.6062 249.491 37.012 249.169 36.6655C248.847 36.319 248.274 35.7758 247.891 35.4771C247.516 35.166 246.533 34.532 245.713 34.0442C244.897 33.5661 243.746 32.9667 243.169 32.7201Z" fill="#FFDD2D"/>
<path d="M260.524 33.6229C260.41 33.0411 260.262 32.4895 260.187 32.404C260.104 32.2997 260.015 32.2812 259.922 32.3484C259.845 32.4113 259.466 32.7873 259.093 33.1831C258.709 33.5814 257.986 34.3874 257.487 34.9752C256.975 35.5558 256.248 36.5002 255.858 37.0692C255.456 37.6309 254.892 38.5632 254.595 39.1284C254.288 39.6963 253.914 40.5567 253.76 41.031C253.605 41.5052 253.425 42.1973 253.367 42.5615C253.298 42.9283 253.232 43.6534 253.227 44.1824C253.207 44.8847 253.274 45.4473 253.47 46.3344C253.656 47.1821 253.851 47.7949 254.145 48.4235C254.36 48.9149 254.635 49.4746 254.746 49.656C254.85 49.8498 255.029 50.0129 255.125 50.019C255.233 50.0323 255.517 49.9246 255.771 49.7826C256.015 49.6433 256.51 49.3101 256.876 49.043C257.236 48.7883 257.827 48.2709 258.187 47.9001C258.57 47.5018 259.099 46.7899 259.47 46.152C259.823 45.5613 260.232 44.7127 260.384 44.2706C260.544 43.8161 260.757 43.0518 260.854 42.5611C260.952 42.0703 261.064 41.1641 261.096 40.5432C261.128 39.9224 261.139 38.8742 261.109 38.2171C261.069 37.5627 260.979 36.4887 260.891 35.8473C260.803 35.2059 260.639 34.2046 260.524 33.6229Z" fill="#FFDD2D"/>
<path d="M247.065 45.781C246.528 45.3757 245.351 44.5615 244.442 43.9711C243.535 43.3905 242.773 42.9191 242.731 42.9197C242.702 42.9275 242.63 43.0101 242.59 43.0947C242.55 43.1793 242.562 43.8836 242.621 44.649C242.68 45.4144 242.796 46.5869 242.887 47.2381C242.981 47.8993 243.236 49.1613 243.47 50.0379C243.708 50.9245 244.039 51.9654 244.206 52.3536C244.372 52.7418 244.635 53.2943 244.792 53.569C244.939 53.8462 245.31 54.412 245.609 54.8281C245.908 55.2441 246.458 55.8568 246.829 56.1903C247.2 56.5238 247.959 57.0595 248.503 57.3781C249.057 57.6942 249.951 58.1094 250.49 58.2922C251.019 58.4776 251.632 58.6619 251.85 58.6984C252.062 58.7474 252.308 58.7341 252.385 58.6712C252.475 58.6156 252.603 58.201 252.683 57.7574C252.752 57.3165 252.833 56.5664 252.857 56.0742C252.875 55.5945 252.856 54.8606 252.808 54.451C252.761 54.0413 252.574 53.2258 252.386 52.6426C252.194 52.0397 251.867 51.2508 251.632 50.8388C251.409 50.4341 251.028 49.8289 250.794 49.5009C250.56 49.173 250.163 48.6668 249.896 48.369C249.641 48.0784 249.112 47.5445 248.733 47.1815C248.344 46.8211 247.601 46.1863 247.065 45.781Z" fill="#FFDD2D"/>
<path d="M265.356 48.2699C265.554 47.3724 265.687 46.545 265.662 46.4143C265.615 46.237 265.546 46.2132 265.332 46.2706C265.186 46.3097 264.538 46.5783 263.903 46.854C263.261 47.1423 262.282 47.6157 261.732 47.9002C261.176 48.1971 260.221 48.7591 259.62 49.163C259.007 49.5596 258.146 50.2019 257.709 50.5935C257.259 50.978 256.691 51.542 256.43 51.8546C256.17 52.1672 255.732 52.7913 255.457 53.2449C255.18 53.6888 254.839 54.3609 254.694 54.7164C254.55 55.0719 254.36 55.6504 254.274 55.9902C254.188 56.3301 254.086 57.1175 254.054 57.7383C254.013 58.3618 254.018 59.2367 254.066 59.6884C254.104 60.1427 254.164 60.5596 254.202 60.6233C254.239 60.687 254.399 60.7392 254.556 60.7395C254.712 60.7398 255.589 60.5471 256.501 60.2922C257.785 59.948 258.281 59.7731 258.74 59.5022C259.054 59.3124 259.638 58.9236 260.022 58.6415C260.405 58.3593 261.036 57.7573 261.436 57.3019C261.876 56.8039 262.437 55.9779 262.898 55.1682C263.297 54.4384 263.793 53.4502 263.987 52.9655C264.177 52.471 264.492 51.5842 264.676 50.9859C264.86 50.3877 265.169 49.1648 265.356 48.2699Z" fill="#FFDD2D"/>
<path d="M246.465 58.2939C245.835 57.7342 244.938 56.9928 244.466 56.6335C243.997 56.2841 243.578 56.0057 243.537 56.0063C243.498 56.0167 243.436 56.0967 243.386 56.1839C243.346 56.2685 243.285 56.8971 243.257 57.5698C243.228 58.2426 243.211 59.3452 243.222 60.0075C243.242 60.6672 243.288 61.6577 243.328 62.196C243.387 62.9194 243.536 63.6712 243.919 65.0995C244.399 66.8922 244.469 67.0741 244.97 67.9323C245.261 68.4349 245.751 69.1375 246.045 69.4918C246.338 69.8461 246.849 70.3531 247.16 70.6182C247.48 70.8807 248.201 71.3527 248.765 71.6661C249.331 71.9895 250.08 72.3696 250.442 72.5153C250.795 72.6636 251.176 72.7622 251.283 72.7335C251.419 72.697 251.554 72.4603 251.723 71.9611C251.854 71.5564 252.021 70.857 252.098 70.4036C252.174 69.9502 252.244 69.2349 252.25 68.8319C252.264 68.4165 252.234 67.7594 252.182 67.3721C252.138 66.9723 252.018 66.3708 251.933 66.0136C251.838 65.659 251.58 64.9681 251.355 64.4793C251.14 63.988 250.641 63.0977 250.253 62.5049C249.864 61.9122 249.107 60.9538 248.574 60.368C248.052 59.7796 247.095 58.8536 246.465 58.2939Z" fill="#FFDD2D"/>
<path d="M266.543 58.4567C266.541 58.3727 266.475 58.2426 266.393 58.1696C266.249 58.0604 266.042 58.1053 264.78 58.4961C263.983 58.7519 262.783 59.1789 262.114 59.4428C261.434 59.7094 260.474 60.1355 259.968 60.3873C259.465 60.6489 258.749 61.0519 258.387 61.2967C258.012 61.5342 257.415 61.9899 257.042 62.3115C256.667 62.6232 256.122 63.1598 255.845 63.4874C255.558 63.8177 255.075 64.5066 254.787 65.0272C254.489 65.5504 254.126 66.3341 253.985 66.7834C253.842 67.2229 253.668 67.9347 253.606 68.3632C253.54 68.7818 253.477 69.5168 253.457 69.9868C253.437 70.4567 253.475 70.9109 253.528 70.9918C253.586 71.0923 253.822 71.1557 254.167 71.1584C254.47 71.1615 254.998 71.1468 255.335 71.1198C255.714 71.0923 256.48 70.9185 257.348 70.6543C258.496 70.3047 258.888 70.1361 259.55 69.7264C259.988 69.4509 260.705 68.8996 261.15 68.4954C261.585 68.0939 262.183 67.4479 262.486 67.0605C262.782 66.6856 263.319 65.8872 263.662 65.2991C264.015 64.7084 264.501 63.797 264.744 63.2671C264.998 62.7346 265.363 61.8768 265.568 61.3573C265.763 60.8405 266.072 60.0081 266.231 59.5116C266.392 59.0249 266.534 58.5434 266.543 58.4567Z" fill="#FFDD2D"/>
<path d="M241.58 66.5706C240.947 65.8428 240.375 65.2254 240.306 65.2017C240.237 65.1779 240.139 65.162 240.1 65.1724C240.061 65.1828 239.982 65.352 239.912 65.5606C239.853 65.7666 239.62 66.8846 239.392 68.0544C239.17 69.2118 238.946 70.7499 238.896 71.46C238.847 72.1701 238.834 73.2924 238.874 73.9469C238.921 74.8212 239.019 75.46 239.251 76.3269C239.416 76.9796 239.635 77.681 239.732 77.8873C239.829 78.0935 240.083 78.5745 240.298 78.9496C240.513 79.3248 240.879 79.8709 241.112 80.1569C241.345 80.4428 241.822 80.938 242.18 81.2642C242.539 81.5904 243.266 82.124 243.791 82.448C244.325 82.7693 244.802 83.032 244.861 83.0164C244.909 83.0033 245.173 82.5844 245.446 82.0887C245.711 81.5957 246.025 80.8992 246.14 80.5515C246.255 80.2039 246.41 79.6135 246.479 79.2467C246.557 78.8773 246.634 78.1916 246.654 77.7217C246.674 77.2517 246.636 76.449 246.565 75.9506C246.498 75.388 246.306 74.5948 246.083 73.9157C245.887 73.303 245.525 72.4182 245.289 71.9642C245.05 71.5004 244.685 70.8381 244.477 70.4924C244.267 70.137 243.781 69.4121 243.409 68.8784C243.024 68.3375 242.204 67.3009 241.58 66.5706Z" fill="#FFDD2D"/>
<path d="M236.91 75.529C236.64 74.8728 236.369 74.2487 236.305 74.1285C236.244 74.0181 236.121 73.9457 236.03 73.9593C235.943 73.9827 235.434 74.7314 234.909 75.6112C234.373 76.4937 233.654 77.8162 233.309 78.5526C232.961 79.2792 232.546 80.2984 232.37 80.81C232.204 81.3191 231.985 82.1378 231.887 82.6285C231.789 83.1193 231.687 83.9809 231.658 84.5374C231.63 85.094 231.672 85.9906 231.742 86.5211C231.854 87.2512 231.98 87.724 232.271 88.459C232.48 89.0048 232.912 89.8392 233.218 90.3169C233.525 90.8045 234.003 91.4578 234.285 91.7727C234.661 92.2001 234.844 92.3409 234.99 92.3018C235.097 92.2731 235.343 92.1016 235.536 91.9234C235.74 91.7525 236.114 91.3568 236.377 91.054C236.64 90.7513 237.083 90.1469 237.365 89.7228C237.636 89.2914 238.034 88.5196 238.239 88.0002C238.444 87.4807 238.673 86.7014 238.748 86.2802C238.83 85.8465 238.901 85.141 238.929 84.7007C238.948 84.2629 238.948 83.5239 238.91 83.0696C238.881 82.6127 238.755 81.6752 238.622 80.9825C238.48 80.2603 238.163 79.0782 237.882 78.2244C237.619 77.3976 237.18 76.1852 236.91 75.529Z" fill="#FFDD2D"/>
<path d="M261.274 71.3338C260.416 71.4372 259.374 71.558 258.964 71.6255C258.542 71.6857 257.34 71.9867 256.275 72.2932C255.113 72.6258 254.08 72.9763 253.695 73.1745C253.337 73.3549 252.672 73.7547 252.211 74.0578C251.743 74.3732 251.122 74.8565 250.837 75.1546C250.539 75.4455 250.056 76.0182 249.768 76.4226C249.471 76.8297 249.057 77.5424 248.841 78.0224C248.623 78.4926 248.314 79.3249 248.159 79.8734C248.003 80.4218 247.875 80.9945 247.854 81.1481C247.84 81.3312 247.884 81.4566 247.994 81.554C248.079 81.6368 248.567 81.7487 249.075 81.8133C249.573 81.8805 250.368 81.9312 250.828 81.9347C251.317 81.9304 252.125 81.8301 252.797 81.6922C253.644 81.5074 254.133 81.3449 254.76 81.0396C255.213 80.8231 255.924 80.4005 256.339 80.1203C256.741 79.8329 257.437 79.277 257.882 78.8729C258.316 78.4713 258.947 77.8273 259.279 77.4321C259.611 77.037 260.219 76.2301 260.626 75.6461C261.032 75.062 261.781 73.8479 262.292 72.9509C263.073 71.5485 263.186 71.3071 263.023 71.2451C262.917 71.1996 262.136 71.2402 261.274 71.3338Z" fill="#FFDD2D"/>
<path d="M230.064 86.2528C230.124 85.6983 230.138 85.2087 230.084 85.16C230.014 85.0942 229.836 85.1313 229.555 85.2489C229.319 85.3437 228.533 85.7551 227.817 86.158C227.089 86.5538 225.96 87.2467 225.303 87.6761C224.64 88.1179 223.729 88.8053 223.265 89.2147C222.801 89.6241 222.213 90.1933 221.967 90.481C221.711 90.7713 221.263 91.3559 220.97 91.7827C220.678 92.2094 220.265 92.9641 220.042 93.4566C219.829 93.9465 219.567 94.798 219.466 95.353C219.371 95.8957 219.278 96.7547 219.276 97.2515C219.273 97.7484 219.308 98.5413 219.374 99.0199C219.44 99.4985 219.537 99.9792 219.598 100.09C219.674 100.217 219.832 100.301 219.998 100.299C220.155 100.299 220.786 100.162 221.406 99.9853C222.172 99.7695 222.776 99.5336 223.34 99.2242C223.785 98.9783 224.427 98.5738 224.767 98.3244C225.1 98.0874 225.695 97.5057 226.097 97.0601C226.487 96.6073 227.04 95.868 227.314 95.4143C227.579 94.9632 227.987 94.1888 228.2 93.6989C228.413 93.209 228.74 92.3295 228.922 91.7634C229.112 91.1848 229.415 89.9423 229.599 88.9955C229.793 88.0461 229.994 86.8099 230.064 86.2528Z" fill="#FFDD2D"/>
<path d="M250.064 83.3641C249.554 83.4058 249.005 83.458 248.844 83.48C248.673 83.5046 247.967 83.6726 247.274 83.8479C246.493 84.0466 245.718 84.3071 245.265 84.5235C244.86 84.7268 244.243 85.0716 243.908 85.2987C243.563 85.5285 243.112 85.8709 242.913 86.0615C242.701 86.2449 242.321 86.6531 242.058 86.9558C241.797 87.2684 241.359 87.8925 241.085 88.3461C240.807 88.79 240.445 89.4995 240.282 89.9022C240.111 90.3173 239.989 90.7194 240.011 90.7982C240.032 90.877 240.218 91.0277 240.435 91.1384C240.65 91.2392 241.18 91.4246 241.62 91.5495C242.053 91.6868 242.77 91.8326 243.223 91.8905C243.667 91.9511 244.428 91.9899 244.917 91.9856C245.548 91.9644 246.128 91.8723 247.014 91.635C247.792 91.4265 248.506 91.1718 249.012 90.9201C249.433 90.7016 250.209 90.2509 250.724 89.9125C251.226 89.5669 252.066 88.9298 252.583 88.4851C253.093 88.0529 253.9 87.2878 254.372 86.7918C254.834 86.2984 255.607 85.4472 256.073 84.8896C256.542 84.3417 256.921 83.8495 256.91 83.8101C256.9 83.7707 256.83 83.7049 256.743 83.6542C256.659 83.6134 255.958 83.5268 255.199 83.4558C254.43 83.3874 253.171 83.3233 252.396 83.3094C251.611 83.2981 250.565 83.325 250.064 83.3641Z" fill="#FFDD2D"/>
<path d="M238.755 93.1194C238.203 93.1197 237.462 93.1596 237.109 93.2016C236.748 93.2561 236.023 93.4293 235.495 93.6023C234.968 93.7752 234.248 94.0843 233.902 94.2721C233.549 94.4723 232.974 94.8584 232.618 95.1229C232.251 95.39 231.706 95.8846 231.397 96.2102C231.078 96.5384 230.681 97.0037 230.502 97.2311C230.326 97.4684 230.162 97.7129 230.151 97.7897C230.141 97.8665 230.338 98.0985 230.592 98.3051C230.845 98.5117 231.514 98.9448 232.068 99.2609C232.635 99.5842 233.331 99.9255 233.619 100.028C233.897 100.133 234.556 100.294 235.074 100.398C235.58 100.495 236.476 100.571 237.051 100.576C237.875 100.577 238.407 100.497 239.614 100.216C240.734 99.9584 241.424 99.7312 242.258 99.381C242.877 99.1203 243.988 98.5585 244.74 98.1353C245.483 97.7146 246.575 97.0419 247.159 96.6531C247.74 96.2545 248.237 95.8892 248.265 95.8394C248.303 95.7869 248.287 95.6858 248.227 95.6174C248.176 95.5465 247.5 95.242 246.722 94.9438C245.943 94.6457 244.84 94.2656 244.281 94.088C243.711 93.9031 242.779 93.6566 242.204 93.5361C241.62 93.4181 240.83 93.271 240.452 93.2243C240.062 93.1704 239.298 93.1217 238.755 93.1194Z" fill="#FFDD2D"/>
<path d="M142.46 23V40.1432C142.46 41.6588 143.042 43.1122 144.078 44.1839C145.114 45.2556 146.519 45.8576 147.984 45.8576H166.029V77.8583C166.029 79.0707 165.563 80.2335 164.734 81.0908C163.906 81.9482 162.782 82.4298 161.61 82.4298H135.095V72.2688C137.009 69.7299 138.046 66.6013 138.041 63.3818C138.041 59.5424 136.567 55.8602 133.943 53.1454C131.318 50.4305 127.759 48.9053 124.048 48.9053C122.283 48.9033 120.533 49.2476 118.892 49.9202V27.5715C118.892 26.3591 119.358 25.1963 120.186 24.339C121.015 23.4816 122.139 23 123.311 23H142.46ZM129.203 76.8449C130.246 76.4167 131.235 75.86 132.149 75.187V85.412C132.15 85.7045 132.072 85.9914 131.924 86.2409C131.776 86.4904 131.565 86.6928 131.313 86.8257C131.061 86.9585 130.778 87.0166 130.497 86.9936C130.215 86.9705 129.944 86.8672 129.716 86.695L124.048 82.4298L118.379 86.6965C118.151 86.8687 117.881 86.972 117.599 86.9951C117.317 87.0181 117.034 86.96 116.782 86.8272C116.53 86.6943 116.319 86.4919 116.171 86.2424C116.024 85.9929 115.946 85.706 115.946 85.4135V75.1885C118.312 76.9284 121.144 77.8616 124.048 77.8583C125.813 77.8602 127.562 77.5174 129.203 76.8449ZM124.048 74.8106C121.118 74.8106 118.308 73.6065 116.236 71.4632C114.164 69.3199 113 66.4129 113 63.3818C113 60.3507 114.164 57.4437 116.236 55.3004C118.308 53.1571 121.118 51.953 124.048 51.953C126.978 51.953 129.788 53.1571 131.859 55.3004C133.931 57.4437 135.095 60.3507 135.095 63.3818C135.095 66.4129 133.931 69.3199 131.859 71.4632C129.788 73.6065 126.978 74.8106 124.048 74.8106ZM146.143 23.7071V40.1432C146.143 41.1947 146.968 42.048 147.984 42.048H165.236L146.143 23.7071Z" fill="#428BF9"/>
</svg>
