<svg width="1440" height="600" viewBox="0 0 1440 600" fill="none" xmlns="http://www.w3.org/2000/svg">
<mask id="mask0_1307_45" style="mask-type:alpha" maskUnits="userSpaceOnUse" x="0" y="0" width="1440" height="600">
<rect width="1440" height="600" rx="50" fill="#D9D9D9"/>
</mask>
<g mask="url(#mask0_1307_45)">
<path fill-rule="evenodd" clip-rule="evenodd" d="M100 6H1340C1363.74 6 1380.94 6.01274 1394.06 7.77708C1407.01 9.51821 1415.09 12.8656 1421.11 18.8873C1427.13 24.909 1430.48 32.9855 1432.22 45.9359C1433.99 59.0589 1434 76.2602 1434 100V500C1434 523.74 1433.99 540.941 1432.22 554.064C1430.48 567.014 1427.13 575.091 1421.11 581.113C1415.09 587.134 1407.01 590.482 1394.06 592.223C1380.94 593.987 1363.74 594 1340 594H556.381C489.801 594 434.127 543.397 427.787 477.119V477.119C423.537 432.686 421.412 410.469 406.195 398.307C390.977 386.145 368.838 388.97 324.561 394.619V394.619C207.349 409.575 148.744 417.052 104.178 396.279C74.623 382.503 49.6534 360.517 32.2469 332.943C6.00041 291.365 6.00041 232.284 6.00041 114.123V100C6.00041 76.2602 6.01315 59.0589 7.7775 45.9359C9.51862 32.9855 12.866 24.909 18.8877 18.8873C24.9094 12.8656 32.9859 9.51821 45.9363 7.77708C59.0593 6.01274 76.2606 6 100 6ZM-132.872 452.985C-56.9148 443.293 0.000411994 378.655 0.000411994 302.081V100C0.000411994 52.8596 0.000411994 29.2893 14.6451 14.6447C29.2897 0 52.86 0 100 0H1340C1387.14 0 1410.71 0 1425.36 14.6447C1440 29.2893 1440 52.8596 1440 100V500C1440 547.14 1440 570.711 1425.36 585.355C1410.71 600 1387.14 600 1340 600H521.47C477.537 600 461.589 646.641 432.496 679.561V679.561C419.272 694.524 396.22 695.167 350.116 696.454L-116.618 709.477C-159.97 710.687 -181.646 711.292 -195.49 698.199C-209.333 685.107 -209.938 663.431 -211.148 620.079L-213.192 546.811C-214.297 507.233 -214.849 487.444 -203.317 473.973C-191.785 460.502 -172.147 457.996 -132.872 452.985V452.985Z" fill="white"/>
</g>
</svg>
