<svg width="22" height="16" viewBox="0 0 22 16" fill="none" xmlns="http://www.w3.org/2000/svg">
<path d="M1 7C0.447715 7 0 7.44772 0 8C0 8.55228 0.447715 9 1 9V7ZM21.6456 8.70711C22.0361 8.31658 22.0361 7.68342 21.6456 7.29289L15.2816 0.928932C14.8911 0.538408 14.2579 0.538408 13.8674 0.928932C13.4769 1.31946 13.4769 1.95262 13.8674 2.34315L19.5243 8L13.8674 13.6569C13.4769 14.0474 13.4769 14.6805 13.8674 15.0711C14.2579 15.4616 14.8911 15.4616 15.2816 15.0711L21.6456 8.70711ZM1 9H20.9385V7H1V9Z" fill="#212121"/>
</svg>
