<svg width="80" height="64" viewBox="0 0 80 64" fill="none" xmlns="http://www.w3.org/2000/svg">
<path d="M22.4042 0.930191C22.5419 0.711417 22.8012 0.403511 22.9713 0.249559C23.2793 -0.0178325 23.2955 -0.0178326 23.8951 0.0145785C24.3083 0.0469896 24.8026 0.160428 25.4022 0.362998C25.8964 0.525053 27.0957 0.986911 28.0761 1.37584C29.0565 1.76478 31.7548 2.87486 34.0721 3.83098C36.3895 4.78711 40.3599 6.44007 42.9042 7.49343C45.4484 8.54679 47.6119 9.48672 47.7172 9.58395C47.8225 9.68118 47.9927 9.94047 48.098 10.1673C48.2196 10.4104 48.2925 10.7264 48.2925 10.9533C48.2925 11.1721 48.1791 11.6988 48.0413 12.1282C47.9036 12.5658 47.6443 13.2788 47.4741 13.7083C47.2959 14.1458 47.0285 14.7616 46.8745 15.0695C46.6719 15.4747 46.4937 15.7096 46.2506 15.8798C46.0561 16.0175 45.6996 16.1634 45.4565 16.2201C45.0514 16.3011 44.9542 16.293 44.3627 16.0824C44.0061 15.9608 42.734 15.4747 41.5267 15.0047C40.3194 14.5347 37.848 13.5462 36.0168 12.8007C34.1856 12.0472 31.8925 11.1073 30.9121 10.694C29.9316 10.2808 28.0194 9.47861 26.6581 8.89521C25.2968 8.31992 23.6196 7.58256 22.9308 7.26656C22.2421 6.95865 21.5534 6.61023 21.4156 6.5049C21.2698 6.40766 21.0753 6.19699 20.9862 6.05924C20.8646 5.86478 20.8241 5.65411 20.8241 5.26517C20.8241 4.87624 20.9051 4.51162 21.1158 3.8877C21.2698 3.41774 21.5696 2.65608 21.7721 2.18612C21.9828 1.71616 22.2664 1.14897 22.4042 0.930191Z" fill="white"/>
<path d="M41.4295 31.3156C41.4457 31.2264 41.948 29.9543 42.5476 28.4958L43.6334 25.83L45.0514 25.8705C46.0642 25.9029 46.7935 25.9677 47.6038 26.1217C48.2277 26.2351 49.0623 26.4215 49.4674 26.5349C49.8725 26.6565 51.0555 27.0211 52.1008 27.3533C53.1461 27.6936 56.0306 28.6255 58.502 29.4276C60.9733 30.2298 65.2435 31.6316 67.9822 32.5391C71.1504 33.5844 73.249 34.3217 73.7352 34.5648C74.1565 34.7674 74.7967 35.132 75.1532 35.3751C75.5097 35.61 76.0607 36.0395 76.3767 36.315C76.6927 36.5986 77.1303 37.028 77.349 37.2711C77.5678 37.5142 77.8757 37.9031 78.0378 38.1219C78.1998 38.3488 78.4672 38.762 78.6293 39.0537C78.7832 39.3454 79.0101 39.8559 79.1316 40.1881C79.3018 40.6662 79.3585 40.9984 79.3828 41.7276C79.4152 42.4569 79.399 42.7648 79.2856 43.1456C79.2127 43.413 79.0182 43.883 78.8561 44.199C78.6698 44.5474 78.3538 44.9687 78.0297 45.2929C77.738 45.5845 77.3004 45.9411 77.0573 46.0788C76.8142 46.2247 76.3929 46.4353 76.1255 46.5407C75.8581 46.6541 75.4206 46.8 75.1532 46.8648C74.8858 46.9377 74.3591 47.0349 73.9783 47.0836C73.5893 47.1403 72.8682 47.1565 72.3172 47.1322C71.7824 47.1079 70.9641 47.0106 70.4941 46.9134C70.0241 46.8162 69.3354 46.6379 68.9546 46.5083C68.5737 46.3867 67.4474 45.8925 66.4427 45.4144C65.438 44.9363 62.3751 43.4211 59.6364 42.0436C56.8976 40.6662 53.4135 38.8998 51.8982 38.1138C50.383 37.3278 48.2844 36.234 47.2391 35.6749C46.1939 35.1158 45.0838 34.4919 44.7678 34.2893C44.4518 34.0867 43.9089 33.7059 43.5524 33.4304C43.1959 33.163 42.5638 32.612 42.1506 32.2069C41.5915 31.6721 41.397 31.4371 41.4295 31.3156Z" fill="white"/>
<path d="M2.95751 54.6191C3.07095 54.2464 3.2087 54.06 3.71917 53.5415L4.35119 52.9176H18.7255C26.6338 52.9176 34.2828 52.95 35.7332 52.9986C37.2241 53.0391 38.5854 53.1201 38.869 53.1768C39.1445 53.2336 39.4524 53.3551 39.5577 53.4523C39.6631 53.5496 39.8737 53.8737 40.3113 54.7245L40.3518 58.4274L40.8217 58.4679C41.0729 58.4923 41.5105 58.6219 41.7941 58.7515C42.1668 58.9298 42.3856 59.1 42.6368 59.416C42.815 59.651 43.0257 59.967 43.0905 60.129C43.1797 60.3397 43.204 60.6395 43.1716 61.3849C43.1472 62.1547 43.1067 62.4302 42.9609 62.7219C42.8717 62.9164 42.6854 63.2 42.5638 63.3539C42.4018 63.5484 42.2154 63.6537 41.8913 63.7429C41.6482 63.7996 40.7731 63.8968 39.9466 63.9373C38.9743 63.994 32.0465 64.0102 20.1759 63.994C6.4498 63.9697 1.80692 63.9373 1.52332 63.8644C1.23972 63.7996 1.02905 63.6618 0.729249 63.3701C0.510474 63.1432 0.251186 62.8029 0.162055 62.6166C0.0405138 62.3492 0.00810277 62.098 0 61.466C0 60.9798 0.0486166 60.4855 0.121542 60.2506C0.186364 60.0237 0.348419 59.6672 0.486166 59.4565C0.648221 59.2053 0.875099 58.9865 1.1587 58.8326C1.40988 58.6867 1.80692 58.5571 2.71443 58.4112L2.77115 56.734C2.81166 55.5429 2.86838 54.9351 2.95751 54.6191Z" fill="white"/>
<path d="M19.6411 14.6239C20.4757 12.6225 21.3022 10.6373 21.4804 10.2322C21.6668 9.78652 21.8532 9.47861 21.918 9.47861C21.9828 9.47861 23.336 10.0215 24.9322 10.6859C26.4819 11.331 30.4677 12.9841 33.9166 14.4145L34.2261 14.5428C37.7508 16.0013 41.0486 17.3707 41.5591 17.5895C42.0777 17.8002 42.5071 18.0027 42.5152 18.0432C42.5314 18.0756 42.3613 18.5618 42.1425 19.1209C41.9237 19.68 40.7974 22.4349 39.6387 25.2385C38.48 28.0502 36.9891 31.6316 36.3247 33.2035C35.6441 34.8241 35.0769 36.0638 35.0202 36.0557C34.9634 36.0557 34.2909 35.8045 33.5212 35.4966C32.7514 35.1887 30.8067 34.4027 29.2024 33.7464C27.598 33.0901 24.519 31.826 22.3555 30.9347C20.2002 30.0434 17.737 29.0225 16.8862 28.666C16.0435 28.3094 15.1765 27.9367 14.9577 27.8395C14.747 27.7504 14.5526 27.6045 14.5364 27.5316C14.5121 27.4506 14.6336 26.9968 14.7957 26.5187C14.9577 26.0326 15.768 23.9826 16.6026 21.9569C17.4453 19.9312 18.8065 16.6334 19.6411 14.6239Z" fill="white"/>
<path d="M10.8496 29.6221C11.0117 29.533 11.2628 29.4114 11.4168 29.3547C11.5789 29.298 11.7976 29.2737 11.903 29.298C12.0164 29.3223 12.5269 29.5006 13.0374 29.695C13.5559 29.8814 15.1603 30.5134 16.6026 31.0968C18.053 31.6721 20.1516 32.5229 21.2617 32.9766C22.3798 33.4304 24.7864 34.427 26.6095 35.1806C28.4407 35.9342 30.6609 36.866 31.5522 37.2468C32.4435 37.6276 33.6508 38.1624 34.2261 38.446C34.8581 38.7539 35.4415 39.0942 35.6765 39.313C36.0249 39.6209 36.0735 39.71 36.114 40.0666C36.1465 40.3583 36.0978 40.6824 35.9358 41.2415C35.8142 41.6628 35.5631 42.4164 35.3686 42.9025C35.1741 43.3968 34.8905 44.0531 34.7366 44.361C34.5826 44.677 34.3152 45.0498 34.137 45.2037C33.9668 45.3577 33.7075 45.5278 33.5617 45.5927C33.4158 45.6494 33.1484 45.698 32.9702 45.698C32.7919 45.698 32.2976 45.5683 31.8601 45.4063C31.4225 45.2442 29.8992 44.6446 28.4731 44.0774C27.047 43.5102 24.4217 42.4407 22.6391 41.7033C20.8565 40.966 17.9395 39.7587 16.1569 39.0132C14.3743 38.2677 12.2271 37.3521 11.3763 36.9794C10.5336 36.6067 9.6585 36.1772 9.43973 36.0314C9.21285 35.8855 8.95356 35.6343 8.84822 35.448C8.71048 35.2049 8.66996 34.9942 8.66996 34.581C8.66186 34.2245 8.73479 33.8274 8.85633 33.4466C8.96166 33.1225 9.27767 32.3122 9.56127 31.6397C9.84486 30.9753 10.1852 30.2784 10.3229 30.1083C10.4607 29.93 10.6957 29.7112 10.8496 29.6221Z" fill="white"/>
</svg>
