<svg width="61" height="63" viewBox="0 0 61 63" fill="none" xmlns="http://www.w3.org/2000/svg">
<path d="M38.2366 59.5964C36.6736 58.0333 36.6747 55.4987 38.2391 53.937L51.8922 40.308C53.4547 38.7483 55.9855 38.7494 57.5466 40.3105L59.1243 41.8883C60.6874 43.4513 60.6862 45.9859 59.1218 47.5476L45.4687 61.1766C43.9062 62.7363 41.3755 62.7352 39.8144 61.1741L38.2366 59.5964ZM46.3258 29.0215L35.747 18.5109C35.3432 18.1156 34.8832 17.7821 34.382 17.5213L30.5599 2.88152C30.3148 2.02951 29.7479 1.30619 28.9792 0.864427C28.2106 0.422665 27.3002 0.297069 26.4406 0.514181C25.5811 0.731294 24.8396 1.2741 24.3728 2.0279C23.9061 2.7817 23.7508 3.68742 23.9396 4.55366L27.5569 18.4427L19.6057 1.92601C18.8208 0.21974 16.7733 -0.428641 15.067 0.287991C13.3607 1.107 12.6441 3.15452 13.4631 4.86079L19.2303 16.9412L7.73006 5.54329C6.39918 4.2124 4.21515 4.2124 2.88426 5.54329C1.55338 6.90831 1.5875 9.0582 2.91839 10.3891L15.613 23.0155L13.2242 23.9369L9.53871 25.4042L3.02077 29.9088C3.02077 29.9088 0.256614 33.492 0.0177364 35.0276C-0.255266 36.5632 2.71364 44.2756 2.71364 44.2756H2.74776C3.29377 45.4358 4.45403 46.2548 5.81904 46.2548C6.7241 46.2548 7.5921 45.8953 8.23207 45.2553C8.87204 44.6153 9.23158 43.7474 9.23158 42.8423C9.23158 42.501 9.1292 42.228 9.02683 41.9209L9.09508 41.8868L7.08168 35.9831L11.2791 32.6388C12.883 32.7071 16.3296 32.9801 18.0018 33.0824C27.318 41.4432 18.5137 44.7192 18.5137 44.7192L6.7063 48.3365L6.12617 48.8142C5.77602 49.1379 5.50245 49.5356 5.32535 49.9784C5.14826 50.4211 5.0721 50.8978 5.10241 51.3736L5.17066 55.025L27.1133 53.3188C28.41 53.3529 29.6385 52.8751 30.594 51.9538L46.3258 36.2561C48.1345 34.4133 48.2027 30.9667 46.3258 29.0215Z" fill="white"/>
</svg>
