<svg width="56" height="56" viewBox="0 0 56 56" fill="none" xmlns="http://www.w3.org/2000/svg">
<path fill-rule="evenodd" clip-rule="evenodd" d="M47.8643 0.00085953C48.4599 -0.00614124 48.8452 0.0288626 49.2797 0.133874C49.609 0.210883 50.0854 0.357899 50.3517 0.455909C50.6109 0.55392 51.0733 0.763943 51.3816 0.924961C51.6899 1.08598 52.1804 1.39401 52.4677 1.60404C52.7549 1.82106 53.2174 2.2131 53.4836 2.48613C53.7569 2.75216 54.1773 3.24221 54.4155 3.56425C54.6607 3.89329 55.0321 4.50935 55.2423 4.9294C55.4525 5.36345 55.6977 6.00752 55.8028 6.39956C55.9569 6.97362 55.992 7.26766 55.999 8.04474C56.006 8.75182 55.978 9.10186 55.8799 9.44489C55.8168 9.69692 55.5716 10.292 55.3404 10.775C55.1161 11.2581 54.8639 11.8532 54.7938 12.1052C54.7168 12.3572 54.5977 12.9243 54.5346 13.3653C54.4295 14.0304 54.4155 14.4784 54.4505 15.9206C54.4715 16.8867 54.5556 18.4129 54.6327 19.316C54.7098 20.2191 54.8079 21.4652 54.8499 22.0813C54.8849 22.6973 54.92 24.0205 54.92 25.0216C54.92 26.0227 54.8849 27.2198 54.8499 27.6819C54.8079 28.1439 54.7098 28.963 54.6327 29.5021C54.5556 30.0412 54.3805 30.9723 54.2473 31.5673C54.1072 32.1624 53.8269 33.1565 53.6308 33.7726C53.4276 34.3886 53.0912 35.2847 52.8881 35.7678C52.6849 36.2508 52.3626 36.9579 52.1734 37.343C51.9772 37.728 51.5988 38.4211 51.3256 38.8831C51.0523 39.3452 50.6459 40.0032 50.4147 40.3533C50.1835 40.7033 49.686 41.3964 49.3147 41.8935C48.9363 42.3905 48.2777 43.2166 47.8363 43.7137C47.4019 44.2107 46.5401 45.1418 45.9165 45.7719C45.2999 46.4019 44.4031 47.249 43.9196 47.6621C43.4362 48.0751 42.7285 48.6632 42.3431 48.9712C41.9578 49.2793 41.2921 49.7623 40.8717 50.0563C40.4513 50.3504 39.7227 50.8194 39.2602 51.0925C38.7978 51.3725 37.929 51.8485 37.3334 52.1496C36.7379 52.4506 35.806 52.8707 35.2665 53.0807C34.727 53.2907 33.9072 53.5847 33.4448 53.7177C32.9823 53.8578 32.2256 54.0678 31.7632 54.1798C31.3007 54.2918 30.544 54.4458 30.0816 54.5228C29.6192 54.5998 28.7363 54.7189 28.1197 54.7749C27.4051 54.8449 26.312 54.8869 25.1069 54.8869C24.0699 54.8869 22.4934 54.8379 21.6036 54.7749C20.7208 54.7189 19.4105 54.6138 18.6959 54.5508C17.8551 54.4738 16.72 54.4318 15.4728 54.4248C13.8823 54.4248 13.4409 54.4458 12.9505 54.5508C12.6211 54.6208 12.1517 54.7399 11.8995 54.8239C11.6472 54.9009 11.1428 55.1179 10.7784 55.2999C10.4141 55.4819 9.84654 55.713 9.51723 55.818C9.02677 55.965 8.78154 56 8.15094 56C7.52035 56 7.22607 55.958 6.53942 55.79C5.99291 55.65 5.42538 55.4469 4.92791 55.2019C4.50751 54.9989 3.90494 54.6418 3.59665 54.4178C3.28836 54.1868 2.76988 53.7317 2.44057 53.4027C2.11126 53.0807 1.63481 52.4996 1.37556 52.1146C1.11632 51.7295 0.815036 51.2115 0.702931 50.9594C0.590825 50.7074 0.41566 50.2524 0.317568 49.9443C0.219476 49.6363 0.100364 49.1182 0.0583239 48.7892C0.00227117 48.4462 -0.011742 47.9141 0.00927776 47.5291C0.0302975 47.151 0.114377 46.654 0.198456 46.3739C0.282535 46.1009 0.485726 45.6179 0.653885 45.2888C0.815036 44.9598 1.03224 44.4767 1.13033 44.2037C1.22843 43.9307 1.36155 43.4336 1.43862 43.0836C1.54372 42.5585 1.56474 42.1385 1.55774 40.5283C1.55774 39.0581 1.5157 38.064 1.36856 36.3278C1.26346 35.0747 1.14435 33.2195 1.10931 32.1974C1.07428 31.1193 1.07428 29.8731 1.11632 29.2221C1.15135 28.606 1.20741 27.8009 1.24945 27.4369C1.29148 27.0728 1.40359 26.3167 1.50168 25.7567C1.59977 25.1966 1.75392 24.4265 1.85201 24.0415C1.9501 23.6565 2.13928 22.9774 2.27241 22.5363C2.41254 22.0953 2.69981 21.2902 2.91001 20.7511C3.12021 20.2121 3.58965 19.19 3.95399 18.4759C4.31133 17.7618 4.87185 16.7747 5.19416 16.2706C5.50946 15.7666 6.06298 14.9685 6.41331 14.4854C6.76364 14.0024 7.38722 13.2043 7.80762 12.7003C8.22101 12.1962 9.28601 11.0621 10.1758 10.173C11.0657 9.29088 12.2078 8.21976 12.7052 7.80672C13.2097 7.39367 13.9944 6.7706 14.4569 6.43456C14.9193 6.09853 15.7531 5.53147 16.3136 5.18143C16.8742 4.83139 17.8481 4.27833 18.4857 3.95629C19.1233 3.63426 20.1602 3.16521 20.7978 2.91318C21.4354 2.66115 22.3323 2.34612 22.7947 2.2061C23.2572 2.07309 23.9018 1.89807 24.2311 1.81406C24.5604 1.73705 25.191 1.61104 25.6324 1.53403C26.0738 1.45702 26.8515 1.34501 27.349 1.289C27.8535 1.22599 28.7994 1.14899 29.451 1.12098C30.1096 1.09298 31.3848 1.09298 32.2887 1.12098C33.1925 1.14899 34.9932 1.261 36.2824 1.36601C38.0761 1.51303 39.0851 1.56203 40.5564 1.56903C42.182 1.56903 42.5813 1.54803 43.1138 1.43602C43.4642 1.36601 43.9687 1.22599 44.2349 1.12798C44.5082 1.03697 44.9776 0.82695 45.2859 0.672933C45.5942 0.511916 46.1127 0.301893 46.442 0.196881C46.9395 0.0358634 47.1707 0.0078603 47.8643 0.00085953ZM24.0909 7.60369C23.7266 7.73671 22.8928 8.11475 22.2342 8.43678C21.5826 8.75882 20.7138 9.22787 20.3074 9.4799C19.901 9.73893 19.2073 10.201 18.7519 10.516C18.3035 10.831 17.4557 11.4821 16.8601 11.9652C16.2716 12.4482 15.1716 13.4563 14.4148 14.2054C13.6581 14.9545 12.7753 15.8856 12.446 16.2706C12.1167 16.6557 11.6192 17.2718 11.3389 17.6358C11.0517 17.9998 10.5612 18.6789 10.2459 19.141C9.93062 19.603 9.49621 20.2821 9.272 20.6461C9.04779 21.0102 8.66943 21.7032 8.4312 22.1863C8.19298 22.6693 7.84966 23.4254 7.67449 23.8665C7.49933 24.3075 7.26811 24.9726 7.17002 25.3366C7.07193 25.7007 6.99485 26.1137 6.99485 26.2467C6.99485 26.3798 7.0439 26.6458 7.11397 26.8418C7.18403 27.0518 7.34518 27.3039 7.52035 27.4719C7.67449 27.6259 7.96176 27.8079 8.15094 27.8779C8.34713 27.9409 8.59936 27.9969 8.71147 27.9969C8.83058 27.9969 9.08983 27.9479 9.29302 27.8919C9.55927 27.8149 9.74144 27.7029 9.97966 27.4509C10.2319 27.1918 10.33 27.0238 10.4421 26.6318C10.5122 26.3587 10.6593 25.9037 10.7574 25.6167C10.8555 25.3296 11.0797 24.7766 11.2549 24.3915C11.43 24.0065 11.7243 23.4044 11.9205 23.0614C12.1097 22.7184 12.5581 21.9903 12.9154 21.4512C13.2658 20.9122 13.7842 20.1841 14.0505 19.841C14.3238 19.498 14.8422 18.8679 15.2136 18.4409C15.5779 18.0138 16.3487 17.2087 16.9162 16.6417C17.4907 16.0746 18.2474 15.3745 18.5908 15.0735C18.9411 14.7795 19.6348 14.2264 20.1322 13.8484C20.6367 13.4773 21.4214 12.9243 21.8839 12.6302C22.3463 12.3362 23.2291 11.8392 23.8457 11.5381C24.5604 11.1811 25.3451 10.859 26.0037 10.649C26.6413 10.446 27.1528 10.236 27.335 10.11C27.5172 9.97695 27.6923 9.75993 27.7974 9.54991C27.8955 9.35388 27.9866 9.05985 28.0006 8.88483C28.0216 8.70981 27.9866 8.42978 27.9306 8.25476C27.8745 8.07975 27.7344 7.82072 27.6223 7.6667C27.5102 7.51968 27.2789 7.31666 27.1038 7.21865C26.8866 7.09264 26.6554 7.02963 26.3681 7.01563C26.0668 7.00163 25.7795 7.04363 25.3521 7.17665C25.0228 7.27466 24.4553 7.46368 24.0909 7.60369Z" fill="white"/>
</svg>
