<svg width="81" height="64" viewBox="0 0 81 64" fill="none" xmlns="http://www.w3.org/2000/svg">
<path d="M69.1774 31.0869V31.5143L78.2046 22.4871C81.041 19.6507 81.041 15.0659 78.2046 12.2295L68.0894 2.12729C65.2531 -0.709096 60.6682 -0.709096 57.8318 2.12729L52.6383 7.32085C52.2886 7.282 51.9259 7.2561 51.5633 7.2561H37.0576C32.2526 7.2561 28.3023 10.8825 27.7843 15.5451H27.7325V31.0869C27.7325 33.9492 30.0508 36.2675 32.9131 36.2675C35.7754 36.2675 38.0937 33.9492 38.0937 31.0869V19.6896H58.8161C64.5407 19.6896 69.1774 24.3262 69.1774 30.0508V31.0869ZM42.2382 23.8341V31.0869C42.2382 36.2416 38.0678 40.412 32.9131 40.412C27.7584 40.412 23.588 36.2416 23.588 31.0869V15.7264C18.9384 16.5294 15.0659 19.9097 13.7448 24.5593L11.6078 32.0194L2.12729 41.4999C-0.709096 44.3363 -0.709096 48.9212 2.12729 51.7576L12.2424 61.8727C15.0788 64.7091 19.6637 64.7091 22.5 61.8727L27.3828 56.99C27.4993 56.99 27.6159 57.0029 27.7325 57.0029H48.4549C51.8871 57.0029 54.6717 54.2184 54.6717 50.7862C54.6717 50.0609 54.5421 49.3615 54.322 48.714H54.6717C58.1038 48.714 60.8884 45.9294 60.8884 42.4972C60.8884 40.8394 60.2408 39.337 59.1788 38.2232C62.5073 37.5756 65.0199 34.6486 65.0329 31.1258V31.074C65.0199 27.0849 61.782 23.847 57.78 23.847H42.2382V23.8341Z" fill="white"/>
</svg>
