<svg width="36" height="88" viewBox="0 0 36 88" fill="none" xmlns="http://www.w3.org/2000/svg">
<g id="&#208;&#152;&#208;&#186;&#208;&#190;&#208;&#189;&#208;&#186;&#208;&#176; &#208;&#191;&#209;&#128;&#208;&#190;&#208;&#186;&#209;&#128;&#209;&#131;&#209;&#130;&#208;&#186;&#208;&#184; &#209;&#141;&#208;&#186;&#209;&#128;&#208;&#176;&#208;&#189;&#208;&#176;">
<rect id="Rectangle 22" x="1.5" y="1.5" width="33" height="57" rx="16.5" stroke="#E6E6E6" stroke-width="3"/>
<path id="Vector 9" d="M18 14V23" stroke="#428BF9" stroke-width="3" stroke-linecap="round"/>
<path id="Vector 10" d="M19 71C19 70.4477 18.5523 70 18 70C17.4477 70 17 70.4477 17 71H19ZM17.2929 87.7071C17.6834 88.0976 18.3166 88.0976 18.7071 87.7071L25.0711 81.3431C25.4616 80.9526 25.4616 80.3195 25.0711 79.9289C24.6805 79.5384 24.0474 79.5384 23.6569 79.9289L18 85.5858L12.3431 79.9289C11.9526 79.5384 11.3195 79.5384 10.9289 79.9289C10.5384 80.3195 10.5384 80.9526 10.9289 81.3431L17.2929 87.7071ZM17 71V87H19V71H17Z" fill="#428BF9"/>
</g>
</svg>
