<svg width="20" height="20" viewBox="0 0 20 20" fill="none" xmlns="http://www.w3.org/2000/svg">
<path id="Vector" d="M10 0C4.47709 0 0 4.47709 0 10C0 15.5229 4.47709 20 10 20C15.5229 20 20 15.5229 20 10C20 4.47709 15.5229 0 10 0ZM9.14476 4.49567H10.8098V6.26669H9.14476V4.49567ZM11.9004 15.2443H10.0688C9.35737 15.2443 9.05394 14.9415 9.05394 14.2149V9.49085C9.05394 9.26379 8.93285 9.15853 8.72093 9.15853H8.11545V7.52305H9.94771C10.6598 7.52305 10.9619 7.84092 10.9619 8.55236V13.2909C10.9619 13.5042 11.083 13.6239 11.2949 13.6239H11.9004V15.2443Z" fill="white"/>
</svg>
