<svg width="363" height="314" viewBox="0 0 363 314" fill="none" xmlns="http://www.w3.org/2000/svg">
<path fill-rule="evenodd" clip-rule="evenodd" d="M79.9925 1.55284H322.992C332.464 1.55284 339.412 1.55614 344.731 2.27123C350.005 2.98031 353.444 4.36357 356.037 6.95589C358.629 9.54821 360.012 12.9874 360.721 18.2615C361.436 23.5802 361.44 30.528 361.44 40V245C361.44 254.472 361.436 261.42 360.721 266.739C360.012 272.013 358.629 275.452 356.037 278.044C353.444 280.636 350.005 282.02 344.731 282.729C339.412 283.444 332.464 283.447 322.992 283.447H198.8C181.842 283.447 167.661 270.558 166.047 253.677V253.677C164.938 242.086 164.384 236.29 160.414 233.117C156.444 229.945 150.669 230.681 139.118 232.155L118.152 234.83C82.4559 239.385 64.6079 241.662 53.0766 231.509C41.5453 221.355 41.5453 203.363 41.5453 167.377V40C41.5453 30.528 41.5486 23.5802 42.2637 18.2615C42.9728 12.9874 44.3561 9.54821 46.9484 6.95589C49.5407 4.36357 52.9799 2.98031 58.254 2.27123C63.5727 1.55614 70.5205 1.55284 79.9925 1.55284ZM21.0957 247.214C31.8982 245.836 39.9925 236.643 39.9925 225.753V40C39.9925 21.1438 39.9925 11.7157 45.8504 5.85786C51.7082 0 61.1363 0 79.9925 0H322.992C341.849 0 351.277 0 357.135 5.85786C362.992 11.7157 362.992 21.1438 362.992 40V245C362.992 263.856 362.992 273.284 357.135 279.142C351.277 285 341.849 285 322.992 285H190.507C178.998 285 174.836 297.222 167.214 305.846V305.846C163.764 309.75 157.75 309.918 145.723 310.253L25.3218 313.613C14.0125 313.928 8.35783 314.086 4.74645 310.671C1.13506 307.255 0.97728 301.601 0.661717 290.291L0.1427 271.691C-0.145389 261.366 -0.289434 256.204 2.71893 252.689C5.72729 249.175 10.8501 248.522 21.0957 247.214V247.214Z" fill="#428BF9"/>
</svg>
