<svg width="248" height="50" viewBox="0 0 248 50" fill="none" xmlns="http://www.w3.org/2000/svg">
<path d="M110.087 26.4092C110.033 27.3042 109.843 28.1721 109.518 29.0129C109.206 29.8402 108.738 30.5861 108.114 31.2506C107.504 31.9015 106.724 32.4169 105.775 32.7966C104.826 33.1763 103.7 33.3662 102.398 33.3662C101.218 33.3662 100.099 33.1966 99.0416 32.8576C97.9974 32.5186 97.0684 32.0168 96.2547 31.3523C95.4546 30.6742 94.824 29.8402 94.3629 28.8502C93.9018 27.8467 93.6713 26.6872 93.6713 25.3717C93.6713 24.0562 93.9018 22.9035 94.3629 21.9135C94.824 20.91 95.4682 20.076 96.2954 19.4115C97.1227 18.7334 98.0788 18.2248 99.1637 17.8858C100.249 17.5468 101.422 17.3772 102.683 17.3772C104.446 17.3772 105.951 17.6417 107.199 18.1706C108.46 18.6859 109.47 19.3979 110.23 20.3065C111.003 21.2151 111.511 22.2661 111.755 23.4595H106.487C106.365 23.0798 106.121 22.7611 105.755 22.5035C105.402 22.2322 104.968 22.0288 104.453 21.8932C103.937 21.744 103.361 21.6694 102.724 21.6694C101.937 21.6694 101.259 21.805 100.689 22.0763C100.12 22.3339 99.679 22.734 99.3671 23.2765C99.0687 23.8189 98.9196 24.5173 98.9196 25.3717C98.9196 26.2396 99.0891 26.9584 99.4281 27.528C99.7807 28.0975 100.276 28.518 100.913 28.7892C101.564 29.0604 102.33 29.196 103.212 29.196C104.066 29.196 104.826 29.1011 105.49 28.9112C106.155 28.7078 106.69 28.4027 107.097 27.9958C107.517 27.5754 107.775 27.0465 107.87 26.4092H110.087ZM103.537 27.8128V24.8428H111.877V33H108.236L107.463 27.1618L108.379 27.8128H103.537ZM120.823 33.3662C119.372 33.3662 118.07 33.1085 116.917 32.5932C115.778 32.0643 114.876 31.3319 114.212 30.3962C113.547 29.4469 113.215 28.3484 113.215 27.1008C113.215 25.8667 113.534 24.7886 114.171 23.8664C114.822 22.9442 115.704 22.2255 116.816 21.7101C117.928 21.1948 119.175 20.9371 120.558 20.9371C122.01 20.9371 123.244 21.2355 124.261 21.8322C125.278 22.4289 126.058 23.2765 126.6 24.3749C127.143 25.4599 127.414 26.7482 127.414 28.2399H117.446V25.8599H124.403L123.02 26.6329C122.952 26.104 122.816 25.6633 122.613 25.3107C122.41 24.9581 122.138 24.6936 121.799 24.5173C121.474 24.3275 121.081 24.2325 120.62 24.2325C120.104 24.2325 119.663 24.3478 119.297 24.5784C118.945 24.8089 118.673 25.1276 118.484 25.5344C118.307 25.9277 118.219 26.3752 118.219 26.877C118.219 27.528 118.362 28.0772 118.646 28.5247C118.945 28.9587 119.392 29.291 119.989 29.5215C120.586 29.752 121.338 29.8673 122.247 29.8673C123.128 29.8673 123.983 29.7588 124.81 29.5418C125.651 29.3113 126.424 28.9858 127.129 28.5654V31.4947C126.261 32.1049 125.271 32.5728 124.159 32.8983C123.061 33.2102 121.949 33.3662 120.823 33.3662ZM127.847 25.0666V22.8493L130.145 21.6898L132.403 18.1096H135.312V21.3033H139.889V25.0666H135.312V27.2839C135.312 28.1111 135.455 28.6942 135.739 29.0333C136.024 29.3588 136.607 29.5215 137.489 29.5215C138.031 29.5215 138.513 29.4876 138.933 29.4198C139.367 29.3384 139.754 29.2435 140.093 29.135V32.8576C139.632 32.9932 139.062 33.1085 138.384 33.2034C137.719 33.3119 137.021 33.3662 136.289 33.3662C134.905 33.3662 133.759 33.1627 132.851 32.7559C131.942 32.3355 131.264 31.732 130.817 30.9454C130.369 30.1589 130.145 29.2231 130.145 28.1382V25.0666H127.847ZM139.238 25.0666V21.3033H143.876L140.296 23.663L143.795 18.1096H146.704V21.3033H151.281V25.0666H146.704V27.2839C146.704 28.1111 146.846 28.6942 147.131 29.0333C147.416 29.3588 147.999 29.5215 148.88 29.5215C149.423 29.5215 149.904 29.4876 150.325 29.4198C150.759 29.3384 151.145 29.2435 151.484 29.135V32.8576C151.023 32.9932 150.454 33.1085 149.776 33.2034C149.111 33.3119 148.413 33.3662 147.68 33.3662C146.297 33.3662 145.151 33.1627 144.242 32.7559C143.334 32.3355 142.656 31.732 142.208 30.9454C141.761 30.1589 141.537 29.2231 141.537 28.1382V25.0666H139.238ZM156.434 17.7434V31.7998L155.234 30.6403H166.727V33H153.749V17.7434H156.434ZM174.231 33.2848C172.888 33.2848 171.695 33.0339 170.651 32.5321C169.606 32.0168 168.786 31.3048 168.189 30.3962C167.593 29.4876 167.294 28.4298 167.294 27.2228C167.294 26.0294 167.572 24.9852 168.128 24.0901C168.698 23.1815 169.478 22.4763 170.468 21.9746C171.471 21.4592 172.617 21.2016 173.905 21.2016C175.194 21.2016 176.306 21.4931 177.242 22.0763C178.191 22.6459 178.923 23.4528 179.438 24.497C179.954 25.5412 180.211 26.7685 180.211 28.1789H169.369V26.165H178.889L177.567 26.9177C177.526 26.1583 177.343 25.5073 177.018 24.9649C176.706 24.4224 176.279 24.0088 175.736 23.724C175.207 23.4256 174.577 23.2765 173.844 23.2765C173.071 23.2765 172.393 23.4324 171.81 23.7443C171.241 24.0562 170.793 24.497 170.468 25.0666C170.142 25.6226 169.979 26.2871 169.979 27.0601C169.979 27.9145 170.169 28.6536 170.549 29.2774C170.942 29.9012 171.491 30.3826 172.197 30.7217C172.915 31.0472 173.763 31.2099 174.739 31.2099C175.621 31.2099 176.523 31.0743 177.445 30.8031C178.367 30.5183 179.181 30.125 179.886 29.6232V31.5354C179.181 32.0778 178.32 32.505 177.303 32.8169C176.299 33.1288 175.275 33.2848 174.231 33.2848ZM193.128 33L192.68 28.7282L193.209 27.2432L192.68 25.7785L193.128 21.4864H195.854L195.244 27.2432L195.854 33H193.128ZM193.942 27.2432C193.684 28.4501 193.257 29.5079 192.66 30.4165C192.063 31.3252 191.324 32.0304 190.443 32.5321C189.575 33.0339 188.605 33.2848 187.534 33.2848C186.408 33.2848 185.411 33.0339 184.544 32.5321C183.676 32.0168 182.998 31.3048 182.509 30.3962C182.021 29.4876 181.777 28.4366 181.777 27.2432C181.777 26.0362 182.021 24.9852 182.509 24.0901C182.998 23.1815 183.676 22.4763 184.544 21.9746C185.411 21.4592 186.408 21.2016 187.534 21.2016C188.605 21.2016 189.575 21.4525 190.443 21.9542C191.324 22.456 192.063 23.1612 192.66 24.0698C193.27 24.9649 193.698 26.0226 193.942 27.2432ZM184.462 27.2432C184.462 28.0162 184.618 28.701 184.93 29.2977C185.256 29.8809 185.696 30.342 186.252 30.681C186.808 31.0065 187.446 31.1692 188.164 31.1692C188.897 31.1692 189.575 31.0065 190.199 30.681C190.822 30.342 191.372 29.8809 191.846 29.2977C192.335 28.701 192.721 28.0162 193.006 27.2432C192.721 26.4702 192.335 25.7921 191.846 25.209C191.372 24.6123 190.822 24.1512 190.199 23.8257C189.575 23.4867 188.897 23.3171 188.164 23.3171C187.446 23.3171 186.808 23.4867 186.252 23.8257C185.696 24.1512 185.256 24.6123 184.93 25.209C184.618 25.7921 184.462 26.4702 184.462 27.2432ZM210.319 29.5012C210.319 30.2742 210.102 30.9454 209.668 31.515C209.234 32.0846 208.577 32.5254 207.695 32.8373C206.814 33.1356 205.708 33.2848 204.379 33.2848C203.01 33.2848 201.823 33.1153 200.819 32.7762C199.816 32.4236 199.036 31.9354 198.48 31.3116C197.938 30.6742 197.646 29.9419 197.605 29.1147H200.291C200.372 29.5486 200.589 29.9351 200.942 30.2742C201.308 30.5996 201.782 30.8505 202.365 31.0268C202.962 31.2031 203.64 31.2913 204.4 31.2913C205.498 31.2913 206.325 31.1624 206.881 30.9048C207.437 30.6335 207.715 30.2267 207.715 29.6842C207.715 29.3181 207.526 29.0401 207.146 28.8502C206.78 28.6603 206.081 28.518 205.051 28.423L202.793 28.2196C201.572 28.1111 200.609 27.8941 199.904 27.5687C199.199 27.2296 198.697 26.8228 198.399 26.3481C198.1 25.8599 197.951 25.3446 197.951 24.8021C197.951 24.0156 198.195 23.3578 198.684 22.8289C199.172 22.3 199.85 21.9 200.718 21.6288C201.586 21.344 202.596 21.2016 203.749 21.2016C204.942 21.2016 206.007 21.3711 206.942 21.7101C207.878 22.0356 208.624 22.4967 209.18 23.0934C209.736 23.6765 210.048 24.3546 210.116 25.1276H207.431C207.376 24.8157 207.214 24.5173 206.942 24.2325C206.685 23.9342 206.285 23.6901 205.742 23.5002C205.213 23.2968 204.501 23.1951 203.606 23.1951C202.657 23.1951 201.911 23.3171 201.369 23.5613C200.84 23.8054 200.575 24.1647 200.575 24.6394C200.575 24.9377 200.738 25.1954 201.064 25.4124C201.389 25.6158 201.993 25.7582 202.874 25.8396L205.783 26.104C206.949 26.2125 207.858 26.4227 208.509 26.7346C209.173 27.033 209.641 27.4195 209.912 27.8941C210.184 28.3688 210.319 28.9045 210.319 29.5012ZM212.463 21.405L213.786 21.6491L215.108 21.405V33H212.463V21.405ZM213.786 19.9607C213.284 19.9607 212.87 19.8251 212.545 19.5539C212.219 19.2691 212.057 18.9029 212.057 18.4554C212.057 18.0079 212.219 17.6485 212.545 17.3772C212.87 17.0925 213.284 16.9501 213.786 16.9501C214.301 16.9501 214.715 17.0925 215.027 17.3772C215.352 17.6485 215.515 18.0079 215.515 18.4554C215.515 18.9029 215.352 19.2691 215.027 19.5539C214.715 19.8251 214.301 19.9607 213.786 19.9607ZM217.357 21.4864H220.002L220.693 25.6361V33H218.049V25.2496L217.357 21.4864ZM225.27 21.2016C226.355 21.2016 227.277 21.4185 228.037 21.8525C228.796 22.2865 229.373 22.9103 229.766 23.724C230.173 24.5241 230.376 25.4938 230.376 26.6329V33H227.732V27.0601C227.732 25.8531 227.447 24.9445 226.877 24.3343C226.321 23.7104 225.501 23.3985 224.416 23.3985C223.67 23.3985 223.012 23.568 222.443 23.9071C221.887 24.2325 221.453 24.6936 221.141 25.2903C220.843 25.887 220.693 26.5854 220.693 27.3856L219.758 26.877C219.88 25.6836 220.192 24.6665 220.693 23.8257C221.195 22.9849 221.839 22.3407 222.626 21.8932C223.412 21.4321 224.294 21.2016 225.27 21.2016ZM243.48 30.1724V28.1382L243.582 27.7721V25.5548L243.48 25.1479V21.4864H246.124V29.9283C246.124 31.4065 245.812 32.6406 245.189 33.6306C244.565 34.6342 243.71 35.3868 242.626 35.8886C241.541 36.3904 240.293 36.6412 238.883 36.6412C237.852 36.6412 236.903 36.5056 236.035 36.2344C235.167 35.9632 234.326 35.5495 233.512 34.9935V32.7966C234.34 33.4475 235.194 33.9018 236.075 34.1595C236.957 34.4307 237.838 34.5663 238.72 34.5663C240.266 34.5663 241.446 34.1866 242.259 33.4272C243.073 32.6677 243.48 31.5828 243.48 30.1724ZM237.947 32.1049C236.889 32.1049 235.94 31.8812 235.099 31.4337C234.258 30.9726 233.594 30.3352 233.105 29.5215C232.617 28.7078 232.373 27.7517 232.373 26.6533C232.373 25.5548 232.617 24.5987 233.105 23.785C233.594 22.9713 234.258 22.3407 235.099 21.8932C235.94 21.4321 236.889 21.2016 237.947 21.2016C238.733 21.2016 239.459 21.3236 240.123 21.5677C240.802 21.8118 241.405 22.1373 241.934 22.5441C242.476 22.9374 242.931 23.3782 243.297 23.8664C243.677 24.341 243.968 24.8292 244.172 25.331C244.375 25.8192 244.477 26.2668 244.477 26.6736C244.477 27.2025 244.321 27.7856 244.009 28.423C243.697 29.0468 243.249 29.6368 242.666 30.1928C242.097 30.7488 241.412 31.2099 240.612 31.5761C239.812 31.9286 238.923 32.1049 237.947 32.1049ZM238.761 30.1521C239.723 30.1521 240.605 29.8741 241.405 29.3181C242.219 28.7621 242.944 27.8738 243.582 26.6533C242.944 25.4056 242.219 24.5106 241.405 23.9681C240.605 23.4121 239.723 23.1341 238.761 23.1341C237.974 23.1341 237.303 23.2832 236.747 23.5816C236.191 23.8799 235.763 24.2936 235.465 24.8225C235.18 25.3514 235.038 25.9616 235.038 26.6533C235.038 27.3313 235.18 27.9348 235.465 28.4637C235.763 28.9926 236.191 29.4062 236.747 29.7046C237.303 30.0029 237.974 30.1521 238.761 30.1521Z" fill="#212121"/>
<path d="M34.4322 8.00781C32.944 7.93468 31.2502 7.89811 30.6452 7.9103C30.0524 7.92249 28.661 7.97124 27.56 8.02C26.459 8.06875 24.8862 8.16626 24.0513 8.25157C23.2165 8.3247 21.8009 8.49533 20.9056 8.61722C20.0103 8.7391 18.6189 8.98286 17.8204 9.15349C17.0219 9.33631 15.7999 9.66539 15.0981 9.90916C14.3964 10.1407 13.4164 10.5551 12.9203 10.8111C12.4243 11.067 11.7467 11.518 11.4201 11.8105C11.0934 12.0908 10.6699 12.554 10.4763 12.8221C10.2828 13.0903 10.1376 13.3584 10.1376 13.4315C10.1376 13.4451 10.1477 13.4478 10.1661 13.441C10.095 13.5449 10.0237 13.659 9.9571 13.7809C9.87122 13.7538 9.70147 13.7362 9.50843 13.7362C9.21805 13.7484 8.77039 13.8337 8.50422 13.9312C8.23804 14.0287 7.72988 14.3213 7.36692 14.5772C6.72567 15.016 6.68938 15.0282 6.03604 14.9307C5.63677 14.8819 5.08022 14.8819 4.69306 14.9551C4.33009 15.0282 3.83404 15.1744 3.60416 15.2841C3.37428 15.406 2.97501 15.6985 2.73303 15.9545C2.47896 16.2104 2.16438 16.637 2.0313 16.9052C1.89821 17.1733 1.70462 17.7583 1.60783 18.2093C1.49894 18.6602 1.42635 19.355 1.45055 19.745L1.48684 20.4641C2.11599 19.6109 2.46686 19.2453 2.67254 19.1112C2.89032 18.9771 3.26539 18.8553 3.51946 18.8553C3.85823 18.8553 4.07601 18.9528 4.41478 19.2453C4.68096 19.489 5.01973 20.0131 5.27381 20.5616C5.50368 21.0613 5.87875 22.1826 6.09653 23.0602C6.31431 23.9255 6.59259 25.3272 6.73778 26.1681C6.84283 26.8224 6.97804 27.674 7.072 28.2736L7.10387 28.5084C7.20125 29.2765 7.36208 30.395 7.50685 31.4018C7.66999 32.5364 7.81272 33.529 7.82127 33.7186C7.8364 34.0542 18.9134 36.8246 25.4808 38.4197C26.1686 38.6171 26.7131 38.7448 26.7131 38.7219C26.7131 38.7208 26.713 38.7195 26.7129 38.718L26.7204 38.7198C26.4111 37.4187 25.9257 33.8487 26.4582 29.9779C26.4663 29.9188 26.4746 29.8604 26.4832 29.8024C26.4955 29.7437 26.5077 29.6815 26.5195 29.6174C26.5679 29.3005 26.7252 28.6301 26.8462 28.1426C26.9742 27.6738 27.214 27.0021 27.4044 26.6044C27.4407 26.5331 27.4778 26.4637 27.5156 26.3962C27.7207 26.0424 28.0303 25.6229 28.2497 25.4125C28.5037 25.1565 28.9877 24.8396 29.3144 24.6812C29.7862 24.474 30.1492 24.4009 30.9477 24.4009C31.9035 24.4009 32.0366 24.4252 32.7626 24.8274C33.186 25.059 33.9724 25.6684 34.5169 26.1803C35.0492 26.68 35.8115 27.5332 36.2107 28.0451C36.7189 28.7033 37.1061 29.0811 37.4811 29.2761C37.7836 29.4224 38.7394 29.7758 39.5984 30.044C40.4696 30.2999 41.8246 30.6656 42.6232 30.8484C43.4217 31.0312 44.8978 31.3359 45.8899 31.5309C46.8941 31.7137 48.4911 31.9941 49.4591 32.1403C50.427 32.2866 51.2981 32.4572 51.3949 32.506C51.5159 32.571 51.3344 32.6563 50.8504 32.7619C50.306 32.8838 48.9146 32.9326 45.3212 32.9326C42.6837 32.9326 40.5543 32.9691 40.6026 33.0057C40.651 33.0544 41.0745 33.1519 41.5343 33.2129C42.0061 33.286 43.3854 33.4079 44.6195 33.4932C45.9746 33.5785 48.2613 33.6029 50.427 33.5663C52.7379 33.5176 54.4075 33.4323 55.1456 33.3104C55.7747 33.2007 57.0088 33.0666 57.8678 32.9935C58.7389 32.9204 60.8078 32.8107 62.4654 32.7497C64.135 32.6888 68.5995 32.5669 72.3865 32.4938C76.1856 32.4207 79.3797 32.311 79.5007 32.25C79.6096 32.1891 79.7548 31.9575 79.8152 31.7381C79.8636 31.5187 79.8757 30.9825 79.8273 30.5559C79.7789 30.1171 79.6217 29.5077 79.4644 29.2152C79.3192 28.9105 78.9199 28.2645 78.6054 27.777C78.2787 27.2894 78.0004 26.8994 77.9883 26.8994C77.966 26.8994 77.9746 27.1903 77.9855 27.5611L77.9883 27.6551C78.0246 28.2645 77.9883 28.4595 77.8068 28.6423C77.6858 28.752 77.456 28.8495 77.2866 28.8495C77.1172 28.8495 76.7179 28.7155 76.3792 28.5326L75.7742 28.2157C74.1771 28.6058 73.064 28.8008 72.2655 28.8983C71.467 28.9958 69.8941 29.1299 68.7568 29.203C67.6316 29.2761 65.8047 29.3492 64.7037 29.3858C63.6027 29.4102 60.3723 29.398 57.5048 29.3492C53.0041 29.2639 52.2539 29.2761 51.9393 29.4346C51.6974 29.5564 51.0803 29.6418 50.1245 29.6783C48.7573 29.7271 48.5758 29.7027 47.0393 29.3005C46.144 29.0567 44.8131 28.6545 44.075 28.4108C43.3491 28.167 42.4175 27.8135 42.0182 27.6307C41.619 27.4479 41.1108 27.1188 40.893 26.8872C40.6631 26.6557 40.3607 26.2535 40.2034 25.9853C40.0461 25.7172 39.7557 24.9981 39.55 24.4009C39.3444 23.7915 39.1387 22.9627 39.0903 22.5483L38.9935 21.7926C39.5379 21.7723 39.6592 21.7474 40.0461 21.5976C40.095 21.5671 40.1321 21.5297 40.1619 21.4996C40.1807 21.4807 40.1966 21.4647 40.2106 21.4552L40.2116 21.4545C37.5262 20.3506 30.2228 18.6817 23.1327 19.3128C22.2218 20.2647 20.9984 20.5985 19.7017 20.5327C18.369 20.465 16.9354 19.9763 15.6083 19.2788C14.2789 18.5801 13.0363 17.6615 12.084 16.7114C11.1425 15.772 10.4439 14.7614 10.2736 13.872L10.2518 13.7585L10.3065 13.6568C11.1284 12.1283 12.9409 11.181 14.809 10.6032C16.6941 10.0201 18.7213 9.78704 20.0862 9.74559C20.3783 9.73672 20.633 9.92935 20.7146 10.2051L23.2145 18.6569C23.8138 18.606 24.4144 18.5712 25.0134 18.5507L22.4132 9.85242V9.80479C22.4132 9.68279 22.4469 9.51078 22.5509 9.35565C22.6637 9.18743 22.8516 9.0525 23.1185 9.02805C23.1169 9.0282 23.1183 9.02797 23.1242 9.02698C23.133 9.02552 23.1519 9.02239 23.1859 9.01638C23.2103 9.01204 23.2378 9.0071 23.2696 9.00139C23.3033 8.99534 23.3418 8.98842 23.3865 8.98046C23.5565 8.9502 23.7956 8.90859 24.0974 8.86093C24.7009 8.76563 25.5541 8.64629 26.6074 8.54489C27.6152 8.44787 28.8068 8.36723 30.1385 8.33984L30.1613 8.33688L30.209 8.33844C31.6421 8.31109 33.2355 8.34569 34.9356 8.48768C41.5602 9.04094 49.8304 11.2273 56.5397 17.76L57.1834 18.3868L56.2912 18.3146C51.7926 17.9505 40.2239 17.5351 28.0146 18.5613C33.4242 18.7748 38.3 19.9733 40.4432 20.8516L40.444 20.85C40.8953 21.0231 41.3096 21.1902 41.5948 21.3173C42.2239 21.5854 43.5064 22.1948 44.438 22.6701C45.3696 23.1577 46.9062 24.0596 47.8499 24.7056C48.7936 25.3393 50.2818 26.4728 51.1408 27.2285L52.7258 28.6058L52.7285 28.6057V28.6286H58.0354C60.1446 28.6938 62.0365 28.7155 63.6753 28.7155C66.1435 28.7277 68.7205 28.6667 69.4223 28.5936C70.124 28.5326 71.2129 28.3864 71.8421 28.2889C72.4712 28.1792 73.4028 27.9964 73.8989 27.8623C74.3949 27.7404 74.9636 27.582 75.1451 27.5088L75.4717 27.387C75.0362 26.7654 74.6248 26.095 74.2739 25.4978C73.911 24.8884 73.427 23.9865 73.1729 23.4867C72.9189 22.9748 72.6648 22.3533 72.5922 22.0851C72.5196 21.817 72.5075 21.5245 72.5438 21.427C72.6043 21.3051 72.7616 21.2807 73.0519 21.3295L73.4754 21.4026C72.5438 20.7444 71.8542 20.391 71.3581 20.196C70.862 20.0131 69.9667 19.745 69.3618 19.5987C68.7689 19.4647 67.5953 19.2697 66.7605 19.1721C65.9257 19.0625 64.3286 18.9528 63.1913 18.9162C62.054 18.8674 60.4328 18.7212 59.5617 18.5871L57.9888 18.319C56.7668 17.1733 55.8957 16.4176 55.2665 15.9057C54.6374 15.406 53.5969 14.626 52.9677 14.1872C52.3386 13.7606 51.165 13.0171 50.3665 12.5662C49.568 12.103 48.2613 11.4327 47.4627 11.067C46.6642 10.7136 45.418 10.2017 44.68 9.93354C43.954 9.6654 42.7563 9.28756 42.0182 9.09255C41.2923 8.89754 39.8888 8.60503 38.9088 8.4344C37.6989 8.2272 36.247 8.08094 34.4322 8.00781Z" fill="url(#paint0_linear_28_4)"/>
<path d="M37.9113 33.2278L37.9046 33.2251L37.9123 33.2331C38.2494 35.0496 38.3417 38.3685 38.1475 40.9758C38.1039 41.1242 38.0678 41.2452 38.0498 41.3058C37.9772 41.5008 38.2555 41.513 42.9256 41.513C43.4272 41.513 43.8781 41.513 44.2834 41.5127L51.0644 41.7021C51.924 41.7443 53.763 41.7948 55.7612 41.8333L56.2757 41.8476L56.2852 41.8429C59.3411 41.8906 62.3678 41.8659 64.4012 41.769C66.204 41.6958 68.7084 41.5496 69.9667 41.4521C71.2371 41.3546 73.052 41.1961 74.0199 41.0864C74.9878 40.9767 76.4034 40.7695 77.1656 40.6111C77.9278 40.4648 78.8473 40.2089 79.2103 40.0504C79.5733 39.8798 79.912 39.6604 79.9604 39.5385C80.033 39.3923 80.0088 39.246 79.8636 39.0876C79.7426 38.9413 79.4886 38.8072 79.2829 38.7585C79.0893 38.7219 78.7384 38.6 78.5207 38.4903C78.3029 38.3807 78.0972 38.1978 78.073 38.076C78.0367 37.9663 78.1093 37.6859 78.2303 37.4665C78.3513 37.2472 78.7263 36.8815 79.0772 36.6499C79.5854 36.3087 79.7064 36.1502 79.7064 35.8821C79.7064 35.6993 79.5733 35.2849 79.4039 34.968C79.2466 34.6511 79.0167 34.2611 78.8957 34.1148L78.6779 33.8345C78.2787 35.0899 78.0488 35.4189 77.4802 35.9918C76.9357 36.5524 76.4759 36.8693 75.7137 37.235C75.1451 37.5031 74.3586 37.8078 73.9594 37.9175C73.5601 38.015 72.689 38.1856 72.0235 38.2832C71.1403 38.4294 69.7973 38.4782 67.0025 38.4782C64.9094 38.4782 62.4533 38.4172 61.558 38.3563C60.6627 38.2832 59.6222 38.1735 59.2592 38.0881C58.8962 38.015 58.3276 37.8566 57.9888 37.7347C57.6621 37.6128 57.1903 37.3569 56.9483 37.174C56.7063 36.979 56.2829 36.5524 56.0167 36.2234L55.5206 35.6139C50.2092 35.4799 47.8862 35.358 46.9183 35.2605C46.7638 35.2449 46.5994 35.2275 46.4295 35.2088C44.0392 34.8626 41.1278 34.3477 39.2368 33.7508C39.1253 33.7116 39.023 33.6742 38.933 33.6395L37.9231 33.2325L37.911 33.2261L37.9113 33.2278Z" fill="#D7D7D7"/>
<path d="M23.1765 9.67176C23.1998 9.66963 23.2686 9.65744 23.38 9.63769C25.4954 9.26263 42.97 6.16453 55.4362 17.603C50.0474 17.2345 37.9181 16.9078 25.5595 18.1373L23.0591 9.77266C23.0596 9.77053 23.0602 9.76831 23.0608 9.76604C23.066 9.74729 23.0735 9.73057 23.0822 9.71755C23.0904 9.70538 23.0992 9.69686 23.1096 9.69053C23.1194 9.6845 23.1391 9.67519 23.1765 9.67176Z" fill="#D7D7D7"/>
<path d="M20.1007 10.3918L22.6216 18.9147C21.877 19.6597 20.8747 19.945 19.734 19.8871C18.5236 19.8257 17.1817 19.3768 15.9048 18.7057C14.6301 18.0358 13.4401 17.1549 12.5351 16.252C11.668 15.3869 11.0988 14.5378 10.9282 13.8617C11.6515 12.6244 13.2121 11.7732 14.9972 11.2211C16.8122 10.6597 18.7776 10.4324 20.1007 10.3918Z" fill="#D7D7D7"/>
<ellipse cx="3.702" cy="28.4347" rx="3.46933" ry="7.78856" transform="rotate(-1.72347 3.702 28.4347)" fill="#C0C0C0"/>
<ellipse cx="4.8451" cy="9.43277" rx="4.8451" ry="9.43277" transform="matrix(0.999257 -0.0385336 0.0523373 0.998629 29.3345 26.1246)" fill="#DCDCDC"/>
<ellipse cx="2.32449" cy="5.21842" rx="2.32449" ry="5.21842" transform="matrix(0.99954 -0.0303145 0.0298388 0.999555 1.2207 23.2883)" fill="white"/>
<ellipse cx="3.24627" cy="6.32006" rx="3.24627" ry="6.32006" transform="matrix(0.999257 -0.0385336 0.0523373 0.998629 31.0957 29.1715)" fill="#B8B8B8"/>
<rect x="14.8018" y="0.688556" width="48.2287" height="48.6229" rx="6.19673" fill="#FFDD2D" stroke="#212121" stroke-width="1.37705"/>
<mask id="mask0_28_4" style="mask-type:alpha" maskUnits="userSpaceOnUse" x="14" y="0" width="50" height="50">
<rect x="14.8018" y="0.688556" width="48.2287" height="48.6229" rx="6.19673" fill="#FFC700" stroke="black" stroke-width="1.37705"/>
</mask>
<g mask="url(#mask0_28_4)">
<path d="M34.4322 7.89438C32.944 7.82125 31.2502 7.78468 30.6452 7.79686C30.0524 7.80905 28.661 7.85781 27.56 7.90656C26.459 7.95532 24.8862 8.16613 24.0513 8.25145C23.2165 8.32458 21.8009 8.49521 20.9056 8.61709C20.0103 8.73897 18.6189 8.98273 17.8204 9.15337C17.0219 9.33619 15.7999 9.66527 15.0981 9.90903C14.3964 10.1406 13.4164 10.555 12.9203 10.811C12.4243 11.0669 11.7467 11.5179 11.4201 11.8104C11.0934 12.0907 10.6699 12.5539 10.4763 12.822C10.2828 13.0901 10.1376 13.3583 10.1376 13.4314C10.1376 13.4449 10.1477 13.4477 10.1661 13.4409C10.095 13.5448 10.0237 13.6589 9.9571 13.7808C9.87122 13.7537 9.70147 13.7361 9.50843 13.7361C9.21805 13.7483 8.77039 13.8336 8.50422 13.9311C8.23804 14.0286 7.72988 14.3211 7.36692 14.5771C6.72567 15.0159 6.68938 15.0281 6.03604 14.9305C5.63677 14.8818 5.08022 14.8818 4.69306 14.9549C4.33009 15.0281 3.83404 15.1743 3.60416 15.284C3.37428 15.4059 2.97501 15.6984 2.73303 15.9543C2.47896 16.2103 2.16438 16.6369 2.0313 16.905C1.89821 17.1732 1.70462 17.7582 1.60783 18.2091C1.49894 18.6601 1.42635 19.3548 1.45055 19.7449L1.48684 20.464C2.11599 19.6108 2.46685 19.2451 2.67254 19.1111C2.89032 18.977 3.26539 18.8551 3.51946 18.8551C3.85823 18.8551 4.07601 18.9526 4.41478 19.2451C4.68096 19.4889 5.01973 20.013 5.2738 20.5615C5.50368 21.0612 5.87875 22.1825 6.09653 23.06C6.31431 23.9254 6.59259 25.327 6.73778 26.168C6.84283 26.8222 6.97804 27.6739 7.072 28.2734L7.10387 28.5082C7.20125 29.2764 7.36208 30.3949 7.50685 31.4017C7.66999 32.5362 7.81272 33.5289 7.82127 33.7185C7.8364 34.0541 18.9134 36.8245 25.4808 38.4196C26.1686 38.617 26.7131 38.7447 26.7131 38.7218C26.7131 38.7207 26.713 38.7194 26.7129 38.7179L26.7204 38.7197C26.4111 37.4185 25.9257 33.8486 26.4581 29.9777C26.4663 29.9187 26.4746 29.8602 26.4832 29.8023C26.4955 29.7436 26.5077 29.6813 26.5195 29.6173C26.5679 29.3004 26.7252 28.63 26.8462 28.1425C26.9742 27.6737 27.214 27.002 27.4044 26.6043C27.4407 26.5329 27.4778 26.4636 27.5156 26.3961C27.7207 26.0423 28.0303 25.6228 28.2496 25.4124C28.5037 25.1564 28.9877 24.8395 29.3144 24.6811C29.7862 24.4739 30.1492 24.4007 30.9477 24.4007C31.9035 24.4007 32.0366 24.4251 32.7626 24.8273C33.186 25.0589 33.9724 25.6683 34.5169 26.1802C35.0492 26.6799 35.8115 27.5331 36.2107 28.045C36.7189 28.7031 37.1061 29.081 37.4811 29.276C37.7836 29.4223 38.7394 29.7757 39.5984 30.0438C40.4696 30.2998 41.8246 30.6654 42.6232 30.8483C43.4217 31.0311 44.8978 31.3358 45.8899 31.5308C46.8941 31.7136 48.4911 31.9939 49.4591 32.1402C50.427 32.2865 51.2981 32.4571 51.3949 32.5058C51.5159 32.5708 51.3344 32.6562 50.8504 32.7618C50.306 32.8837 48.9146 32.9324 45.3212 32.9324C42.6837 32.9324 40.5543 32.969 40.6026 33.0056C40.651 33.0543 41.0745 33.1518 41.5343 33.2128C42.0061 33.2859 43.3854 33.4078 44.6195 33.4931C45.9746 33.5784 48.2613 33.6028 50.427 33.5662C52.7379 33.5175 54.4075 33.4321 55.1455 33.3103C55.7747 33.2006 57.0088 33.0665 57.8678 32.9934C58.7389 32.9202 60.8078 32.8106 62.4654 32.7496C64.135 32.6887 68.5995 32.5668 72.3865 32.4937C76.1856 32.4205 79.3797 32.3108 79.5007 32.2499C79.6096 32.189 79.7547 31.9574 79.8152 31.738C79.8636 31.5186 79.8757 30.9823 79.8273 30.5557C79.7789 30.117 79.6217 29.5076 79.4644 29.2151C79.3192 28.9103 78.9199 28.2644 78.6053 27.7768C78.2787 27.2893 78.0004 26.8993 77.9883 26.8993C77.966 26.8993 77.9746 27.1902 77.9855 27.561L77.9883 27.655C78.0246 28.2644 77.9883 28.4594 77.8068 28.6422C77.6858 28.7519 77.4559 28.8494 77.2866 28.8494C77.1172 28.8494 76.7179 28.7153 76.3792 28.5325L75.7742 28.2156C74.1771 28.6056 73.064 28.8006 72.2655 28.8982C71.467 28.9957 69.8941 29.1297 68.7568 29.2029C67.6316 29.276 65.8047 29.3491 64.7037 29.3857C63.6027 29.4101 60.3723 29.3979 57.5048 29.3491C53.004 29.2638 52.2539 29.276 51.9393 29.4344C51.6974 29.5563 51.0803 29.6416 50.1245 29.6782C48.7573 29.7269 48.5758 29.7026 47.0393 29.3004C46.144 29.0566 44.8131 28.6544 44.075 28.4106C43.3491 28.1669 42.4175 27.8134 42.0182 27.6306C41.619 27.4478 41.1108 27.1187 40.893 26.8871C40.6631 26.6555 40.3607 26.2533 40.2034 25.9852C40.0461 25.7171 39.7557 24.9979 39.55 24.4007C39.3444 23.7913 39.1387 22.9625 39.0903 22.5481L38.9935 21.7925C39.5379 21.7722 39.6592 21.7473 40.0461 21.5975C40.0949 21.567 40.1321 21.5295 40.1619 21.4995C40.1807 21.4805 40.1966 21.4645 40.2106 21.4551L40.2116 21.4543C37.5262 20.3505 30.2228 18.6816 23.1327 19.3126C22.2218 20.2646 20.9984 20.5984 19.7017 20.5325C18.369 20.4649 16.9354 19.9762 15.6083 19.2787C14.2789 18.58 13.0363 17.6614 12.084 16.7113C11.1425 15.7719 10.4439 14.7612 10.2736 13.8719L10.2518 13.7584L10.3065 13.6567C11.1284 12.1281 12.9409 11.1809 14.809 10.6031C16.6941 10.02 18.7213 9.78692 20.0862 9.74546C20.3783 9.73659 20.633 9.92923 20.7146 10.205L23.2145 18.6568C23.8138 18.6059 24.4144 18.5711 25.0134 18.5506L22.4132 9.8523V9.80467C22.4132 9.68267 22.4469 9.51066 22.5509 9.35553C22.6637 9.1873 22.8516 9.05238 23.1184 9.02793C23.1169 9.02808 23.1183 9.02784 23.1242 9.02686C23.133 9.02539 23.1519 9.02227 23.1859 9.01625C23.2103 9.01192 23.2378 9.00698 23.2696 9.00126C23.3033 8.99521 23.3418 8.9883 23.3865 8.98033C23.5565 8.95008 23.7956 8.90847 24.0974 8.86081C24.7009 8.7655 25.5541 8.64617 26.6074 8.54477C27.6152 8.44775 28.8068 8.36711 30.1385 8.33971L30.1613 8.33676L30.209 8.33831C31.6421 8.31096 33.2355 8.34557 34.9356 8.48755C41.5602 9.04081 49.8304 11.2272 56.5397 17.7599L57.1834 18.3867L56.2912 18.3145C51.7926 17.9503 40.2239 17.535 28.0146 18.5611C33.4242 18.7747 38.3 19.9732 40.4432 20.8515L40.444 20.8499C40.8953 21.023 41.3096 21.1901 41.5948 21.3171C42.2239 21.5853 43.5064 22.1947 44.438 22.67C45.3696 23.1575 46.9062 24.0595 47.8499 24.7054C48.7936 25.3392 50.2818 26.4727 51.1408 27.2284L52.7258 28.6056L52.7285 28.6055V28.6285H58.0354C60.1446 28.6936 62.0365 28.7153 63.6753 28.7153C66.1435 28.7275 68.7205 28.6666 69.4223 28.5935C70.124 28.5325 71.2129 28.3862 71.8421 28.2887C72.4712 28.179 73.4028 27.9962 73.8989 27.8622C74.3949 27.7403 74.9636 27.5818 75.1451 27.5087L75.4717 27.3868C75.0362 26.7652 74.6248 26.0949 74.2739 25.4977C73.911 24.8883 73.427 23.9863 73.1729 23.4866C72.9189 22.9747 72.6648 22.3531 72.5922 22.085C72.5196 21.8168 72.5075 21.5243 72.5438 21.4268C72.6043 21.3049 72.7616 21.2806 73.0519 21.3293L73.4754 21.4024C72.5438 20.7443 71.8541 20.3908 71.3581 20.1958C70.862 20.013 69.9667 19.7449 69.3618 19.5986C68.7689 19.4645 67.5953 19.2695 66.7605 19.172C65.9257 19.0623 64.3286 18.9526 63.1913 18.9161C62.054 18.8673 60.4328 18.7211 59.5616 18.587L57.9888 18.3189C56.7668 17.1732 55.8957 16.4175 55.2665 15.9056C54.6374 15.4059 53.5969 14.6258 52.9677 14.1871C52.3386 13.7605 51.165 13.017 50.3665 12.566C49.568 12.1029 48.2613 11.4326 47.4627 11.0669C46.6642 10.7135 45.418 10.2016 44.68 9.93341C43.954 9.66527 42.7563 9.28744 42.0182 9.09243C41.2923 8.89742 39.8888 8.6049 38.9088 8.43427C37.6989 8.22707 36.247 7.96751 34.4322 7.89438Z" fill="#212121"/>
<path d="M37.9113 33.2276L37.9046 33.2249L37.9123 33.233C38.2494 35.0494 38.3417 38.3684 38.1475 40.9757C38.1039 41.124 38.0678 41.245 38.0498 41.3057C37.9772 41.5007 38.2555 41.5129 42.9256 41.5129C43.4272 41.5129 43.8781 41.5129 44.2834 41.5126L51.0644 41.702C51.924 41.7441 53.763 41.7947 55.7612 41.8331L56.2756 41.8475L56.2852 41.8428C59.3411 41.8904 62.3678 41.8658 64.4012 41.7688C66.204 41.6957 68.7084 41.5494 69.9667 41.4519C71.2371 41.3544 73.0519 41.196 74.0199 41.0863C74.9878 40.9766 76.4033 40.7694 77.1656 40.611C77.9278 40.4647 78.8473 40.2087 79.2103 40.0503C79.5733 39.8797 79.912 39.6603 79.9604 39.5384C80.033 39.3921 80.0088 39.2459 79.8636 39.0875C79.7426 38.9412 79.4886 38.8071 79.2829 38.7584C79.0893 38.7218 78.7384 38.5999 78.5207 38.4902C78.3029 38.3805 78.0972 38.1977 78.073 38.0758C78.0367 37.9661 78.1093 37.6858 78.2303 37.4664C78.3513 37.247 78.7263 36.8814 79.0772 36.6498C79.5854 36.3085 79.7064 36.1501 79.7064 35.882C79.7064 35.6991 79.5733 35.2847 79.4039 34.9679C79.2466 34.651 79.0167 34.2609 78.8957 34.1147L78.6779 33.8344C78.2787 35.0897 78.0488 35.4188 77.4801 35.9917C76.9357 36.5523 76.4759 36.8692 75.7137 37.2348C75.1451 37.503 74.3586 37.8077 73.9594 37.9174C73.5601 38.0149 72.689 38.1855 72.0235 38.283C71.1403 38.4293 69.7973 38.478 67.0025 38.478C64.9094 38.478 62.4533 38.4171 61.558 38.3562C60.6627 38.283 59.6221 38.1733 59.2592 38.088C58.8962 38.0149 58.3276 37.8564 57.9888 37.7346C57.6621 37.6127 57.1903 37.3567 56.9483 37.1739C56.7063 36.9789 56.2829 36.5523 56.0167 36.2232L55.5206 35.6138C50.2092 35.4798 47.8862 35.3579 46.9183 35.2604C46.7638 35.2448 46.5994 35.2274 46.4295 35.2086C44.0392 34.8625 41.1278 34.3475 39.2368 33.7507C39.1253 33.7115 39.023 33.674 38.933 33.6393L37.9231 33.2324L37.911 33.226L37.9113 33.2276Z" fill="#212121"/>
<path d="M23.1765 9.67164C23.1998 9.66951 23.2686 9.65731 23.3799 9.63756C25.4954 9.2625 42.97 6.16441 55.4362 17.6029C50.0474 17.2344 37.9181 16.9077 25.5595 18.1372L23.0591 9.77254C23.0596 9.7704 23.0602 9.76819 23.0608 9.76591C23.066 9.74717 23.0735 9.73045 23.0822 9.71742C23.0904 9.70525 23.0992 9.69674 23.1096 9.6904C23.1194 9.68438 23.1391 9.67507 23.1765 9.67164Z" fill="#212121"/>
<path d="M20.1007 10.3917L22.6216 18.9145C21.877 19.6596 20.8747 19.9449 19.734 19.887C18.5236 19.8256 17.1817 19.3767 15.9048 18.7056C14.6301 18.0357 13.4401 17.1548 12.5351 16.2519C11.668 15.3867 11.0988 14.5376 10.9282 13.8615C11.6515 12.6243 13.2121 11.7731 14.9972 11.221C16.8122 10.6595 18.7776 10.4323 20.1007 10.3917Z" fill="#212121"/>
<ellipse cx="4.8451" cy="9.43277" rx="4.8451" ry="9.43277" transform="matrix(0.999257 -0.0385336 0.0523373 0.998629 26.7686 26.1245)" fill="#212121"/>
<ellipse cx="3.24627" cy="6.32006" rx="3.24627" ry="6.32006" transform="matrix(0.999257 -0.0385336 0.0523373 0.998629 28.5293 29.1714)" fill="#FFDD2D"/>
</g>
<mask id="mask1_28_4" style="mask-type:alpha" maskUnits="userSpaceOnUse" x="14" y="0" width="50" height="50">
<rect x="14.8018" y="0.688556" width="48.2287" height="48.6229" rx="6.19673" fill="#FFC700" stroke="black" stroke-width="1.37705"/>
</mask>
<g mask="url(#mask1_28_4)">
<mask id="mask2_28_4" style="mask-type:alpha" maskUnits="userSpaceOnUse" x="0" y="7" width="80" height="38">
<path d="M34.4322 7.89444C32.944 7.82131 31.2502 7.78474 30.6452 7.79693C30.0524 7.80911 28.661 7.85787 27.56 7.90662C26.459 7.95538 24.8862 8.16619 24.0513 8.25151C23.2165 8.32464 21.8009 8.49527 20.9056 8.61715C20.0103 8.73903 18.6189 8.98279 17.8204 9.15343C17.0219 9.33625 15.7999 9.66533 15.0981 9.90909C14.3964 10.1407 13.4164 10.5551 12.9203 10.811C12.4243 11.067 11.7467 11.5179 11.4201 11.8104C11.0934 12.0908 10.6699 12.5539 10.4763 12.8221C10.2828 13.0902 10.1376 13.3583 10.1376 13.4315C10.1376 13.445 10.1477 13.4477 10.1661 13.441C10.095 13.5448 10.0237 13.659 9.9571 13.7808C9.87122 13.7538 9.70147 13.7362 9.50843 13.7362C9.21805 13.7484 8.77039 13.8337 8.50422 13.9312C8.23804 14.0287 7.72988 14.3212 7.36692 14.5771C6.72567 15.0159 6.68938 15.0281 6.03604 14.9306C5.63677 14.8819 5.08022 14.8819 4.69306 14.955C4.33009 15.0281 3.83404 15.1744 3.60416 15.2841C3.37428 15.4059 2.97501 15.6985 2.73303 15.9544C2.47895 16.2104 2.16438 16.6369 2.0313 16.9051C1.89821 17.1732 1.70462 17.7582 1.60783 18.2092C1.49894 18.6602 1.42635 19.3549 1.45055 19.7449L1.48684 20.464C2.11599 19.6108 2.46686 19.2452 2.67254 19.1111C2.89032 18.9771 3.26539 18.8552 3.51946 18.8552C3.85823 18.8552 4.07601 18.9527 4.41478 19.2452C4.68096 19.489 5.01973 20.0131 5.2738 20.5615C5.50368 21.0612 5.87875 22.1826 6.09653 23.0601C6.31431 23.9255 6.59259 25.3271 6.73778 26.1681C6.84283 26.8223 6.97804 27.674 7.072 28.2735L7.10387 28.5083C7.20125 29.2765 7.36208 30.395 7.50685 31.4017C7.66999 32.5363 7.81272 33.529 7.82127 33.7185C7.8364 34.0541 18.9134 36.8246 25.4808 38.4197C26.1686 38.6171 26.7131 38.7448 26.7131 38.7219C26.7131 38.7208 26.713 38.7195 26.7129 38.7179L26.7204 38.7197C26.4111 37.4186 25.9257 33.8486 26.4582 29.9778C26.4663 29.9188 26.4746 29.8603 26.4832 29.8024C26.4955 29.7436 26.5077 29.6814 26.5195 29.6173C26.5679 29.3004 26.7252 28.6301 26.8462 28.1425C26.9742 27.6737 27.214 27.0021 27.4044 26.6044C27.4407 26.533 27.4778 26.4636 27.5156 26.3962C27.7207 26.0423 28.0303 25.6229 28.2497 25.4124C28.5037 25.1565 28.9877 24.8396 29.3144 24.6811C29.7862 24.4739 30.1492 24.4008 30.9477 24.4008C31.9035 24.4008 32.0366 24.4252 32.7626 24.8274C33.186 25.0589 33.9724 25.6684 34.5169 26.1803C35.0492 26.68 35.8115 27.5331 36.2107 28.045C36.7189 28.7032 37.1061 29.081 37.4811 29.2761C37.7836 29.4223 38.7394 29.7758 39.5984 30.0439C40.4696 30.2999 41.8246 30.6655 42.6232 30.8483C43.4217 31.0311 44.8978 31.3358 45.8899 31.5309C46.8941 31.7137 48.4911 31.994 49.4591 32.1403C50.427 32.2865 51.2981 32.4572 51.3949 32.5059C51.5159 32.5709 51.3344 32.6562 50.8504 32.7619C50.306 32.8837 48.9146 32.9325 45.3212 32.9325C42.6837 32.9325 40.5543 32.9691 40.6027 33.0056C40.651 33.0544 41.0745 33.1519 41.5343 33.2128C42.0061 33.2859 43.3854 33.4078 44.6195 33.4931C45.9746 33.5785 48.2613 33.6028 50.427 33.5663C52.7379 33.5175 54.4075 33.4322 55.1456 33.3103C55.7747 33.2006 57.0088 33.0666 57.8678 32.9934C58.7389 32.9203 60.8078 32.8106 62.4654 32.7497C64.135 32.6887 68.5995 32.5668 72.3865 32.4937C76.1856 32.4206 79.3797 32.3109 79.5007 32.25C79.6096 32.189 79.7547 31.9574 79.8152 31.738C79.8636 31.5187 79.8757 30.9824 79.8273 30.5558C79.7789 30.117 79.6217 29.5076 79.4644 29.2151C79.3192 28.9104 78.9199 28.2644 78.6053 27.7769C78.2787 27.2894 78.0004 26.8994 77.9883 26.8994C77.966 26.8994 77.9746 27.1903 77.9855 27.561L77.9883 27.655C78.0246 28.2644 77.9883 28.4594 77.8068 28.6423C77.6858 28.752 77.4559 28.8495 77.2866 28.8495C77.1172 28.8495 76.7179 28.7154 76.3792 28.5326L75.7742 28.2157C74.1771 28.6057 73.064 28.8007 72.2655 28.8982C71.467 28.9957 69.8941 29.1298 68.7568 29.2029C67.6316 29.276 65.8047 29.3492 64.7037 29.3857C63.6027 29.4101 60.3723 29.3979 57.5048 29.3492C53.0041 29.2639 52.2539 29.2761 51.9393 29.4345C51.6974 29.5564 51.0803 29.6417 50.1245 29.6783C48.7573 29.727 48.5758 29.7026 47.0393 29.3004C46.144 29.0567 44.8131 28.6544 44.075 28.4107C43.3491 28.1669 42.4175 27.8135 42.0182 27.6306C41.619 27.4478 41.1108 27.1187 40.893 26.8872C40.6631 26.6556 40.3607 26.2534 40.2034 25.9852C40.0461 25.7171 39.7557 24.998 39.55 24.4008C39.3444 23.7914 39.1387 22.9626 39.0903 22.5482L38.9935 21.7925C39.5379 21.7723 39.6592 21.7473 40.0461 21.5975C40.0949 21.567 40.1321 21.5296 40.1619 21.4996C40.1807 21.4806 40.1966 21.4646 40.2106 21.4551L40.2116 21.4544C37.5262 20.3505 30.2228 18.6816 23.1327 19.3127C22.2218 20.2646 20.9984 20.5984 19.7017 20.5326C18.369 20.465 16.9354 19.9762 15.6083 19.2788C14.2789 18.5801 13.0363 17.6614 12.084 16.7113C11.1425 15.772 10.4439 14.7613 10.2736 13.872L10.2518 13.7584L10.3065 13.6567C11.1284 12.1282 12.9409 11.181 14.809 10.6031C16.6941 10.02 18.7213 9.78698 20.0862 9.74552C20.3783 9.73665 20.633 9.92929 20.7146 10.205L23.2145 18.6568C23.8138 18.606 24.4144 18.5711 25.0134 18.5506L22.4132 9.85236V9.80473C22.4132 9.68273 22.4469 9.51072 22.5509 9.35559C22.6637 9.18736 22.8516 9.05244 23.1185 9.02799C23.1169 9.02814 23.1183 9.0279 23.1242 9.02692C23.133 9.02545 23.1519 9.02233 23.1859 9.01631C23.2103 9.01198 23.2378 9.00704 23.2696 9.00133C23.3033 8.99527 23.3418 8.98836 23.3865 8.98039C23.5565 8.95014 23.7956 8.90853 24.0974 8.86087C24.7009 8.76557 25.5541 8.64623 26.6074 8.54483C27.6152 8.44781 28.8068 8.36717 30.1385 8.33977L30.1613 8.33682L30.209 8.33837C31.6421 8.31102 33.2355 8.34563 34.9356 8.48761C41.5602 9.04087 49.8304 11.2273 56.5397 17.76L57.1834 18.3868L56.2912 18.3146C51.7926 17.9504 40.2239 17.535 28.0146 18.5612C33.4242 18.7747 38.3 19.9732 40.4432 20.8516L40.444 20.8499C40.8953 21.023 41.3096 21.1901 41.5948 21.3172C42.2239 21.5853 43.5064 22.1947 44.438 22.6701C45.3696 23.1576 46.9062 24.0595 47.8499 24.7055C48.7936 25.3393 50.2818 26.4728 51.1408 27.2284L52.7258 28.6057L52.7285 28.6056V28.6286H58.0354C60.1446 28.6937 62.0365 28.7154 63.6753 28.7154C66.1435 28.7276 68.7205 28.6666 69.4223 28.5935C70.124 28.5326 71.2129 28.3863 71.8421 28.2888C72.4712 28.1791 73.4028 27.9963 73.8989 27.8622C74.3949 27.7403 74.9636 27.5819 75.1451 27.5088L75.4717 27.3869C75.0362 26.7653 74.6248 26.0949 74.2739 25.4977C73.911 24.8883 73.427 23.9864 73.1729 23.4867C72.9189 22.9748 72.6648 22.3532 72.5922 22.085C72.5196 21.8169 72.5075 21.5244 72.5438 21.4269C72.6043 21.305 72.7616 21.2806 73.0519 21.3294L73.4754 21.4025C72.5438 20.7443 71.8542 20.3909 71.3581 20.1959C70.862 20.0131 69.9667 19.7449 69.3618 19.5987C68.7689 19.4646 67.5953 19.2696 66.7605 19.1721C65.9257 19.0624 64.3286 18.9527 63.1913 18.9161C62.054 18.8674 60.4328 18.7211 59.5617 18.5871L57.9888 18.3189C56.7668 17.1732 55.8957 16.4176 55.2665 15.9057C54.6374 15.4059 53.5969 14.6259 52.9677 14.1871C52.3386 13.7605 51.165 13.0171 50.3665 12.5661C49.568 12.103 48.2613 11.4326 47.4627 11.067C46.6642 10.7135 45.418 10.2016 44.68 9.93347C43.954 9.66533 42.7563 9.2875 42.0182 9.09249C41.2923 8.89748 39.8888 8.60496 38.9088 8.43433C37.6989 8.22713 36.247 7.96757 34.4322 7.89444Z" fill="black"/>
<path d="M37.9113 33.2277L37.9046 33.225L37.9123 33.233C38.2494 35.0495 38.3417 38.3685 38.1475 40.9758C38.1039 41.1241 38.0678 41.2451 38.0498 41.3057C37.9772 41.5007 38.2555 41.5129 42.9256 41.5129C43.4272 41.5129 43.8781 41.5129 44.2834 41.5127L51.0644 41.702C51.924 41.7442 53.763 41.7947 55.7612 41.8332L56.2757 41.8476L56.2852 41.8428C59.3411 41.8905 62.3678 41.8659 64.4012 41.7689C66.204 41.6958 68.7084 41.5495 69.9667 41.452C71.2371 41.3545 73.052 41.196 74.0199 41.0863C74.9878 40.9767 76.4034 40.7695 77.1656 40.611C77.9278 40.4648 78.8473 40.2088 79.2103 40.0504C79.5733 39.8797 79.912 39.6603 79.9604 39.5385C80.033 39.3922 80.0088 39.246 79.8636 39.0875C79.7426 38.9412 79.4886 38.8072 79.2829 38.7584C79.0893 38.7219 78.7384 38.6 78.5207 38.4903C78.3029 38.3806 78.0972 38.1978 78.073 38.0759C78.0367 37.9662 78.1093 37.6859 78.2303 37.4665C78.3513 37.2471 78.7263 36.8814 79.0772 36.6499C79.5854 36.3086 79.7063 36.1502 79.7063 35.882C79.7063 35.6992 79.5733 35.2848 79.4039 34.9679C79.2466 34.651 79.0167 34.261 78.8957 34.1147L78.6779 33.8344C78.2787 35.0898 78.0488 35.4189 77.4802 35.9917C76.9357 36.5524 76.4759 36.8693 75.7137 37.2349C75.1451 37.503 74.3586 37.8077 73.9594 37.9174C73.5601 38.0149 72.689 38.1856 72.0235 38.2831C71.1403 38.4293 69.7973 38.4781 67.0025 38.4781C64.9094 38.4781 62.4533 38.4172 61.558 38.3562C60.6627 38.2831 59.6222 38.1734 59.2592 38.0881C58.8962 38.0149 58.3276 37.8565 57.9888 37.7346C57.6621 37.6127 57.1903 37.3568 56.9483 37.174C56.7063 36.979 56.2829 36.5524 56.0167 36.2233L55.5206 35.6139C50.2092 35.4798 47.8862 35.3579 46.9183 35.2604C46.7638 35.2449 46.5994 35.2274 46.4295 35.2087C44.0392 34.8625 41.1278 34.3476 39.2368 33.7507C39.1253 33.7116 39.023 33.6741 38.933 33.6394L37.9231 33.2325L37.911 33.226L37.9113 33.2277Z" fill="black"/>
<path d="M23.1765 9.6717C23.1998 9.66957 23.2686 9.65737 23.3799 9.63762C25.4954 9.26256 42.97 6.16447 55.4362 17.603C50.0474 17.2345 37.9181 16.9077 25.5595 18.1372L23.0591 9.7726C23.0596 9.77046 23.0602 9.76825 23.0608 9.76598C23.066 9.74723 23.0735 9.73051 23.0822 9.71748C23.0904 9.70531 23.0992 9.6968 23.1096 9.69046C23.1194 9.68444 23.1391 9.67513 23.1765 9.6717Z" fill="black"/>
<path d="M20.1007 10.3917L22.6216 18.9146C21.877 19.6596 20.8747 19.945 19.734 19.8871C18.5236 19.8256 17.1817 19.3767 15.9048 18.7056C14.6301 18.0357 13.4401 17.1548 12.5351 16.2519C11.668 15.3868 11.0988 14.5377 10.9282 13.8616C11.6515 12.6243 13.2121 11.7732 14.9972 11.221C16.8122 10.6596 18.7776 10.4323 20.1007 10.3917Z" fill="black"/>
<ellipse cx="4.8451" cy="9.43277" rx="4.8451" ry="9.43277" transform="matrix(0.999257 -0.0385336 0.0523373 0.998629 26.7686 26.1246)" fill="black"/>
<ellipse cx="3.24627" cy="6.32006" rx="3.24627" ry="6.32006" transform="matrix(0.999257 -0.0385336 0.0523373 0.998629 28.5293 29.1715)" fill="#FFC700"/>
</mask>
<g mask="url(#mask2_28_4)">
<g filter="url(#filter0_f_28_4)">
<ellipse cx="10.0414" cy="23.1473" rx="11.0106" ry="52.2713" fill="#FFDD2D"/>
</g>
</g>
</g>
<path fill-rule="evenodd" clip-rule="evenodd" d="M51.7153 41.7292C52.6906 41.7647 54.1758 41.8028 55.7612 41.8333L56.2757 41.8477L56.2852 41.843C59.3411 41.8907 62.3678 41.866 64.4012 41.769C66.204 41.6959 68.7084 41.5497 69.9667 41.4522C71.2371 41.3546 73.052 41.1962 74.0199 41.0865C74.9878 40.9768 76.4034 40.7696 77.1656 40.6112C77.9278 40.4649 78.8473 40.209 79.2103 40.0505C79.5733 39.8799 79.912 39.6605 79.9604 39.5386C80.033 39.3924 80.0088 39.2461 79.8636 39.0877C79.7427 38.9414 79.4886 38.8073 79.2829 38.7586C79.0893 38.722 78.7384 38.6001 78.5207 38.4904C78.3029 38.3807 78.0972 38.1979 78.073 38.076C78.0367 37.9663 78.1093 37.686 78.2303 37.4666C78.3513 37.2472 78.7264 36.8816 79.0772 36.65C79.5854 36.3088 79.7064 36.1503 79.7064 35.8822C79.7064 35.6993 79.5733 35.2849 79.4039 34.9681C79.2466 34.6512 79.0167 34.2611 78.8957 34.1149L78.678 33.8346C78.2787 35.0899 78.0488 35.419 77.4802 35.9919C76.9357 36.5525 76.476 36.8694 75.7137 37.2351C75.1451 37.5032 74.3586 37.8079 73.9594 37.9176C73.5601 38.0151 72.689 38.1857 72.0235 38.2832C71.1403 38.4295 69.7973 38.4782 67.0025 38.4782C64.9094 38.4782 62.4533 38.4173 61.558 38.3564C60.6627 38.2832 59.6222 38.1735 59.2592 38.0882C58.8962 38.0151 58.3276 37.8566 57.9888 37.7348C57.6621 37.6129 57.1903 37.3569 56.9483 37.1741C56.7063 36.9791 56.2829 36.5525 56.0167 36.2234L55.5206 35.614C54.0284 35.5764 52.772 35.5397 51.7153 35.5042V41.7292ZM51.7153 33.5334C53.3593 33.4826 54.5529 33.4083 55.1456 33.3105C55.7747 33.2008 57.0088 33.0667 57.8678 32.9936C58.7389 32.9204 60.8079 32.8108 62.4654 32.7498C64.1351 32.6889 68.5996 32.567 72.3865 32.4939C76.1856 32.4207 79.3797 32.311 79.5007 32.2501C79.6096 32.1892 79.7548 31.9576 79.8152 31.7382C79.8636 31.5188 79.8758 30.9825 79.8274 30.556C79.779 30.1172 79.6217 29.5078 79.4644 29.2153C79.3192 28.9106 78.9199 28.2646 78.6054 27.7771C78.2787 27.2895 78.0004 26.8995 77.9883 26.8995C77.966 26.8995 77.9746 27.1904 77.9855 27.5612L77.9883 27.6552C78.0246 28.2646 77.9883 28.4596 77.8068 28.6424C77.6858 28.7521 77.456 28.8496 77.2866 28.8496C77.1172 28.8496 76.7179 28.7155 76.3792 28.5327L75.6276 28.0043C74.1583 28.3631 73.2027 28.478 72.4374 28.57L72.4374 28.57L72.2419 28.5937C71.9261 28.6322 71.493 28.7241 71.0144 28.8257C70.2826 28.981 69.4445 29.1589 68.7568 29.2031C67.6317 29.2762 65.8047 29.3493 64.7037 29.3859C63.6027 29.4103 60.3723 29.3981 57.5049 29.3493C53.0041 29.264 52.2539 29.2762 51.9393 29.4346C51.8841 29.4625 51.8093 29.4884 51.7153 29.5123V33.5334ZM51.7153 17.4094V14.6887C52.9899 15.5357 54.2363 16.5021 55.4362 17.6031C54.4208 17.5337 53.1659 17.4657 51.7153 17.4094ZM51.7153 18.0562C53.6128 18.1302 55.1712 18.224 56.2912 18.3147L57.1834 18.3869L56.5397 17.7601C55.0008 16.2617 53.3798 14.992 51.7153 13.9182V13.3763C52.1927 13.6751 52.6498 13.9717 52.9678 14.1873C53.5969 14.626 54.6374 15.4061 55.2666 15.9058C55.8957 16.4177 56.7668 17.1734 57.9888 18.3191L59.5617 18.5872C60.4328 18.7213 62.054 18.8675 63.1913 18.9163C64.3286 18.9528 65.9257 19.0625 66.7605 19.1722C67.5953 19.2697 68.7689 19.4647 69.3618 19.5988C69.9667 19.7451 70.8621 20.0132 71.3581 20.196C71.8542 20.391 72.5438 20.7445 73.4754 21.4027L73.052 21.3295C72.7616 21.2808 72.6043 21.3052 72.5438 21.427C72.5075 21.5245 72.5196 21.8171 72.5922 22.0852C72.6648 22.3533 72.9189 22.9749 73.173 23.4868C73.427 23.9865 73.911 24.8885 74.2739 25.4979C74.6248 26.0951 75.0362 26.7654 75.4717 27.387L75.1451 27.5089C74.9636 27.582 74.3949 27.7405 73.8989 27.8624C73.4028 27.9964 72.4712 28.1793 71.8421 28.2889C71.2129 28.3865 70.124 28.5327 69.4223 28.5937C68.7205 28.6668 66.1435 28.7277 63.6753 28.7155C62.0365 28.7155 60.1446 28.6938 58.0354 28.6287H52.7285V28.6057L52.7258 28.6059L51.7153 27.7278V18.0562Z" fill="#212121"/>
<rect x="15.2608" y="1.14757" width="47.3106" height="47.7049" rx="5.41655" stroke="#212121" stroke-width="2.29508"/>
<path d="M53.3878 29.2112L52.7319 28.6087L75.2264 27.4739L75.8501 28.0379L68.0027 29.6836L53.3878 29.2112Z" fill="#FFDD2D"/>
<path d="M72.5188 22.3318C71.8353 20.8043 72.8035 21.0214 73.3731 21.3209C74.8465 22.544 77.7872 25.3789 78.0163 26.8996C78.2762 28.6247 77.7141 28.735 77.4846 28.8457C75.553 29.4822 73.3731 24.2413 72.5188 22.3318Z" fill="#FFDD2D"/>
<path d="M79.0232 32.2965C74.8441 32.1335 62.5148 32.5874 56.252 33.1401L57.6373 35.2346L59.8884 38.2018C70.9248 39.9239 76.368 37.7073 77.5802 35.9618C78.827 34.5422 79.0617 32.9267 79.0232 32.2965Z" fill="#FFDD2D"/>
<path d="M22.2119 9.17246L23.514 8.95624L22.9285 9.45578L22.5122 10.1725L22.2119 9.17246Z" fill="#FFDD2D"/>
<path d="M16.8793 10.4899L16.6997 10.1379L18.621 9.77263L20.5488 9.45679L20.854 10.6812L20.8054 10.8066L20.3015 10.2284H19.3487L16.8793 10.4899Z" fill="#FFDD2D"/>
<defs>
<filter id="filter0_f_28_4" x="-14.7397" y="-42.8945" width="49.562" height="132.084" filterUnits="userSpaceOnUse" color-interpolation-filters="sRGB">
<feFlood flood-opacity="0" result="BackgroundImageFix"/>
<feBlend mode="normal" in="SourceGraphic" in2="BackgroundImageFix" result="shape"/>
<feGaussianBlur stdDeviation="6.88525" result="effect1_foregroundBlur_28_4"/>
</filter>
<linearGradient id="paint0_linear_28_4" x1="0.615722" y1="20.7794" x2="13.6255" y2="20.7794" gradientUnits="userSpaceOnUse">
<stop stop-color="#C0C0C0"/>
<stop offset="1" stop-color="#D7D7D7"/>
</linearGradient>
</defs>
</svg>
