<svg width="32" height="32" viewBox="0 0 32 32" fill="none" xmlns="http://www.w3.org/2000/svg">
<g id="&#208;&#162;&#208;&#181;&#208;&#187;&#208;&#181;&#208;&#179;&#209;&#128;&#208;&#176;&#208;&#188;">
<rect id="Rectangle 9" x="1" y="1" width="30" height="30" rx="5" fill="#FFDD2D" stroke="#212121" stroke-width="2"/>
<g id="Group">
<path id="Vector" fill-rule="evenodd" clip-rule="evenodd" d="M21.3427 9.09578C21.5394 9.01097 21.7547 8.98172 21.9662 9.01107C22.1777 9.04043 22.3777 9.12731 22.5453 9.26267C22.7129 9.39804 22.842 9.57694 22.9192 9.78076C22.9964 9.98458 23.0188 10.2059 22.9842 10.4216L21.1787 21.6387C21.0035 22.7207 19.8445 23.3412 18.8757 22.8023C18.0653 22.3514 16.8616 21.6567 15.779 20.9318C15.2376 20.5689 13.5794 19.407 13.7832 18.5802C13.9583 17.8733 16.7446 15.2168 18.3367 13.6374C18.9616 13.0169 18.6766 12.659 17.9387 13.2297C16.1053 14.6469 13.1639 16.8019 12.1911 17.4085C11.3329 17.9434 10.8855 18.0348 10.3506 17.9434C9.37458 17.7771 8.46945 17.5194 7.7307 17.2055C6.73243 16.7815 6.78099 15.3758 7.72991 14.9665L21.3427 9.09578Z" fill="#212121"/>
</g>
</g>
</svg>
