<svg width="12" height="13" viewBox="0 0 12 13" fill="none" xmlns="http://www.w3.org/2000/svg">
<path id="Vector 8" d="M0.505025 11.005C0.231658 11.2784 0.231658 11.7216 0.505025 11.995C0.778392 12.2683 1.22161 12.2683 1.49497 11.995L0.505025 11.005ZM11.7 1.5C11.7 1.1134 11.3866 0.8 11 0.8H4.7C4.3134 0.8 4 1.1134 4 1.5C4 1.8866 4.3134 2.2 4.7 2.2H10.3V7.8C10.3 8.1866 10.6134 8.5 11 8.5C11.3866 8.5 11.7 8.1866 11.7 7.8V1.5ZM1.49497 11.995L6.49497 6.99497L5.50503 6.00503L0.505025 11.005L1.49497 11.995ZM6.49497 6.99497L11.495 1.99497L10.505 1.00503L5.50503 6.00503L6.49497 6.99497Z" fill="#E6E6E6"/>
</svg>
