<svg width="32" height="32" viewBox="0 0 32 32" fill="none" xmlns="http://www.w3.org/2000/svg">
<g id="Whatsapp">
<rect id="Rectangle 9" x="1" y="1" width="30" height="30" rx="5" fill="#FFDD2D" stroke="#212121" stroke-width="2"/>
<g id="Group">
<path id="Vector" fill-rule="evenodd" clip-rule="evenodd" d="M16 8C11.5816 8 8 11.5816 8 16C8 17.512 8.42 18.928 9.1504 20.1344L8.4368 22.56C8.39583 22.6993 8.39313 22.847 8.429 22.9877C8.46486 23.1283 8.53796 23.2567 8.64061 23.3594C8.74326 23.462 8.87167 23.5351 9.01233 23.571C9.153 23.6069 9.30073 23.6042 9.44 23.5632L11.8656 22.8496C13.1125 23.6041 14.5426 24.002 16 24C20.4184 24 24 20.4184 24 16C24 11.5816 20.4184 8 16 8ZM14.1904 17.8104C15.8088 19.428 17.3536 19.6416 17.8992 19.6616C18.7288 19.692 19.5368 19.0584 19.8512 18.3232C19.8909 18.2317 19.9053 18.1313 19.8929 18.0324C19.8805 17.9334 19.8418 17.8397 19.7808 17.7608C19.3424 17.2008 18.7496 16.7984 18.1704 16.3984C18.0495 16.3148 17.9009 16.2812 17.7557 16.3048C17.6106 16.3284 17.4803 16.4072 17.392 16.5248L16.912 17.2568C16.8868 17.2962 16.8474 17.3244 16.8021 17.3357C16.7567 17.347 16.7087 17.3405 16.668 17.3176C16.3424 17.1312 15.868 16.8144 15.5272 16.4736C15.1864 16.1328 14.8888 15.68 14.7216 15.3752C14.7009 15.3365 14.6949 15.2915 14.7047 15.2487C14.7146 15.2059 14.7396 15.1682 14.7752 15.1424L15.5144 14.5936C15.6199 14.5019 15.688 14.3746 15.7057 14.2359C15.7234 14.0972 15.6895 13.9569 15.6104 13.8416C15.252 13.3168 14.8344 12.6496 14.2288 12.2072C14.1506 12.1506 14.0591 12.1152 13.9631 12.1047C13.8672 12.0942 13.7702 12.1088 13.6816 12.1472C12.9456 12.4624 12.3088 13.2704 12.3392 14.1016C12.3592 14.6472 12.5728 16.192 14.1904 17.8104Z" fill="#212121"/>
</g>
</g>
</svg>
