<svg width="21" height="20" viewBox="0 0 21 20" fill="none" xmlns="http://www.w3.org/2000/svg">
<path d="M1.1476 19.1534C0.960061 18.9659 0.901266 18.6649 0.984146 18.3168C1.06703 17.9687 1.28479 17.602 1.58954 17.2972L17.6762 1.21056C17.981 0.905815 18.3477 0.688047 18.6958 0.605167C19.0439 0.522287 19.3448 0.581083 19.5324 0.76862C19.7199 0.956156 19.7787 1.25707 19.6958 1.60517C19.6129 1.95326 19.3952 2.32003 19.0904 2.62478L3.00375 18.7115C2.69901 19.0162 2.33224 19.234 1.98415 19.3168C1.63605 19.3997 1.33513 19.3409 1.1476 19.1534Z" fill="#ffffff"/>
<path d="M19.5323 19.1534C19.7199 18.9659 19.7787 18.6649 19.6958 18.3168C19.6129 17.9687 19.3951 17.602 19.0904 17.2972L3.00371 1.21056C2.69897 0.905815 2.3322 0.688047 1.98411 0.605167C1.63601 0.522287 1.33509 0.581083 1.14756 0.76862C0.960022 0.956156 0.901225 1.25707 0.984105 1.60517C1.06699 1.95326 1.28475 2.32003 1.5895 2.62478L17.6762 18.7115C17.9809 19.0162 18.3477 19.234 18.6958 19.3168C19.0439 19.3997 19.3448 19.3409 19.5323 19.1534Z" fill="#ffffff"/>
</svg>
