<svg width="29" height="29" viewBox="0 0 29 29" fill="none" xmlns="http://www.w3.org/2000/svg">
<g clip-path="url(#clip0_0_40)">
<path d="M14.5 0C6.52013 0 0 6.4877 0 14.5C0 22.4799 6.4877 29 14.5 29C22.5123 29 29 22.4799 29 14.5C29 6.52013 22.4799 0 14.5 0ZM14.5 7.42841C16.9653 7.42841 19.009 9.4396 19.009 11.9374C19.009 14.4027 16.9978 16.4463 14.5 16.4463C12.0022 16.4463 9.99105 14.4027 9.99105 11.9049C9.99105 9.4396 12.0347 7.42841 14.5 7.42841ZM14.5 26.0157C11.7427 26.0157 9.21253 25.0425 7.23378 23.4206C9.30984 21.1499 11.84 19.8848 14.5 19.8848C17.16 19.8848 19.7226 21.1175 21.7662 23.4206C19.7875 25.0425 17.2573 26.0157 14.5 26.0157Z" fill="black"/>
</g>
<defs>
<clipPath id="clip0_0_40">
<rect width="29" height="29" fill="white"/>
</clipPath>
</defs>
</svg>
