<svg width="587" height="486" viewBox="0 0 587 486" fill="none" xmlns="http://www.w3.org/2000/svg">
<path opacity="0.2" d="M301.368 262.958V250.074L282.029 239.33V226.446L262.691 215.692V202.818L243.363 192.074L159.801 235.926L181.505 247.923V260.807L200.844 271.54V284.435L220.183 295.168V308.063L304.895 425.848C388.783 412.222 452.822 371.126 479.844 318.013C482.969 311.874 485.751 305.689 488.189 299.46L301.368 262.958Z" fill="#FF5555"/>
<path opacity="0.15" d="M182.255 11.7755C125.715 43.0984 79.875 127.044 79.875 199.316C79.875 242.26 96.0665 271.422 121.113 281.445L131.456 275.702L233.141 219.227L243.743 213.339C268.606 175.699 284.678 128.767 284.678 85.9586C284.635 13.7071 238.806 -19.5161 182.255 11.7755Z" fill="#FF5555"/>
<path opacity="0.15" d="M182.256 32.6793C134.745 58.9906 96.2305 129.53 96.2305 190.265C96.2305 251 134.745 278.919 182.256 252.629C229.767 226.339 268.292 155.768 268.292 95.0328C268.292 34.2977 229.778 6.37853 182.256 32.6793Z" fill="#FF5555"/>
<path opacity="0.15" d="M182.256 47.4109C141.256 70.1931 108.016 131.294 108.016 183.885C108.016 236.476 141.256 260.668 182.256 237.896C223.255 215.124 256.496 154.013 256.496 101.412C256.496 48.81 223.266 24.6183 182.256 47.4109Z" fill="#FF5555"/>
<path d="M138.476 186.381C138.476 140.816 167.278 87.8804 202.797 68.1365C218.457 59.4496 232.793 58.6457 243.938 64.3673L229.494 56.3277C218.207 50.0632 203.448 50.5852 187.344 59.5436C151.803 79.2875 123.012 132.223 123.012 177.788C123.012 202.731 131.639 220.293 145.28 227.852C147.614 229.136 156.285 233.971 159.822 235.933C146.68 228.092 138.476 210.76 138.476 186.381Z" fill="#FF5555"/>
<path opacity="0.3" d="M138.476 186.381C138.476 140.816 167.278 87.8804 202.797 68.1365C218.457 59.4496 232.793 58.6457 243.938 64.3673L229.494 56.3277C218.207 50.0632 203.448 50.5852 187.344 59.5436C151.803 79.2875 123.012 132.223 123.012 177.788C123.012 202.731 131.639 220.293 145.28 227.852C147.614 229.136 156.285 233.971 159.822 235.933C146.68 228.092 138.476 210.76 138.476 186.381Z" fill="white"/>
<path d="M228.072 77.6875C233.682 84.8918 236.688 96.356 236.016 111.266C234.399 147.809 211.294 191.285 184.424 208.294C176.263 213.462 168.678 215.602 162.145 215.028C170.305 225.469 183.979 226.962 199.889 216.887C226.77 199.878 249.874 156.433 251.491 119.848C252.598 94.3931 243.026 78.9717 228.072 77.6875Z" fill="#FF5555"/>
<path opacity="0.15" d="M228.072 77.6875C233.682 84.8918 236.688 96.356 236.016 111.266C234.399 147.809 211.294 191.285 184.424 208.294C176.263 213.462 168.678 215.602 162.145 215.028C170.305 225.469 183.979 226.962 199.889 216.887C226.77 199.878 249.874 156.433 251.491 119.848C252.598 94.3931 243.026 78.9717 228.072 77.6875Z" fill="black"/>
<path d="M154.863 88.8801L170.328 97.473L171.565 95.8755L156.1 87.2617C155.677 87.8151 155.276 88.3058 154.863 88.8801Z" fill="#FF5555"/>
<path d="M147.769 138.642L132.251 130.07C132.033 130.645 131.827 131.24 131.621 131.824L147.086 140.417C147.303 139.812 147.498 139.217 147.769 138.642Z" fill="#FF5555"/>
<path d="M218.305 52.5312L233.78 61.1555C234.409 61.2599 235.039 61.3643 235.657 61.4896L220.182 52.8967C219.564 52.7401 218.934 52.6252 218.305 52.5312Z" fill="#FF5555"/>
<path d="M140.659 163.881C140.778 163.234 140.908 162.576 141.039 161.929L125.574 153.336C125.433 153.983 125.303 154.631 125.184 155.288L140.659 163.881Z" fill="#FF5555"/>
<path d="M170.066 72.174L185.531 80.7669C186.063 80.2761 186.616 79.7854 187.137 79.3156L171.64 70.7227C171.13 71.1925 170.555 71.6832 170.066 72.174Z" fill="#FF5555"/>
<path d="M140.734 206.833C140.592 206.259 140.462 205.674 140.332 205.09L140.213 204.829L124.824 196.277C124.965 196.946 125.106 197.603 125.269 198.251L140.734 206.833Z" fill="#FF5555"/>
<path d="M204.814 52.9219C204.163 53.0472 203.49 53.2142 202.828 53.3708L218.303 61.9638C218.976 61.7967 219.649 61.6505 220.311 61.5252L204.814 52.9219Z" fill="#FF5555"/>
<path d="M203.762 67.6358L188.298 59.0742C187.972 59.2517 187.657 59.3979 187.343 59.5754L186.398 60.1288L201.863 68.7217L202.796 68.1683L203.762 67.6358Z" fill="#FF5555"/>
<path d="M141.754 109.187L157.218 117.78L158.13 116.152L142.665 107.559C142.34 108.081 142.047 108.624 141.754 109.187Z" fill="#FF5555"/>
<path d="M147.299 223.228C146.951 222.654 146.626 222.08 146.29 221.485L130.836 212.902C131.162 213.497 131.509 214.072 131.856 214.646L147.299 223.228Z" fill="#FF5555"/>
<path d="M123.011 177.957L138.475 186.56V186.383C138.475 185.746 138.475 185.088 138.475 184.441L123 175.848C123 176.495 123 177.153 123 177.79L123.011 177.957Z" fill="#FF5555"/>
<path d="M202.798 68.1379C167.278 87.8817 138.477 140.817 138.477 186.382C138.477 231.946 167.278 252.901 202.798 233.168C238.317 213.434 267.14 160.499 267.14 114.924C267.14 69.349 238.328 48.4044 202.798 68.1379ZM251.459 119.852C249.842 156.395 226.738 199.872 199.857 216.88C172.976 233.888 152.519 218.029 154.136 181.454C155.753 144.879 178.879 101.434 205.739 84.4258C232.598 67.4174 253.087 83.2773 251.459 119.852Z" fill="#FF5555"/>
<g opacity="0.15">
<path d="M189.636 98.1689C190.157 97.6155 190.667 97.0517 191.199 96.5088L187.13 79.3125C186.587 79.7823 186.044 80.2626 185.523 80.7534L189.636 98.1689Z" fill="black"/>
<path d="M201.855 68.6717V87.1105C202.485 86.6406 203.114 86.1812 203.755 85.7427V67.6172L202.8 68.1288L201.855 68.6717Z" fill="black"/>
<path d="M214.934 79.7834C215.628 79.5224 216.323 79.2823 217.006 79.0734L220.262 61.5117C219.6 61.637 218.927 61.7832 218.254 61.9398L214.934 79.7834Z" fill="black"/>
<path d="M162.492 143.233L163.175 141.5L147.765 138.629C147.548 139.214 147.331 139.798 147.125 140.383L162.492 143.233Z" fill="black"/>
<path d="M169.796 126.937L170.665 125.266L158.119 116.141L157.219 117.78L169.796 126.937Z" fill="black"/>
<path d="M264.505 93.0352L250.863 105.345C250.972 106.076 251.069 106.817 251.156 107.59L265.058 95.0607C264.852 94.3925 264.689 93.7034 264.505 93.0352Z" fill="black"/>
<path d="M154.605 175.484L138.5 184.422C138.5 185.08 138.5 185.727 138.5 186.374V186.552L154.409 177.719C154.442 176.977 154.529 176.226 154.605 175.484Z" fill="black"/>
<path d="M157.209 160.347C157.372 159.689 157.545 159.032 157.708 158.363L141.028 161.903C140.898 162.55 140.768 163.208 140.648 163.855L157.209 160.347Z" fill="black"/>
<path d="M227.746 77.674C228.408 77.7262 229.048 77.7993 229.678 77.9037L235.668 61.4383C235.039 61.313 234.409 61.1982 233.769 61.0938L227.746 77.674Z" fill="black"/>
<path d="M246.676 91.3718C246.98 91.9878 247.273 92.6351 247.555 93.2929L258.733 78.8113C258.396 78.2266 258.038 77.6627 257.647 77.1094L246.676 91.3718Z" fill="black"/>
<path d="M238.773 81.6752C239.283 82.0511 239.783 82.4479 240.271 82.8759L248.692 67.3606C248.182 66.9743 247.672 66.6089 247.141 66.2539L238.773 81.6752Z" fill="black"/>
<path d="M178.879 111.734L180.051 110.032L171.554 95.8633L170.316 97.4712L178.879 111.734Z" fill="black"/>
<path d="M216.298 202.766C215.788 203.34 215.213 203.893 214.746 204.436L218.816 221.685C219.358 221.215 219.901 220.703 220.422 220.212L216.298 202.766Z" fill="black"/>
<path d="M236.474 173.105C236.191 173.669 235.898 174.223 235.605 174.776L248.183 183.922L249.062 182.262L236.474 173.105Z" fill="black"/>
<path d="M227.293 188.746L226.121 190.458L234.64 204.658C235.052 204.126 235.476 203.614 235.877 203.061L227.293 188.746Z" fill="black"/>
<path d="M243.721 156.406C243.504 156.991 243.298 157.576 243.07 158.15L258.48 161.011C258.697 160.426 258.904 159.841 259.11 159.257L243.721 156.406Z" fill="black"/>
<path d="M248.808 139.089C248.667 139.747 248.526 140.404 248.363 141.052L264.967 137.554C265.087 136.896 265.195 136.249 265.314 135.602L248.808 139.089Z" fill="black"/>
<path d="M267.144 112.996L251.343 121.714C251.343 122.445 251.246 123.176 251.191 123.917L267.144 115.095V114.917C267.144 114.27 267.144 113.633 267.144 112.996Z" fill="black"/>
<path d="M203.755 232.605V214.188C203.125 214.657 202.485 215.117 201.855 215.555V233.681L202.8 233.159C203.114 232.981 203.44 232.783 203.755 232.605Z" fill="black"/>
<path d="M158.411 208.831C158.118 208.195 157.836 207.537 157.565 206.848L146.289 221.465C146.615 222.06 146.962 222.645 147.309 223.209L158.411 208.831Z" fill="black"/>
<path d="M166.149 219.119C165.649 218.722 165.161 218.304 164.683 217.855L156.219 233.433C156.718 233.83 157.228 234.206 157.749 234.571L166.149 219.119Z" fill="black"/>
<path d="M190.306 221.668C189.611 221.919 188.928 222.138 188.244 222.347L184.988 239.856C185.661 239.731 186.334 239.595 187.007 239.438L190.306 221.668Z" fill="black"/>
<path d="M177.23 223.576C176.579 223.514 175.949 223.42 175.32 223.305L169.395 239.697C170.024 239.843 170.653 239.958 171.283 240.062L177.23 223.576Z" fill="black"/>
<path d="M154.574 194.393C154.487 193.642 154.411 192.869 154.346 192.086L140.238 204.751C140.39 205.45 140.542 206.139 140.705 206.839L154.574 194.393Z" fill="black"/>
</g>
<path d="M220.161 308.072L146.648 267.237V228.574L162.124 237.167L181.484 247.932V260.816L200.823 271.549V284.444L220.161 295.177V308.072Z" fill="#263238"/>
<path d="M162.145 237.19L243.363 192.074L262.69 202.818L181.483 247.933L162.145 237.19Z" fill="#455A64"/>
<path d="M181.484 247.928V260.812L262.692 215.697V202.812L181.484 247.928Z" fill="#37474F"/>
<path d="M181.484 260.815L262.692 215.699L282.03 226.443L200.823 271.548L181.484 260.815Z" fill="#455A64"/>
<path d="M200.824 271.546V284.441L282.031 239.326V226.441L200.824 271.546Z" fill="#37474F"/>
<path d="M200.824 284.44L282.031 239.324L301.37 250.068L220.163 295.173L200.824 284.44Z" fill="#455A64"/>
<path d="M220.164 295.175V308.07L301.371 262.954V250.07L220.164 295.175Z" fill="#37474F"/>
<path d="M243.418 115.453C241.801 151.997 218.685 195.473 191.815 212.492C181.831 218.809 172.737 220.594 165.314 218.454C157.718 211.782 153.377 199.002 154.136 181.472C155.764 144.928 178.879 101.452 205.739 84.4438C215.734 78.1165 224.849 76.3416 232.262 78.4924C239.901 85.1746 244.199 97.9126 243.418 115.453Z" fill="#FF5555"/>
<path opacity="0.9" d="M243.418 115.453C241.801 151.997 218.685 195.473 191.815 212.492C181.831 218.809 172.737 220.594 165.314 218.454C157.718 211.782 153.377 199.002 154.136 181.472C155.764 144.928 178.879 101.452 205.739 84.4438C215.734 78.1165 224.849 76.3416 232.262 78.4924C239.901 85.1746 244.199 97.9126 243.418 115.453Z" fill="white"/>
<path opacity="0.1" d="M191.695 193.758C183.306 194.692 175.544 198.489 169.817 204.46C166.723 207.655 164.2 211.321 162.351 215.308C163.244 216.432 164.235 217.48 165.313 218.441C166.911 218.89 168.557 219.163 170.219 219.255C170.653 218.211 170.978 217.115 171.358 216.06C173.235 211.15 176.579 206.883 180.97 203.797C185.362 200.711 190.603 198.944 196.036 198.718C199.758 198.624 203.448 199.271 207.149 199.553C208.614 197.997 210.046 196.421 211.49 194.708C204.935 194.385 198.174 193.132 191.695 193.758ZM190.089 140.29C197.686 141.24 205.977 141.647 212.618 137.909C220.139 133.67 223.709 125.265 227.334 117.654C230.709 110.585 235.321 103.12 242.69 100.385C241.16 90.497 237.492 83.0526 232.25 78.4585C228.675 77.4686 224.906 77.3147 221.257 78.0096C217.58 82.0598 214.901 86.8567 213.421 92.0422C211.685 97.8892 211.077 104.102 208.288 109.541C205.448 115.011 200.627 119.292 194.734 121.58C190.089 123.355 185.043 123.783 180.105 124.514C176.661 125.003 173.256 125.722 169.915 126.665C167.337 131.59 165.04 136.648 163.034 141.814C164.367 141.159 165.753 140.61 167.18 140.175C174.549 137.993 182.492 139.35 190.089 140.29ZM197.859 103.747C200.29 99.7059 201.115 94.997 202.45 90.497C202.927 88.816 203.535 87.1767 204.099 85.5375C202.363 86.7139 200.641 87.9946 198.934 89.3798C196.481 95.1119 194.094 100.865 189.568 105.187C187.261 107.362 184.507 109.047 181.483 110.136C180.912 110.32 180.323 110.45 179.725 110.523C178.618 112.089 177.533 113.69 176.469 115.326C178.918 115.137 181.344 114.738 183.719 114.135C189.598 112.438 194.631 108.732 197.87 103.715L197.859 103.747ZM243.439 110.084C241.316 111.142 239.394 112.537 237.752 114.208C233.715 118.468 231.544 123.992 229.07 129.254C225.619 136.75 221.116 144.383 213.617 148.267C208.625 150.846 202.764 151.493 197.154 151.639C186.464 151.921 175.612 150.595 165.161 152.798C162.909 153.272 160.707 153.946 158.585 154.813C157.862 157.312 157.229 159.801 156.686 162.279C159.119 161.039 161.694 160.076 164.358 159.407C179.801 155.649 196.915 163.897 211.707 158.363C222.559 154.281 229.168 143.913 234.496 133.952C236.667 129.891 239 125.6 242.744 122.906C243.033 120.421 243.236 117.957 243.352 115.514C243.493 113.582 243.514 111.797 243.482 110.053L243.439 110.084ZM204.913 170.945C196.557 171.237 188.212 170.485 179.855 170.37C175.574 170.146 171.282 170.569 167.137 171.623C163.508 172.804 160.094 174.527 157.022 176.729C156.078 177.376 155.167 178.045 154.266 178.723C154.201 179.652 154.136 180.571 154.092 181.48C153.626 192.077 155.026 200.921 157.88 207.749C159.724 206.209 161.365 204.455 162.763 202.529C168.504 195.063 174.039 186.805 182.742 182.806C192.086 178.514 203.101 180.049 213.259 178.086C217.702 177.213 221.971 175.658 225.901 173.482C227.507 170.586 229.023 167.635 230.448 164.628C230.014 164.878 229.569 165.119 229.124 165.359C221.778 169.232 213.302 170.621 204.957 170.913L204.913 170.945Z" fill="#FF5555"/>
<path d="M293.334 99.5391C293.334 103.089 292.64 106.242 288.125 107.004C292.748 107.192 293.074 110.137 293.334 114.25C293.486 110.168 293.888 107.192 298.076 107.004C293.757 106.315 293.334 103.089 293.334 99.5391Z" fill="#FF5555"/>
<path d="M188.006 288.527C188.006 292.077 187.311 295.23 182.797 295.993C187.42 296.181 187.745 299.125 188.006 303.239C188.158 299.146 188.559 296.181 192.748 295.993C188.407 295.293 188.006 292.077 188.006 288.527Z" fill="#FF5555"/>
<path d="M154.068 179.148C154.068 180.704 153.764 182.072 151.789 182.406C153.808 182.49 153.96 183.795 154.068 185.538C154.133 183.753 154.307 182.406 156.141 182.406C154.242 182.103 154.068 180.704 154.068 179.148Z" fill="#FF5555"/>
<path d="M145.19 185.258C145.19 188.797 144.484 191.95 139.98 192.713C144.604 192.901 144.929 195.845 145.19 199.969C145.331 195.876 145.732 192.911 149.932 192.713C145.591 192.076 145.19 188.797 145.19 185.258Z" fill="#E0E0E0"/>
<path d="M140.959 167.465C140.959 169.292 140.601 170.9 138.289 171.297C140.655 171.391 140.828 172.915 140.959 175.014C141.035 172.925 141.241 171.391 143.4 171.297C141.165 170.942 140.959 169.292 140.959 167.465Z" fill="#E0E0E0"/>
<path d="M280.802 88.8672C280.802 90.9554 280.747 92.9392 277.633 93.409C280.888 93.409 280.671 95.3615 280.834 97.8673C280.921 95.3615 281.149 93.5656 283.721 93.4508C281.062 93.0227 281.138 91.8429 280.802 88.8672Z" fill="#E0E0E0"/>
<path d="M307.865 185.496C307.637 189.411 307.312 191.103 303.633 191.573C307.377 191.771 307.692 194.162 307.909 197.493C308.028 194.162 308.332 191.74 311.75 191.573C308.234 191.03 308.147 189.464 307.865 185.496Z" fill="#E0E0E0"/>
<path d="M173.049 288.559C172.919 290.845 172.735 291.827 170.586 292.109C172.756 292.223 172.952 293.602 173.082 295.544C173.147 293.602 173.321 292.192 175.318 292.109C173.299 291.774 173.212 290.876 173.049 288.559Z" fill="#E0E0E0"/>
<path d="M300.179 95.9062C300.179 97.1696 300.179 98.3808 298.258 98.6627C300.255 98.6627 300.103 99.8425 300.2 101.356C300.255 99.8425 300.385 98.7566 301.937 98.6836C300.331 98.4225 300.374 97.7125 300.179 95.9062Z" fill="#E0E0E0"/>
<path d="M304.272 196.879C304.272 198.132 304.272 199.343 302.352 199.625C304.338 199.625 304.186 200.815 304.283 202.329C304.338 200.815 304.479 199.719 306.03 199.656C304.424 199.385 304.468 198.675 304.272 196.879Z" fill="#E0E0E0"/>
<path d="M183.065 283.582C183.065 284.835 183.065 286.046 181.145 286.328C183.141 286.328 182.989 287.508 183.087 289.022C183.141 287.508 183.282 286.422 184.834 286.349C183.25 286.098 183.293 285.378 183.065 283.582Z" fill="#E0E0E0"/>
<path d="M456.023 256.094L490.197 237.112L541.788 265.762L566.542 252.012L514.962 223.362L531.717 214.048L504.587 198.961L487.831 208.274L457.922 191.684L433.158 205.445L463.034 222.077L399.32 257.41L419.256 268.477L580.064 310.011L583.189 308.278C584.723 302.347 585.993 296.295 586.999 290.121L456.023 256.094Z" fill="#45555C"/>
<path d="M459.24 110.452L457.959 111.162V71.048L442.484 62.455L423.34 73.084L439.13 15.9718L423.666 7.37891L397.046 22.1633L354.027 176.919V199.107L369.492 207.699L417.773 180.866V196.851L433.249 205.444L457.926 191.683V158.522L474.671 149.22V119.045L459.24 110.452ZM417.773 133.516L404.675 140.825L417.773 93.4021V133.516Z" fill="#FF5555"/>
<path opacity="0.3" d="M459.24 110.452L457.959 111.162V71.048L442.484 62.455L423.34 73.084L439.13 15.9718L423.666 7.37891L397.046 22.1633L354.027 176.919V199.107L369.492 207.699L417.773 180.866V196.851L433.249 205.444L457.926 191.683V158.522L474.671 149.22V119.045L459.24 110.452ZM417.773 133.516L404.675 140.825L417.773 93.4021V133.516Z" fill="black"/>
<path d="M457.945 128.349V71.0488L433.191 84.7996V142.11L399.006 161.092L439.127 15.9727L412.506 30.7571L369.488 185.513V207.658L433.191 172.284V205.445L457.945 191.684V158.523L474.701 149.22V119.046L457.945 128.349Z" fill="#FF5555"/>
<path opacity="0.3" d="M457.945 128.349V71.0488L433.191 84.7996V142.11L399.006 161.092L439.127 15.9727L412.506 30.7571L369.488 185.513V207.658L433.191 172.284V205.445L457.945 191.684V158.523L474.701 149.22V119.046L457.945 128.349Z" fill="white"/>
<path d="M439.132 15.9718L423.667 7.37891L397.047 22.1633L412.511 30.7563L439.132 15.9718Z" fill="#FF5555"/>
<path opacity="0.5" d="M439.132 15.9718L423.667 7.37891L397.047 22.1633L412.511 30.7563L439.132 15.9718Z" fill="white"/>
<path d="M442.485 62.457L457.949 71.0499L433.195 84.8007L421.844 78.4944L423.341 73.0859L442.485 62.457Z" fill="#FF5555"/>
<path opacity="0.5" d="M442.485 62.457L457.949 71.0499L433.195 84.8007L421.844 78.4944L423.341 73.0859L442.485 62.457Z" fill="white"/>
<path d="M433.196 142.109L417.721 133.516L404.622 140.793L399.012 161.09L433.196 142.109Z" fill="#FF5555"/>
<path opacity="0.5" d="M433.196 142.109L417.721 133.516L404.622 140.793L399.012 161.09L433.196 142.109Z" fill="white"/>
<path d="M474.705 119.046L459.241 110.453L457.949 111.163V128.349L474.705 119.046Z" fill="#FF5555"/>
<path opacity="0.5" d="M457.949 128.349L474.705 119.046L459.241 110.453L457.949 111.163V128.349Z" fill="white"/>
<path d="M369.492 185.513L354.027 176.92L397.046 22.1641L412.51 30.757L369.492 185.513Z" fill="#FF5555"/>
<path opacity="0.15" d="M369.492 185.513L354.027 176.92L397.046 22.1641L412.51 30.757L369.492 185.513Z" fill="black"/>
<path d="M177.692 389.279L150.529 374.191L133.784 383.494L103.929 366.914L79.1645 380.665L109.019 397.245L45.3164 432.63L65.2519 443.707L226.071 485.242L252.691 470.457L101.998 431.324L136.182 412.332L187.763 440.993L212.527 427.232L160.936 398.582L177.692 389.279Z" fill="#41535B"/>
<path d="M105.212 285.673L103.932 286.394V246.238L88.4564 237.645L69.3131 248.326L85.1031 191.214L69.6387 182.621L43.0182 197.385L0 352.151V374.296L15.5078 382.889L63.7459 356.098V372.073L79.2103 380.665L103.975 366.915V333.744L120.72 324.441V294.266L105.212 285.673ZM63.7025 308.738L50.6039 316.046L63.7025 268.665V308.738Z" fill="#FF5555"/>
<path opacity="0.3" d="M105.212 285.673L103.932 286.394V246.238L88.4564 237.645L69.3131 248.326L85.1031 191.214L69.6387 182.621L43.0182 197.385L0 352.151V374.296L15.5078 382.889L63.7459 356.098V372.073L79.2103 380.665L103.975 366.915V333.744L120.72 324.441V294.266L105.212 285.673ZM63.7025 308.738L50.6039 316.046L63.7025 268.665V308.738Z" fill="black"/>
<path d="M103.928 303.578V246.268L79.1635 260.018V317.329L44.979 336.311L85.1105 191.191L58.49 205.976L15.4609 360.732V382.888L79.1635 347.503V380.664L103.928 366.913V333.742L120.673 324.439V294.265L103.928 303.578Z" fill="#FF5555"/>
<path opacity="0.3" d="M103.928 303.578V246.268L79.1635 260.018V317.329L44.979 336.311L85.1105 191.191L58.49 205.976L15.4609 360.732V382.888L79.1635 347.503V380.664L103.928 366.913V333.742L120.673 324.439V294.265L103.928 303.578Z" fill="white"/>
<path d="M85.1153 191.191L69.64 182.598L43.0195 197.382L58.4948 205.975L85.1153 191.191Z" fill="#FF5555"/>
<path opacity="0.5" d="M85.1153 191.191L69.64 182.598L43.0195 197.382L58.4948 205.975L85.1153 191.191Z" fill="white"/>
<path d="M88.4573 237.676L103.933 246.269L79.1678 260.019L67.8164 253.724L69.314 248.315L88.4573 237.676Z" fill="#FF5555"/>
<path opacity="0.5" d="M88.4573 237.676L103.933 246.269L79.1678 260.019L67.8164 253.724L69.314 248.315L88.4573 237.676Z" fill="white"/>
<path d="M79.1689 317.327L63.7045 308.734L50.6058 316.012L44.9844 336.309L79.1689 317.327Z" fill="#FF5555"/>
<path opacity="0.5" d="M79.1689 317.327L63.7045 308.734L50.6058 316.012L44.9844 336.309L79.1689 317.327Z" fill="white"/>
<path d="M120.675 294.265L105.21 285.672L103.93 286.392V303.578L120.675 294.265Z" fill="#FF5555"/>
<path opacity="0.5" d="M103.93 303.578L120.675 294.265L105.21 285.672L103.93 286.392V303.578Z" fill="white"/>
<path d="M15.4644 360.732L0 352.149L43.0182 197.383L58.4935 205.976L15.4644 360.732Z" fill="#FF5555"/>
<path opacity="0.15" d="M15.4644 360.732L0 352.149L43.0182 197.383L58.4935 205.976L15.4644 360.732Z" fill="black"/>
<path d="M366.207 366.039C361.879 364.139 357.3 362.821 352.598 362.124C349.722 361.665 346.784 361.689 343.916 362.197C341.874 362.598 339.896 363.258 338.034 364.16C331.653 367.208 330.731 370.602 330.525 373.473C330.319 376.344 331.968 380.186 337.242 383.736L427.761 444.743C444.237 436.298 459.549 425.901 473.34 413.796C434.011 396.213 369.831 367.532 366.207 366.039Z" fill="#323D42"/>
<path d="M395.164 237.648C400.72 238.693 402.891 239.058 405.55 243.485C408.208 247.912 412.723 264.367 413.96 267.781C415.197 271.195 415.566 272.438 415.045 276.238C414.514 280.206 412.083 287.254 411.063 291.117C410.585 292.902 410.27 294.646 409.923 296.473C409.443 298.343 408.826 300.178 408.078 301.965C407.758 302.836 407.199 303.608 406.461 304.199C406.005 304.586 405.376 304.627 404.942 304.982C404.508 305.337 404.388 305.964 403.781 306.256C403.173 306.548 402.327 306.381 401.73 306.715C401.141 307.131 400.529 307.514 399.896 307.864C399.313 308.027 398.78 308.325 398.344 308.731C397.953 309.138 397.584 310.057 396.879 309.984C396.173 309.91 395.967 309.18 395.935 308.553C395.959 307.324 396.393 306.135 397.172 305.16C397.864 304.074 398.621 303.028 399.44 302.027C400.237 301.099 400.808 300.011 401.111 298.843C401.361 298.06 401.285 297.068 400.232 297.517C399.006 298.06 397.703 299.188 396.228 298.937C395.207 298.77 395.142 297.997 395.739 297.35C396.721 296.283 397.62 295.149 398.431 293.957C399.255 292.735 399.939 291.451 400.796 290.261C401.259 289.642 401.763 289.053 402.305 288.496C403.802 286.93 403.737 284.789 403.911 282.795C404.15 280.028 404.356 272.929 404.356 272.929L397.628 256.985L395.164 237.648Z" fill="#FFBDA7"/>
<path d="M403.92 282.794C403.985 279.506 404.126 276.217 404.257 272.928C402.086 267.853 399.764 262.268 397.637 256.984C399.981 262.268 402.26 267.575 404.474 272.907C404.3 276.206 404.148 279.506 403.92 282.794Z" fill="white"/>
<path d="M357.654 361.462C359.564 360.815 360.985 360.752 360.964 361.66C360.705 362.78 360.292 363.861 359.737 364.876L358.218 366.891L357.491 368.875C357.491 368.875 356.601 369.919 356.547 370.023C356.492 370.128 356.199 366.317 356.199 366.317C356.199 366.317 355.125 361.932 357.654 361.462Z" fill="#323D42"/>
<path d="M378.16 283.949C378.16 283.949 373.82 288.908 371.248 298.201C368.875 306.837 367.062 315.607 365.821 324.46C365.203 328.417 364.204 333.408 362.729 341.165C361.589 347.137 358.008 365.451 358.008 365.451C358.008 365.451 360.07 368.75 362.566 369.753C366.147 371.193 369.598 370.536 370.054 367.456C370.054 367.456 372.42 363.822 376.012 354.446C377.739 350.142 379.117 345.716 380.135 341.207C380.491 338.377 380.596 335.524 380.45 332.677L394.862 308.568C396.455 305.927 398.363 303.474 400.549 301.26C401.898 299.93 402.958 298.354 403.663 296.624C406.051 290.359 402.578 281.934 402.578 281.934L378.16 283.949Z" fill="#323D42"/>
<path d="M365.872 324.453C363.55 338.183 360.891 351.861 358.059 365.497C360.555 351.798 363.224 338.131 365.872 324.453Z" fill="white"/>
<path d="M360.255 376.051L359.484 375.904C359.539 375.623 365.312 347.035 369.349 335.028C373.386 323.021 383.967 299.174 384.076 298.934L384.803 299.236C384.694 299.466 374.135 323.303 370.109 335.268C366.082 347.234 360.32 375.769 360.255 376.051Z" fill="black"/>
<path d="M397.128 291.98H373.459C372.593 294.003 371.868 296.078 371.288 298.193C369.1 306.144 367.415 314.216 366.242 322.364C366.817 326.091 367.469 329.923 368.065 332.554C369.661 339.508 370.659 344.415 371.918 347.286C373.133 349.714 374.567 352.033 376.205 354.219C377.89 350.002 379.236 345.667 380.231 341.251C380.586 338.422 380.691 335.568 380.545 332.721L394.653 309.177L395.663 305.47C399.168 299.863 398.766 295.656 397.128 291.98Z" fill="black"/>
<path d="M338.247 370.726C337.823 370.538 337.302 372.136 337.259 372.71C337.216 373.284 338.344 375.623 341.307 377.346C344.27 379.069 349.359 380.029 351.269 380.603C353.179 381.178 354.709 382.692 357.227 383.871C359.463 384.916 362.838 385.469 364.314 384.832C364.598 384.669 364.843 384.448 365.03 384.185C365.218 383.921 365.343 383.622 365.399 383.308C365.8 382.128 365.768 381.856 365.616 381.815L338.247 370.726Z" fill="#37474F"/>
<path d="M366.67 379.203C366.475 380.409 366.06 381.572 365.443 382.638C365.012 382.951 364.52 383.177 363.996 383.305C363.473 383.432 362.928 383.458 362.394 383.38C360.096 383.221 357.883 382.479 355.98 381.229C354.527 380.319 352.959 379.593 351.314 379.068C349.05 378.542 346.827 377.866 344.661 377.042C343.046 376.385 341.542 375.498 340.201 374.411C339.116 373.429 338.107 372.323 338.215 370.944C338.459 370.077 338.975 369.303 339.694 368.729C340.413 368.155 341.299 367.809 342.23 367.739C344.013 367.652 345.796 367.911 347.472 368.501C349.1 369.032 350.786 369.382 352.497 369.545C353.669 369.639 355.047 370.589 355.958 369.598C357.044 368.449 357.467 365.734 358.194 364.377C358.313 364.158 358.476 363.918 358.726 363.865C358.975 363.813 359.388 364.106 359.616 364.398C360.678 365.674 362.039 366.69 363.588 367.363C367.777 369.357 369.719 368.303 369.719 368.303L370.11 367.468C370.11 367.468 370.945 367.917 369.882 369.796C368.985 371.341 368.229 372.959 367.625 374.63C367.097 376.107 366.776 377.645 366.67 379.203Z" fill="#455A64"/>
<path d="M338.25 370.945C339.563 366.267 345.076 367.52 348.636 368.7C349.897 369.127 351.203 369.418 352.532 369.566C351.189 369.508 349.861 369.28 348.581 368.888C345.065 367.844 339.78 366.507 338.25 370.976V370.945Z" fill="white"/>
<path d="M348.252 368.711C346.461 368.868 345.973 371.655 345.973 371.655C347.577 372.484 349.323 373.029 351.127 373.263C352.382 373.472 353.673 373.223 354.747 372.565C355.821 371.906 356.601 370.886 356.933 369.703C357.693 367.375 356.999 364.117 356.857 363.063C356.775 362.7 356.842 362.321 357.045 362.006C357.247 361.69 357.569 361.463 357.943 361.371C357.635 361.399 357.337 361.487 357.067 361.63C356.797 361.773 356.56 361.968 356.372 362.204C356.184 362.439 356.048 362.709 355.972 362.997C355.897 363.284 355.884 363.584 355.935 363.877C355.989 365.13 355.935 367.604 355.382 368.429C354.828 369.254 352.061 369.619 348.252 368.711Z" fill="#455A64"/>
<path d="M393.116 283.953C395.722 286.917 397.247 290.622 397.456 294.499C397.635 298.265 396.407 301.969 393.995 304.94C393.094 317.636 390.489 342.078 390.489 342.078C393.973 345.524 394.83 347.758 396.892 353.939C398.118 357.698 402.72 369.778 403.859 373.14C397.76 373.861 394.44 379.697 394.44 379.697C394.44 379.697 383.696 364.433 378.53 355.453C374.699 348.813 372.93 346.391 371.791 342.465C370.38 337.568 370 335.041 368.741 326.803C367.483 318.565 366.278 308.083 365.659 299.959C365.041 291.836 364.574 283.254 364.574 283.254L393.116 283.953Z" fill="#323D42"/>
<path d="M394.481 379.665C388.219 370.79 382.077 361.811 376.694 352.414C374.924 349.674 373.402 346.792 372.147 343.8C371.143 340.726 370.374 337.585 369.846 334.403C367.076 317.44 365.323 300.337 364.594 283.18L365.505 296.022C366.33 308.875 367.99 321.665 370.118 334.361C370.888 338.538 371.691 342.85 373.666 346.692C380.001 358.032 386.948 369.045 394.481 379.686V379.665Z" fill="white"/>
<path d="M379.3 346.033C376.142 338.286 372.355 296.115 372.55 281.539H371.758C371.693 286.415 372.073 294.361 372.724 303.079C370.152 301.826 368.491 299.529 368.491 287.981H367.699C367.699 299.591 369.273 302.4 372.789 303.956C374.113 321.225 376.479 341.199 378.562 346.325C381.655 353.905 397.792 379.517 397.944 379.736L398.628 379.34C398.465 379.11 382.371 353.561 379.3 346.033Z" fill="black"/>
<path d="M393.593 378.367C392.627 379.683 391.531 380.612 394.277 382.366C396.447 383.713 396.523 384.799 397.185 386.24C397.616 387.645 397.793 389.11 397.706 390.573C397.706 390.573 401.353 385.279 400.289 381.865C399.226 378.451 393.593 378.367 393.593 378.367Z" fill="#455A64"/>
<path d="M405.281 375.338C406.308 376.381 407.516 377.243 408.851 377.886C409.773 378.439 410.728 378.93 411.021 379.974C411.021 380.089 410.479 380.716 410.49 380.83C410.537 381.328 410.518 381.83 410.435 382.323C410.229 384.046 409.253 385.32 409.035 387.032C408.964 387.716 408.837 388.393 408.656 389.058C408.499 389.867 408.43 390.689 408.449 391.511C408.395 392.368 408.33 393.224 408.287 394.08C408.238 394.444 408.238 394.812 408.287 395.176C408.363 395.542 402.307 398.476 399.865 399.603C399.721 399.671 399.572 399.73 399.42 399.781C397.931 400.171 396.344 400.022 394.96 399.363C390.098 397.661 390.402 395.97 390.402 395.97C390.427 395.269 390.657 394.59 391.066 394.01C391.475 393.43 392.046 392.972 392.714 392.691C393.01 392.526 393.322 392.389 393.647 392.284C394.857 391.852 396.176 391.79 397.424 392.107C397.67 391.412 397.784 390.679 397.76 389.945C397.86 388.848 397.878 387.746 397.814 386.646C397.599 385.404 397.098 384.223 396.349 383.19C395.318 381.822 394.179 380.058 393.495 379.097C392.811 378.137 392.627 375.819 396.675 373.031C400.56 370.369 403.403 370.943 403.957 372.039C404.265 373.184 404.709 374.291 405.281 375.338Z" fill="#455A64"/>
<path d="M390.336 395.981C390.336 392.755 394.612 391.136 397.401 392.086C394.547 391.575 390.748 392.849 390.336 395.981Z" fill="white"/>
<path opacity="0.1" d="M394.828 393.778C395.152 392.981 395.765 392.325 396.554 391.93C396.839 391.961 397.122 392.014 397.4 392.086C396.912 392.535 395.165 393.203 394.828 393.778Z" fill="black"/>
<path d="M411.585 380.987C412.67 381.425 411.769 383.075 410.499 385.633C409.352 387.524 408.894 389.728 409.197 391.898C409.458 394.163 408.904 395.27 407.884 396.074C406.864 396.878 399.289 400.063 399.289 400.063C401.09 397.874 402.134 395.198 402.273 392.409C402.686 387.419 403.185 384.213 405.768 382.031C406.571 381.406 407.523 380.983 408.539 380.801C409.554 380.618 410.601 380.682 411.585 380.987Z" fill="black"/>
<path d="M390.338 395.971C390.457 396.952 393.354 398.936 396.773 398.894C400.191 398.852 400.484 398.153 401.016 394.3C401.548 390.448 401.917 385.091 403.653 382.815C405.39 380.539 407.669 379.161 411 379.996C411.38 380.174 412.411 381.165 412.031 382.084C412.031 382.084 412.031 381.353 410.664 380.967C409.492 380.643 408.092 380.675 406.138 382.304C403.849 384.193 403.338 388.652 403.078 392.473C402.818 396.294 401.58 399.959 398.292 400.304C396.873 400.489 395.429 400.373 394.06 399.966C392.692 399.558 391.433 398.868 390.37 397.944C390.164 397.303 390.153 396.618 390.338 395.971Z" fill="#37474F"/>
<path d="M370.732 213.675C370.289 213.075 370.016 212.375 369.94 211.642C369.864 210.91 369.987 210.171 370.298 209.499C370.851 208.141 372.002 206.711 375.355 205.04C379.349 203.057 390.309 201.637 395.735 208.538C396.517 209.582 385.73 229.055 386.261 233.095C383.461 230.266 374.226 220.316 374.226 220.316C372.056 219.418 370.71 218.656 370.243 216.672C370.075 215.648 370.246 214.6 370.732 213.675Z" fill="#323D42"/>
<path d="M374.227 220.264C370.972 219.439 368.899 216.693 370.733 213.645C369.344 216.777 371.2 219.053 374.227 220.264Z" fill="white"/>
<path d="M370.736 213.675C369.368 212.234 369.705 209.916 370.736 208.371C371.933 206.872 373.531 205.713 375.359 205.02C374.525 205.481 373.721 205.99 372.95 206.544C370.682 208.058 368.989 211.242 370.779 213.675H370.736Z" fill="white"/>
<path d="M372.383 219.223C372.383 219.223 369.421 223.869 369.757 224.255C370.438 224.777 371.164 225.241 371.928 225.644L372.383 219.223Z" fill="#F0997A"/>
<path d="M372.385 219.223C371.647 220.716 370.757 222.125 370.03 223.608C369.932 223.848 369.726 224.13 369.867 224.297C370.053 224.504 370.273 224.68 370.518 224.819C370.225 224.662 369.737 224.537 369.672 224.161C370.269 222.375 371.187 220.704 372.385 219.223Z" fill="white"/>
<path d="M376.052 210.722C374.066 211.631 372.351 213.093 371.711 217.279C371.548 218.376 372.438 219.869 372.037 221.32C370.311 227.585 372.362 232.805 373.621 233.901C374.468 234.674 378.917 235.019 381.218 234.392C384.137 233.609 390.486 230.853 393.513 226.457C397.073 221.236 397.854 214.345 393.937 211.558C388.413 207.632 378.168 209.762 376.052 210.722Z" fill="#FFBDA7"/>
<path d="M371.732 217.277C371.732 218.697 372.6 220.086 372.101 221.537C371.178 225.578 371.113 230.381 373.642 233.899C370.864 230.496 370.864 225.547 371.927 221.495C372.426 220.117 371.602 218.708 371.732 217.319V217.277Z" fill="white"/>
<path d="M391.235 229.406L392.385 237.101C394.176 237.467 394.339 239.503 393.471 241.037L393.894 243.209L381.653 245.318L380.285 234.554L391.235 229.406Z" fill="#FFBDA7"/>
<path d="M373.883 234.056C374.968 234.609 377.193 235.016 380.296 234.599L380.112 233.074C379.127 233.43 378.115 233.709 377.084 233.909C376.03 234.11 374.952 234.16 373.883 234.056Z" fill="#F0997A"/>
<path d="M373.125 212.954C373.042 213.857 373.288 214.76 373.821 215.509C374.353 216.257 375.139 216.804 376.044 217.057C375.561 218.057 375.38 219.168 375.523 220.263C375.564 220.909 375.796 221.531 376.192 222.054C376.589 222.578 377.132 222.982 377.759 223.217C378.616 223.499 378.844 223.134 379.181 222.476C379.615 221.547 380.168 220.127 382.241 220.388C384.618 220.701 385.247 224.147 383.858 226.402C383.591 226.879 383.208 227.286 382.741 227.588C382.273 227.89 381.737 228.078 381.177 228.135C380.869 228.131 380.566 228.063 380.287 227.937C380.008 227.811 379.761 227.63 379.56 227.404C379.56 227.404 379.712 230.411 383.739 232.197C386.257 233.485 389.174 233.856 391.954 233.241C393.825 231.241 395.589 229.15 397.239 226.976C401.58 220.879 402.502 209.717 395.068 207.713C394.71 207.619 387.949 206.668 384.65 207.399C374.482 209.488 373.147 212.484 373.125 212.954Z" fill="#323D42"/>
<path d="M391.474 206.928C390.575 207.551 389.958 208.481 389.748 209.528C389.655 210.05 389.707 210.586 389.897 211.083C390.088 211.579 390.41 212.019 390.833 212.358C393.004 213.997 396.39 212.086 396.791 209.664C397.247 206.803 393.666 205.362 391.474 206.928Z" fill="#FF5555"/>
<path d="M393.246 207.84C391.021 209.155 389.632 212.256 390.815 214.491C391.14 215.096 391.596 215.639 391.9 216.276C392.757 218.312 391.509 220.557 391.238 222.739C391.052 224.471 391.364 226.219 392.139 227.792C392.877 228.951 394.505 229.244 395.156 230.455C395.601 231.29 395.297 232.313 395.47 233.243C395.85 235.237 398.303 236.197 400.419 236.239C401.314 236.315 402.215 236.201 403.059 235.905C403.903 235.61 404.669 235.139 405.303 234.527C405.788 233.802 406.317 233.104 406.887 232.439C408.146 231.301 410.143 231.394 411.532 230.35C412.046 229.914 412.448 229.37 412.708 228.759C412.967 228.149 413.078 227.49 413.029 226.832C412.901 225.514 412.534 224.227 411.944 223.031C411.043 220.943 411.76 219.596 412.215 217.477C412.429 216.332 412.232 215.151 411.656 214.129C411.08 213.106 410.16 212.302 409.047 211.849C407.516 211.264 405.65 211.358 404.413 210.304C403.826 209.635 403.275 208.938 402.763 208.216C400.441 205.762 395.861 206.305 393.246 207.84Z" fill="#323D42"/>
<path d="M401.98 243.401C401.493 242.125 400.72 240.967 399.717 240.009C398.714 239.052 397.505 238.317 396.174 237.857C395.089 237.544 392.387 237.105 392.387 237.105C393.006 238.463 391.964 239.361 390.13 239.768C387.775 240.3 384.183 240.353 381.741 238.797L380.743 238.202C378.078 238.832 375.448 239.592 372.864 240.478C372.332 240.718 369.391 241.668 364.768 251.66C362.793 255.931 363.379 260.264 367.015 263.344C367.221 266.048 365.408 272.135 365.408 272.135C364.487 277.215 364.275 282.391 364.779 287.525C364.779 287.525 366.949 293.059 384.161 292.996C397.477 292.996 404.173 286.731 404.173 286.731C404.01 283.599 398.888 272.605 399.398 268.909C400.19 263.521 405.323 253.863 401.98 243.401Z" fill="#FF5555"/>
<path d="M372.862 240.477C376.367 243.223 376.639 246.992 376.118 252.077C375.597 257.161 370.29 273.052 369.205 276.508C368.12 279.964 366.568 281.165 363.833 283.963C361.098 286.761 354.706 291.209 351.527 293.757C350.051 294.937 348.738 296.169 347.338 297.453C345.808 298.694 344.191 299.831 342.498 300.857C341.706 301.378 340.785 301.688 339.828 301.755C339.22 301.755 338.688 301.483 338.113 301.525C337.538 301.567 337.028 302.005 336.399 301.901C335.769 301.796 335.14 301.18 334.456 301.107C333.731 301.117 333.007 301.086 332.286 301.013C331.714 300.809 331.098 300.748 330.495 300.836C329.931 300.94 329.073 301.473 328.542 301.024C328.01 300.575 328.303 299.854 328.65 299.322C329.418 298.325 330.498 297.593 331.732 297.234C332.953 296.748 334.204 296.333 335.476 295.991C336.674 295.682 337.785 295.122 338.732 294.352C339.405 293.861 339.947 293.005 338.829 292.786C337.506 292.525 335.758 292.702 334.706 291.669C333.989 290.959 334.413 290.301 335.292 290.113C336.736 289.806 338.155 289.394 339.535 288.881C340.946 288.359 342.28 287.701 343.702 287.221C344.46 286.985 345.232 286.794 346.014 286.647C348.184 286.218 349.432 284.454 350.778 282.94C352.666 280.852 355.911 276.863 358.114 274.003L361.445 258.498C363.551 250.082 364.289 243.024 372.862 240.477Z" fill="#FFBDA7"/>
<path d="M376.095 252.075C375.248 256.669 374.085 261.204 372.611 265.649C372.503 266.014 372.384 266.369 372.275 266.693C370.94 271.047 369.649 274.972 369.171 276.497C368.195 279.629 366.816 280.924 364.527 283.221L363.799 283.952C360.945 286.865 354.673 291.198 351.493 293.756C350.028 294.935 348.704 296.157 347.315 297.441C345.782 298.686 344.161 299.827 342.464 300.856C341.671 301.373 340.75 301.679 339.794 301.743C339.187 301.795 338.655 301.472 338.08 301.513C337.505 301.555 336.994 301.994 336.365 301.889C335.736 301.785 335.106 301.169 334.422 301.106C333.697 301.112 332.973 301.077 332.252 301.002C331.679 300.802 331.064 300.742 330.461 300.824C330.288 300.824 330.082 300.939 329.865 301.012L329.593 301.096C329.471 301.139 329.343 301.167 329.213 301.179C329.092 301.203 328.967 301.2 328.847 301.171C328.726 301.142 328.615 301.088 328.519 301.012C327.922 300.511 328.269 299.853 328.617 299.321C329.384 298.324 330.464 297.591 331.699 297.232C332.92 296.744 334.17 296.325 335.443 295.98C336.64 295.67 337.752 295.111 338.698 294.34C339.371 293.85 339.914 293.004 338.796 292.774C337.472 292.513 335.725 292.691 334.683 291.667C333.956 290.947 334.379 290.289 335.258 290.101C336.703 289.796 338.122 289.384 339.501 288.869C340.912 288.347 342.258 287.689 343.669 287.22C344.424 286.977 345.197 286.785 345.98 286.645C348.151 286.217 349.399 284.442 350.744 282.939C352.632 280.851 355.877 276.852 358.091 273.991L361.412 258.486C363.517 250.029 364.288 242.971 372.828 240.434C373.71 241.121 374.447 241.965 374.999 242.919C376.453 245.383 376.486 248.379 376.095 252.075Z" fill="#FFBDA7"/>
<path d="M328.477 301.027C328.275 300.83 328.155 300.568 328.139 300.291C328.123 300.014 328.212 299.742 328.391 299.524C329.204 298.01 330.973 297.362 332.536 296.851C333.575 296.381 334.668 296.031 335.792 295.807C336.858 295.489 337.86 294.999 338.754 294.355C337.909 295.086 336.92 295.647 335.846 296.005C333.679 296.517 331.596 297.318 329.66 298.386C328.944 298.939 327.696 300.098 328.521 300.985L328.477 301.027Z" fill="white"/>
<path d="M334.706 291.71C333.36 290.228 335.965 290.04 336.942 289.727C339.525 289.09 341.804 287.722 344.343 287.033C345.645 286.841 346.891 286.389 348 285.707C349.769 284.36 351.668 281.656 353.133 279.954L358.017 273.971C359.102 268.751 360.827 260.617 362.119 255.313C363.497 249.049 365.613 242.356 372.863 240.477C365.722 242.429 363.638 249.08 362.314 255.355C361.012 260.742 359.449 268.625 358.223 274.149L353.296 280.121C351.788 281.833 349.932 284.485 348.098 285.874C346.973 286.559 345.713 287.01 344.397 287.2C341.858 287.879 339.546 289.215 336.963 289.81C335.976 290.113 333.393 290.249 334.706 291.742V291.71Z" fill="white"/>
<path opacity="0.3" d="M397.405 308.396C397.404 308.802 397.521 309.199 397.741 309.545C397.969 309.273 398.164 308.939 398.36 308.73C398.796 308.324 399.329 308.027 399.911 307.864C400.544 307.514 401.157 307.13 401.745 306.715C402.331 306.381 403.113 306.579 403.796 306.256C404.48 305.932 404.502 305.358 404.958 304.982C405.413 304.606 406.043 304.585 406.477 304.199C407.215 303.608 407.774 302.836 408.094 301.965C408.842 300.178 409.459 298.343 409.939 296.473C410.286 294.645 410.601 292.902 411.078 291.116C412.098 287.253 414.529 280.206 415.061 276.238C415.571 272.437 415.202 271.185 413.976 267.781C412.75 264.377 408.224 247.943 405.565 243.485C403.048 239.308 400.953 238.744 396.005 237.805L395.712 237.732L395.212 237.627L394.822 237.544L394.323 237.45L394.03 237.398L393.313 237.262L392.771 237.168H392.63H392.402L391.826 233.315H391.968C392.847 232.271 393.812 231.279 394.822 230.11C394.945 230.247 395.051 230.397 395.136 230.559C395.592 231.394 395.278 232.407 395.451 233.336C395.831 235.341 398.284 236.291 400.4 236.343C401.295 236.415 402.196 236.298 403.039 236.001C403.883 235.703 404.649 235.232 405.283 234.62C405.772 233.897 406.301 233.2 406.868 232.532C408.127 231.394 410.123 231.488 411.523 230.444C412.036 230.005 412.437 229.458 412.695 228.846C412.952 228.234 413.06 227.573 413.01 226.915C412.887 225.596 412.52 224.309 411.925 223.114C411.024 221.026 411.74 219.679 412.196 217.57C412.411 216.425 412.216 215.244 411.642 214.22C411.068 213.195 410.15 212.389 409.038 211.932C407.497 211.347 405.631 211.452 404.393 210.387C403.81 209.718 403.263 209.021 402.755 208.299C401.018 206.471 398.034 206.315 395.538 206.983C394.921 206.572 394.183 206.363 393.433 206.388C390.047 203.861 385.63 203.256 381.842 203.548C380.417 204.124 379.128 204.973 378.055 206.043C374.647 209.29 372.629 214.062 373.519 218.573C373.692 219.418 373.964 220.233 374.105 221.078C374.463 223.24 373.964 225.443 373.975 227.635C373.985 229.828 374.702 232.25 376.677 233.326C378.174 234.13 380.008 233.973 381.712 234.182C384.512 234.526 384.187 236.186 384.295 238.473C384.342 238.823 384.313 239.179 384.208 239.517C384.165 239.639 384.099 239.752 384.013 239.851C383.286 240.718 381.224 241.062 380.312 241.355C378.506 241.776 376.741 242.349 375.038 243.067C374.256 243.449 373.579 244.004 373.063 244.685C370.99 247.484 370.111 250.814 369.232 254.082C368.418 257.11 367.561 260.138 366.66 263.145C365.85 265.874 365.003 268.588 364.121 271.289C363.434 273.746 362.405 276.103 361.06 278.295C359.378 280.769 356.969 282.691 354.799 284.8C349.883 289.582 345.77 295.7 339.193 297.997C336.665 298.874 333.952 299.114 331.358 299.782C330.457 300.012 329.437 300.472 329.188 301.275C329.317 301.264 329.445 301.236 329.567 301.192L329.839 301.108C330.056 301.035 330.262 300.962 330.435 300.92C331.038 300.838 331.653 300.899 332.226 301.098C332.947 301.174 333.672 301.209 334.397 301.202C335.08 301.265 335.59 301.871 336.339 301.985C337.088 302.1 337.424 301.651 338.054 301.61C338.683 301.568 339.139 301.892 339.768 301.839C340.724 301.775 341.645 301.469 342.438 300.952C344.135 299.923 345.756 298.782 347.289 297.538C348.678 296.253 350.002 295.032 351.467 293.852C354.647 291.294 360.919 286.961 363.774 284.048L364.501 283.317C366.78 281.03 368.158 279.746 369.135 276.603C369.612 275.079 370.903 271.153 372.238 266.799L372.575 265.755C373.076 266.342 373.338 267.084 373.313 267.843C373.714 272.918 374.973 278.055 375.83 283.108C376.438 286.71 377.057 290.312 377.339 293.946C377.556 296.577 377.588 299.166 377.632 301.839L377.892 320.633C377.892 321.677 377.892 322.721 377.947 323.828C377.961 326.786 378.171 329.74 378.576 332.671C378.93 335.256 379.514 337.806 380.323 340.293C380.518 340.899 380.725 341.505 380.953 342.11C383.199 348.114 386.726 353.595 390.123 359.004C393.569 364.783 396.66 370.751 399.38 376.879C399.937 377.95 400.346 379.087 400.595 380.261C400.942 382.287 400.367 384.344 400.204 386.39C400.042 388.437 400.28 390.4 400.204 392.404C400.251 394.422 399.644 396.403 398.468 398.074C397.62 399.125 396.445 399.89 395.115 400.256C396.158 400.431 397.221 400.462 398.273 400.35C398.879 400.296 399.464 400.103 399.977 399.786C402.662 398.696 405.284 397.47 407.834 396.111C408.854 395.328 409.407 394.211 409.157 391.934C408.844 389.766 409.299 387.559 410.449 385.67C411.145 384.522 411.678 383.289 412.033 382.005C412.305 381.118 411.35 380.199 410.948 380.021C410.677 378.977 409.722 378.476 408.778 377.933C407.446 377.29 406.241 376.428 405.218 375.386C404.631 374.334 404.175 373.22 403.862 372.065C403.723 371.811 403.507 371.604 403.243 371.47C401.572 366.845 397.936 357.229 396.862 353.961C394.843 347.769 393.943 345.535 390.459 342.089C390.459 342.089 392.38 324.047 393.498 310.923L394.843 308.657C394.984 308.417 395.126 308.187 395.277 307.958C396.784 305.594 398.545 303.39 400.53 301.38C400.725 301.182 400.921 300.952 401.116 300.733C400.823 301.202 400.541 301.672 400.215 302.132C398.924 304.032 397.307 306.068 397.405 308.396ZM404.046 286.867L404.176 286.752C404.111 286.073 403.976 285.401 403.775 284.747C403.525 283.86 403.178 282.805 402.798 281.667C402.679 281.312 402.549 280.947 402.418 280.623C401.973 279.349 401.496 277.992 401.062 276.677C400.921 276.269 400.79 275.862 400.671 275.465C400.552 275.069 400.389 274.588 400.27 274.171C400.15 273.753 400.096 273.576 400.02 273.283C400.02 273.189 399.966 273.085 399.944 272.991C399.922 272.897 399.846 272.605 399.803 272.427C399.716 272.083 399.64 271.759 399.586 271.446L399.521 271.101C399.515 271.021 399.515 270.941 399.521 270.861C399.489 270.709 399.467 270.556 399.456 270.402V270.088C399.445 269.9 399.445 269.712 399.456 269.524C399.444 269.344 399.444 269.162 399.456 268.982C399.749 267.361 400.151 265.76 400.66 264.189C401.007 262.978 401.398 261.683 401.745 260.305C402.776 262.153 403.775 264.001 404.773 265.86C405.631 267.329 406.357 268.866 406.944 270.454C408.137 274.066 407.844 277.982 407.389 281.751C406.912 286.05 405.922 290.283 404.437 294.364C404.754 291.862 404.622 289.326 404.046 286.867Z" fill="black"/>
</svg>
