<svg width="29" height="29" viewBox="0 0 29 29" fill="none" xmlns="http://www.w3.org/2000/svg">
<path d="M21.5528 9.09429L15.0858 20.2955C14.8251 20.7471 14.1732 20.7471 13.9124 20.2955L7.44545 9.09428C7.18474 8.64275 7.51069 8.07812 8.03211 8.07812L20.9661 8.07812C21.4875 8.07812 21.8135 8.64247 21.5528 9.09429Z" fill="black"/>
<path d="M15.0848 20.297L21.5518 9.09575C21.5907 9.02818 21.6127 8.95828 21.627 8.8881L15.3748 19.717C15.1141 20.1685 14.4622 20.1685 14.2015 19.717L7.7345 8.51574C7.67621 8.41453 7.65098 8.3081 7.64721 8.20312C7.37519 8.39336 7.25774 8.77181 7.4445 9.09574L13.9115 20.297C14.1722 20.7485 14.8241 20.7485 15.0848 20.297Z" fill="black"/>
<path d="M21.5528 9.09429L15.0858 20.2955C14.8251 20.7471 14.1732 20.7471 13.9124 20.2955L7.44544 9.09428C7.18473 8.64275 7.51069 8.07812 8.03211 8.07812L20.9661 8.07812C21.4875 8.07812 21.8135 8.64247 21.5528 9.09429Z" stroke="black" stroke-miterlimit="10"/>
</svg>
