<svg width="40" height="40" viewBox="0 0 40 40" fill="none" xmlns="http://www.w3.org/2000/svg">
<path d="M36.2765 20.0081C36.1835 13.2346 32.0374 7.1698 25.6874 4.74949C19.2968 2.31199 11.7546 4.3448 7.42961 9.6323C3.12493 14.8956 2.47336 22.4761 5.97961 28.3432C9.47805 34.1987 16.3366 37.2151 23.0171 36.0159C30.6327 34.6456 36.0851 27.8034 36.2702 20.1854C36.2749 20.126 36.2773 20.0682 36.2765 20.0081ZM24.5312 32.5464C19.2343 34.4448 13.2187 32.7807 9.64602 28.4386C6.12258 24.1518 5.70305 17.9182 8.53743 13.1682C11.3585 8.44714 17.0062 5.85964 22.4273 6.89558C28.7296 8.10183 33.2265 13.6339 33.314 20.0081C33.2382 25.5557 29.8101 30.6542 24.5312 32.5464Z" fill="black"/>
<path d="M25.9727 18.5246H21.4648V14.0168C21.4648 12.1105 18.5023 12.1074 18.5023 14.0168V18.5246H13.9953C12.0891 18.5246 12.0859 21.4871 13.9953 21.4871H18.5023V25.9941C18.5023 27.9004 21.4648 27.9035 21.4648 25.9941V21.4871H25.9727C27.8789 21.4871 27.882 18.5246 25.9727 18.5246Z" fill="black"/>
</svg>
