<svg width="30" height="30" viewBox="0 0 30 30" fill="none" xmlns="http://www.w3.org/2000/svg">
<g clip-path="url(#clip0_502_734)">
<path d="M22.4892 10.0668C22.0275 9.57993 21.2576 9.55849 20.7699 10.0214L13.0056 17.3849L9.30224 13.5825C8.8332 13.1013 8.06416 13.0908 7.58252 13.5599C7.10129 14.0285 7.09115 14.7983 7.55978 15.2796L12.1003 19.9414C12.3383 20.1858 12.6545 20.309 12.9716 20.309C13.2724 20.309 13.5732 20.1979 13.8087 19.9754L22.4439 11.7862C22.9311 11.324 22.9518 10.5542 22.4892 10.0668Z" fill="#36C56F"/>
<path d="M15 0C6.72891 0 0 6.72891 0 15C0 23.2711 6.72891 30 15 30C23.2711 30 30 23.2711 30 15C30 6.72891 23.2711 0 15 0ZM15 27.5676C8.07041 27.5676 2.4324 21.9301 2.4324 15C2.4324 8.07041 8.07035 2.4324 15 2.4324C21.93 2.4324 27.5676 8.07035 27.5676 15C27.5676 21.93 21.93 27.5676 15 27.5676Z" fill="#36C56F"/>
</g>
<defs>
<clipPath id="clip0_502_734">
<rect width="30" height="30" fill="white"/>
</clipPath>
</defs>
</svg>
