<svg width="447" height="249" viewBox="0 0 447 249" fill="none" xmlns="http://www.w3.org/2000/svg">
<g clip-path="url(#clip0_55_206)">
<rect width="447" height="250" rx="20" transform="matrix(-1 0 0 1 447 -1.00488)" fill="#FAEDF1"/>
<path d="M70.9231 337.562C70.9231 337.562 -18.9902 256.182 31.6456 146.185C55.9383 93.411 120.637 81.0263 140.247 91.8267C166.105 106.066 200.404 67.5977 274.538 41.1845C330.255 21.3329 456.379 61.8097 415.306 186.312C390.392 261.834 486.299 241.967 471.424 338.485L70.9253 337.562H70.9231Z" fill="white"/>
<path d="M296.015 170.066H359.109V256.309H296.015V170.066Z" fill="#BDBDBD"/>
<path d="M247.002 170.066H296.016V256.313H247.002V170.066Z" fill="#DEDEDE"/>
<path d="M279.977 133.276L300.65 175.879H363.455L330.712 133.432L279.977 133.276Z" fill="#D94668"/>
<path d="M277.499 133.276L298.172 175.879H360.977L328.233 133.432L277.499 133.276Z" fill="#BDBDBD"/>
<path d="M327.668 154.578H328.988C333.469 154.578 337.102 158.214 337.102 162.699V183.339H319.819V162.437C319.819 158.098 323.333 154.58 327.668 154.58V154.578Z" fill="#DEDEDE"/>
<path d="M240.174 178.243H297.185L330.879 133.276L311.91 133.28L274.852 133.286L240.174 178.243Z" fill="#D94668"/>
<path d="M240.175 178.243H250.621L311.91 133.28L274.853 133.286L240.175 178.243Z" fill="#CC003D"/>
<path d="M335.079 187.779L349.797 218.112H394.512L371.2 187.89L335.079 187.779Z" fill="#D94668"/>
<path d="M333.74 187.779L348.459 218.112H393.172L369.862 187.89L333.74 187.779Z" fill="#BDBDBD"/>
<path d="M348.556 218.112V261.193H363.027C363.027 270.323 364.106 258.038 364.106 258.038C364.106 258.038 371.823 261.107 380.76 258.038C384.858 256.63 389.085 261.031 393.17 258.038V218.114H348.554L348.556 218.112Z" fill="#BDBDBD"/>
<path d="M310.774 218.112V261.726C313.473 262.513 316.081 277.915 318.598 278.537C327.255 280.671 334.422 289.002 340.762 289.637L348.555 260.526V218.112H310.774Z" fill="#DEDEDE"/>
<path d="M306.623 219.904H347.208L371.199 187.89L359.109 187.892L331.311 187.898L306.623 219.904Z" fill="#D94668"/>
<path d="M361.801 224.844V268.859L363.359 257.593C363.359 276.658 363.117 285.948 363.117 285.948C363.117 285.948 370.672 299.739 379.608 296.67L380.598 225.155C380.598 222.368 379.406 219.858 377.504 218.112C375.804 216.546 373.536 215.592 371.044 215.592C368.552 215.592 366.36 216.55 364.706 218.112C362.917 219.798 361.801 222.191 361.801 224.846V224.844Z" fill="#DEDEDE"/>
<path d="M371.201 206.841C370.036 206.841 369.092 205.896 369.092 204.73C369.092 203.564 370.036 202.618 371.201 202.618C372.366 202.618 373.311 203.564 373.311 204.73C373.311 205.896 372.366 206.841 371.201 206.841Z" fill="#DEDEDE"/>
<path d="M306.622 219.905H314.325L359.109 187.892L331.311 187.898L306.622 219.905Z" fill="#CC003D"/>
<path d="M176.215 69.5166C176.215 69.5166 168.617 73.1142 166.89 72.6614C165.164 72.2086 158.605 71.0495 157.684 71.4578C157.684 71.4578 156.639 73.1257 157.427 74.2223C158.215 75.3189 164.595 78.2875 166.901 78.3945C169.206 78.5015 177.956 76.916 179.813 75.4637L176.215 69.5182V69.5166Z" fill="#ED975D"/>
<path d="M157.914 71.4891C157.914 71.4891 154.985 70.2724 154.026 71.6324C153.067 72.9924 152.523 74.3705 152.643 75.067C152.761 75.7634 154.74 76.0713 155.531 75.5296C156.322 74.9879 158.281 74.2305 158.281 74.2305L157.916 71.4891H157.914Z" fill="#ED975D"/>
<path d="M143.908 242.201C143.908 242.201 145.527 244.821 145.561 247.86C145.57 248.537 145.017 249.087 144.343 249.087H134.26C133.283 249.087 132.562 248.168 132.804 247.22C133.273 245.373 134.278 242.578 136.293 240.884C139.505 238.181 143.91 242.201 143.91 242.201H143.908Z" fill="#970023"/>
<path d="M159.861 239.521C159.861 239.521 160.44 248.878 162.25 249.013C162.49 249.031 171.423 249.031 171.423 249.031H182.945C182.945 249.031 182.751 246.214 179.419 245.632C176.086 245.051 170.507 242.707 168.487 238.296C166.363 233.656 159.861 239.521 159.861 239.521Z" fill="#CC003D"/>
<path d="M155.035 181.711C155.438 186.909 155.491 191.014 154.958 192.958C152.579 201.661 159.243 240.96 159.243 240.96C164.156 243.313 171.132 240.935 171.132 240.935C170.707 235.492 173.293 186.759 175.7 157.028C176.706 144.546 177.463 135.813 177.463 135.813L148.035 132.384C148.035 132.384 153.642 163.654 155.035 181.709V181.711Z" fill="#3B3B3B"/>
<path d="M148.035 132.385C148.035 132.385 153.642 163.655 155.036 181.711L175.702 157.03C176.708 144.548 177.465 135.815 177.465 135.815L148.037 132.385H148.035Z" fill="#3B3B3B"/>
<path d="M162.471 139.053C162.471 139.053 147.573 225.881 145.01 242.695C145.01 242.695 139.433 244.254 133.735 241.839C133.735 241.839 132.998 201.492 134.949 189.337C136.898 177.183 133.909 139.61 137.053 136.114C140.196 132.619 162.471 139.055 162.471 139.055V139.053Z" fill="#545454"/>
<path d="M160.936 65.0119C160.936 65.0119 162.08 72.729 161.58 75.0325C161.079 77.3376 153.421 78.5906 150.217 76.6856C147.013 74.7822 147.977 74.0742 147.977 74.0742C147.977 74.0742 148.465 65.2408 148.916 64.6102C149.365 63.9796 160.938 65.0119 160.938 65.0119H160.936Z" fill="#FFB27D"/>
<path d="M136.292 112.102C135.279 102.407 135.539 95.1132 136.493 89.6237C139.291 73.5177 148.056 72.981 148.056 73.0847C148.056 75.2515 152.714 77.2536 156.471 77.0067C159.638 76.7992 161.692 74.3887 161.692 73.0847C161.692 73.0732 161.751 73.0748 161.858 73.0847C162.677 73.0929 166.434 73.1604 169.987 73.7762C172.563 74.2208 175.028 74.9535 176.186 76.1603C176.784 76.7827 178.915 78.5264 181.652 80.8973C188.625 86.9334 199.527 97.0363 199.045 103.056C199.045 103.056 185.569 112.961 177.029 106.752C177.494 122.873 180.417 139.947 179.7 139.936C179.7 139.936 174.94 144.062 160.476 144.062C152.568 144.062 146.85 143.383 142.883 142.6C137.476 141.533 135.325 140.272 135.325 140.272C134.121 140.253 136.642 115.447 136.292 112.102Z" fill="#CC003D"/>
<path d="M135.324 140.272C135.324 140.272 137.476 141.533 142.883 142.6C150.355 139.287 165.187 130.724 165.768 116.345C166.536 97.2175 143.208 85.8287 143.208 85.8287C143.208 85.8287 140.078 87.5691 136.492 89.6223C135.537 95.11 135.277 102.406 136.292 112.1C136.642 115.446 134.12 140.252 135.324 140.27V140.272Z" fill="#B20035"/>
<path d="M161.058 65.8813C161.058 65.8813 158.087 70.0733 154.945 70.1095C151.805 70.1474 148.598 65.9455 148.598 65.9455L161.058 65.8796V65.8813Z" fill="#ED975D"/>
<path d="M161.344 65.6722C160.521 66.3193 158.684 67.215 157.181 67.8061C156.041 68.2556 154.779 68.2819 153.619 67.8818C151.886 67.2841 149.262 66.3489 148.596 65.9472C147.024 64.9922 147.124 63.0609 147.043 60.3754C146.946 57.196 146.627 54.7 146.981 52.8658C147.402 50.6726 148.792 49.4262 152.679 49.0871C159.816 48.4663 162.79 50.2561 162.915 52.6517C162.947 53.2955 162.977 53.908 162.997 54.4892C163.283 61.9594 162.693 64.6086 161.34 65.6738L161.344 65.6722Z" fill="#FFB27D"/>
<path d="M162.961 53.5343C162.961 53.5343 161.793 51.8088 159.596 52.4855C157.4 53.1622 157.175 55.0409 153.419 54.7396C149.666 54.4382 148.765 52.66 148.088 53.5491C147.412 54.4382 147.023 59.6922 147.023 59.6922C147.023 59.6922 139.474 42.4633 154.773 42.4633C154.773 42.4633 170.539 41.51 162.961 59.0221V53.531V53.5343Z" fill="#545454"/>
<path d="M190.758 69.8512L190.738 69.8629C190.756 69.8713 190.758 69.8512 190.758 69.8512Z" fill="#FFB27D"/>
<path d="M155.547 122.835C155.547 122.835 157.549 124.414 160.477 124.414C160.477 124.414 163.464 121.119 165.981 117.932C167.611 115.867 169.042 113.849 169.338 112.8C170.088 110.132 184.14 109.382 185.86 107.503C187.583 105.624 178.88 100.91 178.88 100.91C178.88 100.91 164.615 103.094 162.47 105.899C161.617 107.016 160.347 109.927 159.126 113.025C157.281 117.715 155.547 122.835 155.547 122.835Z" fill="#ED975D"/>
<path d="M175.514 83.6898C175.514 83.6898 172.81 78.4359 171.474 78.589C170.138 78.7421 174.543 89.4641 174.945 94.6752C175.344 99.8864 175.514 83.6898 175.514 83.6898Z" fill="#CC003D"/>
<path d="M167.053 119.86C168.928 124.406 171.358 128.55 171.67 129.074C171.692 129.11 171.703 129.13 171.703 129.13H171.748C172.203 129.125 176.12 129.039 176.501 127.465C176.501 127.465 176.628 122.017 176.411 117.69C176.314 115.755 176.148 114.046 175.873 113.144C175.873 113.144 197.115 113.001 196.741 106.988C196.369 100.973 185.263 97.7906 178.88 100.911C178.88 100.911 170.415 103.99 165.959 108.056C163.772 110.054 165.117 115.171 167.055 119.862L167.053 119.86Z" fill="#FFB27D"/>
<path d="M196.108 98.5529C196.108 98.5529 198.935 102.714 198.272 106.596C197.609 110.478 189.54 112.553 183.893 112.8C183.893 112.8 167.744 109.095 170.247 102.651C170.815 101.189 196.106 98.5545 196.106 98.5545L196.108 98.5529Z" fill="#545454"/>
<path d="M190.244 47.4209C190.244 47.4209 192.808 42.1653 199.005 45.3793C205.201 48.5932 199.169 60.6999 202.419 63.7262C205.671 66.7524 201.242 68.7332 201.901 70.9032C202.561 73.0733 200.676 75.5414 196.34 75.25C192.004 74.9602 187.438 75.194 185.481 71.3972C183.522 67.6004 183.967 59.2461 184.724 58.0721C185.481 56.8982 190.244 47.4209 190.244 47.4209Z" fill="#545454"/>
<path d="M180.205 76.2264L190.74 69.8627C190.681 69.8397 190.469 69.5203 189.681 67.2399C189.345 66.2668 189.168 65.4238 189.081 64.7553C189.072 64.6878 189.062 64.6236 189.058 64.5594C188.949 63.5863 189.028 63.0265 189.028 63.0265L186.72 63.8613L182.452 65.409C182.501 66.4924 182.35 67.2547 182.12 67.7766C181.562 69.0477 180.524 69.056 180.494 69.056L180.207 76.2248L180.205 76.2264Z" fill="#FFB27D"/>
<path d="M182.117 67.7765C186.242 68.1272 188.565 65.4335 189.078 64.7535C189.154 64.6548 189.191 64.5988 189.191 64.5988C189.191 64.5988 189.142 64.584 189.055 64.5576C188.719 64.4588 187.81 64.1839 186.718 63.8595L182.449 65.4072C182.498 66.4906 182.347 67.2529 182.117 67.7749V67.7765Z" fill="#ED985F"/>
<path d="M181.91 66.2946C181.91 66.2946 191.076 67.3023 191.263 61.0983C191.451 54.8943 192.806 52.0557 186.465 51.5041C180.124 50.9509 178.626 53.2379 178.252 55.3372C177.084 61.8935 179.33 66.0164 181.91 66.2946Z" fill="#FFB27D"/>
<path d="M185.974 54.5337C189.217 53.7121 187.977 59.4633 188.796 59.0698C189.712 58.6285 191.288 58.6351 191.04 59.7432C190.792 60.8513 190.433 61.2481 190.245 61.9396C190.058 62.6311 190.245 64.001 191 63.726C191.754 63.4494 198.767 55.4326 193.816 49.1891C188.864 42.9456 174.098 46.7918 178.748 53.3235C179.565 54.4727 183.664 55.1198 185.974 54.5337Z" fill="#545454"/>
<path d="M174.203 100.906C174.203 100.906 176.956 102.368 181.292 102.298C184.054 102.257 189.921 101.055 193.691 99.6921C195.841 98.9182 197.31 98.09 197.132 97.3952C196.877 96.3941 195.036 88.705 193.336 81.5888C191.781 75.0819 190.342 69.0557 190.342 69.0557C190.342 69.0557 186.051 72.1083 183.549 71.0315C181.047 69.9531 181.368 68.7363 181.368 68.7363C181.368 68.7363 178.42 68.3741 177.621 68.4679C176.344 68.6178 171.837 70.2626 171.837 70.2626C171.837 70.2626 171.245 71.9289 172.816 74.5303C174.117 76.6856 175.384 77.1021 175.384 77.1021C175.384 77.1021 171.701 88.7264 174.201 100.902L174.203 100.906Z" fill="#DEDEDE"/>
<path d="M187.994 90.5258C187.994 90.5258 185.347 90.0319 184.311 90.7102C183.275 91.3886 182.969 92.4506 183.716 92.8836C186.051 94.2436 188.42 92.7403 188.42 92.7403L187.994 90.5258Z" fill="#FFB27D"/>
<path d="M193.691 99.6923C195.841 98.9185 197.31 98.0903 197.132 97.3954C196.877 96.3944 195.036 88.7052 193.336 81.5891C192.834 80.6671 192.515 80.1155 192.515 80.1155C192.515 80.1155 189.288 94.8845 193.691 99.6923Z" fill="#BDBDBD"/>
<path d="M190.235 69.8856C190.235 69.8856 198.389 71.6128 201.603 84.3007C201.917 85.5421 201.593 86.8676 200.735 87.8176C199.256 89.4575 195.997 91.8564 188.418 92.739C187.591 92.8361 187.479 90.7335 187.479 90.7335C187.561 90.9015 192.627 87.457 194.784 85.6063C195.173 85.2721 195.157 84.5691 194.876 84.1393C194.147 83.0263 192.925 81.1015 192.514 80.1136C191.913 78.673 187.956 70.5393 190.234 69.8856H190.235Z" fill="#FFB27D"/>
<path d="M190.342 69.0559C190.342 69.0559 195.135 69.3967 199.043 74.6145C199.043 74.6145 197.72 79.4124 191.511 80.6933C191.511 80.6933 187.684 72.0525 190.34 69.0559H190.342Z" fill="#BDBDBD"/>
<path d="M167.054 119.86C168.929 124.406 171.359 128.55 171.671 129.074C171.698 129.092 171.722 129.11 171.749 129.13C172.204 129.125 176.121 129.039 176.502 127.465C176.502 127.465 176.629 122.017 176.412 117.69C175.788 118.288 173.384 120.074 167.054 119.86Z" fill="#FFB27D"/>
<path d="M155.547 122.835C155.547 122.835 157.549 124.414 160.477 124.414C160.477 124.414 163.464 121.12 165.98 117.932C163.148 116.707 160.158 114.005 159.125 113.025C157.279 117.715 155.545 122.835 155.545 122.835H155.547Z" fill="#ED975D"/>
<path d="M165.659 135.009C165.748 135.505 166.236 135.824 166.728 135.724C167.903 135.483 170.025 135.031 170.905 134.71C172.153 134.255 174.546 132.839 175.795 132.385C176.224 132.228 177.255 131.812 177.922 131.54C178.275 131.395 178.463 131.008 178.356 130.641C178.134 129.879 177.706 128.581 177.096 127.496C176.984 127.295 176.803 127.144 176.574 127.034C175.926 127.554 174.905 128.125 173.54 128.132C172.421 128.137 171.492 127.862 170.803 127.556C170.717 127.73 169.015 131.166 167.809 131.606C166.723 132.001 165.304 133.038 165.654 135.009H165.659Z" fill="#970023"/>
<path d="M147.84 122.875C147.603 123.319 147.789 123.873 148.238 124.1C149.307 124.64 151.254 125.598 152.144 125.893C153.406 126.309 156.161 126.683 157.423 127.1C157.857 127.243 158.923 127.556 159.615 127.755C159.982 127.86 160.369 127.674 160.513 127.319C160.811 126.583 161.278 125.298 161.471 124.068C161.507 123.841 161.458 123.609 161.347 123.382C160.517 123.388 159.362 123.204 158.286 122.363C157.405 121.673 156.845 120.881 156.495 120.212C156.321 120.296 152.858 121.94 151.639 121.536C150.544 121.174 148.786 121.108 147.841 122.873L147.84 122.875Z" fill="#970023"/>
<path d="M165.025 116.002C165.025 116.002 165.637 119.549 167.94 121.181C167.94 121.181 177.294 119.893 186.002 117.687C192.404 116.067 198.458 113.951 200.19 111.488C204.281 105.677 198.05 98.6022 198.05 98.6022C198.05 98.6022 186.041 104.403 173.04 111.511C170.377 112.966 167.676 114.476 165.027 116.002H165.025Z" fill="#CC003D"/>
<path d="M179.099 121.181C179.099 121.181 181.877 121.406 182.928 122.458C183.979 123.51 185.571 126.571 184.438 127.785C183.303 128.998 177.898 126.339 177.748 125.903C177.599 125.466 179.1 121.182 179.1 121.182L179.099 121.181Z" fill="#FFB27D"/>
<path d="M165.025 116.002C165.025 116.002 165.637 119.549 167.94 121.18C167.94 121.18 177.294 119.893 186.002 117.687C181.908 114.124 176.559 112.35 173.039 111.511C170.376 112.966 167.675 114.476 165.025 116.002Z" fill="#B20035"/>
<path d="M133.287 77.7578C135.157 73.3123 147.456 73.1427 147.456 73.1427C153.713 89.578 155.217 100.358 156.871 107.284C157.139 107.258 157.389 107.258 157.62 107.284C157.62 107.284 166.41 110.717 179.475 120.214C179.475 120.214 180.842 123.965 178.388 127.034C178.388 127.034 155.876 122.06 149.588 118.372C149.581 118.372 149.578 118.374 149.578 118.374C149.515 118.334 149.453 118.293 149.39 118.253C149.295 118.194 149.205 118.136 149.117 118.077C128.67 104.777 130.614 84.1182 133.289 77.7562L133.287 77.7578Z" fill="#CC003D"/>
<path d="M203.519 242.75C203.519 242.75 202.561 244.618 200.443 245.08C199.108 245.371 197.964 246.067 197.254 247.042C196.653 247.866 197.234 249.024 198.254 249.024H209.01C209.926 249.024 210.64 248.233 210.549 247.321C210.468 246.524 210.384 245.594 210.348 244.882C210.27 243.327 208.713 242.075 208.713 242.075L203.519 242.748V242.75Z" fill="#970023"/>
<path d="M201.083 215.596C200.634 223.783 201.751 242.392 201.751 242.392C201.751 242.392 202.5 244.468 207.237 244.962C209.774 245.227 212.057 244.568 212.057 244.568C213.013 240.162 213.897 235.955 214.711 231.955C220.556 203.242 222.838 185.507 222.838 185.507L199.759 180.137C199.759 180.137 200.77 196.347 201.067 207.401C201.16 210.851 201.184 213.801 201.085 215.596H201.083Z" fill="#3B3B3B"/>
<path d="M199.755 180.139C199.755 180.139 200.766 196.348 201.063 207.403L214.707 231.957C220.553 203.244 222.834 185.509 222.834 185.509L199.755 180.139Z" fill="#3B3B3B"/>
<path d="M222.959 143.013C222.959 143.013 231.89 138.943 238.646 142.504C245.403 146.065 241.271 175.444 231.611 178.292C231.611 178.292 213.51 184.086 222.959 143.013Z" fill="#545454"/>
<path d="M197.127 186.988C197.154 186.949 197.183 186.911 197.215 186.873C197.428 186.549 197.787 185.74 198.05 185.113C196.254 176.31 197.463 171.219 197.463 171.219C197.251 168.656 195.721 150.752 199.242 142.456C200.94 138.455 203.785 138.448 203.785 138.448C203.785 138.448 203.118 144.842 203.558 148.279C203.962 151.435 200.956 181 200.461 185.835C200.468 185.835 200.475 185.835 200.477 185.836L200.335 190.749L198.895 190.409C198.834 190.393 198.773 190.371 198.714 190.345C198.539 190.264 198.385 190.135 198.274 189.959L197.111 188.115C196.887 187.76 196.907 187.318 197.125 186.988H197.127ZM199.868 186.191L199.808 186.155L199.838 186.195C199.838 186.195 199.854 186.196 199.868 186.191Z" fill="#ED975D"/>
<path d="M222.243 242.75C222.243 242.75 221.286 244.618 219.167 245.08C217.832 245.371 216.689 246.067 215.979 247.042C215.378 247.866 215.959 249.024 216.979 249.024H227.735C228.651 249.024 229.365 248.233 229.273 247.321C229.193 246.524 229.109 245.594 229.073 244.882C228.994 243.327 227.438 242.075 227.438 242.075L222.243 242.748V242.75Z" fill="#970023"/>
<path d="M214.76 105.631C217.061 105.631 219.951 106.623 221.501 108.131C223.147 109.734 224.861 109.815 226.081 111.706C227.353 113.678 228.141 115.727 227.502 118.5C226.804 121.53 226.945 124.462 225.045 126.687C224.104 127.789 222.571 127.912 221.501 128.924C219.538 130.781 217.306 131.369 214.76 131.369C209.961 131.369 206.975 128.523 204.518 124.977C202.55 122.136 202.94 120.219 202.478 117.791C201.025 110.141 207.399 105.631 214.76 105.631Z" fill="#545454"/>
<path d="M208.004 136.466L217.178 141.159L219.016 134.788C219.016 134.788 217.847 132.583 217.318 128.972C217.096 127.454 216.987 125.686 217.128 123.728L209.654 127.559C209.654 127.559 209.833 128.251 209.951 129.272C210.078 130.375 210.135 131.862 209.822 133.275C209.552 134.487 209.01 135.646 208.004 136.465V136.466Z" fill="#FFB27D"/>
<path d="M229.257 182.63C229.257 182.63 231.002 205.771 230.614 242.653C230.614 242.653 228.509 243.76 225.972 244.013C221.234 244.486 220.08 242.605 220.08 242.605C220.08 242.605 215.234 224.604 214.023 216.494C212.906 209.016 205.572 182.035 205.572 182.035L229.259 182.63H229.257Z" fill="#545454"/>
<path d="M201.941 137.11C202.757 136.726 205.321 135.691 209.17 135.057C209.129 136.377 209.476 137.62 211.789 137.923C214.869 138.324 217.623 136.221 219.017 134.792C219.017 134.792 221.187 135.025 223.719 135.578C224.986 135.856 226.342 136.216 227.562 136.667C229.042 137.212 230.32 137.89 231.001 138.727C233.37 141.637 237.268 150.403 237.268 150.403C237.268 150.403 230.779 152.81 229.142 154.216L229.105 154.53L228.088 162.971L231.112 179.784C231.137 179.931 231.153 180.08 231.153 180.223C231.153 181.348 230.386 182.358 229.257 182.63C229.257 182.63 228.997 182.673 228.518 182.74C225.311 183.191 212.296 184.744 202.091 181.971C199.797 181.348 198.285 179.154 198.475 176.781L200.139 155.882C199.252 155.73 198.226 155.569 197.393 155.475C196.7 155.4 196.144 155.375 195.913 155.443C195.913 155.443 197.065 139.123 201.939 137.11H201.941Z" fill="#CC003D"/>
<path d="M221.197 168.122C221.326 173.988 225.166 180.882 228.521 182.739C229 182.673 229.26 182.63 229.26 182.63C230.389 182.358 231.156 181.348 231.156 180.223C231.156 180.078 231.142 179.931 231.115 179.784L228.091 162.971L229.107 154.53C229.059 154.383 229.032 154.304 229.032 154.304C229.032 154.304 220.971 157.759 221.199 168.122H221.197Z" fill="#B30035"/>
<path d="M197.396 155.475C198.25 155.57 200.147 155.884 200.147 155.884L201.107 147.131C201.107 147.131 197.897 153.301 197.396 155.477V155.475Z" fill="#CC003D"/>
<path d="M230.574 176.782L229.789 172.416C216.487 153.151 215.48 149.694 221.461 141.045C223.175 138.568 226.291 137.018 227.561 136.669C226.341 136.216 224.984 135.858 223.718 135.58C222.454 136.175 221.293 136.757 220.393 137.538C202.135 153.36 230.572 176.784 230.572 176.784L230.574 176.782Z" fill="#545454"/>
<path d="M215.039 152.056C220.248 152.416 220.969 157.759 220.969 157.759C220.969 157.759 229.71 158.553 231.002 159.127C231.002 159.127 230.293 157.207 229.032 154.304C230.172 153.183 233.917 151.514 236.397 150.747C238.288 155.578 239.014 160.36 237.953 164.968C237.841 165.455 237.413 165.803 236.915 165.826C234.133 165.955 224.941 165.91 218.21 160.331L218.092 160.299C216.481 160.202 214.968 158.601 214.388 156.495C213.806 154.388 213.76 155.033 213.316 153.55C212.871 152.067 215.041 152.054 215.041 152.054L215.039 152.056Z" fill="#FFB27D"/>
<path d="M209.823 133.277C214.073 133.164 217.318 128.973 217.318 128.973L209.952 129.272C210.079 130.375 210.136 131.862 209.823 133.275V133.277Z" fill="#ED975D"/>
<path d="M209.417 130.707C209.417 130.707 218.808 131.853 219.008 125.229C219.209 118.606 215.294 114.316 212.681 114.366C207.471 114.465 206.612 116.571 206.009 118.765C205.404 120.959 205.094 130.239 209.417 130.707Z" fill="#FFB27D"/>
<path d="M211.93 126.889C211.93 126.889 211.726 127.715 209.668 127.563C209.668 127.563 207.941 127.436 208.004 126.526C208.004 126.526 209.688 125.899 211.928 126.889H211.93Z" fill="white"/>
<path d="M210.359 114.427C210.359 114.427 218.384 114.422 216.541 119.939C215.378 123.415 219.242 123.954 219.242 123.954L221.102 118.382L219.937 114.042L210.359 114.427Z" fill="#545454"/>
<path d="M70.3139 111.895C72.3125 108.571 73.5543 93.7314 74.9983 89.7569C75.9109 87.244 78.3533 84.2422 78.0956 84.0559C80.6937 82.5227 87.7258 81.7848 87.7258 81.7848C87.7258 81.7901 87.7258 81.7955 87.7258 81.7991C87.9995 81.7418 88.2733 81.6845 88.5363 81.6325C89.3791 81.4624 90.1753 80.9698 90.2702 80.1155C90.2737 80.0725 90.2773 80.0277 90.2827 79.9865C90.39 78.9351 90.4133 77.8605 90.4008 76.9291C90.4008 76.9166 90.4008 76.9022 90.4008 76.8897C90.3775 75.3673 90.2612 74.2371 90.2612 74.2371L90.2898 74.2335L99.4047 72.7666C99.5281 75.6144 99.6945 77.7351 99.8681 79.3166C100 80.5274 100.985 81.4678 102.198 81.543C102.378 81.5519 102.563 81.5645 102.747 81.577C102.747 81.577 108.623 81.346 110.871 82.0337C111.048 82.0875 111.237 82.1681 111.441 82.2702C111.305 82.4135 133.081 104.261 132.52 106.79C131.958 109.321 122.403 123.687 118.939 126.337H115.471C115.471 126.337 123.156 108.791 123.256 107.369C123.403 105.286 103.93 93.6329 103.93 91.5068C103.93 90.7349 98.501 90.5002 94.951 90.5271C91.1917 90.5558 84.1113 88.5909 84.1113 88.5909C84.1113 88.5909 81.0498 111.807 77.1831 118.694C74.1323 124.125 60.6587 138.038 60.6587 138.038L57.8173 135.514C57.8173 135.514 65.472 119.946 70.3157 111.895H70.3139Z" fill="#FFB27D"/>
<path d="M97.904 201.247C96.2596 217.464 98.2511 238.699 98.2511 238.699H103.834C112.263 216.507 112.516 202.585 112.997 197.357C113.258 194.509 117.1 183.123 120.55 172.171C123.432 163.027 126.036 154.184 126.054 150.873C126.091 143.28 118.535 131.103 118.535 131.103C118.535 131.103 107.677 135.295 100.976 139.438C98.7396 140.821 97.0272 142.173 96.4421 143.32C94.889 146.37 93.7367 168.137 97.8718 181.434C100.361 189.44 99.085 193.546 99.085 193.546C98.5678 195.883 98.1849 198.491 97.9058 201.245L97.904 201.247Z" fill="#3B3B3B"/>
<path d="M97.8689 181.434C100.358 189.441 99.082 193.546 99.082 193.546C98.5649 195.883 98.182 198.491 97.9029 201.246L120.547 172.171C123.429 163.027 126.033 154.185 126.051 150.873C126.088 143.28 118.532 131.103 118.532 131.103C118.532 131.103 107.674 135.296 100.973 139.439C98.7367 140.821 97.0243 142.174 96.4392 143.32C94.8861 146.37 93.7337 168.137 97.8689 181.434Z" fill="#3B3B3B"/>
<path d="M103.834 238.699C103.834 238.699 104.15 242.344 104.617 243.093C105.086 243.843 107.053 246.374 109.3 247.218C111.547 248.061 117.976 247.624 118.476 249.963H95.8156C95.8156 249.963 95.5043 246.458 96.3775 244.151C97.2507 241.844 98.2509 238.699 98.2509 238.699H103.834Z" fill="#CC003D"/>
<path d="M65.954 237.877C65.954 237.877 63.4203 241.343 62.7958 242.718C62.1713 244.092 58.0523 249.913 58.5515 249.962C59.0508 250.01 70.0372 249.962 70.0372 249.962C70.0372 249.962 71.1609 247.216 71.0356 245.342C70.9104 243.467 72.5333 239.91 72.222 237.877C71.9088 235.844 65.954 237.877 65.954 237.877Z" fill="#970023"/>
<path d="M65.953 237.877H72.221C72.221 237.877 96.6613 202.51 97.5023 193.519C98.5526 182.274 106.402 137.886 106.402 137.886L81.3304 130.073C81.3304 130.073 79.1385 135.713 77.3026 141.401C76.5028 143.882 75.771 146.37 75.3165 148.405C74.3127 152.895 77.138 169.858 79.0669 181.92C80.0206 187.861 80.7542 192.612 80.7059 194.097C80.5592 198.597 72.3194 199.179 65.953 237.879V237.877Z" fill="#545454"/>
<path d="M99.5303 75.226C99.5446 75.4534 99.5571 75.6737 99.5732 75.8869C99.5589 75.6737 99.5446 75.4534 99.5303 75.226Z" fill="#0071F5"/>
<path d="M99.4762 74.2905C99.4888 74.5323 99.5013 74.7687 99.5156 74.9998C99.5013 74.7687 99.4906 74.5323 99.4762 74.2905Z" fill="#0071F5"/>
<path d="M99.4017 72.7648C99.4089 72.9421 99.4178 73.1176 99.4268 73.2896C99.4196 73.1176 99.4124 72.9421 99.4035 72.7648H99.4017Z" fill="#0071F5"/>
<path d="M77.8303 135.983C77.0144 138.442 88.8096 139.879 101.902 139.705C105.601 139.657 109.04 139.205 111.874 138.471C117.866 136.92 121.164 134.097 118.532 131.104C117.784 130.254 109.485 118.366 109.485 118.366C108.995 117.302 109.526 113.815 112.06 105.526C113.098 102.137 111.745 100.029 111.262 98.6837C111.262 98.6837 111.262 98.6837 111.262 98.6801C111.096 98.2126 111.033 97.8383 111.21 97.532C112.343 95.5707 113.98 93.6811 115.462 92.173C117.365 90.2315 119.017 88.9294 119.017 88.9294C119.017 88.9294 114.157 83.6277 111.441 82.2665C108.642 85.2039 102.573 90.4643 94.9506 90.5234C88.3748 90.5736 81.9851 86.8642 78.0934 84.0522C77.8017 84.2241 77.5637 84.4068 77.4009 84.5985C74.971 87.4535 74.2767 92.6029 74.2767 92.6029C74.2767 92.6029 82.0997 96.923 81.9583 98.3308C81.57 102.207 81.2032 103.341 81.375 104.725V104.739C81.4376 105.225 81.5647 105.744 81.7812 106.425C83.116 110.62 86.004 117.098 85.2829 119.28C85.0968 119.845 79.0023 132.453 77.8321 135.983H77.8303Z" fill="#DEDEDE"/>
<path d="M110.869 82.0303C110.744 81.9925 110.606 81.9548 110.459 81.9242C110.606 81.9584 110.746 81.9943 110.871 82.0321L110.869 82.0303Z" fill="#FFB27D"/>
<path d="M89.8506 80.9771C89.6609 81.1723 89.4176 81.3263 89.1492 81.4409C89.4176 81.3263 89.6591 81.1723 89.8506 80.9771Z" fill="#FFB27D"/>
<path d="M89.1475 81.4408C89.0506 81.4821 88.9502 81.5181 88.8462 81.5505C88.9502 81.5199 89.0506 81.4821 89.1475 81.4408Z" fill="#FFB27D"/>
<path d="M57.817 135.514C57.817 135.514 53.0252 136.755 52.3703 137.425C51.7154 138.095 49.8366 143.295 50.4969 143.343C53.9306 143.594 55.7414 141.749 55.7414 141.749C57.817 139.462 60.9179 139.098 60.764 137.423C60.6101 135.751 57.817 135.512 57.817 135.512V135.514Z" fill="#FFB27D"/>
<path d="M118.938 126.335C118.938 126.335 122.407 130.721 122.407 131.518C122.407 132.315 121.706 135.641 120.863 135.69C120.02 135.736 119.739 132.973 119.084 132.457C118.43 131.941 116.087 130.972 115.76 130.075C115.432 129.177 115.472 126.337 115.472 126.337H118.94L118.938 126.335Z" fill="#FFB27D"/>
<path d="M99.8361 79.0334C95.5292 78.48 90.2883 74.2315 90.2883 74.2315C93.348 72.5694 96.0034 72.4099 98.0647 72.9813C98.5568 73.1174 99.0148 73.293 99.4389 73.5025L99.8379 79.0334H99.8361Z" fill="#ED975D"/>
<path d="M101.397 74.855C101.397 74.855 90.7467 78.4121 88.6353 71.7403C86.5239 65.0667 83.7272 61.0313 90.4389 58.4772C97.1489 55.9231 99.2836 58.0492 100.529 60.1053C101.774 62.1615 104.115 73.7589 101.399 74.855H101.397Z" fill="#FFB27D"/>
<path d="M97.5749 71.9195C97.5749 71.9195 97.9686 72.6932 99.978 72.0699C99.978 72.0699 101.667 71.5469 101.395 70.6568C101.395 70.6568 99.5772 70.4203 97.5749 71.9213V71.9195Z" fill="white"/>
<path d="M72.8171 59.1883C74.0106 57.6551 70.0938 54.4903 78.0491 50.6878C84.0845 47.8023 85.9543 52.1726 86.5054 54.4526C90.093 52.4018 95.9512 46.4984 99.6856 50.3439C104.157 54.9488 99.3062 59.0038 99.3062 59.0038C97.6099 60.2397 96.7851 59.8994 94.3069 60.4439C91.8269 60.9884 93.4104 63.8613 93.2172 64.8303C93.0239 65.7992 91.3312 67.7569 89.0373 66.7682C86.7434 65.7795 87.0082 69.5605 89.1876 70.3379C89.8085 70.56 90.4545 74.0365 89.5544 74.1834C88.7975 74.307 86.0635 74.332 85.7861 72.1003C85.6215 70.7749 83.9395 70.0835 82.1556 68.7151C80.921 69.8901 79.1871 70.4901 78.2298 70.3522C76.8198 70.1498 76.8055 69.0178 73.7869 67.0029C70.7684 64.9879 71.6219 60.7233 72.8153 59.1901L72.8171 59.1883Z" fill="#545454"/>
<path d="M111.874 138.471C117.866 136.92 121.164 134.097 118.532 131.103C117.784 130.252 109.485 118.364 109.485 118.364C109.485 118.364 107.261 131.789 111.874 138.471Z" fill="#BDBDBD"/>
<path d="M315.081 70.7537C309.018 70.7537 303.323 67.7211 300.121 62.6188C296.51 56.87 290.071 53.0398 282.723 53.0398C275.375 53.0398 268.937 56.87 265.326 62.6188C262.124 67.7143 256.429 70.7537 250.366 70.7537H250.289C247.24 70.7537 244.58 73.0848 244.483 76.1105C244.386 79.2393 246.921 81.8111 250.06 81.8111H315.31C318.45 81.8111 320.985 79.2462 320.887 76.1105C320.797 73.0848 318.13 70.7537 315.074 70.7537H315.081Z" fill="#EFEFEF"/>
<path d="M330.475 91.7263C347.374 84.1434 354.865 64.4325 347.206 47.7007C339.548 30.9689 319.64 23.5522 302.741 31.135C285.842 38.7179 278.351 58.4288 286.01 75.1606C293.668 91.8924 313.576 99.3091 330.475 91.7263Z" fill="#FFD9E4"/>
<path d="M391.533 88.7063C385.47 88.7063 379.775 85.6738 376.573 80.5714C372.962 74.8226 366.524 70.9924 359.176 70.9924C351.828 70.9924 345.389 74.8226 341.778 80.5714C338.576 85.6669 332.881 88.7063 326.818 88.7063H326.742C323.686 88.7063 321.019 91.0374 320.928 94.0631C320.831 97.1919 323.366 99.7637 326.505 99.7637H391.756C394.895 99.7637 397.43 97.1988 397.333 94.0631C397.242 91.0374 394.575 88.7063 391.519 88.7063H391.533Z" fill="#F5F5F5"/>
</g>
<defs>
<clipPath id="clip0_55_206">
<rect width="447" height="249" fill="white" transform="matrix(-1 0 0 1 447 0)"/>
</clipPath>
</defs>
</svg>
