<svg width="446" height="249" viewBox="0 0 446 249" fill="none" xmlns="http://www.w3.org/2000/svg">
<g clip-path="url(#clip0_55_358)">
<rect y="-1.00488" width="446" height="250" rx="20" fill="#EDF3FA"/>
<path d="M31.3258 286.76C31.3455 286.778 413.112 286.705 413.112 286.705C425.681 255.327 425.659 239.996 427.089 222.01C434.985 122.599 371.014 107.316 352.273 103.171C294.89 90.4787 321.007 27.6779 171.476 39.4594C157.771 40.5387 125.457 49.2578 114.321 54.9057C106.509 58.8648 77.0809 76.5777 68.4474 106.54C65.7205 115.996 65.0664 126.674 67.8161 138.523C77.5473 180.454 52.1767 178.044 33.6379 198.027C8.89419 224.697 11.4803 268.31 31.3258 286.758V286.76Z" fill="white"/>
<path d="M232.098 249.585H232.179C232.652 249.585 233.03 249.195 233.021 248.724L231.746 193.414L227.99 192.975L231.194 248.727C231.222 249.207 231.621 249.585 232.101 249.585H232.098Z" fill="#DCEAFF"/>
<path d="M253.988 249.585H254.069C254.542 249.585 254.92 249.195 254.911 248.724L253.636 193.414L249.88 192.975L253.084 248.727C253.112 249.207 253.51 249.585 253.99 249.585H253.988Z" fill="#C0D8FB"/>
<path d="M193.585 249.585H193.504C193.031 249.585 192.653 249.195 192.662 248.724L193.937 193.414L197.693 192.975L194.489 248.727C194.461 249.207 194.063 249.585 193.583 249.585H193.585Z" fill="#DCEAFF"/>
<path d="M256.476 189.985V152.083C256.476 145.413 251.074 140.007 244.409 140.007H217.123C210.457 140.007 205.056 145.413 205.056 152.083V191.432L256.476 189.985Z" fill="#DCEAFF"/>
<path d="M252.852 195.968H200.166V189.985H256.476V192.342C256.476 194.344 254.853 195.968 252.852 195.968Z" fill="#C0D8FB"/>
<path d="M233.715 195.968H193.856C192.377 195.968 191.176 194.766 191.176 193.286V192.664C191.176 191.184 192.377 189.982 193.856 189.982H233.715C235.194 189.982 236.395 191.184 236.395 192.664V193.286C236.395 194.766 235.194 195.968 233.715 195.968Z" fill="#CCE0FF"/>
<path d="M276.888 29.5557H177.178V115.692H276.888V29.5557Z" fill="#C0D8FB"/>
<path d="M274.948 30.9895H179.075V113.973H274.948V30.9895Z" fill="#DFEDFB"/>
<path d="M212.583 67.0961H191.575V40.8437L195.137 37.629H212.583V67.0961Z" fill="white"/>
<path d="M191.575 40.8437H195.023L195.137 37.629L191.575 40.8437Z" fill="#DCEAFF"/>
<path d="M205.442 40.1849H198.716V40.5055H205.442V40.1849Z" fill="#DCEAFF"/>
<path d="M207.026 41.1466H197.132V41.4672H207.026V41.1466Z" fill="#DCEAFF"/>
<path d="M210.489 47.323H194.062V47.7348H210.489V47.323Z" fill="#DCEAFF"/>
<path d="M210.489 48.5743H194.062V48.9861H210.489V48.5743Z" fill="#DCEAFF"/>
<path d="M210.489 49.8258H194.062V50.2376H210.489V49.8258Z" fill="#DCEAFF"/>
<path d="M210.489 51.0773H194.062V51.489H210.489V51.0773Z" fill="#DCEAFF"/>
<path d="M210.489 64.4727H194.062V64.8844H210.489V64.4727Z" fill="#DCEAFF"/>
<path d="M236.842 103.519H215.833V77.2651L219.397 74.0519H236.842V103.519Z" fill="white"/>
<path d="M215.833 77.2651H219.282L219.397 74.0519L215.833 77.2651Z" fill="#DCEAFF"/>
<path d="M229.702 76.6077H222.975V76.9282H229.702V76.6077Z" fill="#DCEAFF"/>
<path d="M231.285 77.5693H221.391V77.8899H231.285V77.5693Z" fill="#DCEAFF"/>
<path d="M234.748 83.7457H218.32V84.1575H234.748V83.7457Z" fill="#DCEAFF"/>
<path d="M234.748 84.9971H218.32V85.4088H234.748V84.9971Z" fill="#DCEAFF"/>
<path d="M234.748 86.2485H218.32V86.6603H234.748V86.2485Z" fill="#DCEAFF"/>
<path d="M234.748 87.5H218.32V87.9118H234.748V87.5Z" fill="#DCEAFF"/>
<path d="M234.748 91.3513H218.32V91.7631H234.748V91.3513Z" fill="#DCEAFF"/>
<path d="M234.748 92.6029H218.32V93.0147H234.748V92.6029Z" fill="#DCEAFF"/>
<path d="M234.748 94.0543H218.32V94.4661H234.748V94.0543Z" fill="#DCEAFF"/>
<path d="M248.697 37.6292H237.097V47.8642H248.697V37.6292Z" fill="#DCEAFF"/>
<path d="M242.39 38.8482C242.39 38.5673 242.617 38.3394 242.898 38.3394C243.179 38.3394 243.407 38.5673 243.407 38.8482C243.407 39.129 243.179 39.357 242.898 39.357C242.617 39.357 242.39 39.129 242.39 38.8482Z" fill="#0059C2"/>
<path d="M248.324 51.0947L236.752 51.9025L237.464 62.1128L249.036 61.305L248.324 51.0947Z" fill="white"/>
<path d="M242.163 53.3684C242.144 53.089 242.354 52.8449 242.635 52.8258C242.914 52.8067 243.158 53.017 243.177 53.2978C243.196 53.5787 242.986 53.8214 242.706 53.8405C242.425 53.8596 242.182 53.6493 242.163 53.3684Z" fill="#DCEAFF"/>
<path d="M209.773 88.7972L198.201 89.605L198.913 99.8153L210.485 99.0075L209.773 88.7972Z" fill="white"/>
<path d="M203.615 91.0735C203.596 90.7941 203.807 90.55 204.087 90.5309C204.366 90.5118 204.61 90.722 204.629 91.0029C204.649 91.2823 204.438 91.5264 204.158 91.5456C203.879 91.5647 203.635 91.3544 203.615 91.0735Z" fill="#DCEAFF"/>
<path d="M195.223 96.122L183.623 96.2416L183.728 106.476L195.328 106.357L195.223 96.122Z" fill="white"/>
<path d="M188.928 98.0485C188.925 97.7677 189.15 97.5382 189.43 97.5353C189.711 97.5324 189.94 97.7574 189.943 98.0382C189.946 98.3191 189.721 98.5485 189.441 98.5515C189.16 98.5544 188.931 98.3294 188.928 98.0485Z" fill="#DCEAFF"/>
<path d="M265.894 59.2921L254.475 57.2504L252.676 67.3259L264.095 69.3677L265.894 59.2921Z" fill="#EEF6FF"/>
<path d="M259.502 59.5698C259.545 59.3301 259.774 59.1698 260.015 59.2124C260.256 59.2551 260.415 59.4845 260.372 59.7257C260.329 59.9668 260.1 60.1257 259.859 60.083C259.62 60.0404 259.459 59.811 259.502 59.5698Z" fill="#C0D8FB"/>
<path d="M230.257 50.8633L218.725 52.113L219.826 62.2887L231.358 61.039L230.257 50.8633Z" fill="#EEF6FF"/>
<path d="M224.199 52.9273C224.172 52.6846 224.347 52.467 224.591 52.4405C224.834 52.414 225.051 52.589 225.078 52.8317C225.104 53.0743 224.929 53.292 224.687 53.3184C224.444 53.3449 224.227 53.1699 224.2 52.9273H224.199Z" fill="#C0D8FB"/>
<path d="M200.146 75.0586L188.801 77.4801L190.934 87.4901L202.279 85.0686L200.146 75.0586Z" fill="#B0D0FF"/>
<path d="M194.519 78.0032C194.315 77.8708 194.256 77.5973 194.388 77.3914C194.52 77.187 194.794 77.1282 194.999 77.2606C195.204 77.3929 195.262 77.6664 195.13 77.8723C194.998 78.0767 194.725 78.1355 194.519 78.0032Z" fill="#0059C2"/>
<path d="M230.558 47.8641H219.518V40.4407L222.574 37.629H230.558V47.8641Z" fill="white"/>
<path d="M219.458 40.4407H222.475L222.575 37.629L219.458 40.4407Z" fill="#DCEAFF"/>
<path d="M225.079 38.5762C225.079 38.3762 225.242 38.213 225.442 38.213C225.642 38.213 225.805 38.3762 225.805 38.5762C225.805 38.7762 225.642 38.9395 225.442 38.9395C225.242 38.9395 225.079 38.7762 225.079 38.5762Z" fill="#DCEAFF"/>
<path d="M262.819 108.635H251.777V101.212L254.834 98.4015H262.819V108.635Z" fill="white"/>
<path d="M251.719 101.212H254.734L254.834 98.4015L251.719 101.212Z" fill="#DCEAFF"/>
<path d="M257.339 99.3486C257.339 99.1486 257.502 98.9854 257.702 98.9854C257.902 98.9854 258.065 99.1486 258.065 99.3486C258.065 99.5486 257.902 99.7118 257.702 99.7118C257.502 99.7118 257.339 99.5486 257.339 99.3486Z" fill="#DCEAFF"/>
<path d="M267.856 93.9028H256.814V86.478L259.872 83.6677H267.856V93.9028Z" fill="white"/>
<path d="M256.756 86.4781H259.773L259.873 83.6678L256.756 86.4781Z" fill="#DCEAFF"/>
<path d="M262.376 84.6149C262.376 84.4149 262.539 84.2517 262.739 84.2517C262.939 84.2517 263.102 84.4149 263.102 84.6149C263.102 84.8149 262.939 84.9782 262.739 84.9782C262.539 84.9782 262.376 84.8149 262.376 84.6149Z" fill="#DCEAFF"/>
<path d="M253.286 93.9028H242.244V86.478L245.301 83.6677H253.286V93.9028Z" fill="#B0D0FF"/>
<path d="M242.186 86.4781H245.201L245.301 83.6678L242.186 86.4781Z" fill="#98BAF4"/>
<path d="M247.805 84.6149C247.805 84.4149 247.968 84.2517 248.168 84.2517C248.368 84.2517 248.531 84.4149 248.531 84.6149C248.531 84.8149 248.368 84.9782 248.168 84.9782C247.968 84.9782 247.805 84.8149 247.805 84.6149Z" fill="#0059C2"/>
<path d="M270.972 45.3022H259.932V37.8774L262.988 35.0671H270.972V45.3022Z" fill="#B0D0FF"/>
<path d="M259.873 37.8774H262.888L262.988 35.0671L259.873 37.8774Z" fill="#98BAF4"/>
<path d="M265.492 36.0144C265.492 35.8144 265.655 35.6511 265.855 35.6511C266.055 35.6511 266.218 35.8144 266.218 36.0144C266.218 36.2143 266.055 36.3776 265.855 36.3776C265.655 36.3776 265.492 36.2143 265.492 36.0144Z" fill="#0059C2"/>
<path d="M288.089 247.495C287.931 249.648 284.894 249.672 281.449 249.272C278.004 248.873 278.92 249.746 274.095 249.813C269.271 249.88 267.609 248.284 267.374 247.595C267.166 246.983 269.489 246.468 271.974 245.862C272.287 245.788 272.6 245.709 272.913 245.628C275.716 244.916 277.57 242.816 279.97 240.983C282.242 239.248 285.17 232.963 285.17 232.963L291.758 232.666C291.758 232.666 288.983 238.299 287.94 240.726C287.328 242.155 287.588 243.909 287.854 245.257C287.998 245.99 288.14 246.739 288.082 247.498L288.089 247.495Z" fill="#FFB27D"/>
<path d="M281.449 249.272C278.004 248.873 278.92 249.746 274.095 249.813C269.271 249.88 267.609 248.284 267.374 247.595C267.166 246.983 269.489 246.468 271.974 245.862L272.004 245.908C272.004 245.908 275.111 247.577 279.082 247.178C282.321 246.853 285.624 245.5 287.857 245.259C288 245.992 288.142 246.741 288.084 247.5C287.926 249.653 284.889 249.676 281.444 249.277L281.449 249.272Z" fill="#545454"/>
<path d="M333.599 247.943C333.444 250.096 330.407 250.124 326.962 249.727C323.517 249.331 324.432 250.203 319.61 250.275C314.786 250.347 313.121 248.753 312.887 248.064C312.678 247.451 315.001 246.934 317.487 246.326C317.8 246.25 318.113 246.171 318.426 246.092C321.228 245.377 323.081 243.275 325.478 241.44C327.748 239.703 325.478 229.409 325.478 229.409L332.725 228.703C332.725 228.703 332.377 237.369 332.382 241.31C332.382 242.865 333.098 244.359 333.367 245.707C333.511 246.44 333.655 247.187 333.597 247.945L333.599 247.943Z" fill="#FFB27D"/>
<path d="M326.962 249.725C323.517 249.328 324.432 250.2 319.61 250.272C314.786 250.344 313.121 248.75 312.887 248.061C312.678 247.449 315.001 246.932 317.487 246.324L317.517 246.37C317.517 246.37 320.623 248.036 324.597 247.632C327.833 247.305 331.137 245.948 333.369 245.704C333.513 246.437 333.657 247.184 333.599 247.943C333.444 250.096 330.407 250.124 326.962 249.727V249.725Z" fill="#545454"/>
<path d="M312.447 70.0627C311.2 64.9263 313.008 62.5367 314.64 61.263C315.415 59.3722 316.298 58.0104 317.2 57.4977C318.848 56.5604 320.821 56.4583 322.203 56.5395C321.848 56.173 321.148 56.0384 321.148 56.0384C322.003 55.9108 323.916 56.7599 323.916 56.7599C335.825 52.1687 337.698 69.717 337.448 73.7933C337.2 77.8695 337.232 82.6719 343.429 85.8827C355.253 92.0121 339.5 115.108 339.5 115.108C339.801 111.813 324.609 94.4272 316.685 89.2212C314.756 86.3792 314.07 81.3587 314.019 80.962C314.353 84.9431 315.032 87.1773 315.642 88.4347C312.03 85.1078 311.494 77.1201 312.452 70.0627H312.447Z" fill="#3B3B3B"/>
<path d="M317.151 89.4786C317.111 89.4972 320.978 91.5063 323.885 90.7106C326.621 89.9635 328.408 86.4139 328.371 86.407C327.212 86.1773 326.878 84.5835 326.904 77.7372L326.38 77.8393L317.575 79.5839C317.575 79.5839 317.774 82.3563 317.781 84.9686C317.788 87.1633 317.654 89.242 317.153 89.4763L317.151 89.4786Z" fill="#FFB27D"/>
<path d="M317.575 79.5863C317.575 79.5863 317.775 82.3587 317.782 84.971C322.708 84.8318 325.314 80.3333 326.38 77.8394L317.575 79.584V79.5863Z" fill="#ED975D"/>
<path d="M281.748 236.455C281.317 237.809 282.286 239.204 283.707 239.271L287.147 239.431L290.787 239.543C291.698 239.57 292.567 239.174 293.142 238.466C296.047 234.9 304.991 223.01 310.416 205.738C310.569 205.253 310.729 204.764 310.901 204.267C314.482 193.813 321.91 180.691 325.824 168.815C326.447 166.925 327.006 165.143 327.507 163.459C327.667 162.918 327.824 162.389 327.973 161.867C330.857 151.838 331.691 145.254 332.461 138.219L304.198 138.447C304.198 138.447 298.25 184.724 281.748 236.455Z" fill="#0071F5"/>
<path d="M308.156 122.195C308.228 135.653 306.183 141.428 306.183 141.428C306.183 141.428 318.284 147.58 332.665 143.052C332.834 142.998 344.572 140.317 344.572 140.317C344.331 139.771 342.191 130.703 341.957 130.201C338.92 123.675 336.615 120.815 336.254 118.808C335.586 115.063 335.57 111.187 335.904 107.533C336.78 97.8584 339.39 89.8266 339.39 89.8266C335.472 88.9334 331.803 87.3674 327.725 85.8363C326.786 87.0055 323.918 88.2282 321.43 88.1725C318.565 88.1098 317.638 86.8826 317.786 85.5416C314.733 87.2422 312.296 88.8476 312.296 88.8476C309.702 93.3577 304.439 97.7378 304.059 104.656C303.964 106.357 308.151 121.817 308.153 122.195H308.156Z" fill="#DEDEDE"/>
<path d="M332.461 123.694C333.697 125.443 336.066 136.078 341.957 137.417C338.92 129.837 336.615 126.513 336.254 124.183C335.586 119.833 335.57 115.333 335.904 111.087C333.931 107.628 332.459 105.255 332.459 105.255C332.303 104.696 329.324 95.4736 328.369 103.716C327.416 111.959 331.079 121.738 332.459 123.696L332.461 123.694Z" fill="#5F9AA8"/>
<path d="M315.929 82.0594C315.929 82.0594 327.588 82.2519 327.595 74.9834C327.602 67.7172 329.113 62.8475 321.669 62.416C314.225 61.9868 312.776 64.7569 312.185 67.1813C311.594 69.6057 312.897 81.8204 315.929 82.057V82.0594Z" fill="#FFB27D"/>
<path d="M316.36 62.2397C316.36 62.2397 319.553 70.7657 324.451 72.0254C329.35 73.2852 331.476 71.9721 331.476 71.9721C331.476 71.9721 327.718 68.9839 326.939 63.7709C326.939 63.7709 318.769 58.1797 316.363 62.2397H316.36Z" fill="#3B3B3B"/>
<path d="M317.151 62.9311C317.151 62.9311 314.768 64.8358 314.186 66.6848C313.604 68.5362 313.344 72.3456 312.234 72.2157C312.234 72.2157 309.83 66.4203 312.53 63.1422C315.396 59.6669 317.151 62.9311 317.151 62.9311Z" fill="#3B3B3B"/>
<path d="M297.584 131.535L292.078 148.337L295.219 149.597L304.323 134.753L297.584 131.535Z" fill="#FFB27D"/>
<path d="M312.431 87.8594C312.431 87.8594 305.937 90.4369 304.06 94.4574C302.179 98.478 299.335 125.441 298.201 128.209C297.068 130.979 296.217 133.169 296.217 133.169C296.217 133.169 299.49 135.93 302.782 136.131C306.074 136.336 312.431 87.8571 312.431 87.8571V87.8594Z" fill="#545454"/>
<path d="M317.786 85.5418C317.786 85.5418 311.042 102.218 310.842 105.591C310.643 108.967 310.05 160.777 310.05 160.777C310.05 160.777 310.446 163.159 305.884 162.166C301.321 161.173 300.132 160.18 300.132 160.18C300.132 160.18 304.495 128.22 303.306 117.103C302.116 105.985 312.431 87.8548 312.431 87.8548L317.786 85.5394V85.5418Z" fill="#545454"/>
<path d="M287.145 239.433L291.097 239.554C291.804 239.575 292.479 239.271 292.931 238.726C295.588 235.506 304.852 223.456 310.416 205.743C310.569 205.258 310.729 204.768 310.9 204.272C314.482 193.818 321.91 180.696 325.823 168.82C326.447 166.929 327.006 165.147 327.506 163.463C327.666 162.923 327.824 162.394 327.972 161.872L323.811 158.712C323.811 158.712 311.315 178.961 307.448 198.015C304.087 214.565 290.631 234.483 287.147 239.436L287.145 239.433Z" fill="#0059C2"/>
<path d="M323.376 199.785C323.308 208.552 323.723 228.091 324.79 237.642C324.887 238.517 325.627 239.176 326.505 239.176H329.454C330.697 239.176 331.626 239.167 332.245 239.157C332.781 239.15 333.238 238.765 333.34 238.241C336.272 223.307 338.37 210.902 339.908 200.181C341.192 191.208 342.335 183.517 343.213 176.893C344.099 170.23 344.713 164.649 344.934 159.934C344.968 159.192 344.994 158.47 345.008 157.77C345.022 157.065 345.026 156.38 345.019 155.714L320.601 153.332C320.909 169.567 323.417 194.398 323.378 199.782L323.376 199.785Z" fill="#0071F5"/>
<path d="M329.454 239.176C330.572 239.176 331.434 239.169 332.046 239.16C332.695 239.15 333.251 238.686 333.377 238.048C336.288 223.201 338.377 210.856 339.907 200.182C341.192 191.208 342.335 183.517 343.213 176.894C344.099 170.231 344.713 164.649 344.933 159.934L335.973 165.21C335.973 165.21 341.693 167.228 339.511 182.515C337.329 197.799 332.493 237.011 329.456 239.176H329.454Z" fill="#0059C2"/>
<path d="M328.299 159.786C328.299 159.786 330.019 166.006 335.971 165.21C341.922 164.417 350.383 160.844 350.383 160.844C350.383 160.844 347.84 152.803 344.678 142.238C340.851 129.447 336.11 112.959 333.877 102.559C333.251 99.6449 332.822 97.2112 332.662 95.4689L327.724 85.8827C327.724 85.8827 320.364 102.417 319.967 106.586C319.571 110.755 328.299 159.788 328.299 159.788V159.786Z" fill="#545454"/>
<path d="M334.242 105.965L327.725 85.8827C327.743 85.892 335.955 88.328 340.086 90.416C340.086 90.416 342.669 93.7475 344.266 101.434C344.266 101.434 345.954 119.887 342.184 126.636C342.184 126.636 330.282 129.018 311.239 122.467V118.1C311.239 118.1 332.067 119.193 336.333 119.687L334.242 105.965Z" fill="#FFB27D"/>
<path d="M328.564 115.319C328.83 122.067 330.416 135.171 344.567 142.184C344.604 142.203 344.641 142.221 344.681 142.237C340.853 129.447 336.112 112.959 333.88 102.559C331.281 106.445 328.42 111.602 328.566 115.319H328.564Z" fill="#3B3B3B"/>
<path d="M327.727 85.8828C327.727 85.8828 339.806 86.7342 342.715 93.2186C345.625 99.703 346.55 121.274 342.847 127.626C342.847 127.626 337.749 129.079 328.734 127.392C328.622 127.371 328.511 127.35 328.4 127.329C328.4 127.329 325.523 120.281 328.103 118.892C328.103 118.892 335.707 119.288 334.914 116.773C334.121 114.259 327.727 85.8805 327.727 85.8805V85.8828Z" fill="#545454"/>
<path d="M297.44 120.796L297.797 121.94L317.619 115.769C317.619 115.769 317.883 115.467 317.753 115.068C317.61 114.625 317.264 114.625 317.264 114.625L297.443 120.796H297.44Z" fill="#545454"/>
<path d="M296.008 121.88L297.441 120.796L297.795 121.942L296.008 121.88Z" fill="#545454"/>
<path d="M292.859 147.877C292.859 147.877 287.831 150.659 287.17 152.777C286.509 154.895 286.964 159.331 287.761 159.266C288.559 159.199 289.75 154.499 290.411 154.169C291.072 153.837 291.999 152.847 291.999 153.573C291.999 154.299 291.338 155.624 291.668 155.823C291.999 156.023 293.056 153.97 293.784 153.573C294.512 153.176 294.818 149.9 295.525 149.023C296.232 148.144 292.859 147.88 292.859 147.88V147.877Z" fill="#FFB27D"/>
<path d="M311.242 118.098C311.242 118.098 306.744 115.326 304.86 115.753C302.972 116.179 298.167 119.664 300.478 120.418C302.789 121.172 304.663 120.381 305.553 120.928C306.443 121.476 307.099 122.478 311.242 122.464C315.387 122.45 311.242 118.098 311.242 118.098Z" fill="#FFB27D"/>
<path d="M72.6094 249.733H72.5282C72.0553 249.733 71.6774 249.344 71.6867 248.873L72.9618 193.562L76.7174 193.123L73.5135 248.875C73.4857 249.355 73.0869 249.731 72.6071 249.731L72.6094 249.733Z" fill="#DCEAFF"/>
<path d="M50.7207 249.733H50.6396C50.1666 249.733 49.7887 249.344 49.798 248.873L51.0731 193.562L54.8288 193.123L51.6249 248.875C51.597 249.355 51.1983 249.731 50.7184 249.731L50.7207 249.733Z" fill="#C0D8FB"/>
<path d="M111.122 249.733H111.203C111.676 249.733 112.054 249.344 112.044 248.873L110.769 193.562L107.014 193.123L110.218 248.875C110.245 249.355 110.644 249.731 111.124 249.731L111.122 249.733Z" fill="#DCEAFF"/>
<path d="M48.2305 190.133V152.231C48.2305 145.561 53.6321 140.156 60.2973 140.156H87.5839C94.249 140.156 99.6507 145.561 99.6507 152.231V191.581L48.2305 190.133Z" fill="#DCEAFF"/>
<path d="M48.2305 190.133H104.54V196.116H51.854C49.8533 196.116 48.2305 194.492 48.2305 192.49V190.133Z" fill="#C0D8FB"/>
<path d="M110.853 190.133H70.9964C69.5163 190.133 68.3164 191.334 68.3164 192.815V193.434C68.3164 194.915 69.5163 196.116 70.9964 196.116H110.853C112.333 196.116 113.533 194.915 113.533 193.434V192.815C113.533 191.334 112.333 190.133 110.853 190.133Z" fill="#DCEAFF"/>
<path d="M109.307 180.688C105.398 187.497 100.481 190.126 100.481 190.126H80.0264C80.0264 190.126 112.288 175.496 109.307 180.688Z" fill="#0059C2"/>
<path d="M93.5979 233.366C93.0647 233.978 92.9974 234.661 93.2617 235.389C93.2617 235.391 93.2617 235.396 93.2664 235.398C93.7532 236.746 95.3668 238.254 97.2376 239.758C97.4764 239.95 97.6897 240.126 97.8752 240.289C97.9239 240.331 97.9725 240.375 98.0189 240.416C98.056 240.449 98.0931 240.484 98.1279 240.516C99.8736 242.126 99.2175 242.495 102.354 245.764C105.931 249.488 108.393 249.555 109.094 249.216C109.687 248.926 108.481 246.952 107.148 244.732C107.084 244.625 107.021 244.516 106.954 244.407C106.775 244.112 106.599 243.813 106.423 243.516C104.86 240.843 105.261 239.591 105.632 235.614C105.934 232.382 110.654 217.565 110.654 217.565L103.801 216.384C103.801 216.384 101.737 228.183 99.4632 230.002C98.2461 230.969 96.8852 230.983 95.7168 231.7C95.6334 231.749 95.5522 231.802 95.4734 231.853C94.8081 232.294 94.1334 232.749 93.5979 233.361V233.366Z" fill="#FFB27D"/>
<path d="M93.5979 233.366C93.0647 233.978 92.9974 234.661 93.2617 235.389C93.2617 235.391 93.2617 235.396 93.2664 235.398C93.8645 236.746 95.434 238.245 97.2446 239.744C97.4811 239.941 97.6897 240.119 97.8752 240.289C97.9239 240.331 97.9725 240.375 98.0189 240.416C98.056 240.449 98.0931 240.484 98.1279 240.516C99.8736 242.126 99.2175 242.495 102.354 245.764C105.931 249.488 108.393 249.555 109.094 249.216C109.687 248.926 108.481 246.952 107.148 244.732C106.453 244.476 103.219 243.161 100.773 240.031C98.6194 237.282 97.1843 233.749 95.7168 231.7C95.6334 231.749 95.5522 231.802 95.4734 231.853C94.8081 232.294 94.1334 232.749 93.5979 233.361V233.366Z" fill="#545454"/>
<path d="M148.859 229.083C149.284 231.201 152.297 230.846 155.668 230.023C159.037 229.199 158.237 230.178 163.031 229.647C167.826 229.116 169.279 227.327 169.425 226.612C169.555 225.979 167.188 225.756 164.645 225.464C164.325 225.429 164.005 225.388 163.683 225.348C160.813 224.988 158.712 223.135 156.106 221.613C153.637 220.172 149.954 214.3 149.954 214.3L143.379 214.822C143.379 214.822 146.829 220.068 148.164 222.348C148.95 223.689 148.908 225.464 148.808 226.833C148.757 227.578 148.709 228.339 148.859 229.083Z" fill="#FFB27D"/>
<path d="M155.668 230.023C159.037 229.199 158.237 230.178 163.031 229.647C167.826 229.116 169.279 227.327 169.425 226.613C169.555 225.979 167.188 225.756 164.645 225.464L164.622 225.513C164.622 225.513 161.747 227.552 157.755 227.65C154.502 227.728 151.057 226.796 148.811 226.833C148.76 227.578 148.711 228.339 148.862 229.083C149.286 231.201 152.3 230.846 155.671 230.023H155.668Z" fill="#545454"/>
<path d="M123.659 187.006L117.511 203.559L109.485 225.172C109.485 225.172 107.308 225.383 105.222 224.782C103.302 224.228 101.098 222.773 101.098 222.773C101.098 222.773 103.326 199.566 107.482 186.245C108.549 182.825 109.743 180.06 111.059 178.503C117.504 170.882 123.657 187.006 123.657 187.006H123.659Z" fill="#0059C2"/>
<path d="M117.409 160.716C113.383 159.416 101.895 161.084 90.3571 163.344L87.9414 159.356L63.0195 157.407C63.0195 157.407 54.7964 175.659 59.2986 187.286C59.9593 188.996 61.2761 190.091 63.5156 190.128H63.8796C63.8796 190.128 78.7122 190.119 83.5296 190.119C95.9233 190.119 109.759 181.593 111.551 181.236C114.481 180.649 115.652 186.514 118.583 192.669C121.513 198.826 146.122 219.936 146.122 219.936C146.122 219.936 149.903 219.973 151.466 219.386C153.146 218.755 153.761 217.936 153.761 217.936C153.761 217.936 126.493 163.643 117.409 160.711V160.716Z" fill="#0071F5"/>
<path d="M86.9629 86.7358C83.7705 85.0584 78.9114 84.831 78.1231 84.7243C68.6783 83.4553 62.9961 97.1873 62.66 101.349C62.0433 109.019 57.9886 110.189 52.2832 114.993C40.84 124.623 44.1969 135.815 50.454 139.975C54.2074 142.469 60.8262 139.975 60.8262 139.975C60.9189 140.04 78.923 129.904 87.7975 125.013C101.102 123.12 95.1001 91.0138 86.9629 86.7381V86.7358Z" fill="#545454"/>
<path d="M80.3574 120.849C80.3969 120.874 75.9897 122.38 73.0455 121.074C70.2751 119.849 68.1747 115.285 68.2164 115.283C69.4776 115.225 70.8616 114.123 71.9281 106.885L72.4659 107.077L81.4911 110.328C81.4911 110.328 80.8373 113.225 80.4131 115.986C80.0561 118.304 79.866 120.522 80.3574 120.849Z" fill="#FFB27D"/>
<path d="M81.4894 110.328C81.4894 110.328 80.8357 113.225 80.4114 115.986C75.2277 115.051 73.1922 109.882 72.4619 107.077L81.4871 110.328H81.4894Z" fill="#ED975D"/>
<path d="M82.834 113.205C82.834 113.205 70.4843 111.546 71.6342 103.867C72.7841 96.1874 71.9657 90.8004 79.899 91.5335C87.8322 92.2689 88.9218 95.4288 89.1606 98.0852C89.3994 100.742 86.075 113.439 82.8316 113.205H82.834Z" fill="#FFB27D"/>
<path d="M88.7103 93.8744C88.7103 93.8744 80.8048 100.693 75.4286 101.24C70.0524 101.79 68.0146 100.062 68.0146 100.062C68.0146 100.062 71.1838 97.4286 73.0918 93.1784C73.6528 91.9256 74.8421 91.0672 76.2099 90.9489C80.049 90.6171 87.3285 90.4663 88.7126 93.8744H88.7103Z" fill="#545454"/>
<path d="M83.7705 93.2642C83.7705 93.2642 86.4157 95.8232 87.248 97.7209C88.0524 99.5514 88.2935 103.934 87.6537 105.674C87.6537 105.674 91.7734 97.656 89.4411 93.7607C86.9675 89.6288 83.7705 93.2642 83.7705 93.2642Z" fill="#545454"/>
<path d="M90.7559 139.054C90.3826 164.07 90.6539 158.843 87.9183 161.217C87.2599 161.787 85.4075 162.128 82.9687 162.291C75.3043 162.799 61.828 161.537 61.3156 160.119C59.5468 155.215 60.7963 153.691 59.3195 146.181C59.1665 145.383 58.9764 144.517 58.7516 143.575C57.5205 138.418 56.3243 136.662 60.6874 128.377C64.6447 120.872 68.7551 114.78 69.126 115C79.5654 121.202 80.407 115.988 80.407 115.988C80.407 115.988 90.9344 126.853 90.7513 139.056L90.7559 139.054Z" fill="#C0D8FB"/>
<path d="M117.513 203.559L109.487 225.172C109.487 225.172 107.31 225.383 105.224 224.782C103.304 224.228 101.1 222.773 101.1 222.773C101.1 222.773 103.328 199.566 107.484 186.245L117.511 203.559H117.513Z" fill="#0071F5"/>
<path d="M80.4115 115.986C80.4115 115.986 91.1546 117.81 92.4157 122.438C93.6769 127.066 101.1 154.277 101.1 154.277C101.1 154.277 95.6382 155.259 93.1159 152.735C90.5936 150.211 84.3364 129.312 84.3364 129.312L80.4092 115.988L80.4115 115.986Z" fill="#C0D8FB"/>
<path d="M82.9704 162.291C75.3061 162.799 61.8297 161.537 61.3174 160.119C59.5485 155.215 60.7981 153.691 59.3213 146.181L63.019 135.762C63.019 135.762 62.407 147.364 65.8265 150.415C69.2414 153.466 79.8245 156.305 81.4867 158.855C82.2888 160.078 82.8151 161.305 82.9681 162.291H82.9704Z" fill="#A5C7FA"/>
<path d="M74.1885 157.41C74.1885 157.41 81.7508 155.725 82.9703 156.396C84.1897 157.066 87.1734 159.514 87.5466 160.365C87.9199 161.217 84.8296 159.718 83.8257 159.449C83.1743 159.275 81.461 159.869 80.6125 160.152C77.0423 161.342 74.8562 160.729 74.8562 160.729L74.1885 157.407V157.41Z" fill="#FFB27D"/>
<path d="M69.1233 114.993C69.1233 114.993 58.969 115.62 55.4545 120.524C50.5072 127.431 40.6914 156.864 46.3157 160.79C52.6516 165.209 75.1486 161.945 75.1486 161.945C75.1486 161.945 75.8974 158.444 74.8564 156.748C73.8155 155.055 56.8872 152.317 56.1059 151.535C55.3246 150.753 65.873 136.288 65.873 133.943C65.873 131.597 69.1256 114.989 69.1256 114.989L69.1233 114.993Z" fill="#C0D8FB"/>
<path d="M83.3369 158.505C83.3369 158.505 84.9203 160.551 85.442 160.794C85.9613 161.038 86.2974 160.978 86.2974 160.978L85.2287 159.054L83.3369 158.505Z" fill="#FFB27D"/>
<path d="M82.9707 156.398L87.5772 158.637C87.5772 158.637 87.3801 158.957 86.8145 158.931C86.2465 158.906 84.8161 158.382 84.8161 158.382L82.9707 156.398Z" fill="#FFB27D"/>
<path d="M86.6602 164.177H123.102L134.065 136.896H97.6791L86.6602 164.177Z" fill="#0071F5"/>
<path d="M123.528 163.114H75.4092V164.177H123.102L123.528 163.114Z" fill="#004EA8"/>
<path d="M113.903 150.538C114.179 149.58 113.625 148.802 112.665 148.802C111.705 148.802 110.708 149.58 110.432 150.538C110.156 151.496 110.71 152.273 111.67 152.273C112.63 152.273 113.629 151.496 113.903 150.538Z" fill="white"/>
<path d="M275.769 250.743H275.876C276.499 250.743 277.002 250.198 276.989 249.536L275.303 172.095L270.335 171.48L274.57 249.541C274.608 250.214 275.134 250.74 275.769 250.74V250.743Z" fill="#C0D8FB"/>
<path d="M74.3701 250.743H74.2635C73.6398 250.743 73.1368 250.198 73.1507 249.536L74.8361 172.095L79.8042 171.48L75.5687 249.541C75.5316 250.214 75.0053 250.74 74.3701 250.74V250.743Z" fill="#C0D8FB"/>
<path d="M69.2213 164.177H281.753C283.492 164.177 284.906 165.59 284.906 167.332V170.369C284.906 172.109 283.494 173.524 281.753 173.524H69.2213C67.4825 173.524 66.0684 172.111 66.0684 170.369V167.335C66.0684 165.595 67.4802 164.179 69.2213 164.179V164.177Z" fill="#C0D8FB"/>
<path d="M379.946 249.483C379.946 249.483 380.426 245.748 381.534 243.528C382.645 241.307 389.706 242.72 389.706 242.72C389.706 242.72 391.118 243.931 391.422 249.585L379.946 249.483Z" fill="#545454"/>
<path d="M355.887 249.434C357.547 248.42 356.601 240.86 356.601 240.86C356.601 240.86 348.869 234.67 347.805 239.41C346.741 244.149 340.461 246.277 336.884 246.857C334.415 247.258 333.652 248.625 333.413 249.434H355.885H355.887Z" fill="#3B3B3B"/>
<path d="M371.901 194.441C371.586 196.177 371.387 197.601 371.334 198.62C370.615 212.651 359.531 244.729 357.549 245.479C354.482 246.636 349.65 244.175 347.123 243.37C346.075 243.036 345.368 241.978 345.603 240.906C351.09 215.655 353.109 179.296 353.842 157.772C354.213 146.928 356.072 139.439 356.072 139.439C356.072 139.439 383.104 132.222 383.264 141.351C383.405 149.429 374.31 181.113 371.899 194.441H371.901Z" fill="#0059C2"/>
<path d="M371.902 194.441L353.845 157.769C354.216 146.926 356.075 139.437 356.075 139.437C356.075 139.437 383.106 132.219 383.266 141.348C383.408 149.427 374.313 181.111 371.902 194.439V194.441Z" fill="#0059C2"/>
<path d="M365.888 141.381L380.178 245.024C380.178 245.024 386.453 246.539 391.334 245.328C391.334 245.328 395.518 190.207 395.168 176.881C394.82 163.555 398.17 141.223 394.403 138.759C390.636 136.295 365.888 141.383 365.888 141.383V141.381Z" fill="#0071F5"/>
<path d="M397.187 139.655C397.257 140.592 396.657 141.444 395.757 141.706C393.763 142.286 391.466 142.687 387.033 143.606C382.87 144.471 377.269 145.237 370.388 145.278C359.443 145.348 355.298 141.573 355.298 141.573C354.827 141.583 355.546 139.291 356.195 128.389C356.415 124.696 356.626 120.016 356.779 114.1C356.918 108.778 357.011 102.454 357.02 94.9533C357.032 85.9285 370.991 76.2217 371.248 76.2217V76.2263C371.25 77.5255 373.297 79.9244 376.448 80.1309C380.19 80.3768 384.778 78.5115 384.778 76.3562C384.778 76.3354 391.54 87.1813 393.942 98.7395C395.154 104.558 394.665 104.4 397.187 139.655Z" fill="#C0D8FB"/>
<path d="M371.248 76.2217C371.248 76.2217 358.27 76.1103 355.145 80.4951C352.022 84.8799 345.174 108.463 348.747 116.309C352.321 124.155 359.007 113.063 362.719 108.256C366.431 103.449 371.248 76.2217 371.248 76.2217Z" fill="#C0D8FB"/>
<path d="M371.116 74.2403L371.123 75.5836C371.123 75.5836 370.757 79.7828 375.924 80.3953C381.092 81.0101 384.926 79.6111 384.785 76.3701C384.319 73.8622 383.888 71.2847 383.853 69.2083C383.841 68.4357 383.892 67.6191 384.036 66.6934L374.023 66.4939L371.074 66.9765L371.111 74.2403H371.116Z" fill="#FFB27D"/>
<path d="M371.076 66.9765L371.114 74.2403C372.178 74.7345 373.376 75.0361 374.723 75.0361C379.325 75.0361 382.299 71.6605 383.853 69.2083C383.841 68.4357 383.892 67.6191 384.036 66.6934L374.023 66.4939L371.074 66.9765H371.076Z" fill="#ED975D"/>
<path d="M384.805 65.0833C383.644 71.3403 375.576 71.1339 372.092 70.7418C371.111 70.6327 370.494 70.5075 370.494 70.5075C369.389 70.2128 368.772 68.4682 368.484 66.1853C367.914 61.666 368.635 55.0308 369.398 53.3326C370.545 50.7783 372.708 48.0175 380.834 50.0104C388.96 52.0056 386.301 57.0701 384.81 65.0857L384.805 65.0833Z" fill="#FFB27D"/>
<path d="M357.976 93.7979C357.976 93.7979 352.957 104.892 353.103 108.217C353.103 108.217 355.588 108.131 357.976 108.843C361.901 110.015 357.976 93.7979 357.976 93.7979Z" fill="#A5C7FA"/>
<path d="M366.901 47.3749C366.901 47.3749 370.476 47.0988 374.695 45.2637C378.117 43.7743 382.436 45.4145 383.838 46.1546C383.801 45.9296 383.711 45.621 383.498 45.3101C383.498 45.3101 384.126 45.7556 384.221 46.382C384.286 46.4307 384.314 46.4632 384.297 46.4748C384.297 46.4748 385.011 46.3448 385.47 46.5513C385.47 46.5513 385.151 46.5049 385.035 46.7114C385.023 46.7323 385.005 46.7508 384.984 46.7694C390.323 49.3515 390.817 57.7963 389.099 59.7497C387.031 62.0999 383.91 67.4196 383.91 67.4196C383.91 67.4196 383.648 66.1436 384.026 64.0742C384.402 62.0048 382.617 62.0048 380.361 61.0652C378.105 60.1256 379.985 57.4924 378.012 55.8939C376.04 54.2954 368.804 55.235 368.897 54.0124C366.21 53.0334 366.908 47.651 366.908 47.3772L366.901 47.3749Z" fill="#545454"/>
<path d="M386.44 114.578C384.321 123.092 361.405 127.493 356.195 128.389C356.416 124.695 356.627 120.016 356.78 114.1L386.44 114.578Z" fill="#A5C7FA"/>
<path d="M381.409 117.346C381.627 117.346 386.505 116.617 387.376 116.181C388.248 115.745 392.245 110.063 389.627 108.606C387.012 107.149 379.99 112.975 379.99 112.975L381.409 117.346Z" fill="#FFB27D"/>
<path d="M351.751 119.035C351.751 119.035 370.611 120.058 383.266 117.346C383.266 117.346 383.586 113.687 379.608 112.061C379.608 112.061 359.884 107.878 355.143 109.043C350.404 110.207 351.751 119.032 351.751 119.032V119.035Z" fill="#C0D8FB"/>
<path d="M395.062 104.224C391.149 108.948 386.032 112.801 380.392 113.706C380.346 113.634 378.683 111.11 378.996 107.402C379.14 105.686 379.706 103.716 381.05 101.616C381.463 100.971 381.832 100.217 382.158 99.3799C385.239 91.5151 384.78 76.3586 384.78 76.3586C384.78 76.3586 397.86 77.7297 401.936 83.5552C404.433 87.1234 401.25 96.7606 395.064 104.226L395.062 104.224Z" fill="#C0D8FB"/>
<path d="M372.09 70.7396C371.109 70.6305 370.492 70.5052 370.492 70.5052C369.387 70.2106 368.77 68.466 368.482 66.1831C370.557 66.6935 371.508 68.2989 371.902 68.981C372.08 69.2872 372.118 69.9763 372.09 70.7396Z" fill="#ED975D"/>
<path d="M366.82 74.2799C366.82 74.2799 362.301 66.8211 365.816 66.4963C369.328 66.1715 370.74 68.5518 371.248 69.4241C371.756 70.2988 371.116 74.2404 371.116 74.2404L366.822 74.2799H366.82Z" fill="#FFB27D"/>
<path d="M384.039 107.15C383.899 108.096 383.619 108.964 383.269 109.739C382.165 112.191 380.392 113.703 380.392 113.703C368.659 108.402 366.285 90.2043 365.888 80.2075C365.729 76.1893 365.888 73.4934 365.888 73.4934C371.181 71.7395 372.67 74.788 372.67 74.788C372.67 74.788 378.917 89.6591 382.161 99.3776C383.401 103.096 384.201 106.061 384.041 107.15H384.039Z" fill="#C0D8FB"/>
<path d="M395.061 104.224C391.148 108.947 386.032 112.801 380.391 113.706C368.658 108.405 366.284 90.2065 365.888 80.2097C365.888 80.2097 371.44 100.359 378.995 107.402C380.361 108.676 381.794 109.523 383.268 109.741C383.268 109.741 392.796 107.045 394.795 104.509C394.938 104.326 395.024 104.238 395.064 104.226L395.061 104.224Z" fill="#A5C7FA"/>
<path d="M211.38 164.177H174.939L163.976 136.896H200.362L211.38 164.177Z" fill="#0071F5"/>
<path d="M174.513 163.112H222.632V164.177H174.939L174.513 163.112Z" fill="#004EA8"/>
<path d="M184.138 150.535C183.862 149.577 184.416 148.8 185.376 148.8C186.336 148.8 187.333 149.577 187.609 150.535C187.885 151.494 187.331 152.271 186.371 152.271C185.411 152.271 184.412 151.494 184.138 150.535Z" fill="white"/>
<g clip-path="url(#clip1_55_358)">
<path d="M151.564 66.6365H122.672C121.34 66.6365 120.261 67.7194 120.261 69.0552V97.0214C120.261 98.3572 121.34 99.4401 122.672 99.4401H151.564C152.896 99.4401 153.976 98.3572 153.976 97.0214V69.0552C153.976 67.7194 152.896 66.6365 151.564 66.6365Z" fill="#C0D8FB"/>
<path d="M123.923 68.0577H150.312C151.527 68.0577 152.515 69.0471 152.515 70.2676V95.811C152.515 97.0295 151.529 98.0209 150.312 98.0209H123.923C122.708 98.0209 121.72 97.0315 121.72 95.811V70.2656C121.72 69.0471 122.706 68.0557 123.923 68.0557V68.0577Z" fill="#DFEBFD"/>
<path d="M136.42 71.0522C136.42 70.665 136.733 70.3528 137.117 70.3528C137.501 70.3528 137.815 70.667 137.815 71.0522C137.815 71.4375 137.501 71.7517 137.117 71.7517C136.733 71.7517 136.42 71.4375 136.42 71.0522Z" fill="#B7D3F3"/>
<path d="M142.054 72.0416C142.242 71.703 142.667 71.5814 143.004 71.7699C143.342 71.9585 143.463 72.3842 143.275 72.7228C143.087 73.0614 142.663 73.183 142.325 72.9945C141.988 72.8059 141.866 72.3802 142.054 72.0416Z" fill="#B7D3F3"/>
<path d="M146.881 75.8876C147.204 75.6788 147.637 75.7721 147.847 76.0965C148.055 76.4208 147.962 76.8547 147.639 77.0656C147.315 77.2744 146.883 77.1811 146.673 76.8567C146.464 76.5324 146.557 76.0985 146.881 75.8876Z" fill="#B7D3F3"/>
<path d="M149.273 81.8422C149.659 81.8422 149.97 82.1564 149.97 82.5416C149.97 82.9268 149.657 83.2411 149.273 83.2411C148.889 83.2411 148.575 82.9268 148.575 82.5416C148.575 82.1564 148.889 81.8422 149.273 81.8422Z" fill="#B7D3F3"/>
<path d="M148.052 88.7515C148.325 89.0252 148.325 89.4692 148.052 89.7429C147.779 90.0166 147.336 90.0166 147.063 89.7429C146.79 89.4692 146.79 89.0252 147.063 88.7515C147.336 88.4778 147.779 88.4778 148.052 88.7515Z" fill="#B7D3F3"/>
<path d="M143.667 93.1633C143.94 93.437 143.94 93.881 143.667 94.1547C143.394 94.4284 142.951 94.4284 142.678 94.1547C142.405 93.881 142.405 93.437 142.678 93.1633C142.951 92.8896 143.394 92.8896 143.667 93.1633Z" fill="#B7D3F3"/>
<path d="M136.42 95.436C136.42 95.0488 136.733 94.7366 137.117 94.7366C137.501 94.7366 137.815 95.0508 137.815 95.436C137.815 95.8212 137.501 96.1355 137.117 96.1355C136.733 96.1355 136.42 95.8212 136.42 95.436Z" fill="#B7D3F3"/>
<path d="M132.159 72.0415C131.971 71.7029 131.547 71.5813 131.209 71.7698C130.871 71.9584 130.75 72.3841 130.938 72.7227C131.126 73.0613 131.551 73.1829 131.888 72.9944C132.226 72.8058 132.347 72.3801 132.159 72.0415Z" fill="#B7D3F3"/>
<path d="M127.331 75.8875C127.008 75.6787 126.575 75.772 126.365 76.0963C126.157 76.4207 126.25 76.8546 126.573 77.0654C126.897 77.2743 127.329 77.181 127.539 76.8566C127.748 76.5322 127.655 76.0984 127.331 75.8875Z" fill="#B7D3F3"/>
<path d="M124.94 81.842C124.554 81.842 124.242 82.1563 124.242 82.5415C124.242 82.9267 124.556 83.241 124.94 83.241C125.324 83.241 125.639 82.9267 125.639 82.5415C125.639 82.1563 125.326 81.842 124.94 81.842Z" fill="#B7D3F3"/>
<path d="M126.161 88.7515C125.888 89.0252 125.888 89.4692 126.161 89.7429C126.434 90.0166 126.876 90.0166 127.149 89.7429C127.422 89.4692 127.422 89.0252 127.149 88.7515C126.876 88.4778 126.434 88.4778 126.161 88.7515Z" fill="#B7D3F3"/>
<path d="M130.545 93.1632C130.273 93.4369 130.273 93.8809 130.545 94.1546C130.818 94.4283 131.261 94.4283 131.534 94.1546C131.807 93.8809 131.807 93.4369 131.534 93.1632C131.261 92.8895 130.818 92.8895 130.545 93.1632Z" fill="#B7D3F3"/>
<path d="M136.93 82.5438C136.93 82.1566 137.243 81.8444 137.629 81.8444C138.015 81.8444 138.327 82.1586 138.327 82.5438C138.327 82.929 138.013 83.2433 137.629 83.2433C137.245 83.2433 136.93 82.929 136.93 82.5438Z" fill="#B7D3F3"/>
<path d="M137.722 73.7933H137.532V82.5437H137.722V73.7933Z" fill="#B7D3F3"/>
<path d="M141.987 78.6644L137.362 82.3068L137.716 82.758L142.341 79.1157L141.987 78.6644Z" fill="#B7D3F3"/>
</g>
</g>
<defs>
<clipPath id="clip0_55_358">
<rect width="446" height="249" fill="white"/>
</clipPath>
<clipPath id="clip1_55_358">
<rect width="33.7148" height="32.8036" fill="white" transform="translate(120.261 66.6365)"/>
</clipPath>
</defs>
</svg>
