<svg width="206" height="225" viewBox="0 0 206 225" fill="none" xmlns="http://www.w3.org/2000/svg">
<path d="M2.67159 222.292L30.3535 107.116L28.4197 102.582L0.996252 222.277C0.92576 222.584 1.15837 222.876 1.47323 222.876H1.93143C2.28389 222.876 2.59171 222.633 2.67395 222.289L2.67159 222.292Z" fill="#C0D8FB"/>
<path d="M127.604 222.876C128.172 222.876 128.605 222.365 128.513 221.802L120.36 172.262H116.866L126.589 222.039C126.683 222.525 127.108 222.876 127.604 222.876Z" fill="#C0D8FB"/>
<path d="M49.3909 222.876C49.9595 222.876 50.3918 222.365 50.3002 221.802L42.1467 172.262H38.6527L48.3758 222.039C48.4698 222.525 48.8951 222.876 49.3909 222.876Z" fill="#C0D8FB"/>
<path d="M30.4265 172.369H127.801L107.626 45.5859H10.2519L30.4265 172.369Z" fill="white"/>
<path d="M23.1406 171.4H134.973V175.129H23.1406V171.4Z" fill="#C0D8FB"/>
<path d="M69.0654 72.1151C69.1382 73.1185 69.2863 74.1054 69.5024 75.0664C71.5326 84.1277 79.5803 91.0691 88.6761 91.0856C98.7399 91.1021 106.273 82.6391 105.505 72.1787C104.736 61.7183 95.9578 53.227 85.894 53.2105C83.784 53.2058 81.7867 53.5756 79.9516 54.261C79.1268 54.5672 78.3326 54.937 77.5784 55.3633C75.95 56.289 74.5003 57.4832 73.2761 58.8965C72.5946 59.6808 71.9837 60.5358 71.4527 61.445C71.1425 61.9726 70.8606 62.5191 70.6068 63.082C69.8995 64.6507 69.4108 66.3537 69.1758 68.1509C69.056 69.0507 69.0043 69.9787 69.016 70.9232C69.0207 71.3166 69.0372 71.7146 69.0677 72.1151H69.0654Z" fill="#C0D8FB"/>
<path d="M70.6054 63.0797L87.2812 72.1433C87.2812 72.1433 80.4013 59.9965 77.577 55.3586C75.9486 56.2843 74.4988 57.4785 73.2746 58.8918C72.5932 59.6761 71.9823 60.5311 71.4513 61.4403C71.1411 61.9679 70.8591 62.5144 70.6054 63.0773V63.0797Z" fill="white"/>
<path d="M68.8723 60.788L84.1055 69.0672C84.1055 69.0672 77.82 57.9709 75.24 53.7358C73.7526 54.5814 72.4274 55.672 71.3113 56.9628C70.6886 57.6812 70.1318 58.4608 69.6454 59.2923C69.3634 59.7728 69.1049 60.2721 68.8723 60.788Z" fill="#BDBDBD"/>
<path d="M38.1819 162.73L118.328 162.725L110.215 116.371L30.0684 116.376L38.1819 162.73ZM117.68 162.257L38.6636 162.261L30.7122 116.84L109.728 116.835L117.68 162.257Z" fill="#C0D8FB"/>
<path d="M42.9619 156.373L114.043 156.368C114.043 156.368 101.434 149.589 97.9757 149.945C94.5169 150.301 89.5449 153.045 86.3493 153.151C83.1537 153.257 79.6902 143.637 76.1328 144.092C72.5753 144.544 71.236 153.054 69.3938 152.223C67.5516 151.391 62.0181 151.031 58.8319 152.223C55.6457 153.415 51.0026 148.435 48.2018 148.591C45.4009 148.746 42.9643 156.371 42.9643 156.371L42.9619 156.373Z" fill="#BDBDBD"/>
<path d="M96.9511 142.749H110.525L110.401 142.026L96.8242 142.028L96.9511 142.749Z" fill="#BDBDBD"/>
<path d="M97.2183 144.292L110.795 144.29L110.668 143.569H97.0938L97.2183 144.292Z" fill="#BDBDBD"/>
<path d="M109.975 133.132L38.8936 133.137C38.8936 133.137 49.1289 126.358 52.7122 126.711C56.2955 127.067 62.2262 129.808 65.4594 129.914C68.6926 130.02 68.7866 120.401 72.5038 120.853C76.221 121.305 80.5375 129.815 82.0906 128.984C83.6414 128.153 89.0481 127.792 92.6526 128.984C96.2547 130.176 99.1565 125.196 102.011 125.352C104.869 125.507 109.975 133.132 109.975 133.132Z" fill="#C0D8FB"/>
<path d="M93.1128 120.839L106.689 120.837L106.563 120.116H92.986L93.1128 120.839Z" fill="#C0D8FB"/>
<path d="M93.3824 122.38H106.959L106.832 121.656L93.2555 121.659L93.3824 122.38Z" fill="#C0D8FB"/>
<path d="M105.364 109.905H108.482L105.773 95.2593H102.657L105.364 109.905Z" fill="#C0D8FB"/>
<path d="M101.118 109.905H104.236L102.138 98.5593H99.02L101.118 109.905Z" fill="#C0D8FB"/>
<path d="M96.8726 109.905H99.9883L97.8007 98.074H94.6826L96.8726 109.905Z" fill="#C0D8FB"/>
<path d="M92.6241 109.905H95.7422L94.0762 100.905H90.9605L92.6241 109.905Z" fill="#C0D8FB"/>
<path d="M88.3784 109.905H91.4941L89.7084 100.25H86.5926L88.3784 109.905Z" fill="#C0D8FB"/>
<path d="M84.13 109.905H87.248L85.8617 102.417H82.746L84.13 109.905Z" fill="#C0D8FB"/>
<path d="M63.6593 109.905H66.7773L64.0681 95.2593H60.9501L63.6593 109.905Z" fill="#BDBDBD"/>
<path d="M59.4132 109.905H62.5312L60.4306 98.5593H57.3149L59.4132 109.905Z" fill="#BDBDBD"/>
<path d="M55.1651 109.905H58.2832L56.0956 98.074H52.9776L55.1651 109.905Z" fill="#BDBDBD"/>
<path d="M50.919 109.905H54.0371L52.3712 100.905H49.2531L50.919 109.905Z" fill="#BDBDBD"/>
<path d="M46.671 109.905H49.7891L48.0033 100.25H44.8852L46.671 109.905Z" fill="#BDBDBD"/>
<path d="M42.4249 109.905H45.543L44.1566 102.417H41.0386L42.4249 109.905Z" fill="#BDBDBD"/>
<path d="M48.6485 62.1H58.7969L58.5361 60.7056H48.3877L48.6485 62.1Z" fill="#C0D8FB"/>
<path d="M36.2005 62.1H47.4062L47.1454 60.7056H35.9373L36.2005 62.1Z" fill="#C0D8FB"/>
<path d="M28.21 62.1H35.3555L35.0947 60.7056H27.9492L28.21 62.1Z" fill="#C0D8FB"/>
<path d="M21.5423 62.1H27.0547L26.7939 60.7056H21.2815L21.5423 62.1Z" fill="#C0D8FB"/>
<path d="M49.7618 68.045H59.9102L59.6493 66.6506H49.5009L49.7618 68.045Z" fill="#C0D8FB"/>
<path d="M37.3138 68.045H48.5195L48.2587 66.6506H37.0529L37.3138 68.045Z" fill="#C0D8FB"/>
<path d="M29.3256 68.045H36.4688L36.2079 66.6506H29.0625L29.3256 68.045Z" fill="#C0D8FB"/>
<path d="M22.6556 68.045H28.168L27.9072 66.6506H22.3947L22.6556 68.045Z" fill="#C0D8FB"/>
<path d="M42.6179 58.847H58.1895L57.9286 57.4526H42.3571L42.6179 58.847Z" fill="#C0D8FB"/>
<path d="M32.1589 58.847H41.1348L40.8739 57.4526H31.8981L32.1589 58.847Z" fill="#C0D8FB"/>
<path d="M20.9271 58.847H30.8945L30.6314 57.4526H20.6639L20.9271 58.847Z" fill="#C0D8FB"/>
<path d="M43.8015 65.1689H59.373L59.1122 63.7769H43.5407L43.8015 65.1689Z" fill="#C0D8FB"/>
<path d="M33.3425 65.1689H42.3184L42.0575 63.7769H33.0817L33.3425 65.1689Z" fill="#C0D8FB"/>
<path d="M22.1107 65.1689H32.0781L31.815 63.7769H21.8475L22.1107 65.1689Z" fill="#C0D8FB"/>
<path d="M50.877 73.9899H61.0254L60.7646 72.5979H50.6162L50.877 73.9899Z" fill="#C0D8FB"/>
<path d="M38.429 73.9899H49.6348L49.374 72.5979H38.1682L38.429 73.9899Z" fill="#C0D8FB"/>
<path d="M30.4409 73.9899H37.584L37.3232 72.5979H30.18L30.4409 73.9899Z" fill="#C0D8FB"/>
<path d="M23.7708 73.9899H29.2832L29.0224 72.5979H23.51L23.7708 73.9899Z" fill="#C0D8FB"/>
<path d="M44.9148 71.1163H60.4863L60.2255 69.7219H44.654L44.9148 71.1163Z" fill="#C0D8FB"/>
<path d="M34.4557 71.1163H43.4316L43.1708 69.7219H34.1949L34.4557 71.1163Z" fill="#C0D8FB"/>
<path d="M23.2239 71.1163H33.1914L32.9306 69.7219H22.9631L23.2239 71.1163Z" fill="#C0D8FB"/>
<path d="M51.9219 79.5653H62.0703L61.8095 78.1709H51.6588L51.9219 79.5653Z" fill="#C0D8FB"/>
<path d="M39.47 79.5653H50.6758L50.415 78.1709H39.2092L39.47 79.5653Z" fill="#C0D8FB"/>
<path d="M31.4838 79.5653H38.627L38.3661 78.1709H31.223L31.4838 79.5653Z" fill="#C0D8FB"/>
<path d="M24.8134 79.5653H30.3281L30.065 78.1709H24.5525L24.8134 79.5653Z" fill="#C0D8FB"/>
<path d="M45.9601 76.6894H61.5293L61.2685 75.2974H45.6993L45.9601 76.6894Z" fill="#C0D8FB"/>
<path d="M35.5007 76.6894H44.4766L44.2157 75.2974H35.2399L35.5007 76.6894Z" fill="#C0D8FB"/>
<path d="M24.2669 76.6894H34.2344L33.9736 75.2974H24.0061L24.2669 76.6894Z" fill="#C0D8FB"/>
<path d="M75.0171 97.4382H79.9844L79.8551 96.7551H74.8879L75.0171 97.4382Z" fill="#C0D8FB"/>
<path d="M68.9216 97.4382H74.4082L74.279 96.7551H68.7947L68.9216 97.4382Z" fill="#C0D8FB"/>
<path d="M75.562 100.347H80.5293L80.4001 99.6665H75.4328L75.562 100.347Z" fill="#C0D8FB"/>
<path d="M69.4666 100.347H74.9531L74.8239 99.6665H69.3397L69.4666 100.347Z" fill="#C0D8FB"/>
<path d="M72.0631 95.8459H79.6855L79.5563 95.1628H71.9362L72.0631 95.8459Z" fill="#C0D8FB"/>
<path d="M66.9463 95.8459H71.3379L71.211 95.1628H66.8171L66.9463 95.8459Z" fill="#C0D8FB"/>
<path d="M72.6432 98.9409H80.2656L80.1364 98.2578H72.5163L72.6432 98.9409Z" fill="#C0D8FB"/>
<path d="M67.524 98.9409H71.918L71.7911 98.2578H67.3971L67.524 98.9409Z" fill="#C0D8FB"/>
<path d="M35.2261 97.4382H40.1934L40.0665 96.7551H35.0968L35.2261 97.4382Z" fill="#C0D8FB"/>
<path d="M29.1306 97.4382H34.6172L34.488 96.7551H29.0037L29.1306 97.4382Z" fill="#C0D8FB"/>
<path d="M35.771 100.347H40.7383L40.6114 99.6665H35.6418L35.771 100.347Z" fill="#C0D8FB"/>
<path d="M29.6755 100.347H35.1621L35.0329 99.6665H29.5487L29.6755 100.347Z" fill="#C0D8FB"/>
<path d="M32.2721 95.8459H39.8945L39.7677 95.1628H32.1452L32.2721 95.8459Z" fill="#C0D8FB"/>
<path d="M27.1549 95.8459H31.5488L31.4196 95.1628H27.028L27.1549 95.8459Z" fill="#C0D8FB"/>
<path d="M32.8522 98.9409H40.4746L40.3454 98.2578H32.7253L32.8522 98.9409Z" fill="#C0D8FB"/>
<path d="M27.7353 98.9409H32.127L32.0001 98.2578H27.6061L27.7353 98.9409Z" fill="#C0D8FB"/>
<g clip-path="url(#clip0_58_457)">
<path d="M174.703 48.0386C175.497 46.4972 157.359 40.9465 157.073 56.1606C157.073 56.1606 123.096 55.3199 139.319 36.2783C144.935 29.6853 144.358 24.2354 144.189 19.1616C144.018 14.0877 147.688 -0.659257 160.264 0.825523C160.264 0.825523 163.557 -0.521595 167.667 1.62199C177.013 6.49669 197.953 53.6507 174.703 48.0386Z" fill="#3B3B3B"/>
<path d="M119.154 65.0472C119.154 65.0472 116.942 61.6622 115.159 61.5958C113.377 61.5294 110.077 60.6002 110.341 61.2639C110.605 61.9277 112.651 61.994 112.849 62.3923C113.047 62.7905 109.813 63.3879 108.889 63.4542C107.964 63.5206 105.786 63.4542 105.852 63.9188C105.918 64.3835 109.778 66.3083 112.502 66.0428C115.226 65.7773 118.592 66.8392 118.592 66.8392L119.154 65.0472Z" fill="#FFB27D"/>
<path d="M151.141 66.1412C151.141 66.1412 149.938 68.5355 147.757 71.2838C145.129 74.5926 141.078 78.4177 135.988 79.1723C133.558 79.5337 131.181 79.0076 128.996 78.0317C128.991 78.0317 128.988 78.0317 128.988 78.0317C122.81 75.2736 118.163 68.9313 118.163 68.9313C117.072 65.9445 118.855 63.9189 118.855 63.9189C118.855 63.9189 131.333 66.741 132.521 66.1437C133.709 65.5463 140.64 45.4674 142.29 42.9428C143.943 40.4206 149.566 39.1104 149.566 39.1104L151.136 66.1437L151.141 66.1412Z" fill="#B0D0FF"/>
<path d="M147.757 71.2864C145.129 74.5952 141.078 78.4202 135.988 79.1749C133.558 79.5362 131.182 79.0102 128.996 78.0342C129.238 78.0662 135.409 78.8332 137.868 74.4083C140.376 69.8925 143.09 62.7243 146.819 65.1137C148.427 66.1462 148.356 68.7077 147.755 71.2864H147.757Z" fill="#98BAF4"/>
<path d="M180.706 96.8718C176.303 86.9454 173.612 84.0963 174.125 81.0161C174.509 78.7226 172.959 38.2623 172.959 38.2623C172.436 38.1001 171.389 37.9551 170.817 37.8272C169.011 37.4241 167.517 36.1483 166.896 34.398C166.148 32.2888 165.551 29.1718 165.566 25.2681L165.001 25.3787L155.52 27.2666C155.52 27.2666 155.735 30.2657 155.743 33.0927C155.743 33.1172 155.743 33.1394 155.743 33.1639C155.755 35.6197 154.153 37.7854 151.806 38.4664C150.609 38.813 149.567 39.1104 149.567 39.1104C149.567 39.1104 146.086 49.1057 145.421 59.3713C144.756 69.6394 151.753 74.0986 145.367 94.6151C138.849 115.569 183.137 102.356 180.704 96.8718H180.706Z" fill="#FFB27D"/>
<path d="M155.521 27.2642C155.521 27.2642 155.736 30.2632 155.743 33.0902C161.049 32.9402 163.853 28.0729 165.002 25.3762L155.521 27.2642Z" fill="#E8945B"/>
<path d="M153.75 29.9411C153.75 29.9411 166.304 30.1501 166.311 22.2861C166.321 14.4247 167.947 9.15667 159.933 8.6896C151.919 8.225 150.359 11.2216 149.721 13.847C149.083 16.4724 150.486 29.683 153.752 29.9411H153.75Z" fill="#FFB27D"/>
<path d="M154.216 8.49788C154.216 8.49788 157.653 17.7212 162.927 19.0855C168.2 20.4499 170.488 19.029 170.488 19.029C170.488 19.029 166.442 15.7964 165.604 10.1572C165.604 10.1572 156.807 4.10991 154.216 8.50033V8.49788Z" fill="#3B3B3B"/>
<path d="M155.066 9.24755C155.066 9.24755 152.519 10.2063 151.468 12.0745C150.441 13.9035 149.568 16.3224 149.771 19.2919C149.771 19.2919 147.182 13.0234 150.091 9.47617C153.177 5.71506 155.064 9.24755 155.064 9.24755H155.066Z" fill="#3B3B3B"/>
<path d="M156.48 25.0639C156.48 25.0639 155.615 26.2094 153.882 26.1283C152.486 26.0619 151.948 24.8451 151.948 24.8451C151.948 24.8451 154.512 24.2256 156.48 25.0663V25.0639Z" fill="#EBF3FA"/>
<path d="M181.919 56.1582C181.919 56.1582 182.237 60.6765 181.919 66.0994C181.707 69.6933 178.091 74.509 177.577 75.6988C176.289 78.6856 174.839 79.1723 174.839 79.1723L163.608 81.9403L159.659 82.9113L147.206 79.1723C147.206 79.1723 141.534 63.2527 143.81 54.2924C146.088 45.3321 149.567 39.1079 149.567 39.1079C149.567 39.1079 159.73 49.1129 172.962 38.2598L181.919 56.1582Z" fill="#B0D0FF"/>
<path d="M178.63 67.5669C178.418 71.1609 178.09 74.509 177.577 75.6988C176.288 78.6855 174.838 79.1723 174.838 79.1723L163.607 81.9403L158.73 80.4973C158.73 80.4973 175.015 78.0169 173.21 63.9287L178.633 67.5645L178.63 67.5669Z" fill="#F2CCAA"/>
<path d="M165.382 218.77C165.217 221.065 161.979 221.095 158.307 220.672C154.634 220.249 155.61 221.179 150.47 221.256C145.327 221.333 143.553 219.633 143.303 218.899C143.081 218.246 145.557 217.695 148.206 217.047C148.54 216.965 148.873 216.881 149.207 216.797C152.195 216.035 154.17 213.794 156.725 211.838C159.144 209.986 156.725 199.012 156.725 199.012L164.451 198.26C164.451 198.26 164.08 207.498 164.085 211.7C164.085 213.357 164.848 214.949 165.135 216.386C165.288 217.168 165.442 217.964 165.38 218.773L165.382 218.77Z" fill="#FFB27D"/>
<path d="M158.307 220.67C154.634 220.247 155.61 221.177 150.47 221.253C145.327 221.33 143.553 219.631 143.303 218.896C143.081 218.244 145.557 217.692 148.206 217.044L148.238 217.094C148.238 217.094 151.55 218.869 155.786 218.439C159.236 218.09 162.758 216.643 165.138 216.384C165.291 217.165 165.444 217.962 165.382 218.77C165.217 221.065 161.979 221.095 158.307 220.672V220.67Z" fill="#545454"/>
<path d="M147.997 81.5889C147.997 81.5889 141.829 100.891 141.433 107.462C141.037 114.033 153.222 200.819 153.713 203.847C154.175 206.701 157.701 208.52 157.701 208.52C157.701 208.52 159.322 209.481 161.637 208.825C164.847 207.913 165.861 206.822 165.861 206.822C165.861 206.822 170.661 144.928 167.69 122.819C164.72 100.709 164.685 81.5889 164.685 81.5889H147.997Z" fill="#0059C2"/>
<path d="M202.293 206.32C202.766 207.026 202.745 207.743 202.375 208.464C202.374 208.466 202.374 208.471 202.369 208.473C201.685 209.807 199.812 211.159 197.672 212.471C197.398 212.64 197.154 212.795 196.94 212.939C196.884 212.975 196.827 213.015 196.774 213.052C196.731 213.081 196.688 213.112 196.648 213.141C194.623 214.581 195.255 215.05 191.568 218.028C187.364 221.419 184.801 221.163 184.119 220.719C183.541 220.34 185.053 218.45 186.73 216.323C186.811 216.221 186.891 216.116 186.975 216.012C187.199 215.729 187.422 215.442 187.644 215.157C189.618 212.591 189.368 211.238 189.508 207.062C189.623 203.669 186.684 187.669 186.684 187.669L193.951 187.35C193.951 187.35 194.532 199.866 196.652 202.054C197.787 203.219 199.197 203.413 200.315 204.312C200.395 204.373 200.472 204.439 200.547 204.503C201.179 205.048 201.819 205.609 202.294 206.316L202.293 206.32Z" fill="#FFB27D"/>
<path d="M202.294 206.32C202.767 207.026 202.746 207.743 202.376 208.464C202.376 208.466 202.375 208.471 202.37 208.473C201.571 209.792 199.744 211.14 197.667 212.456C197.396 212.629 197.156 212.787 196.941 212.938C196.885 212.975 196.829 213.015 196.775 213.052C196.732 213.081 196.689 213.112 196.649 213.141C194.624 214.581 195.256 215.05 191.57 218.028C187.365 221.419 184.802 221.163 184.12 220.719C183.543 220.34 185.054 218.45 186.731 216.323C187.487 216.15 191.016 215.212 193.968 212.288C196.566 209.72 198.522 206.243 200.316 204.312C200.396 204.373 200.473 204.439 200.548 204.503C201.18 205.048 201.82 205.609 202.295 206.315L202.294 206.32Z" fill="#545454"/>
<path d="M174.128 81.0134C174.128 81.0134 183.536 93.7053 184.414 102.285C185.291 110.864 185.79 141.002 187.658 149.365C189.526 157.728 196.391 173.824 196.391 199.911C196.391 199.911 195.677 201.406 193.474 202.202C192.77 202.458 191.826 202.704 190.909 202.915C189.093 203.333 187.228 202.441 186.399 200.762C181.759 191.366 166.972 161.061 166.214 154.771C165.679 150.319 161.009 120.857 150.827 103.568C148.382 99.4183 152.328 82.9112 152.328 82.9112L174.128 81.0134Z" fill="#0071F5"/>
<path d="M156.203 25.2753C156.203 25.2753 155.985 26.202 153.694 26.0594C153.694 26.0594 151.77 25.939 151.829 24.9213C151.829 24.9213 153.694 24.1961 156.205 25.2753H156.203Z" fill="white"/>
<path d="M147.012 78.6094C147.012 78.6094 149.489 80.5784 154.408 80.6792C160.283 80.7972 174.839 79.1723 174.839 79.1723C174.839 79.1723 175.487 80.989 175.46 82.9088C175.46 82.9088 157.682 87.4173 147.379 83.5676C147.379 83.5676 146.052 81.0529 147.012 78.6094Z" fill="#3B3B3B"/>
<path d="M155.676 82.7196C155.676 81.0382 154.473 79.6689 152.996 79.6689C151.52 79.6689 150.314 81.0382 150.314 82.7196C150.314 84.4011 151.517 85.7703 152.996 85.7703C154.475 85.7703 155.676 84.4011 155.676 82.7196ZM154.788 82.7196C154.788 83.9094 153.984 84.878 152.996 84.878C152.009 84.878 151.204 83.9094 151.204 82.7196C151.204 81.5298 152.009 80.5613 152.996 80.5613C153.984 80.5613 154.788 81.5298 154.788 82.7196Z" fill="white"/>
<path d="M193.978 82.1023L175.762 98.0522L154.048 72.9808L172.264 57.0308L193.978 82.1023Z" fill="#4A99F5"/>
<path d="M170.73 82.1592C170.73 82.1592 164.055 82.9434 164.077 84.5363C164.099 86.1292 165.74 89.4012 166.564 89.5462C167.388 89.6912 171.996 85.1214 171.996 85.1214L170.73 82.1592Z" fill="#FFB27D"/>
<path d="M172.96 38.2598C172.96 38.2598 181.872 38.8891 185.287 47.2373C188.702 55.5855 195.184 69.6048 195.184 71.9623C195.184 74.3197 191.563 81.5912 172.122 85.7702C172.122 85.7702 170.11 83.6439 170.232 81.9624C170.232 81.9624 182.368 71.4805 182.336 70.2563C182.275 67.9381 180.346 64.8801 169.692 54.1621C166.795 51.2491 172.96 38.2622 172.96 38.2622V38.2598Z" fill="#B0D0FF"/>
</g>
<defs>
<clipPath id="clip0_58_457">
<rect width="99" height="224" fill="white" transform="matrix(-1 0 0 1 205.043 0.244629)"/>
</clipPath>
</defs>
</svg>
