<svg width="206" height="223" viewBox="0 0 206 223" fill="none" xmlns="http://www.w3.org/2000/svg">
<path d="M92.0069 3.88574H100.306L113.462 152.151H105.162C101.332 152.151 97.9534 149.042 97.6163 145.215L85.6874 10.8291C85.3503 6.99481 88.1765 3.89292 91.9997 3.89292L92.0069 3.88574Z" fill="#BDBDBD"/>
<path d="M198.232 152.151H107.622C103.333 152.151 99.5525 148.669 99.1795 144.375L87.5806 11.6548C87.2076 7.361 90.3781 3.88574 94.6676 3.88574H185.278C189.567 3.88574 193.348 7.36818 193.721 11.6548L205.319 144.375C205.692 148.669 202.522 152.151 198.232 152.151Z" fill="#BDBDBD"/>
<path opacity="0.5" d="M198.232 152.151H107.622C103.333 152.151 99.5525 148.669 99.1795 144.375L87.5806 11.6548C87.2076 7.361 90.3781 3.88574 94.6676 3.88574H185.278C189.567 3.88574 193.348 7.36818 193.721 11.6548L205.319 144.375C205.692 148.669 202.522 152.151 198.232 152.151Z" fill="white"/>
<path opacity="0.2" d="M108.527 135.213H197.279L186.06 8.77563H97.3008L108.527 135.213Z" fill="black"/>
<path d="M112.407 133.483H201.16L186.06 8.77563H97.3008L112.407 133.483Z" fill="#BDBDBD"/>
<path opacity="0.8" d="M112.407 133.483H201.16L186.06 8.77563H97.3008L112.407 133.483Z" fill="white"/>
<path d="M178.526 32.8946H123.006C122.368 32.8946 121.808 32.3776 121.751 31.7385C121.693 31.0995 122.167 30.5825 122.805 30.5825H178.325C178.963 30.5825 179.523 31.0995 179.58 31.7385C179.637 32.3776 179.164 32.8946 178.526 32.8946Z" fill="#3B3B3B"/>
<path d="M176.799 39.4358H113.783C113.145 39.4358 112.586 38.9189 112.528 38.2798C112.471 37.6408 112.944 37.1238 113.583 37.1238H176.598C177.236 37.1238 177.796 37.6408 177.853 38.2798C177.911 38.9189 177.437 39.4358 176.799 39.4358Z" fill="#3B3B3B"/>
<path d="M179.676 45.97H114.358C113.719 45.97 113.16 45.453 113.102 44.814C113.045 44.1749 113.518 43.658 114.157 43.658H179.475C180.113 43.658 180.673 44.1749 180.73 44.814C180.787 45.453 180.314 45.97 179.676 45.97Z" fill="#3B3B3B"/>
<path d="M172.178 52.5113H114.93C114.292 52.5113 113.732 51.9943 113.675 51.3552C113.617 50.7162 114.091 50.1992 114.729 50.1992H171.977C172.616 50.1992 173.175 50.7162 173.233 51.3552C173.29 51.9943 172.817 52.5113 172.178 52.5113Z" fill="#3B3B3B"/>
<path d="M180.815 59.0455H125.295C124.657 59.0455 124.097 58.5285 124.04 57.8894C123.982 57.2504 124.456 56.7334 125.094 56.7334H180.614C181.252 56.7334 181.812 57.2504 181.869 57.8894C181.927 58.5285 181.453 59.0455 180.815 59.0455Z" fill="#3B3B3B"/>
<path d="M178.507 65.5867H116.072C115.434 65.5867 114.875 65.0697 114.817 64.4307C114.76 63.7916 115.233 63.2747 115.872 63.2747H178.306C178.944 63.2747 179.504 63.7916 179.561 64.4307C179.619 65.0697 179.145 65.5867 178.507 65.5867Z" fill="#3B3B3B"/>
<path d="M181.957 72.1277H116.639C116.001 72.1277 115.441 71.6107 115.384 70.9717C115.326 70.3326 115.8 69.8157 116.438 69.8157H181.756C182.394 69.8157 182.954 70.3326 183.011 70.9717C183.069 71.6107 182.595 72.1277 181.957 72.1277Z" fill="#3B3B3B"/>
<path d="M177.917 78.6619H117.211C116.573 78.6619 116.013 78.1449 115.956 77.5059C115.898 76.8668 116.372 76.3499 117.01 76.3499H177.716C178.354 76.3499 178.914 76.8668 178.971 77.5059C179.029 78.1449 178.555 78.6619 177.917 78.6619Z" fill="#3B3B3B"/>
<g opacity="0.3">
<path d="M178.526 32.8946H123.006C122.368 32.8946 121.808 32.3776 121.751 31.7385C121.693 31.0995 122.167 30.5825 122.805 30.5825H178.325C178.963 30.5825 179.523 31.0995 179.58 31.7385C179.637 32.3776 179.164 32.8946 178.526 32.8946Z" fill="white"/>
<path d="M176.799 39.4358H113.783C113.145 39.4358 112.586 38.9189 112.528 38.2798C112.471 37.6408 112.944 37.1238 113.583 37.1238H176.598C177.236 37.1238 177.796 37.6408 177.853 38.2798C177.911 38.9189 177.437 39.4358 176.799 39.4358Z" fill="white"/>
<path d="M179.676 45.97H114.358C113.719 45.97 113.16 45.453 113.102 44.814C113.045 44.1749 113.518 43.658 114.157 43.658H179.475C180.113 43.658 180.673 44.1749 180.73 44.814C180.787 45.453 180.314 45.97 179.676 45.97Z" fill="white"/>
<path d="M172.178 52.5113H114.93C114.292 52.5113 113.732 51.9943 113.675 51.3552C113.617 50.7162 114.091 50.1992 114.729 50.1992H171.977C172.616 50.1992 173.175 50.7162 173.233 51.3552C173.29 51.9943 172.817 52.5113 172.178 52.5113Z" fill="white"/>
<path d="M180.815 59.0455H125.295C124.657 59.0455 124.097 58.5285 124.04 57.8894C123.982 57.2504 124.456 56.7334 125.094 56.7334H180.614C181.252 56.7334 181.812 57.2504 181.869 57.8894C181.927 58.5285 181.453 59.0455 180.815 59.0455Z" fill="white"/>
<path d="M178.507 65.5867H116.072C115.434 65.5867 114.875 65.0697 114.817 64.4307C114.76 63.7916 115.233 63.2747 115.872 63.2747H178.306C178.944 63.2747 179.504 63.7916 179.561 64.4307C179.619 65.0697 179.145 65.5867 178.507 65.5867Z" fill="white"/>
<path d="M181.957 72.1277H116.639C116.001 72.1277 115.441 71.6107 115.384 70.9717C115.326 70.3326 115.8 69.8157 116.438 69.8157H181.756C182.394 69.8157 182.954 70.3326 183.011 70.9717C183.069 71.6107 182.595 72.1277 181.957 72.1277Z" fill="white"/>
<path d="M177.917 78.6619H117.211C116.573 78.6619 116.013 78.1449 115.956 77.5059C115.898 76.8668 116.372 76.3499 117.01 76.3499H177.716C178.354 76.3499 178.914 76.8668 178.971 77.5059C179.029 78.1449 178.555 78.6619 177.917 78.6619Z" fill="white"/>
</g>
<path d="M183.187 117.165H163.705C163.067 117.165 162.507 116.648 162.45 116.009C162.393 115.37 162.866 114.853 163.504 114.853H182.987C183.625 114.853 184.184 115.37 184.242 116.009C184.299 116.648 183.826 117.165 183.187 117.165Z" fill="#3B3B3B"/>
<path d="M162.285 113.173C162.12 112.957 162.149 112.67 162.349 112.527C163.727 111.514 165.255 110.322 166.675 109.13C167.012 106.94 168.482 104.14 169.974 102.833C171.093 101.857 171.925 101.979 172.428 102.252C172.779 102.438 172.994 102.747 173.044 103.12C173.224 104.528 170.369 107.314 167.557 109.683C167.514 110.143 167.543 110.545 167.665 110.839C167.787 111.148 167.995 111.284 168.353 111.313C169.931 111.414 170.785 110.581 171.617 109.769C172.55 108.865 173.518 107.924 175.275 108.793C176.825 109.554 176.861 110.322 176.774 110.983C176.767 111.062 176.746 111.177 176.76 111.213C176.76 111.213 176.961 111.392 178.166 111.55C180.856 111.895 182.305 109.942 182.793 109.109C182.907 108.908 183.166 108.843 183.388 108.958C183.646 109.087 183.747 109.403 183.618 109.633C183.037 110.617 181.329 112.878 178.137 112.476C176.932 112.325 176.344 112.117 176.043 111.729C175.777 111.392 175.82 111.04 175.856 110.782C175.907 110.415 175.942 110.121 174.931 109.618C173.819 109.073 173.267 109.532 172.313 110.466C171.438 111.313 170.355 112.369 168.382 112.239C167.636 112.189 167.076 111.794 166.804 111.119C166.725 110.918 166.668 110.688 166.639 110.444C165.133 111.672 163.741 112.713 162.952 113.295C162.751 113.438 162.457 113.388 162.292 113.173H162.285ZM171.746 102.991C171.344 102.991 170.893 103.329 170.627 103.558C169.508 104.535 168.454 106.402 167.916 108.068C170.347 105.935 172.22 103.968 172.112 103.156C172.112 103.12 172.105 103.099 172.04 103.063C171.954 103.013 171.854 102.991 171.753 102.991H171.746Z" fill="#3B3B3B"/>
<g opacity="0.3">
<path d="M183.187 117.165H163.705C163.067 117.165 162.507 116.648 162.45 116.009C162.393 115.37 162.866 114.853 163.504 114.853H182.987C183.625 114.853 184.184 115.37 184.242 116.009C184.299 116.648 183.826 117.165 183.187 117.165Z" fill="white"/>
<path d="M162.285 113.173C162.12 112.957 162.149 112.67 162.349 112.527C163.727 111.514 165.255 110.322 166.675 109.13C167.012 106.94 168.482 104.14 169.974 102.833C171.093 101.857 171.925 101.979 172.428 102.252C172.779 102.438 172.994 102.747 173.044 103.12C173.224 104.528 170.369 107.314 167.557 109.683C167.514 110.143 167.543 110.545 167.665 110.839C167.787 111.148 167.995 111.284 168.353 111.313C169.931 111.414 170.785 110.581 171.617 109.769C172.55 108.865 173.518 107.924 175.275 108.793C176.825 109.554 176.861 110.322 176.774 110.983C176.767 111.062 176.746 111.177 176.76 111.213C176.76 111.213 176.961 111.392 178.166 111.55C180.856 111.895 182.305 109.942 182.793 109.109C182.907 108.908 183.166 108.843 183.388 108.958C183.646 109.087 183.747 109.403 183.618 109.633C183.037 110.617 181.329 112.878 178.137 112.476C176.932 112.325 176.344 112.117 176.043 111.729C175.777 111.392 175.82 111.04 175.856 110.782C175.907 110.415 175.942 110.121 174.931 109.618C173.819 109.073 173.267 109.532 172.313 110.466C171.438 111.313 170.355 112.369 168.382 112.239C167.636 112.189 167.076 111.794 166.804 111.119C166.725 110.918 166.668 110.688 166.639 110.444C165.133 111.672 163.741 112.713 162.952 113.295C162.751 113.438 162.457 113.388 162.292 113.173H162.285ZM171.746 102.991C171.344 102.991 170.893 103.329 170.627 103.558C169.508 104.535 168.454 106.402 167.916 108.068C170.347 105.935 172.22 103.968 172.112 103.156C172.112 103.12 172.105 103.099 172.04 103.063C171.954 103.013 171.854 102.991 171.753 102.991H171.746Z" fill="white"/>
</g>
<path d="M124.485 0.410156H131.436L132.562 13.1049H125.611C123.265 13.1049 121.2 11.2021 120.992 8.85417L120.619 4.66088C120.411 2.31293 122.139 0.410156 124.485 0.410156Z" fill="#3B3B3B"/>
<path d="M155.421 13.0978H127.331C124.706 13.0978 122.389 10.9653 122.159 8.33729L121.88 5.1636C121.65 2.53562 123.594 0.403076 126.219 0.403076H154.309C156.935 0.403076 159.251 2.53562 159.481 5.1636L159.761 8.33729C159.99 10.9653 158.046 13.0978 155.421 13.0978Z" fill="#3B3B3B"/>
<path opacity="0.5" d="M155.421 13.0978H127.331C124.706 13.0978 122.389 10.9653 122.159 8.33729L121.88 5.1636C121.65 2.53562 123.594 0.403076 126.219 0.403076H154.309C156.935 0.403076 159.251 2.53562 159.481 5.1636L159.761 8.33729C159.99 10.9653 158.046 13.0978 155.421 13.0978Z" fill="white"/>
<path d="M155.202 7.06089C155.259 7.7502 154.75 8.31026 154.061 8.31026C153.373 8.31026 152.763 7.7502 152.706 7.06089C152.648 6.37158 153.157 5.81152 153.846 5.81152C154.535 5.81152 155.144 6.37158 155.202 7.06089Z" fill="#3B3B3B"/>
<path d="M129.169 7.06089C129.226 7.7502 128.717 8.31026 128.028 8.31026C127.339 8.31026 126.73 7.7502 126.672 7.06089C126.615 6.37158 127.124 5.81152 127.813 5.81152C128.502 5.81152 129.111 6.37158 129.169 7.06089Z" fill="#3B3B3B"/>
<path d="M79.7269 106.119L79.0741 104.862C78.5792 103.914 78.8159 102.758 79.6264 102.069L80.7957 101.085C81.1902 100.755 81.4628 100.296 81.5632 99.7858L82.5531 94.7883C82.6535 94.2785 82.5818 93.7543 82.3379 93.2948L81.2978 91.2915C80.8028 90.3437 81.0395 89.1877 81.8501 88.4984L83.8155 86.8469C84.21 86.5166 84.4826 86.0571 84.583 85.5473L86.1898 77.4766L80.5876 76.3637L74.9855 75.2507L73.3787 83.3214C73.2783 83.8312 73.35 84.3553 73.5939 84.8149L74.7774 87.091C75.2724 88.0388 75.0357 89.202 74.2251 89.8841L72.4964 91.3346C72.1019 91.6649 71.8293 92.1244 71.7289 92.6342L70.739 97.6317C70.6386 98.1415 70.7103 98.6656 70.9542 99.1252L71.6572 100.482C72.1521 101.43 71.9154 102.586 71.1048 103.275L70.0217 104.187C69.204 104.877 68.9744 106.033 69.4694 106.98L69.9069 107.828C70.4019 108.775 70.1652 109.931 69.3546 110.621C68.5369 111.31 68.3073 112.466 68.8023 113.414L70.1795 116.063L72.6184 116.552L75.0572 117.04L77.3454 115.123C78.1631 114.434 78.3927 113.278 77.8977 112.33C77.4028 111.382 77.6395 110.219 78.4501 109.537L79.1817 108.919C79.9994 108.23 80.229 107.074 79.734 106.126L79.7269 106.119Z" fill="#545454"/>
<path opacity="0.6" d="M79.7269 106.119L79.0741 104.862C78.5792 103.914 78.8159 102.758 79.6264 102.069L80.7957 101.085C81.1902 100.755 81.4628 100.296 81.5632 99.7858L82.5531 94.7883C82.6535 94.2785 82.5818 93.7543 82.3379 93.2948L81.2978 91.2915C80.8028 90.3437 81.0395 89.1877 81.8501 88.4984L83.8155 86.8469C84.21 86.5166 84.4826 86.0571 84.583 85.5473L86.1898 77.4766L80.5876 76.3637L74.9855 75.2507L73.3787 83.3214C73.2783 83.8312 73.35 84.3553 73.5939 84.8149L74.7774 87.091C75.2724 88.0388 75.0357 89.202 74.2251 89.8841L72.4964 91.3346C72.1019 91.6649 71.8293 92.1244 71.7289 92.6342L70.739 97.6317C70.6386 98.1415 70.7103 98.6656 70.9542 99.1252L71.6572 100.482C72.1521 101.43 71.9154 102.586 71.1048 103.275L70.0217 104.187C69.204 104.877 68.9744 106.033 69.4694 106.98L69.9069 107.828C70.4019 108.775 70.1652 109.931 69.3546 110.621C68.5369 111.31 68.3073 112.466 68.8023 113.414L70.1795 116.063L72.6184 116.552L75.0572 117.04L77.3454 115.123C78.1631 114.434 78.3927 113.278 77.8977 112.33C77.4028 111.382 77.6395 110.219 78.4501 109.537L79.1817 108.919C79.9994 108.23 80.229 107.074 79.734 106.126L79.7269 106.119Z" fill="white"/>
<path opacity="0.2" d="M83.8242 86.8612C84.2187 86.5309 84.4913 86.0713 84.5917 85.5615L86.1984 77.4909L83.3938 76.9308L80.5891 76.3708L74.9869 75.2578L73.7962 81.2605L79.3984 82.3735L72.6055 116.552L75.0443 117.04L77.3325 115.123C78.1503 114.433 78.3798 113.277 77.8849 112.33C77.3899 111.382 77.6266 110.219 78.4372 109.536L79.1688 108.919C79.9866 108.23 80.2161 107.074 79.7212 106.126L79.0684 104.869C78.5735 103.922 78.8102 102.758 79.6207 102.076L80.7899 101.092C81.1845 100.762 81.457 100.303 81.5575 99.7928L82.5473 94.7954C82.6478 94.2856 82.576 93.7614 82.3322 93.3019L81.2921 91.2986C80.7971 90.3508 81.0338 89.1876 81.8444 88.5054L83.8098 86.854L83.8242 86.8612Z" fill="#3B3B3B"/>
<path d="M97.7615 66.4831C96.2767 64.724 89.7133 61.4929 86.1842 60.7964C82.655 60.0927 75.36 60.5594 73.3157 61.6221C68.7751 63.9772 65.9561 72.3135 70.4393 76.0904C72.254 77.6198 79.2119 79.3359 82.3466 80.0898C85.4812 80.8437 92.5467 81.6264 94.8779 80.9586C100.631 79.3 101.047 70.4036 97.7543 66.4903L97.7615 66.4831ZM90.115 67.2012L80.1157 65.2122C79.3769 65.0686 79.2908 64.1639 79.9938 63.9844C82.1601 63.4387 84.3479 63.173 85.6677 63.4387C86.9804 63.6972 88.9027 64.7886 90.696 66.117C91.277 66.5478 90.8538 67.352 90.115 67.2084V67.2012Z" fill="#545454"/>
<path opacity="0.6" d="M97.7615 66.4831C96.2767 64.724 89.7133 61.4929 86.1842 60.7964C82.655 60.0927 75.36 60.5594 73.3157 61.6221C68.7751 63.9772 65.9561 72.3135 70.4393 76.0904C72.254 77.6198 79.2119 79.3359 82.3466 80.0898C85.4812 80.8437 92.5467 81.6264 94.8779 80.9586C100.631 79.3 101.047 70.4036 97.7543 66.4903L97.7615 66.4831ZM90.115 67.2012L80.1157 65.2122C79.3769 65.0686 79.2908 64.1639 79.9938 63.9844C82.1601 63.4387 84.3479 63.173 85.6677 63.4387C86.9804 63.6972 88.9027 64.7886 90.696 66.117C91.277 66.5478 90.8538 67.352 90.115 67.2084V67.2012Z" fill="#3B3B3B"/>
<path d="M95.324 65.9949C93.8392 64.2357 87.2758 61.0046 83.7466 60.3081C80.2175 59.6044 72.9225 60.0711 70.8782 61.1338C66.3376 63.4889 63.5186 71.8252 68.0018 75.6021C69.8165 77.1315 76.7744 78.8476 79.9091 79.6015C83.0437 80.3554 90.1092 81.1381 92.4404 80.4703C98.1932 78.8117 98.6093 69.9153 95.3168 66.002L95.324 65.9949ZM87.6775 66.7129L77.6782 64.724C76.9394 64.5803 76.8533 63.6756 77.5563 63.4961C79.7226 62.9504 81.9103 62.6848 83.2302 62.9504C84.5429 63.2089 86.4653 64.3003 88.2585 65.6287C88.8395 66.0595 88.4163 66.8637 87.6775 66.7201V66.7129Z" fill="#545454"/>
<path d="M81.1893 66.3248C78.6572 72.4424 71.7352 75.4366 65.5807 73.1604C59.4118 70.8843 56.062 63.9266 58.1781 57.6941C60.5524 50.6933 68.5934 46.8016 74.8842 49.4081L75.8453 49.8102C76.3044 50.004 76.5196 50.5282 76.3331 50.9877C76.1394 51.4473 75.6158 51.6627 75.1567 51.476L74.1955 51.0739C68.9018 48.8767 62.1376 52.1294 59.9785 58.01C58.0992 63.108 60.5739 68.96 65.5305 71.193C70.9461 73.6272 77.28 71.0853 79.5395 65.6355C81.9927 59.6974 77.6458 55.4323 73.1698 53.5726L71.8499 53.0269C71.3909 52.8331 71.1757 52.3089 71.3622 51.8494C71.5558 51.3898 72.0795 51.1744 72.5386 51.3611L73.8584 51.9068C80.6513 54.7215 83.6066 60.516 81.2036 66.3248H81.1893Z" fill="#545454"/>
<g opacity="0.5">
<path d="M81.1893 66.3251C78.6572 72.4427 71.7352 75.4368 65.5807 73.1607C59.4118 70.8845 56.062 63.9269 58.1781 57.6944C60.5524 50.6936 68.5934 46.8019 74.8842 49.4083L75.8453 49.8104C76.3044 50.0043 76.5196 50.5284 76.3331 50.988C76.1394 51.4475 75.6158 51.6629 75.1567 51.4762L74.1955 51.0741C68.9018 48.877 62.1376 52.1296 59.9785 58.0103C58.0992 63.1083 60.5739 68.9602 65.5305 71.1933C70.9461 73.6274 77.28 71.0856 79.5395 65.6358C81.9927 59.6977 77.6458 55.4326 73.1698 53.5729L71.8499 53.0272C71.3909 52.8333 71.1757 52.3091 71.3622 51.8496C71.5558 51.3901 72.0795 51.1747 72.5386 51.3614L73.8584 51.9071C80.6513 54.7217 83.6066 60.5162 81.2036 66.3251H81.1893Z" fill="white"/>
</g>
<path d="M72.7118 78.8182C72.2456 75.2496 67.2746 68.773 63.9535 67.3944C60.6324 66.0158 52.5411 67.0856 49.6863 69.2756C43.3453 74.1439 35.0532 91.2042 37.4562 98.8297C38.4317 101.917 44.7727 105.313 47.6419 106.8C50.5112 108.286 57.5623 109.78 60.4746 108.372C67.6692 104.904 73.7447 86.7453 72.7047 78.8182H72.7118ZM66.7008 74.0936L57.2825 70.1875C56.5868 69.9003 56.7302 68.8664 57.4762 68.7874C59.7644 68.5361 62.0096 68.6079 63.2434 69.1177C64.4843 69.6275 66.1126 71.1712 67.5544 72.9663C68.0278 73.5551 67.3966 74.3808 66.7008 74.0936Z" fill="#545454"/>
<path opacity="0.6" d="M72.7118 78.8182C72.2456 75.2496 67.2746 68.773 63.9535 67.3944C60.6324 66.0158 52.5411 67.0856 49.6863 69.2756C43.3453 74.1439 35.0532 91.2042 37.4562 98.8297C38.4317 101.917 44.7727 105.313 47.6419 106.8C50.5112 108.286 57.5623 109.78 60.4746 108.372C67.6692 104.904 73.7447 86.7453 72.7047 78.8182H72.7118ZM66.7008 74.0936L57.2825 70.1875C56.5868 69.9003 56.7302 68.8664 57.4762 68.7874C59.7644 68.5361 62.0096 68.6079 63.2434 69.1177C64.4843 69.6275 66.1126 71.1712 67.5544 72.9663C68.0278 73.5551 67.3966 74.3808 66.7008 74.0936Z" fill="#3B3B3B"/>
<path d="M70.4111 77.8634C69.9448 74.2948 64.9739 67.8182 61.6527 66.4396C58.3316 65.061 50.2404 66.1308 47.3855 68.3208C41.0445 73.189 32.7524 90.2494 35.1554 97.8748C36.1309 100.962 42.4719 104.359 45.3412 105.845C48.2104 107.331 55.2615 108.825 58.1738 107.417C65.3684 103.949 71.444 85.7904 70.4039 77.8634H70.4111ZM64.4 73.1388L54.9818 69.2327C54.286 68.9455 54.4294 67.9115 55.1754 67.8325C57.4637 67.5812 59.7088 67.653 60.9426 68.1628C62.1835 68.6726 63.8118 70.2164 65.2536 72.0115C65.7199 72.5931 65.0958 73.426 64.4 73.1388Z" fill="#545454"/>
<path d="M63.8326 87.5137L45.2758 79.8164C43.956 81.9849 42.7222 84.4764 41.7754 86.9249L61.3292 95.0314C62.3765 92.6332 63.2516 89.9909 63.8326 87.5137Z" fill="#D94668"/>
<path d="M41.0441 88.9709C40.0614 92.0154 39.631 94.8013 40.1762 96.5174C40.2407 96.661 41.0585 98.2407 47.4281 101.544C49.6877 102.721 54.5654 103.382 55.6915 102.872C57.2911 102.097 58.9553 99.8491 60.4042 96.9985L41.0441 88.9709Z" fill="#D94668"/>
<path d="M64.2697 85.3452C64.5781 83.4927 64.6857 81.8197 64.5136 80.5201C64.2625 78.5886 60.676 73.907 58.8755 73.1603C57.0751 72.4135 51.2362 73.1818 49.694 74.3738C48.6683 75.1636 47.5636 76.4201 46.4805 77.9711L64.2697 85.3452Z" fill="#D94668"/>
<path d="M55.118 87.7778L51.3008 86.1951L50.1479 88.9812L53.9651 90.5639L55.118 87.7778Z" fill="white"/>
<path d="M54.3294 88.2246L53.8129 88.0092L54.3796 86.6378C54.5804 86.1567 54.3509 85.5967 53.8631 85.3956C53.3825 85.1946 52.823 85.4243 52.6222 85.9126L52.0555 87.284L51.5391 87.0686L52.1057 85.6972C52.4213 84.9289 53.3108 84.5627 54.0783 84.8786C54.8458 85.1946 55.2117 86.0849 54.8961 86.8532L54.3294 88.2246Z" fill="white"/>
<path d="M51.2977 96.9958L47.4805 95.4131L46.3276 98.1993L50.1447 99.782L51.2977 96.9958Z" fill="white"/>
<path d="M48.245 96.4964L47.7285 96.281L48.2952 94.9096C48.6108 94.1413 49.5003 93.7751 50.2678 94.091C51.0353 94.407 51.4011 95.2973 51.0855 96.0656L50.569 95.8502C50.7699 95.3691 50.5404 94.8091 50.0526 94.608C49.572 94.407 49.0125 94.6367 48.8116 95.125L48.245 96.4964Z" fill="white"/>
<path d="M60.5906 78.3588L59.0054 77.7054L57.6784 75.5513L55.6914 80.3477L58.1518 79.7661L59.737 80.4195L60.5906 78.3588Z" fill="white"/>
<path d="M53.6484 79.4288C52.8953 77.605 53.7632 75.5083 55.5852 74.7544L55.8721 75.4437C54.4303 76.0397 53.7488 77.6983 54.3442 79.1415L53.6556 79.4288H53.6484Z" fill="white"/>
<path d="M55.2766 78.7466C55.0901 78.3014 55.0901 77.806 55.2766 77.3608C55.4631 76.9156 55.8074 76.5638 56.2593 76.3843L56.5462 77.0736C56.2808 77.1813 56.08 77.3895 55.9724 77.648C55.8648 77.9137 55.8648 78.2009 55.9724 78.4594L55.2838 78.7466H55.2766Z" fill="white"/>
<path d="M7.08505 205.83L52.053 207.31H151.522L194.439 205.127V195.742L188.937 187.786L173.974 182.495L154.987 187.786L147.455 194.902L62.289 195.742L45.5973 183.572L32.5566 178.861L13.4404 183.809L8.77789 192.36L6.02344 200.984L7.08505 205.83Z" fill="#545454"/>
<path opacity="0.6" d="M7.08505 205.83L52.053 207.31H151.522L194.439 205.127V195.742L188.937 187.786L173.974 182.495L154.987 187.786L147.455 194.902L62.289 195.742L45.5973 183.572L32.5566 178.861L13.4404 183.809L8.77789 192.36L6.02344 200.984L7.08505 205.83Z" fill="#3B3B3B"/>
<path d="M9.70114 198.715C11.3079 194.787 17.6776 188.261 21.5869 186.616C25.3887 185.022 34.4124 184.721 38.0778 186.616C41.9513 188.62 46.8577 196.69 48.1775 200.84C48.6653 202.37 48.5218 206.068 48.364 208.502L154.525 209.622C154.303 206.671 154.152 202.592 154.848 200.898C156.455 196.97 162.825 190.443 166.734 188.799C170.536 187.205 179.559 186.903 183.225 188.799C187.098 190.802 192.005 198.873 193.325 203.03C193.647 204.028 193.69 205.96 193.647 207.856C194.444 207.26 195.161 206.563 195.771 205.745L196.768 204.395C198.102 202.6 198.819 200.417 198.819 198.184V194.68C198.819 192.77 198.296 190.896 197.306 189.266L194.752 185.058V156.552C194.752 155.145 194.472 153.759 193.92 152.467L183.72 128.463C182.135 124.729 178.534 122.252 174.481 122.116C163.528 121.742 142.037 121.096 133.3 121.391C120.604 121.821 86.5606 125.297 76.4179 126.352C74.5386 126.546 72.7812 127.343 71.3896 128.621L41.2483 156.33L11.3438 169.398C8.79734 170.511 6.92516 172.765 6.30111 175.472L3.47491 187.679L2.54242 188.9C1.15084 190.723 0.519612 193.021 0.799361 195.304L1.3732 200.058C1.64578 202.312 2.7863 204.38 4.54371 205.816L4.9167 206.118C6.21503 207.181 7.78594 207.834 9.43574 208.028C9.19186 205.055 8.96949 200.517 9.70832 198.708L9.70114 198.715Z" fill="#C9284E"/>
<path d="M28.4555 222.166C37.4681 222.166 44.7742 214.852 44.7742 205.831C44.7742 196.809 37.4681 189.496 28.4555 189.496C19.4429 189.496 12.1367 196.809 12.1367 205.831C12.1367 214.852 19.4429 222.166 28.4555 222.166Z" fill="#545454"/>
<path opacity="0.5" d="M28.4553 217.212C34.7344 217.212 39.8246 212.116 39.8246 205.831C39.8246 199.546 34.7344 194.45 28.4553 194.45C22.1762 194.45 17.0859 199.546 17.0859 205.831C17.0859 212.116 22.1762 217.212 28.4553 217.212Z" fill="white"/>
<g opacity="0.5">
<path d="M26.9785 205.127C27.4023 205.127 27.746 204.783 27.746 204.359C27.746 203.934 27.4023 203.59 26.9785 203.59C26.5546 203.59 26.2109 203.934 26.2109 204.359C26.2109 204.783 26.5546 205.127 26.9785 205.127Z" fill="white"/>
<path d="M30.6952 204.359C30.6952 204.782 30.3509 205.127 29.9277 205.127C29.5045 205.127 29.1602 204.782 29.1602 204.359C29.1602 203.935 29.5045 203.59 29.9277 203.59C30.3509 203.59 30.6952 203.935 30.6952 204.359Z" fill="white"/>
<path d="M27.746 207.31C27.746 207.733 27.4017 208.078 26.9785 208.078C26.5552 208.078 26.2109 207.733 26.2109 207.31C26.2109 206.886 26.5552 206.542 26.9785 206.542C27.4017 206.542 27.746 206.886 27.746 207.31Z" fill="white"/>
<path d="M30.6952 207.31C30.6952 207.733 30.3509 208.078 29.9277 208.078C29.5045 208.078 29.1602 207.733 29.1602 207.31C29.1602 206.886 29.5045 206.542 29.9277 206.542C30.3509 206.542 30.6952 206.886 30.6952 207.31Z" fill="white"/>
</g>
<path d="M174.682 222.166C183.695 222.166 191.001 214.853 191.001 205.831C191.001 196.809 183.695 189.496 174.682 189.496C165.669 189.496 158.363 196.809 158.363 205.831C158.363 214.853 165.669 222.166 174.682 222.166Z" fill="#545454"/>
<path opacity="0.5" d="M174.682 217.212C180.961 217.212 186.051 212.116 186.051 205.831C186.051 199.546 180.961 194.45 174.682 194.45C168.403 194.45 163.312 199.546 163.312 205.831C163.312 212.116 168.403 217.212 174.682 217.212Z" fill="white"/>
<g opacity="0.5">
<path d="M173.973 204.359C173.973 204.783 173.628 205.127 173.205 205.127C172.782 205.127 172.438 204.783 172.438 204.359C172.438 203.935 172.782 203.591 173.205 203.591C173.628 203.591 173.973 203.935 173.973 204.359Z" fill="white"/>
<path d="M176.154 205.127C176.578 205.127 176.922 204.783 176.922 204.359C176.922 203.935 176.578 203.591 176.154 203.591C175.73 203.591 175.387 203.935 175.387 204.359C175.387 204.783 175.73 205.127 176.154 205.127Z" fill="white"/>
<path d="M173.973 207.31C173.973 207.733 173.628 208.078 173.205 208.078C172.782 208.078 172.438 207.733 172.438 207.31C172.438 206.886 172.782 206.541 173.205 206.541C173.628 206.541 173.973 206.886 173.973 207.31Z" fill="white"/>
<path d="M176.922 207.31C176.922 207.733 176.577 208.078 176.154 208.078C175.731 208.078 175.387 207.733 175.387 207.31C175.387 206.886 175.731 206.541 176.154 206.541C176.577 206.541 176.922 206.886 176.922 207.31Z" fill="white"/>
</g>
<path d="M70.5097 133.274C71.6646 132.211 71.7507 130.416 70.7034 129.246L41.2436 156.337L40.3828 156.71C40.4402 156.782 40.4832 156.854 40.5406 156.926C41.6094 158.096 43.4314 158.168 44.5934 157.098L70.5097 133.274Z" fill="#545454"/>
<path opacity="0.5" d="M7.41469 189.496C7.22101 189.496 7.07037 189.33 7.09189 189.136L8.45478 175.178C8.4763 174.97 8.68432 174.833 8.88516 174.898L10.1404 175.307C11.6898 175.817 12.6008 177.411 12.2565 179.005L10.535 186.982C10.2194 188.447 8.92103 189.496 7.42185 189.496H7.41469Z" fill="white"/>
<g opacity="0.2">
<path d="M15.1839 180.276C15.1696 179.68 15.643 179.192 16.2384 179.177L186.721 175.867C187.316 175.853 187.804 176.327 187.818 176.923C187.833 177.519 187.359 178.007 186.764 178.021L16.2814 181.331C15.686 181.346 15.1983 180.872 15.1839 180.276Z" fill="white"/>
</g>
<path d="M122.8 160.1L154.526 159.554C157.962 159.497 160.566 156.423 160.064 153.013L156.901 131.651C156.714 130.402 155.66 129.469 154.397 129.44C148.895 129.311 143.379 129.217 138.997 129.217C136.881 129.217 135.03 129.239 133.574 129.289C130.719 129.382 126.178 129.713 120.885 130.151C119.608 130.258 118.596 131.278 118.51 132.556L117.025 154.004C116.796 157.342 119.464 160.157 122.807 160.1H122.8Z" fill="#545454"/>
<path d="M186.459 155.11L176.453 131.558C176.065 130.654 175.197 130.05 174.207 130.014C172.45 129.957 170.212 129.878 167.687 129.806C166.073 129.756 164.803 131.178 165.04 132.779L168.232 154.356C168.648 157.192 171.109 159.274 173.964 159.224L183.748 159.052C185.053 159.03 186.273 158.19 186.588 156.919C186.746 156.309 186.689 155.677 186.452 155.11H186.459Z" fill="#545454"/>
<path d="M107.659 131.335C96.0454 132.427 84.2457 133.655 79.2318 134.179C77.6035 134.351 76.0756 135.04 74.8705 136.146L57.275 152.323C53.8247 155.497 56.1273 161.248 60.8041 161.169L103.448 160.43C106.403 160.38 108.828 158.075 109.036 155.124L110.492 134.093C110.6 132.491 109.258 131.177 107.659 131.328V131.335Z" fill="#545454"/>
<path d="M156.345 165.664L148.935 165.808C148.347 165.822 147.881 166.296 147.881 166.885C147.881 167.488 148.376 167.976 148.978 167.962L156.388 167.818C156.976 167.804 157.443 167.33 157.443 166.741C157.443 166.138 156.948 165.65 156.345 165.664Z" fill="#545454"/>
<path d="M104.362 167.769C104.362 167.165 103.868 166.677 103.265 166.691L95.8552 166.835C95.267 166.849 94.8008 167.323 94.8008 167.912C94.8008 168.515 95.2957 169.004 95.8983 168.989L103.308 168.846C103.896 168.831 104.362 168.357 104.362 167.769Z" fill="#545454"/>
<g opacity="0.2">
<path d="M54.8713 199.576C54.857 198.787 55.4882 198.126 56.2772 198.112L147.633 196.338C148.423 196.324 149.082 196.956 149.097 197.745C149.111 198.535 148.48 199.196 147.691 199.21L56.3346 200.984C55.5456 200.998 54.8857 200.366 54.8713 199.576Z" fill="white"/>
</g>
<path opacity="0.6" d="M62.289 147.721L57.275 152.33C53.8247 155.504 56.1273 161.256 60.8041 161.177L62.289 161.148V147.721Z" fill="#3B3B3B"/>
<path d="M69.1463 148.92H66.6143C65.3446 148.92 64.3189 149.946 64.3189 151.217V154.75L60.0796 155.569C59.556 155.669 59.1758 156.129 59.1758 156.667V157.672C59.1758 158.455 59.9648 158.994 60.6965 158.714L64.7206 157.155C65.2227 157.902 66.148 158.333 67.1092 158.118L69.4978 157.586C70.2438 157.421 70.7746 156.761 70.7746 155.999V150.557C70.7746 149.659 70.043 148.927 69.1463 148.927V148.92Z" fill="#C9284E"/>
</svg>
