<svg width="199" height="241" viewBox="0 0 199 241" fill="none" xmlns="http://www.w3.org/2000/svg">
<path d="M125.258 71.7185L127.825 72.5075L129.548 68.5095L133.443 69.1994L135.221 66.4197L136.625 67.3206L134.246 71.0396L130.557 70.3865L128.762 74.5459L124.901 73.357L125.258 71.7185Z" fill="#0071F5"/>
<path d="M120.775 239.183C120.775 239.183 139.446 194.432 141.654 184.351C143.861 174.271 135.903 176.599 135.903 176.599C135.903 176.599 144.434 157.864 140.305 152.745C136.179 147.626 131.062 155.767 131.062 155.767C131.062 155.767 132.24 132.02 127.302 131.471C118.106 130.449 115.473 156.217 115.473 156.217C115.473 156.217 114.227 145.879 109.001 148.104C101.119 151.46 109.561 172.826 109.561 172.826C109.561 172.826 100.097 171.799 96.2501 176.216C89.3473 184.141 120.777 239.184 120.777 239.184L120.775 239.183Z" fill="#B0D0FF"/>
<path d="M108.205 228.424C108.205 228.424 147.689 221.808 156.277 214.797C164.865 207.787 156.365 204.625 156.365 204.625C156.365 204.625 176.199 194.437 175.97 187.509C175.741 180.581 165.887 184.104 165.887 184.104C165.887 184.104 182.599 165.007 178.642 161.382C171.272 154.626 151.952 174.476 151.952 174.476C151.952 174.476 157.689 165.037 151.646 163.543C142.535 161.29 135.809 184.568 135.809 184.568C135.809 184.568 137.518 175.375 131.235 176.599C119.963 178.796 108.204 228.423 108.204 228.423L108.205 228.424Z" fill="#4A93FF"/>
<path d="M131.238 176.599C137.537 175.458 135.812 184.568 135.812 184.568C135.812 184.568 142.537 161.29 151.649 163.543C157.691 165.037 151.955 174.476 151.955 174.476C151.955 174.476 171.276 154.626 178.645 161.382L108.34 228.435C109.591 222.03 120.678 178.513 131.238 176.601V176.599Z" fill="#7DB2FF"/>
<path d="M112.973 234.881C112.973 234.881 133.767 213.693 144.237 211.486C154.709 209.279 152.825 216.744 152.825 216.744C152.825 216.744 173.601 198.54 178.414 202.951C183.228 207.361 178.021 211.62 178.021 211.62C178.021 211.62 195.326 208.547 197.804 214.238C201.611 222.983 173.15 227.74 173.15 227.74C173.15 227.74 185.076 228.568 182.311 234.05C178.14 242.318 112.973 234.879 112.973 234.879V234.881Z" fill="#0059C2"/>
<path d="M197.805 214.238C195.327 208.548 178.022 211.619 178.022 211.619C178.022 211.619 183.229 207.361 178.415 202.95C173.601 198.539 153.47 214.269 153.47 214.269C153.47 214.269 158.217 205.179 147.745 207.385C137.273 209.592 112.97 234.881 112.97 234.881L197.803 214.238H197.805Z" fill="#0071F5"/>
<path d="M88.6729 11.769C95.6713 12.9231 97.7514 22.1282 91.9322 26.2454C90.8867 26.9848 90.1634 28.0967 89.8558 29.3407L88.7956 33.6231C88.5044 34.8028 87.3563 35.5606 86.1588 35.3624L83.5074 34.9258C82.3099 34.7276 81.4657 33.6432 81.5664 32.4305C81.9345 28.0105 82.3886 26.4069 80.9549 24.4345C76.7598 18.6678 81.6708 10.6131 88.6711 11.769H88.6729Z" fill="#B0D0FF"/>
<path d="M87.9611 30.4836C88.417 26.6966 89.0561 22.6986 89.274 21.5647C93.2859 21.7868 91.7606 17.5484 89.9094 19.2713C89.382 19.763 89.133 20.429 88.9682 21.1574C87.6351 21.0363 86.3332 20.6565 85.1467 20.0419C85.2108 19.108 85.3023 18.3998 85.0423 17.8016C84.6486 16.8989 83.5079 16.6531 83.0428 17.5319C82.8688 17.8622 82.8377 18.2842 82.964 18.6346C83.2332 19.3814 84.0425 19.8749 84.7493 20.2621C84.5388 23.2729 84.2458 26.3076 83.8778 29.2947L84.2568 29.3424C84.6193 26.4031 84.9087 23.4179 85.1192 20.4547C86.2984 21.0418 87.5802 21.4088 88.8931 21.5336C88.6184 22.983 88.0124 26.8801 87.5839 30.4359L87.9629 30.4818L87.9611 30.4836ZM91.1801 20.6712C90.8231 21.0565 90.2261 21.2253 89.3545 21.1849C89.5047 20.5409 89.7281 19.963 90.1694 19.552C91.1655 18.6236 91.7771 20.0254 91.1783 20.6712H91.1801ZM84.6926 17.9557C84.9123 18.4585 84.8281 19.1025 84.7786 19.8419C84.2055 19.5153 83.539 19.1061 83.3248 18.508C83.1728 18.0878 83.3431 17.4952 83.7697 17.3851C83.8155 17.3741 84.5406 17.6053 84.6926 17.9576V17.9557Z" fill="white"/>
<path d="M89.8887 29.2358C89.8795 29.2707 89.8667 29.3055 89.8575 29.3422L88.7974 33.6246C88.5062 34.8044 87.3581 35.5621 86.1606 35.364L83.5092 34.9273C82.3116 34.7291 81.4675 33.6448 81.5682 32.432C81.7312 30.4651 81.9125 29.0578 81.9363 27.9258L89.8869 29.2358H89.8887Z" fill="#4999F5"/>
<path d="M93.8614 8.57282L95.9543 4.74547C96.1576 4.37485 96.0221 3.91065 95.6522 3.70699C95.2823 3.50333 94.8191 3.6391 94.6158 4.00973L92.5229 7.83707C92.3196 8.2077 92.4551 8.6719 92.825 8.87556C93.1967 9.07922 93.66 8.94161 93.8614 8.57282Z" fill="#B0D0FF"/>
<path d="M98.4372 17.8326L102.998 17.4327C103.418 17.396 103.729 17.0253 103.692 16.6033C103.656 16.1832 103.286 15.8713 102.865 15.908L98.3035 16.3079C97.8842 16.3446 97.5729 16.7153 97.6095 17.1373C97.6461 17.5574 98.016 17.8693 98.4372 17.8326Z" fill="#B0D0FF"/>
<path d="M102.961 31.8467C103.258 31.5458 103.254 31.0614 102.954 30.7642C101.833 29.6542 100.599 28.645 99.2883 27.768C98.9385 27.5332 98.4643 27.6286 98.2299 27.979C97.9955 28.3295 98.0907 28.8047 98.4405 29.0395C99.671 29.8633 100.828 30.8101 101.881 31.8522C102.18 32.1476 102.663 32.1476 102.961 31.8449V31.8467Z" fill="#B0D0FF"/>
<path d="M82.5876 8.3654C82.996 8.25714 83.2377 7.83698 83.1278 7.42966C82.6114 5.49214 82.2946 3.49407 82.1866 1.49049C82.1646 1.06849 81.8039 0.74374 81.3828 0.767592C80.9616 0.789609 80.6393 1.15106 80.6613 1.57306C80.7748 3.68121 81.1081 5.7857 81.6519 7.82597C81.7618 8.23696 82.1829 8.47548 82.5858 8.36723L82.5876 8.3654Z" fill="#B0D0FF"/>
<path d="M77.8894 14.2421C78.0103 13.8366 77.7832 13.4109 77.3786 13.288L72.636 11.855C72.2314 11.7339 71.8066 11.9614 71.6839 12.3669C71.563 12.7706 71.7901 13.1981 72.1947 13.3192L76.9373 14.7521C77.3401 14.8732 77.7668 14.6457 77.8876 14.2402L77.8894 14.2421Z" fill="#B0D0FF"/>
<path d="M70.1017 26.8875C70.1695 26.8875 70.239 26.8784 70.3086 26.8582C71.9511 26.3958 73.5496 25.7537 75.0585 24.95C75.4302 24.7519 75.5712 24.2895 75.3734 23.9152C75.1757 23.5428 74.7124 23.3996 74.3407 23.5978C72.9289 24.3501 71.4329 24.95 69.8948 25.383C69.4883 25.4968 69.2521 25.9188 69.3674 26.3261C69.4627 26.6637 69.7684 26.8839 70.1017 26.8839V26.8875Z" fill="#B0D0FF"/>
<path d="M13.0775 239.101H128.189C132.585 239.101 136.15 235.397 136.15 230.828V225.909C136.15 221.339 132.585 217.636 128.189 217.636H13.0775C18.3437 223.617 18.4334 232.76 13.2899 238.853L13.0775 239.103V239.101Z" fill="#4999F5"/>
<path d="M14.8542 220.093H78.7005C83.097 220.093 86.6621 223.797 86.6621 228.368C86.6621 232.936 83.0988 236.641 78.7005 236.641H14.8487C17.8315 231.566 17.826 225.155 14.8542 220.093Z" fill="#DCEAFF"/>
<path d="M53.5187 202.725C53.3521 202.411 53.6066 202.046 53.993 202.046H114.902C119.676 202.046 123.547 205.536 123.547 209.842C123.547 214.146 119.676 217.638 114.902 217.638H53.9765C53.5883 217.638 53.332 217.271 53.5023 216.955C55.9138 212.449 55.9083 207.211 53.5206 202.725H53.5187Z" fill="#0071F5"/>
<path d="M53.901 203.497H84.0883C89.6915 203.497 94.2344 206.422 94.2344 210.029C94.2344 213.636 89.6915 216.561 84.0883 216.561H53.7032C55.7797 212.403 55.8383 207.671 53.901 203.495V203.497Z" fill="#BFD9FF"/>
<path d="M61.698 206.594H65.6294C66.4753 206.594 67.1602 206.878 67.1602 207.229V207.286H61.698V206.594Z" fill="#3B3B3B"/>
<path d="M58.3464 208.187C58.3464 207.306 59.3737 206.594 60.6389 206.594H65.6836C64.7223 206.594 63.9441 207.135 63.9441 207.803L63.9679 224.883L61.181 222.687L58.3391 224.883L58.3446 208.188L58.3464 208.187Z" fill="#0059C2"/>
<path d="M64.7159 201.485H100.157C103.299 201.485 105.848 198.456 105.848 194.718C105.848 190.981 103.301 187.952 100.157 187.952H64.7159C67.4241 191.704 67.5303 197.206 64.9686 201.102L64.7159 201.487V201.485Z" fill="#B3D1FF"/>
<path d="M105.843 194.716C105.843 190.979 103.235 187.949 100.018 187.949H64.041C63.8725 187.949 63.737 187.79 63.7388 187.595C63.7388 187.403 63.8743 187.249 64.041 187.249H121.116C124.666 187.249 127.545 190.591 127.545 194.718C127.545 198.842 124.666 202.187 121.116 202.187H64.0428C63.878 202.187 63.7425 202.031 63.7407 201.841C63.7407 201.646 63.8743 201.486 64.0428 201.486H100.02C103.237 201.486 105.845 198.457 105.845 194.72L105.843 194.716Z" fill="#0059C2"/>
<path d="M70.905 191.274H74.8364C75.6824 191.274 76.3672 191.553 76.3672 191.898V191.953H70.905V191.274Z" fill="#3B3B3B"/>
<path d="M67.5535 192.837C67.5535 191.975 68.5807 191.274 69.846 191.274H74.8906C73.9293 191.274 73.1511 191.804 73.1511 192.459L73.1749 209.209L70.388 207.055L67.5461 209.209L67.5516 192.837H67.5535Z" fill="#0059C2"/>
<path d="M8.24748 87.8165L3.01605 86.4368L6.56287 133.829L12.8398 134.038L9.67389 89.5375C9.61529 88.7174 9.04215 88.0257 8.24929 87.8165H8.24748Z" fill="#0059C2"/>
<path d="M6.09586 135.179C6.21305 135.19 6.33206 135.189 6.45475 135.174C7.49297 135.051 8.26386 134.016 8.17231 132.86L4.68957 88.2973C4.59985 87.1432 3.6843 86.3065 2.64424 86.4295C1.60418 86.5524 0.835125 87.5872 0.92668 88.7431L4.40941 133.306C4.48998 134.326 5.21327 135.097 6.09586 135.179Z" fill="#0071F5"/>
<path d="M54.248 137.554C54.2462 137.587 54.2444 137.62 54.2407 137.653C54.0759 139.466 52.6751 140.822 51.1096 140.682L6.9254 136.719C5.35981 136.58 4.22454 134.994 4.38751 133.182C4.39483 133.105 4.404 133.029 4.41498 132.954L54.2462 137.554H54.248Z" fill="#0071F5"/>
<path d="M23.4774 185.419C26.3705 187.026 35.2147 184.208 35.2147 183.953C35.341 186.375 45.1172 210.08 45.1172 210.08L45.1099 217.374C45.1099 217.374 24.966 218.335 25.2554 216.552C25.5447 214.768 26.6287 215.928 30.6461 212.559C31.0032 212.26 36.6447 210.948 35.1176 207.602C32.0432 200.862 25.5117 189.626 23.4755 185.419H23.4774Z" fill="#FFB27D"/>
<path d="M45.7716 217.634L23.7217 217.64C22.9251 217.559 22.7402 216.91 23.0204 216.515C23.599 215.702 27.8251 213.789 30.6652 212.517C35.6128 213.097 44.3104 211.191 45.1069 210.059C47.2017 212.869 46.2148 217.541 45.7698 217.633L45.7716 217.634Z" fill="#3B3B3B"/>
<path d="M50.6101 168.4C50.9086 167.503 31.6254 159.303 30.763 160.241C29.2358 161.897 41.1965 193.004 41.1965 193.004L27.456 197.211C27.456 197.211 13.1717 161.274 13.7668 154.7C14.3637 148.126 21.5196 140.656 37.0253 145.438C52.5309 150.217 50.612 168.4 50.612 168.4H50.6101Z" fill="#0059C2"/>
<path d="M10.6836 189.507C13.9393 188.913 18.1581 188.744 21.5346 188.685C21.1373 191.698 19.2036 207.15 19.557 208.099C20.9889 211.945 24.1641 213.745 24.1641 213.745C24.1641 213.745 9.19126 227.282 8.28671 225.718C7.38215 224.155 8.95505 224.364 9.93285 219.207C10.0189 218.748 12.1851 211.55 12.3188 207.666C12.5751 200.261 10.7953 193.619 10.6836 189.507Z" fill="#FFB27D"/>
<path d="M15.4894 138.959C17.5787 137.842 23.0005 137.803 28.9644 138.19C40.59 138.945 52.0636 141.238 63.1233 144.908L70.5228 147.364L70.499 139.763C70.499 139.763 94.0394 135.816 94.8579 141.662C96.0921 150.465 94.5613 168.339 86.7169 172.328C62.3543 184.72 28.2137 152.588 28.091 156.791C27.9243 162.437 23.1745 183.447 21.9605 192.645C18.5821 192.703 12.7794 192.702 10.2635 192.122C9.77458 174.102 9.54388 142.137 15.4894 138.959Z" fill="#0071F5"/>
<path d="M24.6207 214.064L7.78938 227.537C7.12287 227.979 6.56803 227.595 6.5369 227.113C6.47099 226.116 8.52913 221.951 9.92258 219.166C14.1158 216.473 19.6475 209.446 19.5486 208.066C21.323 209.567 24.9082 213.713 24.6226 214.066L24.6207 214.064Z" fill="#3B3B3B"/>
<path d="M62.7182 65.4783C63.284 60.2987 63.8791 55.1008 68.1638 51.3046C71.6319 48.2332 76.0393 47.7121 80.3991 49.3561C92.7498 54.0127 86.3868 65.003 102.134 76.0851C107.029 79.529 112.421 81.8848 116.105 86.5213C121.262 93.0109 119.315 100.818 114.615 106.03C92.1273 130.969 67.0194 97.2896 65.2176 89.2037C63.8772 83.1893 62.3556 68.8102 62.7182 65.4764V65.4783Z" fill="#3B3B3B"/>
<path d="M67.2848 94.5999C69.1214 91.2074 71.0147 88.5139 71.0147 88.5139C72.9209 85.1196 77.8428 83.4041 77.8428 83.4041C77.8428 83.4041 79.489 83.4371 81.3805 83.5306C81.4977 83.8444 81.6167 84.0701 81.7376 84.16C82.448 84.6939 86.5204 84.004 89.1498 85.7948C97.9665 93.3669 95.5275 130.072 94.8335 141.664L67.9843 141.919C67.9843 141.919 71.3699 116.975 65.9133 110.566C62.1138 106.104 64.5583 99.6363 67.2848 94.6017V94.5999Z" fill="#BDBDBD"/>
<path d="M79.3873 70.9861C79.3873 70.9861 80.8632 81.5471 81.8941 84.114C82.925 86.6808 76.2269 92.1686 70.653 93.8346C65.0792 95.5006 72.3559 88.1652 72.1252 85.4222C71.8945 82.6792 70.8819 69.689 70.8819 69.689L79.3892 70.9861H79.3873Z" fill="#FFB27D"/>
<path d="M71.1623 73.4136C70.9993 71.265 70.8803 69.689 70.8803 69.689L79.3876 70.9861C79.3876 70.9861 79.6018 72.2265 79.8398 73.9823C76.3919 75.9877 73.29 75.3548 71.1641 73.4154L71.1623 73.4136Z" fill="#E8945B"/>
<path d="M76.7187 51.6951C76.7187 51.6951 80.0714 52.4529 82.1424 55.6179C84.2134 58.7828 85.6325 68.1035 78.8153 72.4538C71.9964 76.804 66.6935 70.6502 66.6056 64.6486C66.5177 58.6471 67.8013 50.6364 76.7206 51.6951H76.7187Z" fill="#FFB27D"/>
<path d="M75.7109 68.9804C75.7109 68.9804 75.4566 70.0098 72.8914 69.82C72.8914 69.82 70.7387 69.6614 70.8168 68.5271C70.8168 68.5271 72.9159 67.7456 75.7087 68.9804H75.7109Z" fill="white"/>
<path d="M65.0459 62.7701C65.6282 64.2178 66.7817 65.1168 67.624 64.7774C68.4663 64.4379 68.6769 62.9885 68.0946 61.5408C67.5124 60.0932 66.3588 59.1941 65.5165 59.5336C64.6742 59.873 64.4636 61.3225 65.0459 62.7701Z" fill="#FFB27D"/>
<path d="M75.7134 51.4972C75.7134 51.4972 79.9871 61.104 83.7427 61.9627C87.4982 62.8214 87.4433 67.6542 87.4433 67.6542C87.4433 67.6542 87.3591 56.4914 83.8397 53.9301C80.3204 51.3687 75.7115 51.4972 75.7115 51.4972H75.7134Z" fill="#3B3B3B"/>
<path d="M82.253 63.9609C81.7586 65.5204 82.2109 67.058 83.2638 67.3919C84.3166 67.7258 85.5709 66.7332 86.0653 65.1737C86.5597 63.6141 86.1075 62.0766 85.0546 61.7426C84.0017 61.4087 82.7474 62.4013 82.253 63.9609Z" fill="#FFB27D"/>
<path d="M34.2265 133.319C35.8379 132.736 38.2348 132.662 38.1945 132.449C38.0334 131.587 30.9159 134.354 31.8772 133.095C32.4119 132.394 37.7385 129.912 39.0331 130.323C40.2892 130.721 48.5383 133.04 48.5383 133.04L71.0808 127.747C71.0808 127.747 76.77 114.791 77.3267 103.66C82.0308 104.297 85.2315 105.462 89.3203 107.735C87.3482 118.38 82.5581 135.635 77.2608 138.871C75.0323 140.232 48.4284 137.242 48.4284 137.242C48.4284 137.242 42.5653 136.827 41.6076 136.458C40.8807 136.178 39.0112 135.123 37.9931 134.835C35.6804 134.178 31.5586 135.825 31.5458 135.372C31.5367 135.042 32.5822 133.919 34.2284 133.323L34.2265 133.319Z" fill="#FFB27D"/>
<path d="M77.1906 91.765C77.4066 88.3394 78.7012 85.0332 82.3396 83.9672C84.5936 83.3066 87.1224 83.9378 88.9242 85.413C91.0665 87.167 91.6653 89.9797 91.6561 92.642C91.6342 98.6876 91.2222 104.957 90.1199 110.909C86.0329 108.636 81.2611 107.269 76.557 106.632C76.5588 106.597 76.9049 96.2895 77.1924 91.7631L77.1906 91.765Z" fill="#DEDEDE"/>
<path d="M151.714 130.047L186.662 123.526C187.364 123.396 187.827 122.719 187.697 122.016L183.319 98.4594C183.189 97.7567 182.513 97.2925 181.812 97.4228L146.864 103.944C146.162 104.074 145.699 104.751 145.829 105.454L150.207 129.01C150.337 129.713 151.013 130.177 151.714 130.047Z" fill="#B0D0FF"/>
<path d="M168.35 103.114L178.988 101.129C179.69 100.999 180.153 100.322 180.023 99.619L179.357 96.0339C179.227 95.3312 178.551 94.867 177.85 94.9972L167.211 96.9825C166.51 97.1127 166.046 97.7898 166.176 98.4925L166.843 102.078C166.973 102.78 167.649 103.245 168.35 103.114Z" fill="#B0D0FF"/>
<path d="M150.123 129.146C150.305 129.79 150.947 130.19 151.605 130.067L186.78 123.504C187.434 123.381 187.889 122.783 187.831 122.117L185.991 101.001C185.96 100.637 185.775 100.304 185.485 100.082C185.194 99.8613 184.824 99.7733 184.467 99.8393L145.39 107.131C145.033 107.197 144.72 107.411 144.527 107.722C144.335 108.032 144.282 108.406 144.381 108.756L150.123 129.144V129.146Z" fill="#4999F5"/>
<path d="M118.847 35.8633L156.403 49.2865C157.613 49.7195 158.945 49.0865 159.377 47.8737L166.309 28.4013C166.741 27.1885 166.11 25.8546 164.899 25.4216L127.344 11.9984C126.133 11.5654 124.802 12.1984 124.37 13.4111L117.438 32.8818C117.005 34.0946 117.637 35.4284 118.847 35.8615V35.8633Z" fill="#4999F5"/>
<path d="M143.742 30.8581C142.361 34.7368 144.379 39.0045 148.252 40.3879C152.123 41.7713 156.382 39.7494 157.763 35.8689C159.143 31.9901 157.125 27.7224 153.253 26.339C149.382 24.9556 145.123 26.9775 143.742 30.8581Z" fill="white"/>
<path d="M149.686 29.8139C149.28 30.957 149.875 32.2156 151.015 32.6248C152.156 33.0321 153.412 32.4358 153.821 31.2927C154.229 30.1497 153.632 28.891 152.491 28.4819C151.351 28.0745 150.094 28.6708 149.686 29.8139Z" fill="#4999F5"/>
<path d="M151.403 34.2383L149.695 33.628C148.343 33.1448 146.855 33.8519 146.373 35.2067L146.108 35.9498L152.714 38.3106L152.978 37.5675C153.46 36.2126 152.755 34.7215 151.403 34.2383Z" fill="#4999F5"/>
<path d="M142.815 26.7865C143.216 26.7865 143.575 26.5333 143.708 26.1553C143.884 25.6618 143.626 25.1169 143.134 24.9407L126.716 19.0731C126.613 19.0364 126.505 19.0181 126.397 19.0181C125.996 19.0181 125.637 19.2713 125.504 19.6492C125.328 20.1428 125.586 20.6877 126.079 20.8639L142.496 26.7315C142.599 26.7682 142.707 26.7865 142.815 26.7865Z" fill="white"/>
<path d="M138.383 30.8874C138.784 30.8874 139.143 30.6342 139.277 30.2563C139.453 29.7627 139.194 29.2178 138.702 29.0416L125.879 24.4584C125.776 24.4217 125.668 24.4033 125.56 24.4033C125.159 24.4033 124.8 24.6565 124.667 25.0345C124.582 25.273 124.595 25.5317 124.703 25.7611C124.811 25.9904 125.004 26.1647 125.242 26.2491L138.065 30.8324C138.167 30.8691 138.275 30.8874 138.383 30.8874Z" fill="white"/>
<path d="M43.495 172.734H134.178C136.994 172.734 139.277 175.022 139.277 177.843V182.141C139.277 184.962 136.994 187.25 134.178 187.25H43.495L43.5426 187.201C47.4227 183.155 47.4007 176.755 43.495 172.735V172.734Z" fill="#3B3B3B"/>
<path d="M45.1021 174.882H93.5801C96.3963 174.882 98.6797 177.17 98.6797 179.992C98.6797 182.814 96.3963 185.102 93.5801 185.102H45.1039C46.8855 181.939 46.8837 178.045 45.1039 174.884L45.1021 174.882Z" fill="#DEDEDE"/>
<path d="M50.226 7.67334C48.8124 8.80356 46.3551 12.4401 43.2185 14.9923C41.3837 16.4858 39.9701 16.106 37.6282 16.3885C26.5171 17.7334 29.5274 20.0104 28.1944 20.2342C28.5734 21.1076 32.0342 28.4797 32.6806 29.9714C33.2775 31.3456 34.3084 31.9621 35.8026 31.7548C38.1006 31.4374 40.4187 31.1988 42.682 30.7089C48.481 29.4485 51.7074 26.5422 55.864 23.0121C56.9663 22.0763 57.2373 20.9076 56.666 19.5847C54.0054 13.4254 50.5117 8.24029 50.2242 7.67334H50.226Z" fill="#0059C2"/>
<path d="M26.9912 29.1055C27.0407 31.5311 26.8558 32.0192 27.8958 31.6504C28.522 31.4284 29.1281 31.1403 29.7196 30.8339C30.1371 30.6174 30.1535 30.333 29.8148 29.9917C29.3222 29.4945 28.815 29.012 28.3206 28.5294C28.6813 27.5772 28.2675 26.4708 27.3794 25.9497C27.1982 25.8433 27.33 26.069 25.7827 22.5003C30.9006 21.8673 34.5097 21.4435 40.7537 20.6747C42.4237 20.4692 43.9068 19.8197 45.1978 18.7372C49.6565 14.9979 54.1152 11.2605 58.572 7.51756C59.1763 7.00933 59.2532 6.26624 58.7735 5.69379C58.4072 5.25528 57.9202 5.2351 57.3965 5.30115C55.9719 5.48096 42.0025 7.21849 40.5834 7.38546C38.7194 7.60379 37.0787 8.30651 35.6377 9.51563C31.2577 13.1907 26.8649 16.8547 22.4794 20.5224C21.877 21.0252 21.7141 21.4875 21.9265 22.0471C22.159 22.6618 22.6662 22.9554 23.4335 22.7902C23.9864 22.671 24.2318 22.8379 24.4222 23.3517C25.2829 25.6727 25.8834 26.1864 25.6747 27.0341C25.5136 27.6872 26.2899 28.8211 26.9912 29.1037V29.1055Z" fill="#0071F5"/>
<path d="M184.956 58.0347L183.253 61.4107L179.404 61.2877L177.761 65.2068L173.704 63.8069L171.651 68.159L167.756 67.3315L165.097 71.1955L166.557 72.2028L168.544 69.3149L172.654 70.1864L174.628 66.0049L178.754 67.4269L180.566 63.1005L184.324 63.2234L185.902 60.0933L188.354 60.6914L188.773 58.9649L184.956 58.0347Z" fill="#0059C2"/>
</svg>
