<svg width="65" height="60" viewBox="0 0 65 60" fill="none" xmlns="http://www.w3.org/2000/svg">
<g id="&#208;&#151;&#208;&#189;&#208;&#176;&#208;&#186;">
<g id="Group 6">
<g id="Group 3">
<path id="&#226;&#130;&#189;" d="M15.2715 21.4277V21.583H15.4268H18.0568V23.2475H15.4268H15.2715V23.4028V25.7481V25.9033H15.4268H18.0568V28.5796V28.7348H18.212H20.9528H21.108V28.5796V25.9033H24.966H25.1213V25.7481V23.4028V23.2475H24.966H21.108V21.583H24.8325C26.2203 21.583 27.3945 21.3392 28.348 20.8431L28.3483 20.843C29.3034 20.3431 30.0266 19.6631 30.5115 18.8022C31.0004 17.9387 31.2435 16.9696 31.2435 15.8989C31.2435 14.8402 31.0034 13.8748 30.5212 13.006C30.0427 12.1331 29.3226 11.4409 28.3676 10.9289C27.4135 10.4141 26.2326 10.1613 24.8325 10.1613H18.212H18.0568V10.3165V18.9361H15.4268H15.2715V19.0913V21.4277ZM24.797 18.9361H21.108V12.826H24.8325C25.6099 12.826 26.2407 12.9656 26.7336 13.235L26.7348 13.2357C27.2316 13.5016 27.5966 13.8634 27.8362 14.3211C28.0783 14.7838 28.2011 15.3115 28.2011 15.9078C28.2011 16.5102 28.0782 17.0373 27.8368 17.4933C27.5981 17.9382 27.2311 18.2914 26.7284 18.5519C26.2286 18.8049 25.5875 18.9361 24.797 18.9361Z" fill="#0071F5" stroke="#0071F5" stroke-width="0.3105"/>
</g>
</g>
<path id="Subtract" fill-rule="evenodd" clip-rule="evenodd" d="M37.2433 24.6163C37.9249 22.8897 38.2995 21.0074 38.2995 19.0365C38.2995 10.6522 31.5194 3.86945 23.1729 3.86945C14.8264 3.86945 8.0462 10.6522 8.0462 19.0365C8.0462 26.286 13.1152 32.3381 19.8828 33.8437L15.2125 36.326C8.69732 33.3085 4.17676 26.7015 4.17676 19.0365C4.17676 8.52294 12.6816 0 23.1729 0C33.6641 0 42.169 8.52294 42.169 19.0365C42.169 20.0902 42.0836 21.1239 41.9193 22.131L37.2433 24.6163Z" fill="#0071F5"/>
<path id="Subtract_2" fill-rule="evenodd" clip-rule="evenodd" d="M54.6439 31.0576H45.1924V59.517H54.6439V31.0576ZM33.5693 37.2375H43.0209V59.517H33.5693V37.2375ZM31.3988 43.4239H21.9473V59.517H31.3988V43.4239ZM19.7758 49.5795H10.3242V59.517H19.7758V49.5795Z" fill="url(#paint0_linear_50_198)"/>
<g id="Group 2">
<rect id="Rectangle 5" width="3.94363" height="14.3671" transform="matrix(-0.955827 -0.293931 0.292792 -0.956176 60.7939 29.0315)" fill="#0071F5"/>
<rect id="Rectangle 6" width="3.95057" height="14.3419" transform="matrix(0.292792 -0.956176 0.955827 0.293931 50.1348 14.8558)" fill="#0071F5"/>
<rect id="Rectangle 8" width="3.94945" height="70.5925" transform="matrix(-0.467781 -0.883844 0.88302 -0.469335 1.84766 51.0966)" fill="#0071F5"/>
</g>
</g>
<defs>
<linearGradient id="paint0_linear_50_198" x1="8.69489" y1="59.517" x2="55.646" y2="32.8199" gradientUnits="userSpaceOnUse">
<stop stop-color="#CC003D"/>
<stop offset="1" stop-color="#D16981"/>
</linearGradient>
</defs>
</svg>
