<svg width="33" height="32" viewBox="0 0 33 32" fill="none" xmlns="http://www.w3.org/2000/svg">
<g id="&#208;&#152;&#208;&#186;&#208;&#190;&#208;&#189;&#208;&#186;&#208;&#176;">
<circle id="Ellipse 8" cx="16.1074" cy="16" r="16" fill="#0071F5"/>
<path id="Vector" d="M20.6097 17.8503C20.3591 17.7252 19.1268 17.1225 18.8973 17.0385C18.6671 16.9554 18.5 16.9143 18.3322 17.1644C18.166 17.4138 17.6852 17.9754 17.5393 18.1416C17.3934 18.3087 17.2466 18.3288 16.9961 18.2046C16.7455 18.0786 15.9375 17.8159 14.9801 16.9663C14.2352 16.3048 13.7317 15.4879 13.5857 15.2378C13.4398 14.9884 13.5706 14.8533 13.6954 14.729C13.8084 14.6174 13.9468 14.4377 14.0716 14.2925C14.1973 14.1464 14.2386 14.0423 14.323 13.8752C14.4065 13.709 14.3651 13.5638 14.3019 13.4387C14.2386 13.3136 13.7376 12.0854 13.5292 11.5859C13.3251 11.0998 13.1184 11.1662 12.9649 11.1578C12.8047 11.1514 12.6444 11.1486 12.4841 11.1494C12.3171 11.1494 12.0455 11.2115 11.8161 11.4617C11.5866 11.711 10.9388 12.3146 10.9388 13.5428C10.9388 14.7702 11.8371 15.9564 11.962 16.1234C12.0877 16.2897 13.73 18.8099 16.2445 19.8903C16.8425 20.1472 17.309 20.3008 17.6734 20.415C18.274 20.6056 18.8206 20.5787 19.2516 20.5141C19.7333 20.4427 20.7345 19.9105 20.9437 19.3278C21.1529 18.7452 21.1529 18.2457 21.0896 18.1416C21.0272 18.0375 20.861 17.9754 20.6097 17.8503ZM16.0361 24.0652H16.0328C14.5396 24.0653 13.0738 23.6657 11.7891 22.9083L11.4846 22.7287L8.32899 23.5531L9.17081 20.4906L8.97259 20.1766C8.13788 18.8537 7.69631 17.3228 7.69889 15.7608C7.69973 11.1855 11.4407 7.46309 16.0395 7.46309C18.2664 7.46309 20.36 8.32778 21.934 9.89598C22.7106 10.6655 23.3261 11.5806 23.745 12.5885C24.1639 13.5963 24.3777 14.6768 24.3742 15.7675C24.3717 20.3428 20.6316 24.0652 16.0361 24.0652ZM23.1326 8.70472C22.2032 7.77364 21.0974 7.03539 19.8793 6.53275C18.6611 6.03011 17.3548 5.77307 16.0361 5.77652C10.5069 5.77652 6.0068 10.2553 6.00427 15.7599C6.00427 17.5195 6.46567 19.2372 7.34377 20.7508L5.91992 25.9247L11.2383 24.5361C12.709 25.3336 14.3571 25.7515 16.0319 25.7517H16.0361C21.5645 25.7517 26.0655 21.273 26.068 15.7675C26.0721 14.4556 25.8148 13.1559 25.3109 11.9436C24.8071 10.7313 24.0667 9.63042 23.1326 8.70472Z" fill="white"/>
</g>
</svg>
